<svg width="581" height="432" viewBox="0 0 581 432" fill="none" xmlns="http://www.w3.org/2000/svg">
<path d="M169.194 6.99434L171.673 6.00223L169.293 4.36526L171.524 3.27394C173.11 3.27394 174.052 5.25815 175.738 4.41486C176.283 3.37315 174.944 3.07552 174.994 2.33144C175.051 1.59222 175.184 0.860825 175.391 0.14881C176.184 0.14881 177.225 0.148815 177.82 0.793683C178.781 1.41089 179.9 1.73809 181.042 1.73618C183.273 2.03382 185.553 2.03382 187.982 2.18263C187.982 1.43855 188.379 0.744078 188.528 0L191.403 0.644864C191.75 0.644864 192.246 0.644864 192.394 0.644864C194.08 2.52986 195.864 1.63698 197.649 0.942502C198.064 0.766813 198.496 0.633839 198.938 0.545651C202.359 1.19052 204.143 3.8196 206.721 5.20855C207.118 5.20855 207.365 6.10144 207.663 6.54789C208.244 7.53031 209.061 8.35282 210.038 8.94158C211.016 9.53033 212.125 9.8669 213.265 9.92105C215.76 10.0287 218.185 10.7806 220.304 12.1037C220.904 12.5419 221.589 12.8481 222.315 13.002C223.042 13.1559 223.792 13.154 224.518 12.9966L225.658 14.3855C226.798 13.8826 228.031 13.6229 229.277 13.6229C230.523 13.6229 231.755 13.8826 232.896 14.3855C234.086 14.9808 235.424 15.4272 236.614 16.0225C239.224 17.1504 241.976 17.9181 244.793 18.3043C248.809 19.098 252.824 19.8421 256.79 20.8838C259.332 21.3592 261.897 21.7069 264.474 21.9255C267.526 22.2417 270.497 23.0983 273.248 24.4554V24.4554C272.406 25.5963 271.117 25.1995 270.076 25.0506C266.903 24.7034 263.829 24.0089 260.657 23.5129C259.215 23.2636 257.757 23.1144 256.294 23.0664C253.921 22.8892 251.576 22.4399 249.305 21.7271C245.518 20.9 241.673 20.3693 237.803 20.1397H236.862C236.748 20.2278 236.657 20.3407 236.594 20.4696C236.531 20.5986 236.498 20.7402 236.498 20.8838C236.498 21.0274 236.531 21.169 236.594 21.298C236.657 21.4269 236.748 21.5398 236.862 21.6279C237.952 22.3223 238.894 23.5129 240.381 23.5129C240.381 23.5129 240.629 23.5129 240.679 23.5129C242.934 24.794 245.472 25.493 248.065 25.5467C251.812 26.523 255.649 27.1048 259.517 27.2829C260.075 27.327 260.625 27.4438 261.152 27.6301C264.673 28.5694 268.333 28.8718 271.959 28.523C273.397 28.523 274.884 28.2254 276.322 28.523C277.238 28.566 278.152 28.4159 279.006 28.0827C279.86 27.7494 280.634 27.2403 281.279 26.5884V26.5884C281.725 26.9356 282.072 27.3325 282.519 27.6301C282.795 27.7988 283.123 27.8616 283.442 27.8069C283.761 27.7522 284.049 27.5836 284.254 27.3325C284.799 26.5884 284.254 26.1916 283.708 25.7947C284.268 25.722 284.834 25.722 285.394 25.7947C288.555 25.8329 291.701 26.2492 294.763 27.0348C297.119 27.4236 299.452 27.9369 301.753 28.5726C302.001 28.5726 302.398 28.5726 302.745 28.5726C303.759 28.3152 304.821 28.3071 305.84 28.5489C306.858 28.7908 307.803 29.2754 308.594 29.9616C311.073 28.3742 313.056 30.4576 315.237 30.7552C315.237 31.6481 314.89 31.5985 314.444 31.6481H313.849C310.74 32.6634 307.39 32.6634 304.281 31.6481C303.605 31.5998 302.926 31.5998 302.249 31.6481C301.251 31.736 300.244 31.6522 299.274 31.4001C298.16 31.2015 297.018 31.2015 295.903 31.4001C295.364 31.3767 294.827 31.4814 294.336 31.7056C293.845 31.9297 293.414 32.267 293.078 32.6898C293.078 32.9875 293.375 33.4835 293.722 33.7316C295.278 34.9205 297.228 35.4705 299.175 35.2693C302.596 35.2693 305.917 35.7158 309.338 35.7158C311.599 35.7953 313.843 36.1281 316.03 36.7079C316.03 36.7079 315.733 37.1047 316.03 37.2535C316.328 37.4023 316.377 37.6504 316.575 37.8488C316.774 38.0472 316.575 37.8488 316.575 37.8488C316.636 37.6719 316.636 37.48 316.575 37.3031C316.43 37.1474 316.264 37.0137 316.08 36.9063C316.625 36.9063 317.319 36.5591 317.716 36.9063C318.61 37.2856 319.571 37.481 320.541 37.481C321.512 37.481 322.473 37.2856 323.367 36.9063C324.807 36.4454 326.323 36.2768 327.829 36.4102C329.067 36.4845 330.309 36.4845 331.547 36.4102C331.795 36.4102 332.092 36.063 332.538 35.7158C332.231 35.3888 331.881 35.1052 331.497 34.8725C329.564 34.3268 327.581 33.7812 325.598 33.3347C324.823 33.2603 324.043 33.2603 323.268 33.3347C321.222 33.4057 319.183 33.0684 317.27 32.3426C317.27 32.3426 317.27 31.9954 316.972 31.7969C318.261 30.7552 319.798 31.797 321.136 31.3009C321.682 31.3009 322.574 31.3009 322.623 31.3009C322.701 31.0455 322.834 30.8107 323.014 30.6137C323.194 30.4167 323.416 30.2626 323.663 30.1627C323.911 30.0627 324.177 30.0195 324.443 30.0362C324.709 30.0529 324.968 30.1291 325.201 30.2592C327.313 31.0143 329.556 31.3349 331.795 31.2017C332.594 31.2692 333.389 31.3851 334.174 31.5489C334.601 31.623 335.036 31.623 335.463 31.5489C337.868 30.8124 340.45 30.8997 342.8 31.7969C343.998 32.0969 345.237 32.1975 346.468 32.0946C347.261 32.0946 347.361 32.6402 347.509 33.1859L349.492 33.93L345.923 34.4756C345.576 36.1622 345.923 36.7575 346.766 36.9559C348.212 37.1782 349.667 37.3272 351.128 37.4023C352.268 37.4023 353.409 37.4023 354.45 37.8488C354.551 37.8939 354.661 37.9172 354.772 37.9172C354.883 37.9172 354.993 37.8939 355.094 37.8488C357.216 37.3775 359.416 37.3775 361.539 37.8488C363.373 36.8567 364.761 37.8488 366.099 38.9401C367.24 38.196 366.347 37.7496 366.099 37.2535C367.686 37.2535 369.222 37.2535 370.809 37.6504C371.314 37.6328 371.816 37.7362 372.273 37.9519C372.73 38.1676 373.129 38.4894 373.436 38.8905C373.565 39.1445 373.783 39.3413 374.049 39.4423C374.315 39.5433 374.609 39.5411 374.874 39.4362C375.964 39.1385 377.105 39.4362 378.146 38.9897C379.187 38.5433 379.484 38.9897 379.93 39.6842L378.641 40.0314C377.204 40.6267 376.906 41.6684 377.303 43.2558C379.435 43.2558 381.566 43.2558 383.648 43.2558C384.877 43.0615 386.136 43.214 387.283 43.6959C388.43 44.1778 389.42 44.9702 390.143 45.984C390.389 46.3807 390.778 46.6683 391.229 46.7882C391.681 46.908 392.161 46.851 392.572 46.6289C392.919 46.6289 393.117 46.0337 393.414 45.736L392.522 44.8927C392.522 44.8927 392.77 44.4959 392.869 44.4959H394.902C395.893 44.4959 396.884 44.4959 397.876 44.4959C399.44 44.4139 401.005 44.6328 402.486 45.1408C403.811 45.6352 405.169 46.0331 406.551 46.3313C408.013 46.3579 409.474 46.2416 410.914 45.984C412.036 45.9829 413.153 46.1331 414.235 46.4305C416.073 47.0394 418.038 47.159 419.936 46.7777C420.184 49.3572 420.878 49.8037 423.158 49.1092H424.051V49.7044H424.745H428.364C429.903 50.0413 431.335 50.7574 432.528 51.7879C432.776 51.7879 432.875 52.5815 432.875 53.028C432.875 53.4744 432.875 54.8634 432.875 55.7563C431.933 56.3515 430.991 56.9468 430.148 57.5917C430.016 57.7058 429.915 57.8513 429.854 58.0148C429.792 58.1784 429.773 58.3547 429.798 58.5276C429.823 58.7004 429.89 58.8643 429.995 59.0042C430.099 59.144 430.237 59.2553 430.396 59.3279C430.687 59.5102 431.005 59.6442 431.338 59.7247C432.987 59.8673 434.646 59.8673 436.295 59.7247C437.041 59.4751 437.849 59.4864 438.588 59.7568C439.327 60.0272 439.951 60.5406 440.36 61.2128C442.667 60.9787 444.998 61.2322 447.201 61.9569C450.136 62.2301 453.09 62.2301 456.025 61.9569V61.9569C455.793 62.4361 455.675 62.9623 455.678 63.4947C455.906 64.091 456.206 64.6573 456.571 65.1813L461.528 66.4214C461.528 66.9671 461.528 67.4631 461.528 67.9592C461.486 68.3597 461.603 68.7607 461.853 69.0761C462.103 69.3914 462.467 69.596 462.867 69.6457C463.808 69.6457 464.899 69.6457 465.692 70.4394C463.26 71.1122 460.666 70.865 458.405 69.745C456.169 68.8812 453.809 68.3789 451.415 68.2568C450.638 68.109 449.833 68.2315 449.135 68.604C448.554 69.0596 447.863 69.3543 447.132 69.4588C446.401 69.5633 445.656 69.4738 444.971 69.1993C443.817 68.8783 442.604 68.8369 441.432 69.0784C440.259 69.32 439.161 69.8375 438.229 70.5883C438.047 70.663 437.891 70.7901 437.782 70.9535C437.672 71.1169 437.614 71.3092 437.614 71.5059C437.614 71.7027 437.672 71.8949 437.782 72.0583C437.891 72.2217 438.047 72.3489 438.229 72.4236L441.897 74.5071L444.376 73.8126C445.69 73.4464 447.073 73.3994 448.41 73.6755C449.746 73.9515 450.997 74.5427 452.06 75.3999C452.605 75.7472 453.051 76.3424 453.795 76.0944C454.433 75.9198 455.049 75.67 455.629 75.3503L456.323 74.8047C456.564 74.8894 456.783 75.0247 456.967 75.2015C458.008 77.4338 459.892 77.4834 461.925 77.0369C462.47 77.0369 462.966 76.6897 463.511 76.5409C464.056 76.392 464.453 76.0944 464.8 76.1936C467.626 77.0865 470.055 74.8543 472.781 75.1023C473.029 75.1023 473.525 74.5071 473.525 74.2094C473.456 74.0092 473.345 73.8259 473.2 73.6719C473.055 73.5179 472.878 73.3968 472.682 73.3165C471.589 72.9461 470.404 72.9461 469.311 73.3165C468.641 73.4867 467.963 73.6192 467.279 73.7134C466.981 72.4236 466.783 71.3323 466.585 70.241C469.013 70.7378 471.5 70.8881 473.971 70.6874C474.661 70.7101 475.345 70.8269 476.003 71.0347L480.961 71.63C482.002 71.63 483.241 71.2827 483.985 72.5724C484.179 72.6616 484.391 72.7078 484.605 72.7078C484.818 72.7078 485.03 72.6616 485.224 72.5724C486.364 72.0764 487.455 71.4315 488.595 70.8363C489.289 70.8363 490.082 71.6299 490.727 71.4811C491.884 71.1256 492.998 70.6432 494.048 70.0426L496.626 71.1339C496.155 71.9884 495.59 72.7871 494.941 73.5149C494.26 74.2045 493.749 75.043 493.448 75.9642C493.147 76.8853 493.064 77.864 493.205 78.8227C493.205 80.5093 493.205 82.1959 493.205 83.7832C493.509 84.1395 493.912 84.3962 494.363 84.5201C494.814 84.6439 495.291 84.6292 495.734 84.4777C497.469 83.9817 499.253 83.5848 500.939 83.1384C502.029 84.2297 500.939 85.4202 501.336 86.71L504.161 88.9918C503.616 90.8768 503.12 92.7122 500.79 93.1586C500.344 93.1586 499.997 93.8531 499.551 94.2499C500.195 95.7381 501.534 96.2837 502.525 97.1766C502.647 97.8491 502.647 98.538 502.525 99.2105C502.303 100.229 502.49 101.295 503.047 102.177C503.603 103.059 504.484 103.686 505.5 103.923C507.066 104.56 508.509 105.466 509.763 106.602C510.193 106.982 510.696 107.271 511.242 107.45C511.787 107.63 512.364 107.695 512.936 107.643C514.859 107.588 516.75 107.132 518.488 106.304C520.13 105.609 521.915 105.32 523.693 105.461C525.874 107.098 525.032 109.479 525.626 111.661H522.057C521.413 112.405 521.016 113.398 519.727 113.348C518.438 113.298 518.587 114.042 518.488 114.737C518.389 115.133 518.429 115.55 518.6 115.92C518.772 116.29 519.064 116.59 519.43 116.771L521.561 117.862C522.315 118.297 523.17 118.527 524.04 118.527C524.91 118.527 525.765 118.297 526.519 117.862C527.286 117.392 528.151 117.103 529.047 117.019C530.272 116.678 531.441 116.16 532.517 115.481L535.739 116.771C536.35 116.093 537.168 115.638 538.066 115.477C538.963 115.315 539.888 115.456 540.697 115.878C541.424 116.187 542.169 116.452 542.928 116.671C545.406 117.564 546.199 117.366 548.331 115.332L547.191 111.463L550.413 108.883C550.325 107.611 549.878 106.39 549.124 105.362C548.574 104.243 547.944 103.166 547.24 102.137C546.447 101.046 545.456 100.054 544.415 98.8632C544.415 98.516 544.415 97.8215 544.117 97.1766C543.82 96.5318 543.671 95.9365 543.423 95.2917L544.96 92.9106C545.854 93.2687 546.646 93.8401 547.268 94.5751C547.89 95.3101 548.323 96.1862 548.529 97.127C548.553 97.2989 548.615 97.4634 548.709 97.609C548.803 97.7547 548.928 97.878 549.075 97.9703C550.661 98.6152 550.81 99.8553 550.859 101.294C551.041 102.066 551.436 102.77 552 103.328C552.991 104.419 554.131 105.411 555.222 106.403C555.498 106.75 555.855 107.023 556.263 107.197C557.75 107.643 558.642 108.933 559.832 109.776C560.196 110.064 560.486 110.435 560.675 110.858C560.865 111.281 560.95 111.744 560.923 112.207C560.328 112.802 559.436 113.298 559.138 114.042C558.841 114.787 559.138 115.531 559.436 116.275C559.733 117.019 558.692 116.622 558.295 116.622C556.659 116.622 556.164 116.969 556.114 118.557C556.116 119.062 556.012 119.562 555.807 120.024C555.601 120.485 555.301 120.898 554.924 121.235L551.058 125.204C551.058 126.196 551.702 127.237 551.058 128.428C550.935 128.675 550.872 128.946 550.872 129.222C550.872 129.497 550.935 129.769 551.058 130.015C551.401 130.509 551.643 131.065 551.771 131.652C551.898 132.24 551.909 132.847 551.801 133.438C551.718 133.721 551.743 134.025 551.871 134.291C552 134.557 552.222 134.766 552.495 134.877C552.82 134.987 553.173 134.977 553.491 134.85C553.809 134.723 554.071 134.486 554.23 134.182C554.603 133.602 554.918 132.988 555.172 132.347C555.47 131.9 555.717 131.404 556.064 130.809C557.051 131.127 557.931 131.712 558.605 132.501C559.278 133.289 559.721 134.249 559.882 135.273C560.179 136.365 560.278 137.506 560.477 138.696C559.584 140.135 559.584 140.135 560.03 142.516L569.945 144.45C570.327 145.051 570.741 145.63 571.184 146.187C572.374 147.675 572.87 147.724 574.704 146.98L576.043 146.385C577.431 147.228 578.769 148.617 581 146.931C580.703 148.072 580.703 148.468 580.504 148.617C578.918 150.232 577.075 151.573 575.051 152.586C574.54 152.82 574.044 153.085 573.564 153.379C571.418 154.506 569.799 156.43 569.053 158.737C568.826 159.78 568.71 160.844 568.706 161.911C566.805 163.277 564.718 164.363 562.509 165.136C560.756 165.786 559.09 166.652 557.552 167.715C556.08 168.875 554.396 169.734 552.594 170.245C551.7 170.437 550.866 170.846 550.165 171.436C548.728 172.874 548.43 175.057 547.389 176.793C547.098 177.361 546.946 177.99 546.946 178.628C546.946 179.267 547.098 179.896 547.389 180.464C547.389 180.464 547.389 180.91 547.389 181.109C546.497 183.44 544.316 184.631 542.68 186.069C542.271 186.473 541.758 186.757 541.198 186.888C540.638 187.019 540.053 186.994 539.507 186.813C538.286 186.502 537.043 186.287 535.789 186.168C534.498 185.893 533.157 185.974 531.908 186.402C530.66 186.83 529.551 187.59 528.7 188.599C528.476 188.84 528.227 189.056 527.956 189.244L527.709 189.79C528.006 190.782 528.303 191.972 528.65 193.312L524.387 194.453C523.297 195.693 524.387 196.635 524.685 197.677L523.792 198.173C522.95 198.421 522.454 197.826 521.859 197.379L521.214 196.883L520.719 197.478C519.678 198.272 518.488 197.478 517.397 197.826C516.307 198.173 516.406 199.165 516.951 199.859C517.351 200.41 517.872 200.861 518.474 201.18C519.075 201.498 519.741 201.674 520.421 201.695C520.873 201.686 521.315 201.567 521.71 201.348C523.727 200.419 525.816 199.656 527.956 199.066C529.668 198.517 531.474 198.332 533.261 198.52C533.835 198.545 534.384 198.765 534.816 199.144C535.249 199.522 535.539 200.037 535.64 200.604V200.604H536.582C536.582 200.604 536.582 201.149 536.582 201.248C535.174 202.855 534.322 204.873 534.153 207.003H533.062C531.724 206.705 531.823 207.995 531.278 208.59C530.336 208.59 529.344 207.846 528.353 208.59H527.659H528.155L528.75 209.88L526.767 210.326C526.404 210.394 526.059 210.534 525.752 210.738C525.446 210.943 525.184 211.208 524.982 211.517C524.66 211.999 524.225 212.396 523.716 212.672C523.206 212.949 522.637 213.097 522.057 213.104C521.392 213.189 520.751 213.409 520.173 213.749C520.173 215.039 519.925 216.031 519.826 217.023C519.826 217.023 519.331 216.477 519.331 217.023H519.826C520.037 217.256 520.205 217.525 520.322 217.817C520.669 218.561 521.066 218.809 521.809 218.313C522.553 217.817 522.206 218.313 522.404 218.313C521.89 218.722 521.343 219.087 520.768 219.404C520.14 219.617 519.493 219.767 518.835 219.85C518.438 222.132 518.488 222.231 516.654 222.827C514.819 223.422 514.72 224.216 513.382 224.315C512.043 224.414 512.49 225.952 513.134 226.299C513.653 226.526 514.114 226.866 514.483 227.296C514.852 227.725 515.119 228.232 515.266 228.779L513.927 230.466C513.634 230.308 513.367 230.108 513.134 229.871C512.539 228.829 511.944 227.837 510.507 228.333L510.16 229.722L506.789 228.73C506.268 229.722 506.144 230.874 506.442 231.954V231.954C505.984 232.534 505.569 233.148 505.202 233.789C504.905 234.286 504.607 233.789 504.359 233.789C503.44 233.846 502.545 234.107 501.739 234.553C500.932 234.999 500.236 235.619 499.7 236.369C499.154 237.014 499.7 238.502 500.592 238.502C502.63 238.744 504.601 239.384 506.392 240.387C507.78 240.387 509.069 238.849 510.705 240.387C510.203 241.208 509.449 241.845 508.556 242.203C507.662 242.561 506.677 242.62 505.748 242.371C505.202 244.207 508.078 244.851 507.036 246.736C506.33 246.552 505.682 246.191 505.154 245.688C504.625 245.185 504.232 244.556 504.012 243.859C503.986 243.683 503.915 243.516 503.806 243.375C503.697 243.233 503.554 243.123 503.389 243.053C503.225 242.983 503.046 242.957 502.868 242.976C502.691 242.996 502.522 243.061 502.377 243.165C502.377 243.909 502.377 244.703 502.377 245.447C502.377 246.191 502.377 246.538 502.724 246.736C504.806 248.324 504.508 251.102 505.995 252.987C506.342 253.433 505.995 254.376 505.401 254.227C504.919 254.074 504.404 254.058 503.914 254.18C503.424 254.303 502.977 254.559 502.624 254.921C501.902 255.321 501.137 255.637 500.344 255.864C501.343 258.737 503.048 261.312 505.301 263.354C505.711 263.746 506.23 264.005 506.789 264.098C508.694 264.195 510.577 264.546 512.39 265.14C513.048 265.239 513.716 265.239 514.373 265.14C516.555 265.14 517.645 265.686 517.843 267.719C517.843 268.712 517.843 269.704 518.141 270.993L516.208 272.829L516.951 274.615L533.162 271.489C533.162 272.928 533.41 274.119 533.558 275.408H537.623C537.871 275.756 538.119 275.904 538.169 276.053C538.169 277.194 538.168 278.335 538.416 279.426C538.664 280.518 540.102 280.716 540.35 282.055C540.598 283.395 541.738 283.444 542.63 284.238C542.085 285.194 541.361 286.036 540.498 286.718C539.755 287.462 538.863 288.008 538.218 288.752C537.715 289.522 537.032 290.159 536.23 290.608C535.427 291.057 534.527 291.306 533.608 291.332C530.069 292.873 526.331 293.909 522.503 294.407C522.171 294.434 521.849 294.533 521.558 294.695C521.268 294.858 521.015 295.081 520.818 295.35C520.311 296.115 519.646 296.764 518.868 297.251C518.09 297.739 517.216 298.054 516.307 298.177C516.11 298.138 515.908 298.138 515.712 298.177C513.977 298.921 513.531 300.112 514.472 301.699C514.776 302.178 515.124 302.626 515.513 303.038V303.038C515.216 303.038 514.72 303.038 514.621 303.485C514.442 304.177 514.102 304.817 513.628 305.351C513.154 305.886 512.56 306.3 511.895 306.56V312.215C513.338 313.086 514.426 314.439 514.968 316.035C514.814 316.303 514.589 316.523 514.318 316.672C514.047 316.821 513.74 316.892 513.431 316.878C512.539 316.878 511.647 317.126 510.705 317.176C510.115 317.244 509.544 317.428 509.025 317.717C508.506 318.007 508.049 318.396 507.681 318.862L508.325 321.045L506.194 321.988C506.01 322.638 505.982 323.323 506.111 323.986C506.24 324.649 506.523 325.273 506.937 325.807C507.206 326.015 507.54 326.12 507.879 326.105C509.813 325.51 510.804 326.799 511.795 328.089C512.787 329.379 513.184 330.123 513.878 331.115H516.208C516.544 331.582 516.765 332.122 516.851 332.692C516.938 333.261 516.887 333.843 516.703 334.389C516.009 335.232 515.216 334.686 514.472 334.786C512.574 335.213 510.589 335.003 508.821 334.19C508.424 333.893 507.73 334.19 507.136 334.19C505.891 334.216 504.65 334.315 503.418 334.488C502.563 334.675 501.719 334.907 500.889 335.183C499.997 336.274 502.079 337.316 500.245 337.762C500.386 338.026 500.552 338.275 500.741 338.506C501.986 339.266 503.399 339.709 504.855 339.796C507.703 339.773 510.513 340.455 513.035 341.78C515.797 343.121 518.839 343.784 521.908 343.715C523.036 343.765 524.138 344.071 525.131 344.608C526.232 345.362 527.483 345.87 528.799 346.096C529.251 346.124 529.69 346.26 530.078 346.493C530.466 346.726 530.793 347.049 531.03 347.435V347.435C530.782 347.435 530.237 347.832 530.237 348.03C529.951 350.228 530.034 352.458 530.485 354.628C531.526 355.421 532.765 356.314 534.302 355.521C535.839 354.727 536.136 353.685 535.789 351.056C536.233 350.992 536.685 351.093 537.059 351.34C537.434 351.587 537.705 351.962 537.821 352.396C537.821 353.04 538.169 353.735 538.317 354.38C538.466 355.025 538.615 355.719 538.714 356.314C538.02 357.207 537.474 357.951 536.88 358.646C536.204 359.425 535.788 360.396 535.69 361.424C535.69 361.969 535.69 362.565 535.69 363.11C535.284 365.337 534.252 367.402 532.715 369.063C530.355 371.509 527.746 373.704 524.932 375.611C522.107 377.496 519.678 379.976 517.001 382.06C515.713 383.006 514.354 383.852 512.936 384.589C510.06 386.177 507.136 387.665 504.26 389.55C501.385 391.435 498.559 392.328 495.684 393.667C491.665 395.196 487.56 396.488 483.39 397.536C480.564 398.429 477.788 399.372 475.062 400.513C471.876 401.77 468.545 402.62 465.147 403.043C462.011 403.572 458.95 404.471 456.025 405.721C455.708 405.848 455.408 406.015 455.133 406.217C453.908 407.561 452.267 408.452 450.473 408.747C450.473 409.144 450.225 409.541 450.077 409.987C449.988 410.503 449.739 410.977 449.365 411.342C448.991 411.707 448.512 411.945 447.995 412.021C446.543 412.287 445.15 412.808 443.88 413.559C443.469 413.721 443.104 413.983 442.819 414.32C442.533 414.658 442.336 415.061 442.244 415.493C442.122 415.943 441.876 416.348 441.534 416.664C441.192 416.98 440.768 417.193 440.311 417.279C438.993 417.639 437.651 417.904 436.295 418.073C433.377 418.554 430.392 418.435 427.521 417.726C427.174 417.726 426.777 417.726 426.529 417.726C424.648 416.887 422.56 416.628 420.531 416.982C418.498 416.982 416.466 416.982 414.384 416.982C411.448 416.816 408.502 416.999 405.609 417.527C403.23 416.684 400.9 417.527 398.52 417.527C396.277 417.553 394.04 417.752 391.828 418.122C388.308 418.569 384.838 419.164 381.318 419.462C378.277 419.534 375.252 419.933 372.296 420.652C371.106 421.049 369.916 420.256 368.677 421.148C367.565 421.705 366.35 422.026 365.108 422.091L361.39 422.686C360.714 422.762 360.033 422.762 359.357 422.686C356.383 422.686 353.557 423.678 350.633 423.777H350.285C344.224 425.28 337.987 425.948 331.745 425.762C327.829 426.109 323.813 425.762 319.847 426.059C318.36 426.803 316.873 425.712 315.237 426.357C313.596 426.635 311.921 426.635 310.28 426.357C308.693 426.357 307.107 426.357 305.57 426.357C304.191 426.276 302.813 426.531 301.555 427.101C299.003 428.054 296.297 428.525 293.574 428.49C289.905 428.49 286.286 428.887 282.767 428.49C282.332 429.264 281.698 429.906 280.931 430.351C280.163 430.796 279.291 431.027 278.404 431.02C274.438 431.02 270.522 431.615 266.556 431.665H265.515H253.716H244.248C243.504 431.02 242.81 432.062 242.067 431.665C242.067 431.119 242.067 430.871 241.422 431.119L240.927 431.814H227.294C221.726 432.128 216.144 432.045 210.588 431.566C209.241 431.535 207.894 431.652 206.572 431.913C205.433 431.987 204.291 431.987 203.152 431.913C201.714 431.913 200.227 431.417 198.789 431.417C194.774 431.417 190.808 431.069 186.842 430.821C182.876 430.573 179.356 430.474 175.638 430.226C173.132 430.087 170.633 429.822 168.153 429.432C166.963 429.432 165.823 428.589 164.633 428.292C163.991 428.069 163.292 428.069 162.65 428.292C161.51 429.234 160.469 428.292 159.428 428.292C157.296 427.994 157.148 427.647 158.089 425.166L161.312 424.571C162.141 424.361 163.011 424.37 163.836 424.596C164.661 424.822 165.414 425.258 166.021 425.861C166.498 426.344 167.13 426.643 167.806 426.704C170.681 426.704 173.507 426.704 176.333 426.704H176.779L178.167 424.571C178.167 424.571 177.77 424.026 177.473 423.976L165.129 421.496C162.402 420.95 159.725 420.057 156.949 419.511C154.173 418.966 152.686 418.767 150.604 418.271C149.737 418.048 148.891 417.749 148.076 417.378L148.522 416.585C148.522 416.188 149.067 415.741 148.968 415.394C148.808 414.857 148.477 414.387 148.026 414.055C147.526 413.809 146.991 413.641 146.44 413.559C145.168 413.411 143.938 413.009 142.823 412.379C141.707 411.749 140.729 410.902 139.946 409.888L138.161 411.128L126.759 408.152C126.013 407.909 125.322 407.522 124.727 407.011C124.132 406.366 123.785 405.473 123.14 404.878C122.399 404.411 121.599 404.044 120.761 403.787C121.223 403.489 121.723 403.255 122.248 403.092C122.701 403.049 123.128 402.862 123.467 402.558C123.805 402.255 124.039 401.851 124.132 401.406C124.132 400.661 124.627 399.967 125.321 399.868C127.106 399.868 127.751 398.38 128.395 396.991C128.395 396.594 128.742 396.197 128.891 395.751H128.643C128.643 394.213 127.156 393.568 126.561 392.328C126.561 391.931 125.619 391.782 125.074 391.633C123.785 391.286 122.397 391.088 121.108 390.691C120.481 390.476 119.894 390.158 119.373 389.748C118.629 389.153 118.629 389.004 119.125 387.169C121.009 387.169 122.942 386.524 123.487 384.242C124.033 381.96 124.38 380.125 121.504 378.438C122.726 378.512 123.951 378.512 125.173 378.438C125.526 378.433 125.868 378.314 126.148 378.098C126.428 377.882 126.631 377.582 126.726 377.241C126.821 376.9 126.803 376.538 126.675 376.208C126.547 375.879 126.315 375.599 126.015 375.412C124.815 374.177 123.283 373.316 121.603 372.932C120.042 372.726 118.469 372.61 116.894 372.585L115.605 371.246C115.605 370.948 115.605 370.65 115.605 370.551C116.894 369.361 118.282 368.22 119.72 366.98C119.319 366.106 119.18 365.134 119.321 364.183C119.462 363.232 119.876 362.342 120.513 361.622C120.615 361.361 120.775 361.128 120.981 360.938C121.188 360.749 121.434 360.61 121.703 360.531C123.289 360.531 123.983 359.191 124.826 358.199C124.826 357.406 124.826 356.662 124.578 355.918C120.557 354.086 116.353 352.689 112.036 351.751L108.02 351.007C108.02 350.362 108.02 350.114 108.714 350.163L111.441 350.56C112.187 350.74 112.967 350.715 113.7 350.488C114.433 350.261 115.091 349.84 115.605 349.27V346.641C116.15 346.294 116.646 345.699 117.241 345.649C117.811 345.636 118.359 345.426 118.792 345.056C119.226 344.685 119.518 344.177 119.621 343.615C119.621 343.219 120.166 342.921 120.414 342.524C121.604 342.524 122.744 342.524 123.884 342.524C124.39 342.521 124.89 342.403 125.345 342.179C125.8 341.956 126.198 341.633 126.511 341.234C126.813 340.856 127.016 340.409 127.103 339.933C127.189 339.457 127.156 338.966 127.007 338.506C126.349 338.225 125.641 338.08 124.925 338.08C124.209 338.08 123.501 338.225 122.843 338.506C122.228 338.922 121.503 339.144 120.761 339.144C120.019 339.144 119.294 338.922 118.679 338.506C118.022 337.966 117.199 337.671 116.349 337.671C115.499 337.671 114.675 337.966 114.019 338.506C113.239 338.302 112.477 338.036 111.738 337.712C110.909 337.363 110.006 337.227 109.111 337.316C107.76 337.317 106.413 337.167 105.096 336.869C101.179 336.075 97.3125 335.331 93.3466 334.835C92.3551 334.835 91.3142 334.835 90.3227 334.835C89.3312 334.835 88.2406 334.835 87.3979 334.141C87.2066 334.041 86.994 333.989 86.7782 333.989C86.5624 333.989 86.3498 334.041 86.1585 334.141C83.4647 334.531 80.7208 334.396 78.0781 333.744C74.013 333.397 69.948 332.851 65.9325 332.504C64.6708 332.504 63.4112 332.604 62.1651 332.802C61.2734 332.851 60.3797 332.851 59.488 332.802C58.794 332.802 58.1992 332.802 57.8026 333.446C57.406 334.091 56.7119 333.744 56.2162 333.446C54.5053 332.921 52.846 332.24 51.2589 331.413C49.7448 330.496 48.0565 329.904 46.3015 329.676C45.0126 329.676 43.5254 329.676 42.5835 328.436L43.9219 327.147C42.286 324.716 40.898 322.186 37.4775 321.839L36.7834 319.359C36.4502 319.04 36.0509 318.799 35.6138 318.653C35.1767 318.508 34.7127 318.46 34.2552 318.515C33.9095 318.564 33.5577 318.485 33.2658 318.293C32.9739 318.102 32.7617 317.81 32.6688 317.473C32.5586 317.032 32.3215 316.632 31.9867 316.323C31.6519 316.015 31.2342 315.811 30.785 315.737C29.4806 315.404 28.285 314.737 27.315 313.803C27.2479 313.279 27.334 312.748 27.5628 312.272C27.7916 311.797 28.1531 311.398 28.6038 311.124C29.3749 310.637 30.0401 309.999 30.5596 309.249C31.0791 308.499 31.4425 307.652 31.6278 306.759C31.9439 305.667 32.6731 304.742 33.6604 304.179C35.6433 302.939 35.792 302.145 35.3458 299.864C35.2653 299.474 35.099 299.107 34.8589 298.789C34.6187 298.472 34.3109 298.212 33.9578 298.028C33.1106 297.609 32.2098 297.309 31.2808 297.135C30.7355 297.135 30.1406 297.135 29.5953 296.838C26.6705 296.143 26.72 295.25 26.9183 293.316C26.8945 292.853 26.8945 292.389 26.9183 291.927C26.1932 290.76 25.2154 289.77 24.057 289.032C22.8987 288.294 21.5894 287.825 20.2259 287.661C19.6666 287.582 19.1372 287.36 18.6891 287.016C17.2326 285.844 15.5422 284.999 13.7318 284.536C12.6131 284.282 11.5939 283.704 10.8006 282.875C10.0073 282.046 9.47508 281.002 9.2702 279.873C9.08301 278.851 8.58013 277.914 7.83253 277.194C6.98978 276.4 7.23772 275.656 8.37791 275.16C9.5181 274.664 11.3027 273.87 12.7899 273.325C13.3302 273.148 13.8132 272.829 14.1882 272.401C14.5632 271.974 14.8166 271.453 14.9216 270.894C15.3221 269.972 15.8385 269.106 16.4584 268.315C16.7303 267.981 16.9292 267.594 17.0422 267.179C17.1552 266.763 17.1796 266.329 17.1142 265.903C17.0488 265.478 16.8949 265.071 16.6623 264.709C16.4298 264.346 16.1238 264.037 15.7643 263.801C14.3267 262.66 12.7403 261.717 11.2531 260.676C10.5926 260.245 9.99249 259.727 9.46853 259.138C8.43504 257.773 7.15751 256.613 5.70091 255.715C5.03158 255.314 4.53643 254.677 4.31286 253.929C3.41329 251.843 2.74826 249.664 2.32995 247.431C2.32832 246.739 2.1819 246.054 1.90015 245.422C1.61841 244.79 1.20749 244.224 0.693949 243.76C0.297362 243.462 0.198293 242.768 0 242.272C0.313423 241.226 0.887247 240.277 1.66762 239.513C2.448 238.749 3.40934 238.197 4.46157 237.907L7.5351 236.617C8.61959 236.239 9.75791 236.038 10.9062 236.022C12.3323 235.885 13.6821 235.314 14.7729 234.385C12.443 232.351 10.5591 229.722 7.08896 230.168L5.75053 228.432C6.24626 227.837 6.59317 227.291 7.03933 226.795C8.18242 225.878 9.07032 224.683 9.61725 223.323C9.86203 222.681 10.2617 222.109 10.7806 221.659C11.2996 221.209 11.9218 220.894 12.5917 220.743C17.0037 219.255 21.614 218.362 25.9269 216.626C27.1417 216.324 28.3977 216.224 29.6449 216.328C30.9338 216.328 31.4296 215.386 30.7356 214.295C30.2932 213.671 29.8131 213.074 29.2979 212.509C25.7286 212.509 22.655 214.691 18.9865 213.749V210.277C18.508 210.242 18.0276 210.242 17.549 210.277L9.76596 211.269C9.13576 211.295 8.52597 211.5 8.00802 211.86C7.49006 212.22 7.08537 212.721 6.84115 213.302C6.49963 214.014 6.0478 214.667 5.50257 215.237C5.28869 215.411 5.11569 215.631 4.99576 215.879C4.87584 216.128 4.81199 216.4 4.80862 216.676C4.80862 217.916 3.86675 218.164 2.97443 218.313C2.80835 218.365 2.63308 218.381 2.46021 218.361C2.28734 218.341 2.12076 218.284 1.9711 218.196C1.82145 218.107 1.69213 217.987 1.59168 217.845C1.49123 217.703 1.42185 217.541 1.38805 217.37C1.09061 216.18 0.892242 214.939 0.693949 213.6C2.18115 212.459 2.62741 210.425 4.36248 209.384C4.63491 209.175 4.86288 208.914 5.03313 208.616C5.20338 208.318 5.3124 207.988 5.35386 207.648C5.40638 206.731 5.71236 205.846 6.23752 205.093C6.76268 204.34 7.48644 203.747 8.32829 203.381L8.67534 202.935C8.17961 201.447 9.36942 200.157 9.81558 198.57L9.07186 197.478C7.23765 194.949 7.23765 194.949 4.11452 194.899C4.11452 193.907 4.95731 193.857 5.55219 193.758L10.9557 193.014C14.4258 192.518 17.9455 192.419 21.4652 192.121L33.3629 190.98C33.5759 190.945 33.7773 190.859 33.9499 190.73C34.1226 190.6 34.2612 190.431 34.3543 190.236C34.343 190.021 34.2837 189.812 34.1808 189.623C34.0778 189.434 33.9339 189.271 33.7595 189.145C32.9292 188.585 32.0686 188.072 31.1817 187.607L29.397 186.615V185.524C29.397 184.879 29.397 184.085 29.397 183.589C29.1355 183.212 28.7746 182.915 28.3545 182.731C27.9344 182.547 27.4717 182.484 27.0175 182.547C25.7782 182.547 24.5389 182.994 23.2995 183.192C22.3068 183.45 21.2958 183.633 20.2755 183.738C16.4226 183.305 12.5274 184.012 9.07186 185.772C8.60356 185.979 8.09701 186.087 7.58472 186.087C7.07243 186.087 6.56588 185.979 6.09758 185.772C5.7304 185.334 5.52905 184.781 5.52905 184.209C5.52905 183.638 5.7304 183.084 6.09758 182.646C6.38098 182.288 6.75775 182.015 7.18638 181.858C7.61502 181.7 8.07883 181.664 8.52663 181.754C9.89231 181.728 11.2529 181.578 12.5917 181.307C14.5526 180.731 16.6074 180.546 18.6396 180.761C19.3139 180.856 19.9978 180.856 20.672 180.761C21.3218 180.589 22.0053 180.589 22.6551 180.761C24.3217 181.144 26.0687 180.952 27.6124 180.216C28.2123 180.016 28.7463 179.657 29.1569 179.176C29.5675 178.695 29.8391 178.111 29.9424 177.488C30.0925 176.235 30.0925 174.97 29.9424 173.718C29.8878 173.106 29.694 172.516 29.3761 171.992C29.0582 171.467 28.6243 171.022 28.108 170.692C28.1381 169.928 28.3637 169.185 28.7629 168.534C29.1622 167.882 29.722 167.344 30.3885 166.971C31.0895 166.447 31.8944 166.078 32.7493 165.89C33.6043 165.701 34.4895 165.698 35.3458 165.88C36.3335 166.129 37.3526 166.229 38.3697 166.178C40.5416 166.103 42.6952 166.599 44.616 167.616C45.1009 167.916 45.6398 168.119 46.2024 168.211C50.0691 168.955 54.035 169.501 57.9513 169.898C60.1325 169.898 62.2641 170.245 64.3958 170.592C69.3531 171.485 74.3104 171.485 79.2678 171.932C81.8825 172.219 84.5282 171.983 87.0508 171.237C87.6249 170.976 88.1726 170.66 88.6867 170.295C87.9863 169.247 87.0331 168.393 85.9153 167.812C84.7974 167.231 83.5511 166.942 82.2918 166.971C81.4623 167.181 80.5926 167.173 79.7673 166.947C78.9421 166.721 78.1893 166.285 77.5823 165.681V165.681H80.5567C82.4901 165.681 84.4234 165.681 86.3567 165.681C89.3807 165.681 92.4544 165.037 95.4784 164.987C97.9666 164.846 100.421 164.345 102.766 163.499C104.479 162.897 106.261 162.513 108.07 162.358C109.359 162.358 109.359 162.358 110.995 160.969C110.995 160.076 110.301 159.878 109.607 159.778C105.554 159.168 101.443 159.051 97.362 159.431C95.4292 159.346 93.4972 159.615 91.6611 160.225C90.9919 160.375 90.2978 160.375 89.6286 160.225C87.4991 159.877 85.3366 159.777 83.1841 159.927C80.132 160.253 77.0467 160.051 74.0626 159.332C74.0626 158.638 74.4592 158.638 74.8558 158.588L83.3328 157.645C84.126 157.645 84.9192 157.645 85.7124 157.645C88.554 158.02 91.4422 157.518 93.9911 156.207C94.6966 155.9 95.4261 155.651 96.1723 155.463C96.5978 155.169 96.9815 154.818 97.3126 154.421C97.3126 153.379 96.4697 153.33 95.8253 153.33C94.0036 153.331 92.1834 153.431 90.3723 153.627C88.7284 153.866 87.0589 153.866 85.415 153.627C84.1756 153.627 82.8867 153.627 81.6474 153.627C81.01 153.471 80.3941 153.238 79.8132 152.933C81.0856 152.258 82.4896 151.869 83.9277 151.792C85.2166 151.445 86.6047 151.395 87.497 150.304C87.497 149.51 86.9517 149.461 86.5551 149.461C85.6477 149.386 84.7359 149.386 83.8286 149.461C81.8883 149.592 79.9392 149.476 78.0284 149.113C77.0094 148.964 75.974 148.964 74.9549 149.113C72.6745 149.113 70.3942 149.411 68.1634 149.113C64.0488 149.113 59.9837 149.51 55.8691 149.609C54.9768 149.609 54.035 149.907 53.1923 149.312C52.3495 148.716 52.3991 148.667 52.3991 148.369C52.4656 147.826 52.7095 147.321 53.093 146.931C53.5462 146.577 54.1046 146.385 54.6794 146.385C58.5234 146.055 62.3356 145.425 66.0812 144.5C67.5508 144.395 68.9923 144.043 70.3446 143.458C71.4133 143.071 72.5315 142.837 73.666 142.764C75.3097 142.539 76.9647 142.406 78.6233 142.367C80.257 142.279 81.7896 141.548 82.8867 140.333L82.1926 138.2C81.942 138.067 81.6754 137.967 81.3994 137.903L63.9496 138.399H62.2641C60.5291 138.399 60.2812 137.853 60.0829 135.373C64.3116 135.074 68.3842 133.653 71.8814 131.255C71.6055 130.963 71.2881 130.712 70.9395 130.511C68.2027 129.728 65.354 129.41 62.512 129.569L57.5546 129.172C58.7939 128.031 60.3308 128.478 61.7684 128.279C64.9173 127.983 68.0066 127.231 70.9395 126.047C71.9807 125.609 73.0853 125.341 74.2113 125.253C75.2853 125.274 76.3479 125.031 77.307 124.547C78.266 124.063 79.0922 123.352 79.7139 122.475C80.3264 121.69 81.0066 120.959 81.7464 120.293C81.7942 119.31 81.4759 118.345 80.8531 117.585C80.2303 116.824 79.3473 116.322 78.3755 116.175C76.4182 115.636 74.5362 114.852 72.7737 113.844C71.8642 113.345 70.8743 113.009 69.8489 112.852C69.0036 112.752 68.2119 112.386 67.5882 111.806C66.9645 111.227 66.5409 110.464 66.3787 109.628C66.1308 108.487 65.9326 107.395 65.7343 106.254C65.536 105.113 65.3376 103.824 65.1393 102.435C64.3844 102.18 63.6026 102.013 62.8094 101.939C62.1364 101.933 61.4784 101.74 60.9092 101.38C60.34 101.021 59.8821 100.51 59.5871 99.9049V99.9049L61.9667 98.268C61.8799 97.3804 61.971 96.4844 62.2349 95.6326C62.4988 94.7807 62.9301 93.9902 63.5035 93.3074C64.0488 92.7122 63.9992 91.5713 64.2967 90.728C64.4431 89.9984 64.8047 89.3296 65.3349 88.8079C65.8652 88.2862 66.5397 87.9355 67.2711 87.8013C68.2694 87.5757 69.2129 87.1542 70.0472 86.5611C70.2933 86.4104 70.4966 86.199 70.6377 85.9471C70.7787 85.6952 70.8528 85.4113 70.8528 85.1226C70.8528 84.8338 70.7787 84.5499 70.6377 84.2981C70.4966 84.0462 70.2933 83.8348 70.0472 83.684C69.3044 83.1742 68.4578 82.8354 67.5685 82.6919C66.1348 82.3559 64.6756 82.1402 63.2061 82.047C61.6254 81.8591 60.1214 81.2606 58.8436 80.3109C57.6042 79.4676 56.6128 78.6243 56.811 77.0369C57.0093 75.4496 55.6709 75.4496 55.423 74.3086C56.593 73.3101 58.0178 72.6574 59.5377 72.4236C60.4982 72.3639 61.4354 72.1035 62.2893 71.6592C63.1431 71.215 63.8945 70.5967 64.495 69.8442L63.5035 66.5206C62.0163 64.9332 59.9838 65.9749 57.8026 65.2805L61.1735 64.2388C61.1735 64.2388 61.471 64.2388 61.5206 63.8915C62.7103 61.5601 62.6112 61.064 60.7274 59.6255L59.6368 58.8318L57.8026 57.8397C57.7153 57.3453 57.7612 56.8366 57.9354 56.3659C58.1096 55.8951 58.4059 55.4792 58.7939 55.161C59.5268 54.6383 60.1361 53.961 60.5787 53.1768C60.6848 52.63 60.9832 52.1392 61.4197 51.7935C61.8562 51.4477 62.402 51.2697 62.9582 51.2918C63.4044 51.2918 63.8009 50.6469 64.2471 50.2997C64.7874 49.8357 65.4214 49.4936 66.1057 49.2967C66.7901 49.0998 67.5089 49.0528 68.213 49.1588C70.3567 49.3563 72.5138 49.3563 74.6575 49.1588V49.1588C76.4033 49.615 78.2174 49.7494 80.0113 49.5556C81.8773 49.4566 83.7472 49.4566 85.6132 49.5556C86.9808 49.6426 88.3345 49.238 89.4304 48.4147C90.4714 47.5218 92.1073 47.8691 93.3962 48.0675C94.1366 48.1647 94.8867 48.1647 95.6271 48.0675C96.7768 47.942 97.9342 48.2228 98.8989 48.8612C99.1819 49.0403 99.5063 49.1428 99.8407 49.1588C102.964 49.5556 106.087 50.0517 109.26 50.3493C110.039 50.3286 110.809 50.517 111.49 50.895C111.782 51.0958 112.128 51.1999 112.482 51.1926C117.786 51.1926 123.041 52.3335 128.345 52.1847C129.036 52.085 129.737 52.085 130.428 52.1847C131.863 52.5657 133.385 52.4431 134.74 51.8375C136.237 51.2461 137.903 51.2461 139.4 51.8375C140.663 52.3235 142.033 52.4606 143.366 52.2343C145.742 52.0609 148.128 52.0609 150.505 52.2343C151.223 52.314 151.951 52.2354 152.636 52.004C153.321 51.7726 153.947 51.3941 154.471 50.895C154.471 50.7409 154.44 50.5883 154.379 50.4466C154.319 50.3048 154.231 50.1768 154.119 50.0702C154.008 49.9635 153.876 49.8806 153.732 49.8262C153.588 49.7719 153.435 49.7474 153.281 49.7541C151 49.4068 148.77 49.01 146.489 48.8115C144.613 48.4313 142.702 48.2485 140.788 48.2659C140.275 48.2968 139.761 48.225 139.276 48.0547C138.79 47.8843 138.344 47.6188 137.963 47.2738C137.033 46.4533 135.831 46.0109 134.592 46.0337C133.673 45.9781 132.761 45.8453 131.865 45.6368C131.328 45.5033 130.844 45.2092 130.477 44.7935C130.358 44.5994 130.199 44.4324 130.011 44.3032C129.823 44.1741 129.61 44.0857 129.386 44.0436C129.162 44.0016 128.932 44.0069 128.71 44.0591C128.488 44.1114 128.279 44.2095 128.098 44.3471C126.412 45.5376 124.776 44.7935 123.14 44.3471C121.851 42.1644 119.125 43.2558 117.439 41.966C117.117 41.8634 116.77 41.8634 116.448 41.966C111.49 42.3629 106.236 41.5196 101.13 41.4204C100.573 41.4474 100.021 41.3094 99.5433 41.0235C96.4472 39.0245 92.7198 38.2467 89.0834 38.8409C88.6595 38.9403 88.2183 38.9403 87.7944 38.8409C86.1298 38.0855 84.3174 37.7126 82.49 37.7496C79.7635 37.7496 77.037 37.4519 74.3104 37.1543C72.5221 36.8112 70.6749 36.9481 68.9566 37.5511C68.4504 37.6628 67.926 37.6628 67.4198 37.5511V35.6165C67.5346 34.8306 67.4884 34.0294 67.2838 33.2619C67.0793 32.4944 66.7206 31.7765 66.23 31.1521C65.2881 30.2096 65.7343 29.2671 66.9737 28.9694C70.4133 27.8714 74.0532 27.5495 77.6319 28.027C80.8046 28.027 83.9773 28.4238 87.1005 28.8206C88.8851 28.8206 90.6697 29.3663 92.4543 29.5151C93.0125 29.6346 93.5597 29.8006 94.0903 30.0112C94.7348 30.0112 95.4287 30.656 96.0236 30.5568C98.3971 30.4824 100.765 30.8353 103.013 31.5985C103.921 31.672 104.833 31.672 105.74 31.5985C107.898 31.5686 110.05 31.8357 112.135 32.3922C113.458 32.6746 114.8 32.857 116.15 32.9379C116.597 32.9379 117.142 32.9379 117.538 32.9379C120.662 34.6741 124.181 33.682 127.453 34.5252C129.093 34.782 130.751 34.8982 132.41 34.8725C135.581 34.9565 138.743 35.2381 141.879 35.7158C145.894 36.4598 149.959 36.5095 154.025 37.0055C154.8 37.0556 155.579 37.0556 156.354 37.0055C159.984 36.7802 163.628 36.98 167.211 37.6008C168.088 37.7138 168.979 37.6491 169.831 37.4104C170.682 37.1718 171.477 36.7642 172.168 36.2118C172.377 36.022 172.545 35.7927 172.664 35.5372C172.783 35.2818 172.851 35.0053 172.862 34.7237C172.795 33.998 172.646 33.2823 172.416 32.5906L150.356 29.0191C149.454 28.8577 148.544 28.7418 147.63 28.6718C144.901 28.5156 142.185 28.1842 139.499 27.6797C136.822 27.1837 134.046 27.0844 131.32 26.8364L128.99 26.4892C123.77 25.2404 118.47 24.3618 113.126 23.8601C110.896 23.8601 108.665 23.1656 106.384 22.868C104.104 22.5704 100.931 22.372 98.2545 22.1735C95.5775 21.9751 92.6031 21.7271 89.7278 21.5783C88.0423 21.5783 86.3568 21.5783 84.7705 21.5783C84.7705 18.602 84.3739 17.9075 82.5893 16.6178C82.0041 16.0738 81.2536 15.7419 80.4576 15.6753C77.6815 15.6753 75.1037 14.6832 72.3772 14.5839C70.8985 14.4303 69.4062 14.6877 68.0643 15.328C66.9313 15.75 65.7721 16.0979 64.5941 16.3697C63.3548 13.7903 64.0983 12.1037 66.5274 11.7564C67.1995 11.7176 67.8651 11.6011 68.5104 11.4092C68.8661 11.2378 69.2557 11.1487 69.6505 11.1487C70.0453 11.1487 70.4351 11.2378 70.7908 11.4092C71.9559 11.8674 73.2143 12.0375 74.4592 11.9053C75.6975 11.6421 76.9846 11.7279 78.1772 12.1533C78.9703 12.5005 80.1601 12.1533 81.1516 11.8556C81.6228 11.6592 82.1282 11.558 82.6387 11.558C83.1492 11.558 83.6548 11.6592 84.126 11.8556C84.543 12.0032 84.998 12.0032 85.415 11.8556C87.076 11.6059 88.7721 11.7417 90.3723 12.2525C93.0134 12.7892 95.7162 12.9561 98.4032 12.7485C100.131 12.52 101.807 12 103.361 11.2108C103.8 10.9154 104.318 10.7598 104.848 10.7643C107.209 11.0938 109.474 11.9224 111.49 13.195C112.266 13.645 113.078 14.0267 113.92 14.3359C115.616 15.0112 117.404 15.4291 119.224 15.576C121.909 15.7588 124.577 16.1401 127.205 16.717C128.839 17.04 130.498 17.2225 132.163 17.2626C133.841 17.329 135.505 17.5954 137.12 18.0563C138.735 18.5567 140.463 18.5567 142.077 18.0563C142.703 17.7532 143.286 17.3697 143.812 16.9154C142.033 15.2256 139.672 14.2844 137.219 14.2863C136.426 14.2863 135.633 14.2863 135.038 13.5422V13.8399C134.765 13.9546 134.46 13.9676 134.178 13.8766C133.896 13.7856 133.656 13.5966 133.501 13.3438V13.3438L134.889 11.3596C136.635 11.5344 138.389 11.6171 140.144 11.6076C141.681 11.6076 142.771 12.9966 144.308 12.5501C146.291 13.2942 148.324 12.5501 150.307 12.8974C152.289 13.2446 154.124 14.2367 156.107 14.5839C157.88 14.8413 159.669 14.9739 161.461 14.9808C162.134 14.878 162.819 14.878 163.493 14.9808C164.352 15.3445 165.296 15.4583 166.217 15.3091C167.138 15.1599 167.998 14.7538 168.698 14.1375C168.698 13.4926 168.698 12.6989 168.996 11.9053C170.202 11.2869 171.577 11.078 172.912 11.31H174.944C175.45 11.366 175.957 11.2204 176.356 10.9047C176.755 10.589 177.014 10.1286 177.076 9.62342C174.895 6.84552 174.944 6.54788 171.127 7.98644L167.905 7.04394L169.194 6.99434ZM214.702 16.8658H214.95H214.702ZM504.459 312.612L504.012 312.91L504.459 312.513L504.905 312.761V312.414L504.459 312.612ZM534.946 118.557C534.359 118.062 533.747 117.599 533.112 117.168C532.928 117.072 532.724 117.022 532.517 117.022C532.31 117.022 532.106 117.072 531.922 117.168C531.427 117.564 531.922 117.961 532.17 118.209C532.529 118.561 532.983 118.8 533.477 118.897C533.97 118.994 534.481 118.945 534.946 118.755H535.591L534.946 118.557ZM10.7573 206.953C11.3002 207.027 11.8505 207.027 12.3933 206.953C14.872 206.953 17.3507 206.308 19.8293 206.06C23.2823 205.324 26.832 205.157 30.3389 205.564C31.7111 205.719 33.0995 205.496 34.3543 204.919C35.081 204.626 35.852 204.459 36.6346 204.423L46.8469 203.977C47.5937 203.798 48.3113 203.514 48.9785 203.133C48.3836 202.687 48.0862 202.241 47.7392 202.191C47.0796 202.111 46.4107 202.214 45.8057 202.489C45.0009 202.919 44.0673 203.042 43.1784 202.836C42.2755 202.688 41.3654 202.588 40.4519 202.538H34.9988C33.5116 203.828 31.8261 203.133 30.0415 202.935C29.5984 202.861 29.1461 202.861 28.703 202.935C23.8078 203.314 18.9404 203.993 14.1284 204.969C13.2325 205.122 12.3638 205.406 11.5505 205.812C11.1044 205.812 10.9061 206.655 10.6086 207.102H10.3608L10.7573 206.953ZM124.429 347.187C125.421 347.365 126.398 347.613 127.354 347.931C128.044 348.266 128.779 348.499 129.535 348.626C133.818 349.16 138.036 350.124 142.127 351.503C142.655 351.678 143.206 351.778 143.763 351.8C145.101 351.8 146.44 351.8 147.828 351.8C149.216 351.8 149.265 351.8 149.811 349.568C149.293 349.165 148.746 348.8 148.175 348.477C147.778 348.477 147.183 347.981 146.935 348.13C145.457 348.728 143.804 348.728 142.325 348.13C137.963 347.336 133.65 346.344 129.337 345.451C128.457 345.246 127.562 345.113 126.66 345.054C126.102 344.958 125.532 344.958 124.974 345.054C124.28 345.054 124.082 345.649 124.181 346.294C124.245 346.597 124.328 346.895 124.429 347.187V347.187ZM350.186 47.125H354.896C355.472 47.0513 356.055 47.0513 356.631 47.125C359.535 47.6209 362.501 47.6209 365.405 47.125C366.422 46.951 367.462 46.951 368.479 47.125C371.592 47.7601 374.777 47.977 377.947 47.7698C379.875 47.7772 381.8 47.6112 383.698 47.2738C383.904 47.2053 384.094 47.0951 384.256 46.9501C384.418 46.805 384.549 46.6281 384.64 46.4305C384.703 46.2985 384.736 46.1542 384.737 46.0078C384.738 45.8614 384.707 45.7167 384.645 45.5839C384.583 45.4511 384.493 45.3337 384.381 45.2399C384.269 45.1461 384.137 45.0784 383.995 45.0415C382.339 44.3298 380.541 44.0074 378.741 44.0991C377.091 44.2392 375.433 44.2392 373.783 44.0991C372.098 44.0991 370.462 44.6447 368.826 44.0991C368.073 43.8262 367.249 43.8262 366.496 44.0991C365.084 44.5944 363.545 44.5944 362.133 44.0991C361.268 43.8113 360.367 43.6444 359.457 43.603C357.226 43.603 354.945 43.9502 352.665 44.0494C351.989 44.1232 351.308 44.1232 350.633 44.0494L341.263 42.6109C338.983 42.2636 336.752 41.9164 334.472 41.6684C332.681 41.3963 330.859 41.3963 329.068 41.6684C327.158 41.8916 325.228 41.8916 323.318 41.6684C320.095 41.6684 316.923 41.6684 313.75 41.3212C311.618 41.3212 309.487 41.0731 307.355 40.7755C306.359 40.5254 305.307 40.6306 304.38 41.0731C303.736 41.47 303.141 41.0731 302.447 41.0731C299.263 39.9795 295.888 39.5573 292.533 39.833C292.088 39.8834 291.639 39.8834 291.194 39.833L282.37 39.2377C281.611 39.1868 280.849 39.1868 280.09 39.2377C280.026 39.3804 279.991 39.5347 279.989 39.691C279.987 39.8474 280.018 40.0024 280.078 40.1467C280.138 40.2909 280.228 40.4211 280.341 40.5293C280.454 40.6374 280.587 40.7213 280.734 40.7755C282.915 41.7366 285.247 42.3074 287.625 42.4621C291.671 42.6032 295.699 43.0677 299.671 43.851C302.692 44.52 305.822 44.52 308.842 43.851C311.189 43.3525 313.638 43.7226 315.733 44.8927C316.598 45.4116 317.601 45.6539 318.608 45.5872C319.609 45.4839 320.621 45.5852 321.582 45.8848C323.67 46.4565 325.815 46.7894 327.977 46.8769C330.208 46.8769 332.389 46.5297 334.62 46.4801C336.851 46.4305 340.024 46.7777 342.75 46.7281C345.477 46.6785 347.559 46.9761 350.186 47.125ZM175.341 13.3438C174.845 14.5839 175.341 15.328 175.936 15.7249C178.232 17.244 180.98 17.9271 183.719 17.6595C185.412 17.2756 187.188 17.5599 188.676 18.4531C190.495 19.3847 192.583 19.648 194.575 19.1972C195.015 19.1302 195.427 18.9412 195.765 18.6516C195.765 18.6516 196.311 18.0563 196.261 17.8579C196.211 17.6595 195.815 16.965 195.517 16.9154C192.295 16.1713 189.073 15.5264 185.851 14.8816L184.264 14.4847C181.384 13.563 178.36 13.1763 175.341 13.3438ZM183.818 33.7316C184.215 35.815 184.264 35.7654 184.76 36.2118C187.659 38.3194 191.098 39.5582 194.675 39.7834C195.474 39.8043 196.269 39.652 197.005 39.3369C197.279 39.2562 197.512 39.0704 197.651 38.8198C197.79 38.5692 197.825 38.2738 197.748 37.9976C197.748 37.5511 197.748 37.1543 197.352 36.5094C195.369 35.777 193.351 35.1479 191.304 34.6245C188.825 34.2276 186.495 34.2276 183.818 33.7316V33.7316ZM129.783 338.407C129.783 341.234 129.783 341.185 131.766 342.028C133.228 342.621 134.761 343.021 136.327 343.219C138.26 343.219 140.194 343.715 142.077 343.963C142.517 344.066 142.979 344.007 143.38 343.798C143.78 343.589 144.092 343.242 144.259 342.822C144.282 342.369 144.146 341.922 143.874 341.56C143.603 341.197 143.212 340.942 142.771 340.838C142.425 340.814 142.077 340.814 141.73 340.838C140.54 340.838 139.301 340.342 138.062 340.242C137.139 340.313 136.212 340.171 135.352 339.827C134.493 339.483 133.724 338.946 133.105 338.258L129.783 338.407ZM201.764 18.4531C201.859 18.9383 202.026 19.4064 202.259 19.8421C202.884 20.5469 203.646 21.1171 204.498 21.5179C205.351 21.9187 206.275 22.1418 207.217 22.1735C208.005 22.1376 208.793 22.2383 209.547 22.4712C210.756 23.0747 212.067 23.4449 213.413 23.5625C213.611 23.591 213.811 23.591 214.008 23.5625L215.347 21.8759C214.801 21.4791 214.454 20.983 213.959 20.8342C212.025 20.2885 210.042 19.7925 208.059 19.346C206.077 18.8996 205.432 18.6516 204.093 18.4035C203.318 18.3157 202.535 18.3324 201.764 18.4531V18.4531ZM17.202 230.119L17.8464 233.839C18.5999 234.187 19.4453 234.284 20.2576 234.114C21.07 233.944 21.8063 233.517 22.3576 232.897C22.7826 232.613 23.0815 232.176 23.1923 231.677C23.3031 231.178 23.2173 230.655 22.9525 230.218C22.7643 229.701 22.4679 229.23 22.0832 228.836C21.6985 228.443 21.2343 228.136 20.7216 227.936L17.202 230.119ZM52.6469 213.947C51.0949 213.233 49.3969 212.893 47.6896 212.955C46.4579 213.242 45.1632 213.047 44.0707 212.41C42.1391 211.147 39.7864 210.701 37.5271 211.169C37.5271 211.169 37.0313 211.517 36.7339 211.765C36.4364 212.013 37.2296 212.41 37.5271 212.509L43.1784 213.699C44.2986 213.76 45.4107 213.926 46.4998 214.195C47.9557 214.663 49.4838 214.865 51.011 214.791C51.1102 214.84 51.6059 214.493 52.6469 213.947V213.947ZM373.337 42.0156C371.85 40.4283 370.66 39.5354 369.123 39.585C368.477 39.5274 367.829 39.6796 367.275 40.0191C366.722 40.3586 366.292 40.8673 366.05 41.47C366.595 41.8172 367.091 42.4125 367.636 42.4125C369.173 42.4125 370.809 42.214 373.337 42.0156ZM508.375 107.941C507.986 107.358 507.439 106.899 506.797 106.618C506.156 106.337 505.448 106.245 504.756 106.354C504.409 106.354 504.112 106.899 503.814 107.247C503.722 107.305 503.646 107.385 503.593 107.481C503.541 107.576 503.513 107.683 503.513 107.792C503.513 107.901 503.541 108.008 503.593 108.104C503.646 108.199 503.722 108.28 503.814 108.338C504.522 108.657 505.299 108.788 506.072 108.719C506.845 108.649 507.587 108.381 508.226 107.941H508.375ZM514.919 116.275C515.216 115.828 514.919 114.687 514.175 114.638C513.518 114.539 512.849 114.539 512.192 114.638C512.039 114.706 511.905 114.809 511.798 114.939C511.692 115.068 511.616 115.22 511.578 115.383C511.539 115.546 511.539 115.716 511.577 115.879C511.615 116.042 511.689 116.195 511.795 116.324C511.981 116.54 512.211 116.712 512.47 116.828C512.729 116.945 513.01 117.003 513.294 116.998C513.578 116.993 513.858 116.926 514.113 116.801C514.368 116.676 514.592 116.496 514.77 116.275H514.919ZM229.426 23.5129C228.484 22.2727 226.996 22.4712 225.807 21.9751C224.617 21.4791 224.32 21.3302 224.072 21.9751C223.824 22.62 224.865 22.5704 225.311 22.9176C225.86 23.3605 226.516 23.6492 227.213 23.7538C227.91 23.8584 228.623 23.7753 229.277 23.5129H229.426ZM463.362 235.129C462.625 234.829 461.862 234.596 461.082 234.434C460.785 234.434 460.388 234.93 460.239 235.278C460.09 235.625 460.239 235.873 460.636 236.071C461.627 236.815 462.272 235.972 463.362 235.129ZM524.238 347.683C524.249 348.278 524.367 348.866 524.585 349.419C524.726 349.561 524.899 349.666 525.088 349.726C525.278 349.787 525.48 349.801 525.676 349.766C525.853 349.657 526.006 349.512 526.125 349.342C526.244 349.171 526.327 348.978 526.37 348.774C526.366 348.628 526.328 348.485 526.26 348.355C526.191 348.226 526.093 348.115 525.974 348.03C525.407 347.861 524.826 347.745 524.238 347.683V347.683ZM204.341 15.328C203.449 14.6831 202.557 13.9887 201.268 14.6335C202.805 15.6256 202.805 15.6256 204.341 15.3776V15.328ZM220.75 23.8105C220.304 22.3224 219.61 22.1735 218.767 22.4216C217.925 22.6696 218.222 22.868 218.222 23.0664C218.222 23.2649 218.47 23.8105 218.668 23.8601C218.866 23.9097 219.907 23.8601 220.75 23.8601V23.8105ZM287.773 28.2254C287.773 28.2254 287.773 27.7293 287.773 27.6301C287.597 27.5696 287.405 27.5696 287.228 27.6301C287.228 27.6301 287.228 27.9277 286.931 28.0766L287.773 28.2254ZM127.651 356.662H126.809C126.809 356.662 126.809 356.662 126.809 356.959H127.651V356.662ZM555.817 115.481C555.519 115.481 555.271 115.481 555.172 115.481C555.103 115.656 555.103 115.851 555.172 116.027C555.172 116.027 555.47 116.027 555.618 116.324L555.817 115.481ZM510.556 115.134C510.375 115.109 510.192 115.109 510.011 115.134C510.011 115.134 510.011 115.134 510.011 115.431L510.407 115.729L510.556 115.134ZM92.5039 148.816L92.1569 148.27C92.1569 148.27 92.1568 148.27 91.8098 148.27C91.4628 148.27 91.8098 148.716 91.8098 148.816H92.5039Z" fill="#2FCC3F"/>
</svg>
