<svg id="Layer_1" data-name="Layer 1" xmlns="http://www.w3.org/2000/svg" viewBox="0 0 1189.68 120.04"><defs><style>.cls-1{fill:#fff;}</style></defs><title>head</title><path class="cls-1" d="M205.69,536.4c1,.46,4.32-1.89,4.8-3.39.26-.8-.26-1.09-1.77-1C206.58,532.26,204.18,535.69,205.69,536.4Z" transform="translate(0 -459.7)"/><path class="cls-1" d="M210.22,570.88a2.9,2.9,0,0,0,1.33.6c.28,0,.52-.23.55-.6s-.6-.58-1.33-.58S209.81,570.56,210.22,570.88Z" transform="translate(0 -459.7)"/><path class="cls-1" d="M139.45,548.48c0,.66.83,1.18,1.88,1.18s1.88-.52,1.88-1.18-.84-1.17-1.88-1.17S139.45,547.82,139.45,548.48Z" transform="translate(0 -459.7)"/><path class="cls-1" d="M197.87,522.38c.32-.25-.43-.27-1.68,0-3.89.65-4.44.92-2.84,1.36,1.19.34,1.24.88.19,2.3-.75,1-1,2.25-.66,2.72h0c1.44,1.77,6,.37,5.22-1.59-.53-1.36-.24-1.36,3.88-1.17s4.28.15,2.76-.71a4.5,4.5,0,0,0-2.88-.61C200.49,525,197,523.05,197.87,522.38Z" transform="translate(0 -459.7)"/><path class="cls-1" d="M177.62,532.52a2.73,2.73,0,0,0,2.14.26c.84-.25.72-.55-.36-.86C177.4,531.34,176.47,531.64,177.62,532.52Z" transform="translate(0 -459.7)"/><path class="cls-1" d="M207.54,576.93h0c-.5.38-.24.46.64.2,1.72-.5.69-1.55-1.47-1.48-1.07,0-1,.14.08.35C207.66,576.17,208,576.58,207.54,576.93Z" transform="translate(0 -459.7)"/><path class="cls-1" d="M206.7,538.54c.36-.42.32-.94-.1-1.13s-.71.15-.66.77S206.3,539,206.7,538.54Z" transform="translate(0 -459.7)"/><path class="cls-1" d="M292.54,514.39c-2.58-2.2-3.5-2.51-7.25-2.51-3,0-4.29-.27-4.29-.91s-1.18-.84-5.39-.68c-6.94.28-10.26,1.14-9.24,2.41.65.8,2,.9,7.71.58,5.43-.31,7-.21,7.07.44l.31,1.7c.1.48,1.9,1.15,4,1.47a54.54,54.54,0,0,1,8.38,2.22c3.91,1.36,4.73,1.51,6.3.76s2.16-.65,4.48.6c1.47.79,2.67,1.7,2.67,2h0c0,.74.69.74,3.46,0,1.19-.3,3.18-.69,4.41-.87,3.18-.48,2.23-3.59-1.1-3.62a18.85,18.85,0,0,1-4.27-.59,44,44,0,0,0-8.1-.57C295.7,516.89,295.4,516.76,292.54,514.39Zm-1.72,1.82c-.36.76-.78.78-2.65.12-2.06-.72-2.07-.8-.14-1.15a6.81,6.81,0,0,1,2.66-.11h0c.3.13.36.65.13,1.14Z" transform="translate(0 -459.7)"/><path class="cls-1" d="M206.05,530.18a2.85,2.85,0,0,0-2,.94c-.47.57-.19.84.73.69C206.7,531.51,207.73,530.18,206.05,530.18Z" transform="translate(0 -459.7)"/><path class="cls-1" d="M202.43,559.31c-.33.17-.23.57.23.92h0c1.23.93,2,.76,1.11-.28A1.41,1.41,0,0,0,202.43,559.31Z" transform="translate(0 -459.7)"/><path class="cls-1" d="M210.43,526.73c-1.23-.1-2.08.2-2.08.75h0c0,.55,1.07.93,2.6.93C214,528.41,213.58,527,210.43,526.73Z" transform="translate(0 -459.7)"/><path class="cls-1" d="M160.75,557.87c0-.34-.57-.46-1.26-.26s-1.25.48-1.25.63.57.26,1.25.26S160.75,558.21,160.75,557.87Z" transform="translate(0 -459.7)"/><polygon class="cls-1" points="160.75 93.73 160.75 93.73 160.75 93.73 160.75 93.73"/><path class="cls-1" d="M190.13,535.47c2.48.63,2.84,1,1.84,1.88-.69.6-.8,1.11-.26,1.11s.2.23-.76.51c-1.48.45-1.48.66,0,1.45h0a10.38,10.38,0,0,0,3.94.94c3.16,0,7.19-2.1,7.19-3.82,0-1.21-.61-1.47-3.44-1.48H195.2l2.83-1,2.84-1-3.66-2-3.65-2.06-3.25,1.43C186.23,533.09,186.17,534.45,190.13,535.47Z" transform="translate(0 -459.7)"/><path class="cls-1" d="M138.83,543.77a2.61,2.61,0,0,0,2,.25c1.74-.5,1.41-.85-.79-.85C138.93,543.17,138.4,543.43,138.83,543.77Z" transform="translate(0 -459.7)"/><path class="cls-1" d="M153.31,554.06c1.53-.45,1.52-2,0-2-1.68,0-2.86,1.07-1.93,1.78h0A2.48,2.48,0,0,0,153.31,554.06Z" transform="translate(0 -459.7)"/><path class="cls-1" d="M144.46,538.76c0-.54-.73-.74-1.87-.54s-1.56.58-1.18.88C142.5,539.9,144.46,539.71,144.46,538.76Z" transform="translate(0 -459.7)"/><path class="cls-1" d="M176.61,573.39a1.17,1.17,0,0,0,.11-1.32.58.58,0,0,0-.11-.15c-.35-.41-.63,0-.63.73S176.26,573.8,176.61,573.39Z" transform="translate(0 -459.7)"/><polygon class="cls-1" points="175.98 112.96 175.98 112.96 175.98 112.96 175.98 112.96"/><path class="cls-1" d="M162.73,554.37c1.09,0,1.76-.31,1.49-.69-.77-1.11-3.47-1.28-3.47-.23C160.75,554,161.64,554.37,162.73,554.37Z" transform="translate(0 -459.7)"/><path class="cls-1" d="M175.78,536.73c0-.27-.84-.83-1.87-1.23-1.54-.61-2.06-.49-3,.67-.62.76-.87,1.59-.57,1.84h0C171.07,538.54,175.78,537.42,175.78,536.73Z" transform="translate(0 -459.7)"/><path class="cls-1" d="M206.46,547.28c-.72-.55-3.12-.27-3.12.34a3.84,3.84,0,0,0,2,.26C206.37,547.88,206.89,547.62,206.46,547.28Z" transform="translate(0 -459.7)"/><path class="cls-1" d="M285.29,534.37c.38-.28-.46-.65-1.87-.83-2.1-.26-2.29-.16-1.08.52h0C284.06,535,284.38,535.08,285.29,534.37Z" transform="translate(0 -459.7)"/><path class="cls-1" d="M288.52,524.92c0,.32.56.59,1.25.59s1.25-.27,1.25-.59-.56-.6-1.25-.6S288.52,524.54,288.52,524.92Z" transform="translate(0 -459.7)"/><path class="cls-1" d="M295.41,525.16c-2.51-.45-2.51-.45,0,.49,2.71,1,5.63,1.28,5.63.49,0-.26-.7-.49-1.57-.52A39,39,0,0,1,295.41,525.16Z" transform="translate(0 -459.7)"/><path class="cls-1" d="M110.91,569c-.36.51.25.71,1.69.59,1.23-.11,2.15-.48,2-.79C114.29,568,111.56,568.11,110.91,569Z" transform="translate(0 -459.7)"/><path class="cls-1" d="M186.63,549.27c1.59.74,2.93.39,2.93-.79,0-.66-.84-1.17-1.88-1.17C185.77,547.31,185.11,548.54,186.63,549.27Z" transform="translate(0 -459.7)"/><path class="cls-1" d="M306.05,510.14c0-.3-.56-.72-1.25-.91s-1.25,0-1.25.54.56.93,1.25.93S306.05,510.45,306.05,510.14Z" transform="translate(0 -459.7)"/><path class="cls-1" d="M250.17,541.75c-.67,1.24-.25,1.84,1.84,2.64,1.48.56,2.73,1.36,2.78,1.81h0c.07.57.3.55.83-.09a6.78,6.78,0,0,1,2.52-1.5,2,2,0,0,0,1.36-2.36c-.36-1.48-1-1.77-4.45-1.93S250.91,540.36,250.17,541.75Z" transform="translate(0 -459.7)"/><path class="cls-1" d="M309.41,513.23a2.16,2.16,0,0,0,2.29-.38,7.12,7.12,0,0,1,3.19-1c1.29,0,1.34-.16.21-.69s-2.06-.45-4,.36c-1.38.59-2.15,1.37-1.72,1.68Z" transform="translate(0 -459.7)"/><path class="cls-1" d="M303.55,522.27c0-1-3.41-1.7-4.51-.86-.45.34-.05.86.9,1.15h0C302.42,523.29,303.55,523.21,303.55,522.27Z" transform="translate(0 -459.7)"/><path class="cls-1" d="M310.44,530.76c0-.49-1.27-1-2.82-1.07-3.06-.21-3.21-.1-2,1.36h0C306.54,532.21,310.44,532,310.44,530.76Z" transform="translate(0 -459.7)"/><ellipse class="cls-1" cx="309.82" cy="65.16" rx="1.25" ry="0.59"/><path class="cls-1" d="M276.83,529.78a2,2,0,0,0,1.48.09c.36-.17,0-.62-.84-1s-1.48-.46-1.48-.09A1.34,1.34,0,0,0,276.83,529.78Z" transform="translate(0 -459.7)"/><path class="cls-1" d="M230.89,522.2c.69-.2,1.26-.61,1.26-.91s-.57-.56-1.26-.56-1.25.41-1.25.91S230.2,522.41,230.89,522.2Z" transform="translate(0 -459.7)"/><path class="cls-1" d="M227.57,539.16c-3-.27-3.24-.16-2.53,1.11a6.94,6.94,0,0,1,.84,2h0c0,.33.44.3,1-.08a16.84,16.84,0,0,1,5-1.08c4.73-.47,5-.91,1.57-2.38-2.08-.88-2.51-.92-2.51-.17S230,539.38,227.57,539.16Z" transform="translate(0 -459.7)"/><path class="cls-1" d="M216.28,530.76c2.66,0,3.36-.65,2-1.86s-3.65-.9-3.65.72h0C214.61,530.25,215.36,530.76,216.28,530.76Z" transform="translate(0 -459.7)"/><path class="cls-1" d="M234.94,534.45h0a9,9,0,0,0,6.27-.24c1.87-.68,1.87-.9-.08-2.81a7.24,7.24,0,0,0-3.92-2.07C234.71,529.29,232.74,533.75,234.94,534.45Z" transform="translate(0 -459.7)"/><path class="cls-1" d="M184.06,574.14c-.44.53,0,.87,1.12.87,2,0,2.49-.91.72-1.36A1.86,1.86,0,0,0,184.06,574.14Z" transform="translate(0 -459.7)"/><path class="cls-1" d="M240.29,519a2.78,2.78,0,0,0-1.32-.58c-.27,0-.52.22-.55.58s.59.59,1.31.59S240.71,519.29,240.29,519Z" transform="translate(0 -459.7)"/><path class="cls-1" d="M258.45,514.88c0,1.44,2.93,1.24,3.54-.25.24-.58-.4-1-1.57-1S258.45,514.16,258.45,514.88Z" transform="translate(0 -459.7)"/><path class="cls-1" d="M241.74,541.55h0a2,2,0,0,0,2.93-1.49c0-1.32,0-1.22-1.77-.12C241.93,540.57,241.41,541.26,241.74,541.55Z" transform="translate(0 -459.7)"/><path class="cls-1" d="M262.47,497.6c-1-.49-1.51-.5-1.51,0a3.9,3.9,0,0,1-.81,1.74c-.76,1-.69,1,1.52,0C263.48,498.54,263.65,498.16,262.47,497.6Z" transform="translate(0 -459.7)"/><path class="cls-1" d="M242.23,525.14c-.75.22-1,.67-.57,1h0a2,2,0,0,0,2.13,0C245.4,525.35,244.16,524.58,242.23,525.14Z" transform="translate(0 -459.7)"/><path class="cls-1" d="M856.42,518.12a2.73,2.73,0,0,0-1.84-.89c-1.69,0-1.35,1,.44,1.36l1.85.36C857,518.93,856.81,518.57,856.42,518.12Z" transform="translate(0 -459.7)"/><path class="cls-1" d="M4.19,542.62c0-.32-.56-.58-1.25-.58s-1.26.26-1.26.58.57.6,1.26.6S4.19,542.89,4.19,542.62Z" transform="translate(0 -459.7)"/><path class="cls-1" d="M2.88,533.73c-2.47,0-3.22.63-1.64,1.36a2.64,2.64,0,0,0,3.38-.49C5.11,534,4.56,533.73,2.88,533.73Z" transform="translate(0 -459.7)"/><path class="cls-1" d="M5.09,554.87c2.7-.24,3.58-2,1.22-2.4-2.61-.48-5.13.5-4.21,1.62A3.88,3.88,0,0,0,5.09,554.87Z" transform="translate(0 -459.7)"/><path class="cls-1" d="M14.64,526.29a2.64,2.64,0,0,0-1.84-.89c-1.31,0-1.48.82-.28,1.36C14,527.55,15.37,527.24,14.64,526.29Z" transform="translate(0 -459.7)"/><path class="cls-1" d="M273.48,579.73h1.88a2.84,2.84,0,0,0-1.32-.58C273.77,579.11,273.52,579.37,273.48,579.73Z" transform="translate(0 -459.7)"/><path class="cls-1" d="M32.17,537c.79-1-1.27-1.44-4.52-1-1.73.22-1.91.45-.79,1.09h0C28.7,538.09,31.27,538.08,32.17,537Z" transform="translate(0 -459.7)"/><path class="cls-1" d="M60.15,562.24c2,1,6.67,0,6.67-1.36s-1.37-1.77-4.78-1.36C59.42,559.8,58.33,561.4,60.15,562.24Z" transform="translate(0 -459.7)"/><path class="cls-1" d="M60.54,542.83c0-.51-.57-.75-1.26-.55s-1.25.61-1.25.91.56.56,1.25.56S60.54,543.34,60.54,542.83Z" transform="translate(0 -459.7)"/><path class="cls-1" d="M1.13,521.81c-.92-2,.14-2.3,5.89-1.69,3.43.37,5,.27,6.07-.36a2.76,2.76,0,0,1,2.85-.2c1,.46.83.79-.51,1.18-3.44,1,.24,2.65,6.22,2.73,2.9,0,6.61.24,8.23.43a58,58,0,0,0,9.59-.35l6.69-.67-6-.56c-7.68-.69-7.07-1.87,1-1.87,4.73,0,6.33.25,7.42,1.18a9.86,9.86,0,0,0,2.5,1.55.82.82,0,0,1,.38,1.36c-.41.56.14,1.05,1.7,1.28,3.15.47,3.12,1.28-.06,1.76-1.38.2-2.5.73-2.5,1.18,0,1.08,2.84,1.88,3.47,1a5.81,5.81,0,0,1,3.28-.73c5.55,0,10.7-.74,10.7-1.54,0-.45-.71-.83-1.57-.83s-1-.2.31-.6c1.65-.52,1.61-.69-.31-1.36-2.4-.87-3-3.62-.85-4.23.73-.22,1.08-.71.76-1.09s.23-1.23,1.21-1.86c1.43-.92,3.32-1.15,9.47-1.15,5,0,7.85.24,8.2.73s-.6.74-2.34.74c-2.07,0-2.48.17-1.49.64,1.85.87,19.18,1.36,19.18.5,0-.35.45-.49,1-.34a6.43,6.43,0,0,0,2.82-.24c1.22-.37-.79-.55-6.09-.55-5,0-7.61-.23-7.12-.6a15.09,15.09,0,0,1,5.16-.6,37.28,37.28,0,0,0,6.9-.62,6.32,6.32,0,0,1,4.29.06,11.67,11.67,0,0,0,4.62.36c3.67-.44,6.54.41,5.55,1.63-.61.75-1.84.87-5.67.59-5.61-.42-7.27.28-5.11,2.19,1.24,1.09,1.16,1.22-.52.93-2.37-.43-3.54.24-2.21,1.25.73.56,2.27.45,6.49-.45,6.62-1.36,11.19-1.55,11.19-.36s-4.38,2.14-12.87,2.26l-7.8.13-.19,2.72c-.13,1.89.37,2.86,1.57,3.08,1,.17,1.75.06,1.75-.25s.62-.57,1.39-.57,1,.41.63.93c-.56.68,0,.89,2.06.81,5.13-.19,6,0,6,1.51,0,2,3.49,2.59,6.11,1a20.51,20.51,0,0,1,6.83-1.54c4.1-.29,4.58-.2,3.29.52a11,11,0,0,1-4.49.85c-3,0-4.29,1.13-1.41,1.24.86,0,3.82.21,6.58.38s7.68.33,11,.3c4.66,0,6,.18,6,.93s.29.8,2.2-.14,1.92-1.13.31-1.36c-1.09-.19.47-.6,3.75-1a27.61,27.61,0,0,1,6.73-.25c1.55.62,4.55,0,4.55-1,0-1.21-1.77-1.47-6.09-.88-4.64.62-4.83.46-1.31-1.08l2.63-1.15-2.73-.68a6.24,6.24,0,0,0-4.92.24c-2.42,1-7.63,1.27-7.63.34,0-.33.78-.6,1.73-.6a7.79,7.79,0,0,0,3.22-.84c1.19-.67,1-1-1.1-1.5-4.74-1.18-2.87-1.81,4.27-1.36a35.23,35.23,0,0,0,8.46-.21,24.62,24.62,0,0,1,5.78-.64c5,0,6.45-.54,3.91-1.36-1.48-.47-1.35-.54.67-.38a8.47,8.47,0,0,0,4.1-.71c1.36-.77,1.58-.59,1.44,1.16-.21,2.72-.08,3.08,1.24,4.09.91.68,1.91.58,5.74-.54,4.29-1.25,4.59-1.51,3.93-3.48l-.72-2.12h5.92c4,0,6.62-.33,8.14-1a13,13,0,0,1,4.71-1.05c2.88,0,3.31-1.64.57-2.15-3.64-.65-1.87-1.92,3.44-2.45,4.11-.41,5.66-.34,6.77.3s2,.59,4.53-.63c1.7-.8,2.73-1.7,2.31-2-2.28-1.6-10.74-1-9.38.71.41.5.15.91-.56.91-2.08,0-3.22-2.45-1.4-3,1.27-.37,1.18-.76-.42-1.92a5,5,0,0,1-2.1-2.56c0-.61-.36-2.88-.71-5.08s-.15-4,.42-4,.91-.44,1-1.1a.49.49,0,0,0,0-.17c-.07-.94.71-1.29,3-1.36a34.3,34.3,0,0,0,5.54-.6c1.94-.4,2.26-.3,1.61.49s-.05,1,2.84,1a11.29,11.29,0,0,0,4.48-.64c1.24-.79,2.72-.07,3.3,1.62a4.31,4.31,0,0,1,.22,1c.21,2,0,2.13-3.73,2.13a14.81,14.81,0,0,0-5.63,1c-1.67,1-2.51,5.06-.94,4.61a3.84,3.84,0,0,1,2.33.64c1.24.69,1.12.94-.61,1.25a4.7,4.7,0,0,1-3.08-.33c-.54-.41-1,.07-1,1.13-.09,1.43.56,1.95,3,2.38,2.59.48,3.65.29,6.56-1.1,1.9-.92,3.24-2,3-2.35-.55-.79-.06-.85,2.76-.33,1.09.19,2,.87,2,1.5a.83.83,0,0,1-1.09.84c-1.61-.48-7.62,3.19-6.83,4.09.38.44,0,1.19-.79,1.66-1.19.68-1,.77,1.19.5,2-.25,2.83,0,3.35.93a2.86,2.86,0,0,0,2.32,1.26c1,0,1.37-.45,1-1.13s.44-1.63,2-2.35,2.61-1.58,2.61-2,.66-1.09,1.48-1.47c1.73-.81,4.79.09,4.79,1.36s3.32,1,4.25-.13c1.49-1.82.84-4.37-1.12-4.37-1,0-1.88-.28-1.88-.62s.55-.47,1.23-.27c3.14.91,8.39.74,9.8-.32s1-1.14-2.83-1.48a24.26,24.26,0,0,0-5.52,0,2.64,2.64,0,0,1-2-.23c-.43-.34-.15-.6.62-.6,1.94,0,1-2.51-1.21-3.34-2-.73-3-6.11-1.16-6.11.55-.09,1,.44,1.11,1.18,0,1.37,3.14,1.61,4.15.39.84-1,11.21-1.71,15.26-1,3.67.66,4.2,2.6.94,3.49-1.19.33-1.62.62-.93.63s-.15.37-1.87.78c-3.59.85-4.34,2-3.16,5,.59,1.48,1.16,1.86,1.9,1.36a2.45,2.45,0,0,1,2.77-.15,5.79,5.79,0,0,0,3.42.16c1.87-.54,9.2,1.59,8.17,2.38-.32.25,1.22.74,3.42,1.11,5.67.92,8-.17,5.36-2.55-2.34-2.12-2.43-2,1.47-1.67,2.61.23,3.09.12,2.23-.52a4.9,4.9,0,0,1-1.46-1.93c-.31-.94.21-1.07,3.36-.77a9.93,9.93,0,0,0,4.33-.31,2,2,0,0,1,2.18,0c1,.46,1,.83-.06,1.36s-1,.87.28,1.47c2.47,1.17,3.54,1,2.75-.42-.38-.68-.37-1.1,0-.91a11,11,0,0,0,4.3-1.36c3.71-1.75,4.77-3.57,2.11-3.57-1.16,0-1.15-.16,0-.72a4.79,4.79,0,0,1,4,0c1.37.41,2.34.53,2.17.28s.23-.45.91-.45c1.63,0,.79,2.24-1,2.81-1,.3-1,.58-.13.88a2.86,2.86,0,0,1,1.57,2.14c.21,1.36-.05,1.57-1.51,1a2.61,2.61,0,0,0-2.58-.08c-1,.77.39,1.93,1.84,1.51a2.38,2.38,0,0,1,1.87.28c.43.33-.34.6-1.72.6a9.62,9.62,0,0,0-4.46,1.36c-1.83,1.24-1.78,1.37.77,1.8a5.06,5.06,0,0,0,3.7-.28c4.39-3.37,8.76-4.44,10.32-2.52a4.19,4.19,0,0,0,2.77.88c1.17,0,1.78-.34,1.43-.77s.08-1.37.95-2.17c1.56-1.36,1.6-1.36,2.12.78.36,1.44,0,2.16-1,2.16-2.07,0-2.89,1.25-1.58,2.45a4.64,4.64,0,0,0,3.56.67c2-.25,2.25-.52,1.22-1.36-.69-.61-.77-1.12-.16-1.12A8.2,8.2,0,0,1,338,511c1.27,1.36,2.41,2.58,2.52,2.72a17.16,17.16,0,0,0,3.49-.42c2.7-.48,3.72-.37,5.63.6,2.07,1.05,2.52,1.07,3.93.27,1.77-1,5.65-1.25,4.36-.27a13.73,13.73,0,0,1-4,1.18c-2.88.52-3.09.79-2.37,2.93.63,1.84.37,2.45-1.15,2.72-2.42.44-4.2-.28-2.16-.88.82-.24-1.84-.41-5.93-.39a50.31,50.31,0,0,0-8.31.47c-.49.23-.19.42.67.42,1.07,0,1.31.53.77,1.69a1.73,1.73,0,0,0,1,2.56c1,.47,1.46,1.14,1,1.47a18.08,18.08,0,0,1-8.42,1.73c-2.66-.49-.67-2.29,2.13-1.95,1.28.16,2.33.08,2.33-.18,0-.81-5.22-1.14-6.84-.43-2.78,1.22,1.37,6,4.42,5.09,1.55-.46,1.54-.63-.08-1.12s-1.44-.6.69-.6a11.88,11.88,0,0,1,3.86.6,6.63,6.63,0,0,0,3.39.23c2.26-.4,2.85-1.36.83-1.36-1.76,0-1.49-1.28.55-2.54,1.48-.93,2.09-1,4.41-.29,1.82.52,2.53,1.2,2.18,2.08s.21,1.37,1.71,1.65a13.43,13.43,0,0,1,5,2.49c2.37,1.91,2.47,2.24.78,2.82s-1.63.76.46,1.47a27.09,27.09,0,0,0,6.5.85c3.61,0,4.19-.18,4.54-1.58.45-1.86,2.15-2.06,5.4-.67,1.83.77,2,1.2.85,2.2a9.14,9.14,0,0,1-2.77,1.69c-.85.27-.58.45.74.45a35.12,35.12,0,0,1,6.62,1.25c3.57,1,4.34,1.52,3.73,2.51l-1.35,2.26c-.78,1.36,2.05,3.39,4.14,3s2.15.53.15,1.48c-1.17.55-.87.71,1.32.71,1.56,0,2.51.24,2.12.54s1.41,0,4-.54a22.66,22.66,0,0,1,5.65-.8c.52.16.94,0,.94-.34s-.63-.63-1.4-.63c-.95,0-1-.25-.19-.74,2.55-1.53,2.65-3.28.21-3.58a6.24,6.24,0,0,1-3.59-1.82,4.81,4.81,0,0,0-3.81-1.54c-2.2,0-2.39-.18-1.25-1.17.74-.65.9-1.18.36-1.2s.35-.54,2-1.18,2.47-1.17,1.88-1.2.19-.27,1.74-.57c3.55-.67,3.79-2,.26-1.44-2.21.32-2.46.17-1.88-1.15l1.33-3c.47-1.07.11-1.49-1.25-1.49-1.05,0-1.91.27-1.91.6s-1.47.59-3.27.59c-2.3,0-3.05-.25-2.58-.83.75-.93-2.39-1.76-4.41-1.16-.8.23-1-.11-.43-.89,1-1.52.33-1.56-4-.24-2.42.76-3.44.83-3.82.3a4.7,4.7,0,0,0-3-.72c-4.36,0,.41-1.64,7.06-2.43,4.81-.57,6.11-.54,7,.1s1.28.29,1.85-.95c.4-.86.84-1.69,1.3-2.48s4.32-1,4.32-.14c0,.32.6.59,1.33.59s1-.27.55-.59.45-.6,1.94-.6c2.26,0,2.59-.24,1.95-1.44a1.2,1.2,0,0,1,.71-1.86c2.52-.74-3.7-1.43-7.2-.81a36,36,0,0,1-5,.57c-2.37,0-2.31-1.71.07-2.13,1-.19,1.56-.59,1.18-.88s.75-.53,2.52-.53,3.21.34,3.21.77,1.36.69,4.37.53c4.48-.25,4.93-1.36.57-1.36-2.46,0-2.54-.13-3.1-4.81a3.64,3.64,0,0,0-2.6-2.64c-1.38-.45-3.06-1.05-3.89-1.36a16.1,16.1,0,0,0-4.56-.6,6.32,6.32,0,0,1-3.77-.89,3.85,3.85,0,0,0-2.6-.88c-1.16,0-1.61.34-1.16.88s.09.89-.67.89-1.39.39-1.39.9-1,1.07-2.19,1.28a10,10,0,0,0-3.11,1c-.5.34-.93-.9-.94-2.72,0-3,.33-3.49,2.81-4,1.62-.32,2-.56.93-.59s-3.14-.2-4.69-.39c-2.54-.33-2.83-.15-2.83,1.71a2.24,2.24,0,0,1-2,2.43c-2.48.44-4.27,0-4.27-1.15,0-.47-.57-.86-1.25-.86a1.23,1.23,0,0,0-1.25,1.19c0,.65-.84,1.18-3.06,1.18-3.88,0-5-.84-2.65-1.94s1.3-1.6-2.57-1.6c-3.4,0-5.17-1.06-2.58-1.52,1-.18,5.27-.38,9.47-.44s7.64-.32,7.64-.6,4.38-.34,9.71-.17,12,.31,14.82.34c4.48,0,5.1.19,5,1.36a2,2,0,0,1-1.2,1.7c-1.49.5.2,1.69,2.43,1.69,2.05,0,2.46-1.51.56-2.07-2.55-.74-1.26-2.07,2-2.07,2.2,0,3.47.39,3.91,1.18.9,1.62,3.41,1.49,5.91-.31,1.74-1.25,2.81-1.46,6.72-1.24,2.56.15,8.44.45,13.1.68l8.45.43v1.91a2.63,2.63,0,0,0,1.56,2.46c3.31,1.1,9.74,0,9.1-1.52a1.76,1.76,0,0,1,.72-1.86,1.48,1.48,0,0,1,2.24,0,1.61,1.61,0,0,0,1.85.23c1.07-.82,7.08-.16,7.08.78,0,.43-.56.94-1.25,1.14a1.79,1.79,0,0,0-1.26,1.58c0,1,.54,1.14,3.45.8a21.18,21.18,0,0,0,5.26-1.24c1.59-.73,1.53-.94-.5-1.63-3.2-1.1-.56-1.78,4.66-1.21a51.7,51.7,0,0,0,6.65.3,9.3,9.3,0,0,1,4.08.69c1.23.71.46.79-4.86.55-3.48-.15-6.23,0-6.12.23.5,1.26-.23,2-2,2-1,0-1.88.39-1.88.88s-1.13.89-2.64.89c-1.86,0-2.42.27-1.89.91s.07,1.36-.74,2c-1.07.8-1.11,1.49-.15,2.49a2.08,2.08,0,0,1,.36,2.6c-.81,1-.28,1.36,3.32,2,2.35.39,4,1,3.56,1.26-.63.49,2,.83,4.76.63,1.43-.11,1.12.79-.54,1.57-1.14.54-1.09,1,.19,2.16a3.86,3.86,0,0,0,2.73,1.16c.59-.17,1.07.12,1.07.64,0,.77.46.73,2.73-.26a14.47,14.47,0,0,1,3.76-1.21c1.66,0,1.16-1.2-.91-2.17-2.27-1.07-.29-2.72,2.65-2.16,1.1.2,1.78,0,1.78-.66s.57-.81,1.26-.62,1.25.09,1.25-.26,1.08-.63,2.41-.63c4,0,6.53-.65,5.33-1.36-1.39-.86-3.16-3.13-2-2.58a5.85,5.85,0,0,0,3.39-1.12c2.11-1.27,2.24-1.61.77-2.1s-1.26-.51.48-.24a3.28,3.28,0,0,0,3.45-1.17c2.12-2.62,1.56-3.9-1.61-3.68-1.78.12-2.75.57-2.64,1.23.18,1.09-1,1.22-5.49.65-1.53-.19-2.49-.59-2.11-.87,1-.79-1.22-.63-3.16.22-1.35.58-1.51.58-.79,0,.51-.44.06-.9-1.07-1.11s-2-.75-2-1.25,1-.82,4.7-.53c2.58.2,7.66.37,11.3.37,5.82,0,6.74.17,7.75,1.43a6.16,6.16,0,0,0,2.55,1.82c1.64.48,8.78-.77,8.78-1.54,0-.28,1.75-.51,3.9-.51,3.34,0,3.68-.14,2.35-.9-1.69-1-1.29-1.08,1.76-.53,1.5.27,1.66.62.68,1.48-.7.61-1,1.12-.7,1.12a24.27,24.27,0,0,1,2.56.36c1.46.26,1.79.1,1.22-.6s-.12-.95.93-.95c1.31,0,1.27-.13-.18-.58s-1.5-.59.49-.59a81.65,81.65,0,0,1,14.54,3c.95.5,6.89-.32,6.89-1s9.45-.83,18.16-.17c3.79.28,8.5.51,10.48.49a18.15,18.15,0,0,1,5.22.61,2.79,2.79,0,0,0,2.33.08c.71-.53,3.09-.5,12.91.18,4.24.3,5.11.57,4.53,1.36s-.39.79,1.11-.11c2-1.2,6.49-1.2,39,0,10.89.39,11,.41,7.15,1.28-5,1.14-6.34,2.4-5.42,5.06.76,2.21,1.22,2.35,9.45,3,4.28.33,11.81-.62,12.58-1.58.93-1.14,0-4-1.66-4.9a14.71,14.71,0,0,0-5.39-.86c-3,0-3.47-.13-2-.55,1.1-.34,8.09-.43,16.91-.21,8.26.21,16.15.36,17.53.33,6.47-.1,11.74.56,11.07,1.36-.5.63.36.84,3.2.84,2.14,0,3.89-.28,3.89-.62s.52-.48,1.15-.29a1.88,1.88,0,0,0,1.79-.41c.4-.45,1-.2,1.52.62,1,1.53,3.79,1.36,3.49-.17-.17-.87.52-1,4.38-.68,2.52.21,6.42.37,8.66.37,3.22,0,4.06.24,4.06,1.18a1.3,1.3,0,0,1-1.39,1.19c-.76,0-1.07.37-.7.83s-.46,1.36-1.86,1.9c-2.48,1.07-2.61,1.05-5.43-.49a8.62,8.62,0,0,0-5.52-1.25,7.18,7.18,0,0,0-2.63.59c0,.58,3,2.87,4.26,3.28,1,.33,1,.57-.13.9-1.85.57,0,2.22,1.9,1.67a2.07,2.07,0,0,1,2.11.82,3.39,3.39,0,0,0,2.59,1.18h2.43a.76.76,0,0,0,.74-.43c.21-.77,2.56-1.2,5-.9,2,.23,5.55,3.25,5.19,4.34-.06.21,1.29.23,3,.08a12.41,12.41,0,0,1,5.54.75c3.14,1.36,2.29,1.94-2.31,1.62a11.2,11.2,0,0,0-4.35.26c-.38.3.48.57,1.91.63,4.14.15,5.19,1,3,2.6-1,.76-1.81,1.64-1.67,2,.33.79-6.39.82-10.75,0-2.39-.42-3.36-1-3.12-1.75s-.4-1.26-1.31-1.37c-1.26-.2-1.44.26-.77,2,1.08,2.8,1.62,3.28,3.25,2.8,1.82-.53,7.31,1,7.31,2,0,.6-.46.69-1.57.28s-3.26-.18-7,.73c-6.12,1.47-5.18,2.41,1.79,1.8,2.67-.23,4.3-.15,4.3.24s-.54.62-1.2.62a12,12,0,0,0-3.72,1.26c-2,1-2.89,1.12-4.23.6-2.61-1-3.67,0-1.3,1.19,2.13,1.1,4.92,1.51,3.62.53-.39-.3-.2-.71.44-.89,1.8-.53,5.14.29,5.14,1.24,0,.75.24.75,1.77,0,1-.45,1.74-1.2,1.69-1.66-.26-2.33.41-2.9,3.43-2.9,2.42,0,3.13.31,3.12,1.36,0,2.36-1.48,4-3.53,4-1.81,0-1.82.08-.06.91s2.49.81,5.42.17c3.15-.67,3.72-.62,5.9.65,1.33.78,2.08,1.82,1.67,2.31a13.78,13.78,0,0,0-1.48,3.46c-.64,2.21-.46,2.51,1.31,2.18,2-.35,2.68-1.62,2.27-3.93-.23-1.28,1.76-1.37,2.79-.1.85,1.05,5.06.9,5.29-.2.09-.41.23-1,.32-1.37.26-1,10.62-5.36,11.36-4.81a12.21,12.21,0,0,0,3.51.91c3,.45,2.89.57,3.3-4.09a3.89,3.89,0,0,1,.94-2.37,8,8,0,0,0,1.67-2.49c.9-2,3.17-3.22,3.17-1.74,0,.48,1,1,2.19,1.23s3,.53,4.08.73,1.48.18,1-.07c-.84-.42,1.78-2.08,3.3-2.08.39,0,.71.67.71,1.48s-.71,1.47-1.88,1.47c-3.36,0-2.16,2.06,1.26,2.16,1.72,0,3.13-.15,3.13-.44s.9-.53,2-.53c1.4,0,1.82.35,1.37,1.17s-.15,1.36.48,1.51,1.13-.16,1.13-.78a1.79,1.79,0,0,1,.84-1.51c1.76-.83,1.51-3.35-.34-3.35-1.36,0-1.53-.27-.66-1s.4-1.48-1.83-2.81c-2.88-1.7-3-1.71-3-.4,0,.64-.43,1.14-.91,1.1a.43.43,0,0,1-.22-.06,2,2,0,0,0-1.92.66c-.59.72-1.17.8-2.21.31a5.46,5.46,0,0,0-3.74,0c-2.59.65-4.38-.54-3.13-2.08.38-.46-.12-1.16-1.12-1.54s-1.79-1.08-1.79-1.52c0-1,3.92-1.09,5.8-.21.9.44,2.37.44,4.77,0,2.83-.5,3.33-.87,2.72-2-.89-1.66,1.91-2.44,5.5-1.54a24.15,24.15,0,0,0,4.92.6c1.43,0,2.59.26,2.59.58s-.55.59-1.22.59-.9.76-.49,1.74c.68,1.58.49,1.7-2.22,1.36-1.63-.19-2.55-.13-2,.12a16.45,16.45,0,0,0,4.68.43,12,12,0,0,1,4.48.5,10.48,10.48,0,0,0,4,.54c3.15,0,3.19,0,.88-.83-2.15-.73-1.38-.81,7-.68,11.32.19,11.56.21,10.78.81-.34.26,1.44.53,4,.61,5,.16,7.13,1.12,5,2.3-2.68,1.52.29,1.48,3.31,0,1.7-.87,2.52-1.58,1.82-1.58s-.92-.26-.49-.58c1.18-.9,3.13-.71,3.13.31,0,1.36,3.47,1.73,7,.83,2.66-.68,3.31-.67,4.28.07.79.58,1.16.62,1.18.12s.58-.75,1.27-.75,1.2.61,1.25,1.48c0,1.37.3,1.48,8.07,1.48,8.33,0,10.77.61,8.2,2.06-1.47.83-4.9.83-11.69,0-3.22-.4-3.5-.31-3.12,1s.62,1.36,12.2,1.21c8.69-.13,12,0,12.82.6,1.61,1.2,1.27,1.72-1,1.53a3.51,3.51,0,0,0-2.62.57c-.32.43.52.73,2.07.73,3.18,0,4.56-.19,4.27-.6a15.8,15.8,0,0,1,4.45-.09c3.42.15,5.16-.08,6.48-.87,1.66-1,1.63-1-.38-.27s-2.19.66-2.19-.15,1.22-1,5-1c3.34,0,4.91.24,4.7.75s1.38.8,4.07.92a23.47,23.47,0,0,1,5.57.74,12.91,12.91,0,0,0,4.08.54c1.71,0,2.87.36,2.87.89s.8.88,1.78.88a3.67,3.67,0,0,1,2.19.52,21,21,0,0,0,5.9,1c3.69.29,5.22.24,4.67-.17s-.22-.79.48-1c1.35-.39,3.88,2,2.93,2.81-.3.23.91.75,2.69,1.13,2.55.54,3.56.53,4.77-.07s1.12-.84.14-1a28.47,28.47,0,0,1-3.76-1.14c-2.21-.83-2.09-.86,1.76-.52a16.48,16.48,0,0,0,5.77-.27,3.27,3.27,0,0,1,3.24.24c2,1.16-.59,4.43-3.59,4.44-1.76,0-1.78.08-.16.57,1,.32,1.6.78,1.26,1s.64.56,2.19.66,2.82.42,2.82.69,1.27.6,2.82.72c1.75.13,2.64.53,2.34,1.07s-1,2-1.68,3.43a5.46,5.46,0,0,1-3,2.87c-1.47.26-1.39.46.43,1.09,1.23.42,1.84,1,1.36,1.17a7.28,7.28,0,0,1-3.88-1.23c-3.24-1.77-8.11-1.71-6.64.09,1.08,1.36-.37,2.2-2.39,1.36a2.92,2.92,0,0,0-2.26-.17c-.34.26.73.94,2.37,1.51,2.41.86,2.84.89,2.24.15-1.11-1.36,1.48-1.08,5.26.56s6.13,1.36,5.11-.41c-.5-.89.21-1.36,3-1.82,3.54-.63,3.56-.67,1.55-2.27s-1.92-1.69.74-2.73a29.33,29.33,0,0,1,6.91-1.49c3.75-.33,4.08-.53,3.58-2.13-.42-1.36-.07-1.77,1.57-1.77a10.81,10.81,0,0,0,4-.9,12.21,12.21,0,0,1,6.13-.53c3.72.33,4.16.23,3.75-.77-.26-.64.79-1.8,2.35-2.59a9.81,9.81,0,0,0,3.66-3c1-1.83,1.78-1.9,9.78-.76a34.46,34.46,0,0,0,6.4.57,3.59,3.59,0,0,1,2.16.64c1.33.77,1.22,1.12-.64,2.09s-2,1.17-.17,1.17c1.14,0,2.07.23,2.07.5,0,.8-5,.46-6.14-.41-.84-.64-1.15-.62-1.72,0-.38.47.41,1.36,1.76,1.83s2.1,1.26,1.66,1.59c-.85.65,1.55,2.31,3.34,2.31a1,1,0,0,0,1.1-.88c0-.49,1.54-.89,6.26-.89,6.52,0,8.33-.79,3.45-1.51a11.59,11.59,0,0,1-3.67-1c-.81-.6,2.75-2.47,5.54-2.91.83-.13.56-.75-.72-1.68a6.52,6.52,0,0,1-2.39-3.63c-.3-2-.61-2.13-3.35-1.8-2.45.28-2.87.18-2.23-.61s.16-1-1-1a5.06,5.06,0,0,1-3.27-2.21,7.85,7.85,0,0,0-2.67-2.57c-1.58-.48,1.5-3.49,3.58-3.49.92,0,1.68.41,1.68.89s-.6.88-1.33.88-1,.26-.59.57a3.83,3.83,0,0,0,2.49.25,4.24,4.24,0,0,1,3.15.92c1.12,1,1,1.3-.54,1.58-3.31.6-2.12,2,2.45,2.92,2.82.56,4.38,1.26,4.38,2,0,1,.45,1,4.39.48,5.34-.77,5.86-1.86.63-1.36-3.22.34-3.76.22-3.76-.82s.58-1.1,1.88-.87c1,.19,1.88,0,1.88-.27s-1.07-.78-2.37-1c-3-.45-4.36-2.62-1.92-3.07a12.47,12.47,0,0,1,3.66,0c1,.17,1.88.1,1.88-.18s-1.46-.68-3.25-.89c-2.06-.24-3-.68-2.58-1.19s-.23-1-1.32-1.17-1.63-.52-1.21-.73a4.12,4.12,0,0,1,2.38.19,46.32,46.32,0,0,0,4.9,1.23c2.94.58,3.24.54,2.71-.42-.4-.71.19-1.17,1.69-1.36,1.27-.15.32-.32-2.1-.36a28.78,28.78,0,0,1-6.89-.87,60.55,60.55,0,0,0-7.25-1.52c-2.63-.4-4.47-.89-4.08-1.07s.06-.69-.73-1.14c-1.73-1-1.21-1.25,3.62-1.91,4.35-.58,8.4.2,5.52,1.07-4.14,1.25,3.76,1.36,9.85.19l3.12-.64-3.75-.08c-2.07,0-3-.22-2.08-.4,1.16-.22.78-.53-1.26-1-1.61-.38-2.94-1.09-3-1.56,0-1-4.93-3.51-6.72-3.51-1.16,0-2.91-2.44-2-2.85a51.88,51.88,0,0,1,7.15.52c3.65.41,7.49.72,8.53.68,7.45-.32,41.34.27,42.3.72s-1,2.72-2.22,2.72a9.13,9.13,0,0,1-3-.88,9.84,9.84,0,0,0-3.44-.89c-.94,0-.61.44.85,1.11a7.93,7.93,0,0,0,3.21.89,3.71,3.71,0,0,1,2.3,1.5,7.81,7.81,0,0,0,4.53,2.07c4,.48,3.83,1.47-.42,1.87-2.71.25-3.5.69-3.7,2s.33,1.7,1.88,1.76l7.77.26c3.78.12,5.64.44,5.64,1s-.77.75-1.7.65c-3.75-.37-6.1.47-5.5,2a1.55,1.55,0,0,0,1.64,1.14.68.68,0,0,0,.35-1.17c-.39-.47.06-.87,1.31-.87s2,.41,2,.89.84.88,1.88.88c3.29,0,2,1.1-1.57,1.36-3.21.23-3.17.26.63.34,5.87.13,5,1.11-1.88,2.1-3.52.5-4.8.87-3.14.9s2.82.3,2.82.61.85.42,1.88.23,1.88-.71,1.88-1.16.52-.83,1.15-.83a20.68,20.68,0,0,0,3.13-.35c2.91-.53,2.51,1.36-.6,2.72-2,.91-2.25,1.36-1.21,2s.87,1-.64,1.73a5.86,5.86,0,0,1-3.18.63c-.64-.19-1.16,0-1.17.44s-.33.54-1.19-.1c-1.44-1.08-2.32-.69-3.73,1.62-1,1.59-.77,1.84,1.82,2.15s6.16,3.35,6.23,5.35c0,.63,3.18,2,4.63,2.06.47,0,.61-.62.32-1.36-.83-2.16-4.21-5.68-5.44-5.68a2.8,2.8,0,0,1-1.87-.94c-.65-.8,0-.87,4.57-.52a39.26,39.26,0,0,1,6.87,1,1.79,1.79,0,0,0,2.31-.33c.94-1.16-.31-2.17-2.68-2.17-2.13,0-2.25-.55-.56-2.64a3.82,3.82,0,0,1,2.82-1.36c4.57.42,10-2,8-3.52-.37-.29,1.15-.54,3.36-.56,3.79,0,3.89,0,1.6.79s-2.3.84.85.84a14.9,14.9,0,0,0,5.13-.86,2.82,2.82,0,0,1,3.46,0c1.44.82,1.74.78,2.65-.38s1.69-1.25,5.38-1a45.39,45.39,0,0,0,8-.16c3.5-.48,3.68-.41,3.59,1.24-.12,1.86,3.25,3.54,6.66,3.31,2.24-.15,2.38,0,2.38,2.58,0,1.64-.32,1.8-3,1.49-2-.25-3.24-.09-3.73.51a3,3,0,0,1-2.1.89,9.78,9.78,0,0,0-3.37.94c-1.83.86-1.82,1.07,0,2.57,1.13.9,1.69,1.8,1.25,2s-.18.36.57.36c2.13,0,5.43,1.8,4.54,2.48a1.5,1.5,0,0,1-1.87-.2c-.79-.59-1.08-.45-1.1.5,0,.71.9,1.54,2,1.84,2.29.6,1.46.94-3.72,1.52-2.33.26-3.27.19-2.74-.21,1-.74-.59-.78-3,0-1.68.5,1.9,1,16.48,2.16,4,.33,4.6.23,3.94-.57a4.67,4.67,0,0,0-3.08-1,6.81,6.81,0,0,1-3.11-.63c-.54-.41,2-.61,7.76-.6,12.58,0,12.69,0,13.39-.83a6.8,6.8,0,0,1,2.77-.93V459.7H0v27A56.12,56.12,0,0,1,12.34,486c8.33.3,9.07.49,6.89,1.73-1.79,1-8.31,1.18-13,.34-2.35-.43-3.28-.36-3.8.28A3.83,3.83,0,0,1,0,489v12.45a17.24,17.24,0,0,1,5.75,1.17,16.84,16.84,0,0,0,7.5,1.08c4.8-.15,6.28.43,2.72,1.07a39.62,39.62,0,0,1-5.65.37c-3,0-3.64.25-3.64,1.36S4.31,508.4,0,508.38v5.37a5.27,5.27,0,0,1,2.6.64c.28.39-.54.62-2.6.7v1.43c.09.11.08.19,0,.25v6a5.15,5.15,0,0,1,.82.32C1.41,523.11,1.54,522.7,1.13,521.81Zm110.1,5.44c.67-.52,4.42-.23,4.42.33a7.75,7.75,0,0,1-2.58.23C111.65,527.81,110.82,527.55,111.23,527.25Zm3.17,2.23c-1.73,0-2.43-.13-1.57-.29a9.73,9.73,0,0,1,3.14,0c.86.16.14.29-1.57.29Zm115.31-22.25a3.88,3.88,0,0,1-2-.6c-.43-.33.11-.59,1.18-.59s2,.26,2,.59S230.36,507.23,229.71,507.23Zm123.55,17.34c.83-1,4.15-1.09,4.13-.08h0a2.45,2.45,0,0,1-1,1.47c-1.32.91-4.06-.31-3.13-1.46Zm6.73,11c-.73,0-1.33-.28-1.33-.6s.28-.63.55-.59a2.84,2.84,0,0,1,1.33.59c.4.26.18.53-.55.53Zm2-7.42c-3.45,1.74-3.44,1.74-5.55.61-1.3-.69-1.14-1.06.94-2,5.05-2.44,9.42-1.09,4.61,1.36Zm7.33,1.11a2.63,2.63,0,0,0,3.22.14,21.08,21.08,0,0,1,4.6-1.2c2.68-.37,3.6.31,3,2.19-.08.25,1,.45,2.31.45a6.64,6.64,0,0,1,3.78,1.16c1.21,1.06.93,1.16-3.39,1.09a18.78,18.78,0,0,1-5.76-.72,1.14,1.14,0,0,0-1.68.09h0a4.19,4.19,0,0,1-2.66.74c-1.54,0-1.67-.17-.57-.68s.71-.87-1.66-1.46a14.67,14.67,0,0,0-4.84-.45c-3,.53-3.43-.86-.53-1.59,2.22-.63,3-.59,4.18.18Zm12.87-20.42a4.43,4.43,0,0,1,2.79.52h0c1.69,1,.36,1.16-2.33.35-1-.43-1.21-.77-.46-1Zm-9.12-1a5.28,5.28,0,0,1,5.63.58h0c1.19,1.05,1,1.17-1.93,1.05-3.59-.26-4.9-.84-3.7-1.76Zm1.25,9.78c2-.23,3.13-.77,3.13-1.53s.85-1.16,1.88-1.16c2.2,0,2.4.8.61,2.37a4.06,4.06,0,0,1-3.13.79c-1.28-.23-1.86,0-1.86.9h0c0,.72-.81,1.25-1.88,1.25-3.24-.12-2.14-2.33,1.25-2.74Zm-3.06-7.42c.65,0,1.18.4,1.18.89,0,.91-1.48,1.17-2.88.5-1-.6.12-1.51,1.7-1.51Zm-3.82,1.2c0,2.06,1.39,3,3.27,2.29,2.15-.84,2.21-.08.16,2-1.55,1.58-3.43,2.12-3.43,1,0-.33-.57-.6-1.26-.6s-1.25.41-1.25.88h0c0,1.2-2.94,1.12-5.3-.15-1.23-.65-1.59-1.45-1-2.2s.74-1.44.51-1.77,1.54-1,3.93-1.55c4.12-1,4.37-1,4.37,0Zm-5.64-5.33c1,0,1.88.25,1.88.58s-.85.6-1.88.6-1.88-.27-1.88-.6.84-.71,1.88-.71Zm-6,2.35c.52,0,2.21-.16,3.76-.37,3.45-.43,4,1.23.63,1.79-1.21.2-2.9.51-3.76.7s-1.56-.1-1.56-.88.34-1.31.85-1.36h.12Zm680.42,34.49c.79.46,1,1,.45,1.11-1.46.41-6.63-.62-6.63-1.36s4.52-.83,6.22.12Zm67.73-.84c-.69,0-1.25-.1-1.25-.25s.56-.43,1.25-.63,1.25-.08,1.25.26-.52.5-1.21.5Zm72.65,4.73c2.24,0,3.76.3,3.76.76s-1.49.76-3.76.74-3.76-.34-3.76-.77,1.63-.85,3.8-.85Zm-7.52,4.08c0,.33-.56.6-1.25.6s-1.25-.27-1.25-.6.56-.58,1.25-.58,1.29.17,1.29.46Zm-68.85-29.66h0c0,.32-.57.76-1.25,1s-1.26.11-1.26-.22.57-.76,1.26-1S1100.23,520.92,1100.23,521.25Zm-2.66-4.64a3.86,3.86,0,0,1,2,.58c.43.33.21.59-.48.59a3.87,3.87,0,0,1-2-.59C1096.67,516.86,1096.88,516.61,1097.57,516.61Zm-44.6-9.22a5.12,5.12,0,0,1,2.4,0h0c1,.19.7.33-.76.35S1052.55,507.58,1053,507.39Zm-16.29-7.08a5.12,5.12,0,0,1,2.4,0h0c1,.19.7.33-.76.35S1036.27,500.5,1036.68,500.31Zm-19.26,26.91c3.07,0,5.14.85,5.14,2.11,0,.56-4.52.15-6.57-.57-3.12-1.11-2.73-1.54,1.43-1.54Zm.21-12.38c-1.42,0-2.58-.28-2.58-.6s.81-.59,1.81-.59a5.27,5.27,0,0,1,2.58.59h0c.42.32-.39.6-1.81.6Zm6.68,21.48h0a2.46,2.46,0,0,1-1.6.92c-2.06,0-9.63-5.15-8.4-5.74s8.94-.5,9.8.09c1.12.79,1.23,3.45.2,4.73Zm8.28-20.88c0,.35.56.47,1.25.28s1.26,0,1.26.3,1,.5,2.49.29c1.72-.26,2.51-.11,2.51.47,0,1.16-3.52,1.49-8.45.81-4.68-.66-5.13-1.28-1.57-2.17,1.8-.45,2.51-.45,2.51,0Zm-5.09-3.56a3.78,3.78,0,0,1,2,.59c.42.32-.11.6-1.18.6s-2-.28-2-.6.53-.59,1.16-.59Zm-.46,3c.38.29-.06.49-1,.47-2.56-.07-4.76-.59-4.76-1.12S1026.11,514.2,1027,514.9Zm-10.88-16a7.34,7.34,0,0,1,3.28.59c.42.33-.36.6-1.73.6a7.37,7.37,0,0,1-3.29-.6c-.42-.33.36-.59,1.74-.59Zm-.48,11.81a10.33,10.33,0,0,1,3.13.24,3.91,3.91,0,0,0,.76,1.19h0c.87,1.07-1.48,1.21-4.83.3-3.17-.88-2.7-1.73.94-1.73Zm-4.39,24.19c.69,0,1.25.39,1.25.88s-.56.89-1.25.89-1.25-.4-1.25-.89.56-.88,1.25-.88Zm-7.2-35.83a22.89,22.89,0,0,1,4.38,0c1.21.15.22.27-2.18.27S1002.89,499.22,1004.09,499.06Zm-9.4-.77c3.62,0,6.58.26,6.58.59h0c0,.75-8.79.75-11.27,0-1.35-.39,0-.57,4.69-.57Zm-30.38,33.63a3.87,3.87,0,0,1-1.87-.23,4.61,4.61,0,0,1,1.87-.57c1-.18,1.88-.08,1.88.23s-.84.59-1.88.59Zm11.91-34.14a68.65,68.65,0,0,1,9.39.51c1.8.36.57.51-4.38.51a69.83,69.83,0,0,1-9.4-.51c-1.8-.35-.56-.5,4.39-.5Zm-3.76,12.9c0,.33-1.09.59-2.43.59a7,7,0,0,1-3.21-.59c-.44-.32.61-.58,2.43-.58s3.21.27,3.21.6Zm-9.1-12.78a14.71,14.71,0,0,1,3.75,0h0c1.22.15.53.27-1.54.29s-3-.11-2.21-.28Zm0,30.36c4-.23,10.33.6,10.33,1.36h0c0,.3-.7.49-1.56.44s-4-.21-6.9-.33c-6-.25-7.11-1.14-1.85-1.46ZM759.5,539.94c0-.5.57-.93,1.26-.93s1.24.26,1.24.56-.56.72-1.24.93-1.25,0-1.25-.6Zm3.9,4.38a3.86,3.86,0,0,1-2-.58c-.42-.33-.21-.59.48-.59a4,4,0,0,1,2,.59c.44.34.22.6-.47.6Zm3.26-18a3.75,3.75,0,0,1-3.65,1.9c-1.44,0-2.09-.39-1.7-.88a3.38,3.38,0,0,0,.66-1.88c0-1,4.1-2,5.43-1.36C767.75,524.22,767.42,525.24,766.66,526.29Zm26.7-6.81c-.73,0-1.32-.26-1.32-.59s.28-.62.55-.58a2.92,2.92,0,0,1,1.33.58h0c.46.4.21.66-.52.66Zm28.81,3.91c-2.38-.41-3.75-.9-3.07-1.11a6.61,6.61,0,0,1,3.06.18,20.3,20.3,0,0,0,4.64.56c1.55,0,2.82.27,2.82.6,0,.81-2,.75-7.41-.17ZM833.38,520c-1.72,0-2.43-.13-1.57-.3a10.27,10.27,0,0,1,3.13,0c.9.23.2.37-1.52.37Zm6.26.68c-1.61-.49-1.56-.58.31-.58,1.21,0,2.2.26,2.2.58,0,.79-.11.79-2.47.07Zm4.49,7c-1.32,0-2.06-.12-1.64-.31a5.12,5.12,0,0,1,2.4,0h0c1,.26.72.35-.72.38Zm41.86,0c-.69,0-1.25-.26-1.25-.58s.56-.6,1.25-.6,1.25.27,1.25.6-.52.69-1.21.69Zm3.6.19c-1.54-.88-1.4-.94,1.41-.6,1.72.22,3.83.4,4.69.4s1.57.28,1.57.6c0,1.09-5.78.72-7.63-.29Zm18.6-8.83a14.87,14.87,0,0,1,3.77,0h0c1.22.15.52.27-1.55.3s-3,0-2.18-.19Zm1.51,1.88a2.45,2.45,0,0,1,2,.27c.44.32-.09.6-1.16.6-2.22.11-2.54-.25-.8-.77Zm20.91,17.38a5.33,5.33,0,0,1-2.66-.59c-.42-.32.07-.58,1.11-.58a5.42,5.42,0,0,1,2.65.58c.47.44,0,.7-1.06.7Zm19.57,1.2h0c-.69,0-3,.15-5,.35-2.26.21-4,.1-4.23-.3a8.25,8.25,0,0,0-3.91-.77c-1.9,0-3.44-.36-3.44-.63,0-.78,15.07-.23,16.53.6.86.58.88.86.08.86Zm-7.82-14.16c0-.31.84-.42,1.88-.23a4.65,4.65,0,0,1,1.88.57,3.91,3.91,0,0,1-1.88.23c-1,.11-1.84-.15-1.84-.46Zm8.45,2.33c-2.27,0-2.45-.11-.94-.57,2.43-.74,3.76-.74,3.76,0,0,.43-1.23.68-2.78.68Zm4.77,12.4c-2.2,0-2.52-.35-.78-.86a2.48,2.48,0,0,1,2,.26c.42.41-.1.71-1.18.71Zm-2.19-43c3.32,0,5.1.15,4.63.5h0a2.19,2.19,0,0,1-1,.52c-.13,0-2.21-.27-4.63-.52l-4.37-.44ZM931,507.91a72.22,72.22,0,0,0,8.45.35c9.87,0,18.08.59,17.34,1.14h0a28.74,28.74,0,0,1-8.65.75c-.28-.13-4-.34-8.19-.47-8.06-.24-10.09-.55-10.09-1.51,0-.22.55-.35,1.18-.15Zm5.63,9.68a5.4,5.4,0,0,0,2.71.68c1.5,0,1.54.2.25,1.17h0c-1.67,1.26-4.1,1.54-5.31.61a3.84,3.84,0,0,0-2.45-.24c-1.2.21-1.66-.15-1.53-1.22s.9-1.51,2.54-1.51c2,0,2.12-.13.62-1s-1.44-1,.59-.59c1.26.22,3.66.56,5.32.77s3,.59,3,.88-1.5.37-3.32.15c-2.28-.16-3-.08-2.38.39Zm-3.05,4c7.37.27,12.32.88,7.05.88-1.85,0-2,.15-.68.89,1,.55,1.07.88.23.88a4.11,4.11,0,0,1-2.12-.6c-1-.79-3.12-.16-3.12.93,0,.47,1,.86,2.19.86,1.71,0,1.82.12.49.51s-1.28.63-.31.91c2.06.6,1.68,1.52-.63,1.52-1.32,0-1.75.32-1.25.94a3.62,3.62,0,0,1,.76,1.21c0,.16.56.12,1.25-.09s1.26,0,1.26.56c0,1.11-1.26,1.08-9.32-.23-7.14-1.14-9.71-2.72-3.36-2.11,3.24.33,3.78.25,3.15-.53s0-.94,2.19-.95c2.72,0,2.65-.1-.8-.79a97.79,97.79,0,0,0-10.35-1.19c-3.63-.23-7.43-.55-8.46-.75-2.25-.4-2.51-2.06-.3-1.93h9.71c5.77,0,7.6-.24,6.26-.65S928.06,521.43,933.55,521.62ZM915.18,507.4a26.76,26.76,0,0,1,5.44.28c2.75.29,3.7.57,2.18.59a34.38,34.38,0,0,0-4.57.4c-1.79.31-4.27-.71-3.08-1.27Zm-5.62-11.26a10.33,10.33,0,0,1,3.14,0c.86.17.15.3-1.57.3S908.65,496.33,909.56,496.14Zm-70.74-2.32a4.88,4.88,0,0,1,2.4,0h0c1,.17.7.32-.76.35s-2.11-.16-1.69-.35ZM796.64,504.9c.35.26-.24.47-1.32.47s-2,.28-2,.6,1.41.59,3.13.59,3.07-.21,3-.44a3.12,3.12,0,0,1,0-1.36c.15-.69.59-.64,2,.26,1,.63,1.84.83,1.84.45s1.82-.71,4.37-.71,4.4-.28,4.41-.73.28-.55.94,0c.51.36,5,.85,10,1.09s8.77.66,8.38.95-.1.53.63.53,1.33-.27,1.33-.61,4-.49,11.59-.28c16.38.48,18.75.69,20,1.73,1.45,1.23,3.62,1.2,2.62,0-.69-.84.13-.92,6.62-.65,18.15.76,38.2,2.4,37.64,3.08-.37.46.91.68,3.79.62,4.89-.06,6.2.43,3.72,1.36-1.23.49-4.48.49-12.21,0-12.59-.79-17.83-1.57-11.14-1.67h4.38l-3.48-.88c-4-1-12.76-.82-15.07.34-1.16.57-1.14.8.07,1,.87.15,1.57.52,1.57.81s-.84.36-1.88.17-1.87-.11-1.86.17c0,.95,1.86,1.82,4.68,2.24,3.28.48,3.82,2.1.71,2.1-1.16,0-5.66-.42-10-.93-8-1-12.59-1-11.62,0a19.86,19.86,0,0,0,5.56.7c9.62.35,17.44.94,19.59,1.48,2.88.74,9.84.7,9.84,0,0-.32-.78-.6-1.74-.6-2,0-3.66-1.58-2.57-2.41.81-.61,13.78-.7,22.4-.15,3.87.25,5.33.55,4.23.87s-1.12.51.54.51c1.21,0,2.19.3,2.19.67s.93.49,2.2.25c1.76-.31,1.88-.24.62.36-.86.41-1.56,1.21-1.56,1.78,0,1.21-3.34.85-6-.65-1-.57-1.32-.61-.75-.1s.13.74-2.73.44c-5.39-.56-16.4-1-14.59-.63,3.27.72,1.52,1.95-3.14,2.18l-4.7.23,5.33.1c2.93,0,5.33.36,5.33.69,0,1.05-.6,1.49-1.78,1.36-.63-.09-.48.21.34.67,1.19.68,1.09.93-.51,1.21-3,.55-3.94.46-6.11-.56a8.42,8.42,0,0,0-4.53-.54c-3.48.53-2.42,1.71,1.72,2,3.12.17,4.57,1.45,2.37,2.09-1.38.41-12-1-13.1-1.67-.53-.36-.92-.19-.94.38s.69,1.1,1.55,1.25h0c2.18.37.74.91-1.57.59-5.7-.79-5.68-.78-3.72-1.36,1.28-.4.41-.47-2.85-.2-5.17.43-6.05-.21-2.56-1.85,2-1,2-1-.65-.58-5,.73-25.28-3.17-25.28-4.88,0-.74-.36-.73-2.31.1-2.73,1.17-11.16.75-9.07-.45.76-.42.77-1,0-1.55a1.49,1.49,0,0,0-2.3,0c-.77.57-2.36.71-5.07.46-2.46-.24-3.66-.16-3.19.21a7.3,7.3,0,0,0,3.2.58c2.65,0,3.37,1.51.91,1.91s-7.68-.25-6.06-.71c.78-.23-1.56-.31-5.2-.18a44.94,44.94,0,0,1-12.28-.95c-5.11-1.1-5.77-1.13-7.13-.27s-1.68.84-3.54,0-1.87-1,.25-1.36l4.16-.69a18.13,18.13,0,0,1,3.45-.21c.86,0,1.57-.15,1.57-.49s-1.38-.62-3.06-.62c-3.65,0-5.44-1-2.66-1.55,1.07-.19,2-.92,2-1.62,0-1.2.52-1.25,9.7-1.11,5.34.08,9.89.4,10.12.73a1.88,1.88,0,0,0,1.83.19,39,39,0,0,1,7-.24c4.94.15,5.42,0,4-.75-.87-.51-1.27-1.16-.87-1.46s-.17-.72-1.25-.91c-3.13-.57-4.25-.42-3.54.45.37.45-.32.92-1.61,1.07a137.94,137.94,0,0,1-21.31-.75c-2.22-.34-7-.74-10.55-.89-6-.26-9.7-1.37-9.82-2.73C783.3,504,795.77,504.26,796.64,504.9Zm-9.13,4.94c2.09.24,3,.75,2.86,1.63h0c-.09.93-1,1.36-3.3,1.47-3.68.19-5-.24-5-1.71s1.71-1.83,5.4-1.39Zm-6.67,27.42c-2.43.73-3.76.73-3.76,0,0-.33,1.27-.59,2.82-.59,2.24,0,2.42.13.9.59ZM775,504.58c4.34-.55,4.8-.44,3.37.82s-2.56,1.44-4.62.33c-1.24-.66-1-.89,1.21-1.16Zm-9-.95c.61,0,1.11.64,1.12,1.47h0c0,1.46-1.7,2-3.07.94-1-.71.42-2.42,1.89-2.42ZM757.36,510c.6-.85,13.67-.93,15-.1.58.37.93.33.94-.12s.87-.57,1.9-.38,1.87.71,1.87,1.16c0,1-7.07,1.11-7.87.08-.45-.59-1.09-.59-3.22,0h0a16,16,0,0,1-3.61.67C758.67,511,756.94,510.51,757.36,510Zm-17.19,5.44c-2.2,0-2.53-.35-.79-.85a2.48,2.48,0,0,1,2,.26h0C741.77,515.15,741.24,515.39,740.17,515.39Zm1.8-10.21a7.62,7.62,0,0,1,2.51.53c0,.47-3.64.21-4.31-.29-.39-.28.42-.39,1.8-.21Zm2,10.28c-1.21-.92-.24-3.61,1.3-3.61a2.71,2.71,0,0,1,2.15,1.26h0c.69,1.33-2.23,3.32-3.48,2.38Zm5.57,6.73c-1-.56-1.08-.9-.25-.9a4.08,4.08,0,0,1,2.16.64h0c1.32,1.05-.22,1.26-1.94.27Zm.55-9.72c1.46-.57,1.76-.48,1.6.51-.21,1.28-1.52,1.61-2.71.71-.41-.26.09-.81,1.08-1.2Zm5.07-2.94c0,.47-1.27.94-2.82,1s-2.82-.08-2.82-.42-1.51-.48-3.75-.26c-3,.27-3.76.15-3.76-.65s1-1,6.57-.78c4.61.14,6.55.52,6.55,1.1Zm-6.27-5.94c3.23.38,2.88.45-2.5.48a64.28,64.28,0,0,1-8.77-.48c-3.29-.64,5.75-.64,11.24,0Zm-69.52-2c5.86.14,20.1.41,31.64.6,19.14.34,24.13.78,21.55,1.91a1.28,1.28,0,0,1-1.45-.3,2.64,2.64,0,0,0-2.26-.4c-.94.17-1.41.68-1,1.15s-.36.84-3.21.84c-2.14,0-3.89-.27-3.89-.6s1.22-.58,2.71-.58,2.48-.11,2.2-.25c-.5-.23-5.95-.42-36.71-1.36-7.5-.2-15.1-.59-16.91-.84s1-.28,7.3-.14Zm-16-.11a5.17,5.17,0,0,1,2.41,0h0c1,.19.7.33-.76.36s-2-.13-1.64-.33ZM350.83,511.9h0c-.86,0-2.7.12-4.08.21-4.49.3-7.14-.27-6.18-1.36a10.76,10.76,0,0,0,1.48-2.33c.49-1.06,1.18-1.25,3.29-.94,5.06.79,9.47,4.33,5.5,4.44Zm-7.23-11.48c1.74.5,1.62,2.26-.22,3.13-3.19,1.5-8.51.53-8.51-1.55C334.87,501.29,342.21,500,343.6,500.42Zm-21.93-2c1-.4,1.72-1,1.57-1.36s1.56-.7,3.79-.82,4.08,0,4.08.35,1.12.59,2.5.59c4.5,0,2.64,1.1-2.18,1.29-3.41.14-4.81.48-5.14,1.36-.23.62.3,1.36,1.21,1.6h0c2.1.59,1.14,1-1.73.68-1.21-.13-1.85-.51-1.41-.85s-.17-.46-1.86-.2c-2.1.31-2.67.15-2.67-.75,0-.72.83-1.55,1.84-1.95ZM303,496c1.81-.7,2-.7,1.19,0s-.34.75,2.2.53c3.21-.3,3.23-.27,1.41,1.36h0c-2.09,1.89-1.84,1.82-4.11,1.16-1.38-.43-1.39-.6-.08-1s1.08-.56-.62-.85c-2.14-.41-2.14-.46,0-1.28Zm-26.74,6.67c2.31-.87,9.88-1.27,9.3-.49a3.6,3.6,0,0,1-2.51.46h0a17.45,17.45,0,0,0-5.19.8c-3.18.93-4.53.26-1.6-.83Zm-31.63,5.16c.69,0,1.26.26,1.26.58s-.57.6-1.26.6-1.25-.27-1.25-.6.6-.64,1.25-.64Zm-45.5,8.07c1.62-.78,3.89-.38,4.53.79h0c.36.64.57,1.14.46,1.12l-3-.79c-1.56-.47-2.45-1-2-1.17Zm-39.34,6.92a4.92,4.92,0,0,1,2.41,0h0c1,.19.7.32-.76.35s-2.06-.2-1.65-.41Zm-13-34.42c2-.59,6.67-.12,5.76.57-.34.26.37.57,1.58.68,3.33.32.18.86-3.42.6-4.22-.35-6.15-1.26-3.95-1.9Zm-8,43.57c.37.27-.23.66-1.3.85h0c-2.63.48-3,.45-3-.17s3.43-1.32,4.23-.71ZM127.68,516c1.92,0,3,.21,2.36.45a13.7,13.7,0,0,0-1.89.92,3,3,0,0,1-2.36-.45c-1.46-.81-1.2-.94,1.82-.94Zm-29-28.33a10,10,0,0,1,4.07-.61c1.8,0,3,.1,2.75.22h0C104.05,487.91,98,488.26,98.71,487.7ZM25.17,503.22c.86-.16,1.56-.8,1.56-1.36s.87-1.13,2.51-1.13c2.09,0,2.45.34,2.19,2.06-.32,2.16-2.32,2.64-5.95,1.36C24,503.67,24,503.44,25.17,503.22Zm.24,18.1c1.41,0,2.58.27,2.58.6s-.82.58-1.81.58a5.38,5.38,0,0,1-2.58-.58c-.43-.33.37-.6,1.79-.6ZM8.63,501.9c-.38-.28.09-.66,1.06-.84,1.83-.33,3.24,0,3.24.88S9.5,502.57,8.63,501.9Zm2.14,5.45a4.87,4.87,0,0,1,2.4,0h0c1,.19.7.33-.76.35s-2.06-.12-1.64-.31Z" transform="translate(0 -459.7)"/><path class="cls-1" d="M43,532.25c-2,.58-1.4,2,1,2.24,3.65.45,3.78.44,4.52-.46S45,531.73,43,532.25Z" transform="translate(0 -459.7)"/><path class="cls-1" d="M54.05,541.1a18.88,18.88,0,0,0-4.69.08c-2.84.26-3.56.53-2.39.87h0C49.22,542.72,55.65,541.85,54.05,541.1Z" transform="translate(0 -459.7)"/><path class="cls-1" d="M857.84,521.32a31,31,0,0,0,5,.49c2,0,1.89-.11-.62-.49C858,520.68,854.65,520.68,857.84,521.32Z" transform="translate(0 -459.7)"/><path class="cls-1" d="M839.16,507.7c1.46,0,1.75-.16.75-.35a5.12,5.12,0,0,0-2.4,0h0C837.1,507.59,837.84,507.73,839.16,507.7Z" transform="translate(0 -459.7)"/><path class="cls-1" d="M849.7,508.34c.69,0,1.25-.39,1.25-.88s-.56-.89-1.25-.89-1.26.4-1.26.89S849,508.34,849.7,508.34Z" transform="translate(0 -459.7)"/><path class="cls-1" d="M841.61,510.77c8.78.15,8.83.15,11,1,1.56.61,2,.61,2.58,0s.91-.6,1.89,0c.67.46,1,1.16.65,1.55h0c-.4.49.45.63,2.67.42,3.09-.28,3.15-.34,1.13-1.36s-2-1.1.26-1.16c5-.1-5.29-1.1-10.83-1a77.84,77.84,0,0,1-8.45-.35,14.6,14.6,0,0,0-4.93.2C835.75,510.53,836.61,510.68,841.61,510.77Z" transform="translate(0 -459.7)"/><path class="cls-1" d="M820.92,507.59a6.7,6.7,0,0,0,3.15-.47c.72-.55-3.8-.45-5,.09h0C818.77,507.38,819.62,507.54,820.92,507.59Z" transform="translate(0 -459.7)"/><path class="cls-1" d="M862.08,509.51a3.85,3.85,0,0,0,2-.58c.43-.33.21-.59-.48-.59a3.75,3.75,0,0,0-2,.59C861.18,509.25,861.4,509.51,862.08,509.51Z" transform="translate(0 -459.7)"/><path class="cls-1" d="M277.24,525.74a7.87,7.87,0,0,0-2-.88c-.24,0-.11.4.29.88a2.84,2.84,0,0,0,2,.9C278.27,526.64,278.14,526.29,277.24,525.74Z" transform="translate(0 -459.7)"/><path class="cls-1" d="M853.13,513.3c-1-.49-5.93.31-5.93,1h0c0,.3.56.56,1.24.56s1.26-.28,1.26-.6.94-.59,2.09-.59S853.54,513.49,853.13,513.3Z" transform="translate(0 -459.7)"/><ellipse class="cls-1" cx="876.64" cy="51.58" rx="1.88" ry="0.59"/><path class="cls-1" d="M862.13,519.19c2,1.12,5.54,1.27,4.8.21a6.69,6.69,0,0,0-3.49-.94C860.85,518.28,860.68,518.38,862.13,519.19Z" transform="translate(0 -459.7)"/><path class="cls-1" d="M61.79,538.27c-1.38-.17-2.19,0-1.81.23h0a5.38,5.38,0,0,0,2.51.53C65.09,539,64.72,538.63,61.79,538.27Z" transform="translate(0 -459.7)"/><path class="cls-1" d="M344,510.93c-.42.2.32.34,1.64.31s1.76-.16.76-.35a5.12,5.12,0,0,0-2.4,0Z" transform="translate(0 -459.7)"/><path class="cls-1" d="M79.33,558.84c0,.54.84.84,2.08.73,3.14-.28,3.58-1.66.52-1.66C80.39,557.91,79.33,558.29,79.33,558.84Z" transform="translate(0 -459.7)"/><path class="cls-1" d="M104.38,555.54c0,.33.56.6,1.25.6s1.26-.27,1.26-.6-.57-.58-1.26-.58S104.38,555.22,104.38,555.54Z" transform="translate(0 -459.7)"/><path class="cls-1" d="M120.81,575.3c-2.38,1.36-2,2.34,1.11,2.72,6.41.88,6.85.76,5.5-1.61C126.58,574.93,122.58,574.22,120.81,575.3Z" transform="translate(0 -459.7)"/><path class="cls-1" d="M107.12,573.84c-.23.33.52.58,1.66.58s1.85-.32,1.56-.73A2.35,2.35,0,0,0,107.12,573.84Z" transform="translate(0 -459.7)"/><path class="cls-1" d="M88.13,553.24c0,1.51,4.15,1.36,4.78-.2.29-.71-.38-1-2.18-1S88.13,552.4,88.13,553.24Z" transform="translate(0 -459.7)"/><path class="cls-1" d="M105.05,538.54a7.85,7.85,0,0,0,3.37.56c3.19,0,2.34-.53-1.4-.88C105.52,538,104.64,538.16,105.05,538.54Z" transform="translate(0 -459.7)"/><polygon class="cls-1" points="88.1 93.54 88.1 93.54 88.1 93.54 88.1 93.54"/><path class="cls-1" d="M114.47,542c-3.38,0-4,.7-1.76,1.87s3.69,1.36,4.75.54S116.77,542,114.47,542Z" transform="translate(0 -459.7)"/><path class="cls-1" d="M118.46,552.15c-1.52.6-1.46.81.45,1.47h0c2.75.94,3.86,1,5,.08C125.32,552.61,120.66,551.28,118.46,552.15Z" transform="translate(0 -459.7)"/><path class="cls-1" d="M127.86,561.3a2.35,2.35,0,0,0-3.24.15c-.22.33.53.59,1.68.59S128.15,561.68,127.86,561.3Z" transform="translate(0 -459.7)"/><path class="cls-1" d="M122.26,549.89h0c-.42.21.32.34,1.63.32s1.76-.17.76-.36A5.08,5.08,0,0,0,122.26,549.89Z" transform="translate(0 -459.7)"/><path class="cls-1" d="M131.73,542.38l2.73-1.36-3-1.37a7,7,0,0,0-5.65-.68q-4.77,1.2-.47,3.57h0C128,544.07,128.4,544.05,131.73,542.38Z" transform="translate(0 -459.7)"/><path class="cls-1" d="M75.57,520.15c0-.33-.56-.6-1.25-.6s-1.26.27-1.26.6.57.58,1.26.58S75.57,520.46,75.57,520.15Z" transform="translate(0 -459.7)"/><path class="cls-1" d="M58.15,533.61c-1.06.94-.77,1,2.26.83,1.91-.12,3.47-.61,3.47-1.06C63.88,532.17,59.59,532.34,58.15,533.61Z" transform="translate(0 -459.7)"/><path class="cls-1" d="M77.55,518.32c1.46,0,1.76-.16.76-.35a5.12,5.12,0,0,0-2.4,0h0C75.49,518.21,76.23,518.35,77.55,518.32Z" transform="translate(0 -459.7)"/><path class="cls-1" d="M57.4,557.91a2.88,2.88,0,0,0-1.32-.6c-.27,0-.52.23-.56.6s.6.59,1.33.59S57.83,558.24,57.4,557.91Z" transform="translate(0 -459.7)"/><path class="cls-1" d="M67,540.65c-.3,1,.22,1.36,2.11,1.36,2.86,0,6.44-1.47,6.44-2.66,0-.43.7-.91,1.57-1s1.17-.47.69-.71C76.22,536.75,67.44,539.25,67,540.65Z" transform="translate(0 -459.7)"/><path class="cls-1" d="M75.57,563.51a2.25,2.25,0,0,0-1.25.62c0,.15.56.26,1.25.26s1.25-.27,1.25-.61S76.26,563.32,75.57,563.51Z" transform="translate(0 -459.7)"/><path class="cls-1" d="M110.64,553h0c0,.46,1.13.83,2.5.83,2.36,0,3.41-1.16,1.76-1.94C113.68,551.28,110.64,552.07,110.64,553Z" transform="translate(0 -459.7)"/><path class="cls-1" d="M95.88,523.18c3.94-1.06,3.89-1.13-1.35-1.84-3.32-.45-4.2-.34-5.83.77-1.79,1.19-1.72,1.36.93,1.63A19.72,19.72,0,0,0,95.88,523.18Z" transform="translate(0 -459.7)"/><path class="cls-1" d="M99.37,549.32c0,.33,1.23,0,2.75-.69s2.31-1.5,1.77-1.75C102.87,546.39,99.37,548.29,99.37,549.32Z" transform="translate(0 -459.7)"/><path class="cls-1" d="M83.74,534.29c-.44.34.09.61,1.19.61,2.62,0,3.83,1.57,2,2.6-1.11.63-1.06.89.17,1.09h0c2.94.49,14.81.3,15.52-.24.38-.29.23-.49-.34-.45a25.46,25.46,0,0,1-3.89-.36c-2.07-.31-2.65-.73-2.11-1.53s.13-1.11-1.37-1.11c-1.75,0-1.84-.15-.53-.91s1.19-1-.77-1.74c-2.15-.76-2.5-.7-3.57.61A3.22,3.22,0,0,1,86.7,534,5,5,0,0,0,83.74,534.29Z" transform="translate(0 -459.7)"/><path class="cls-1" d="M80.57,529.29a2.31,2.31,0,0,0,1.26-.62c0-.15-.57-.26-1.26-.26s-1.24.27-1.24.63S79.88,529.5,80.57,529.29Z" transform="translate(0 -459.7)"/><path class="cls-1" d="M425.6,522.7c-2.06-.38-5.56,1.08-5.56,2.32h0c0,.27,1.55.42,3.44.33C427.44,525.13,428.89,523.3,425.6,522.7Z" transform="translate(0 -459.7)"/><path class="cls-1" d="M843.67,558.09a4.87,4.87,0,0,0-2.4,0h0c-.41.19.33.32,1.65.3S844.67,558.28,843.67,558.09Z" transform="translate(0 -459.7)"/><path class="cls-1" d="M847.2,571.21c0,.52.56.76,1.24.56s1.26-.61,1.26-.91-.57-.56-1.26-.56S847.2,570.71,847.2,571.21Z" transform="translate(0 -459.7)"/><path class="cls-1" d="M849.7,550.29c0,.34.56.46,1.25.26s1.25-.48,1.25-.63-.56-.26-1.25-.26S849.7,550,849.7,550.29Z" transform="translate(0 -459.7)"/><path class="cls-1" d="M889.88,551.1c1.72-.5,1.41-.85-.79-.85-1.08,0-1.6.27-1.17.6h0A2.51,2.51,0,0,0,889.88,551.1Z" transform="translate(0 -459.7)"/><path class="cls-1" d="M848.41,555.54c1.7,0,2.75-1,1.44-1.36a1.9,1.9,0,0,0-1.86.56C847.61,555.15,847.79,555.54,848.41,555.54Z" transform="translate(0 -459.7)"/><polygon class="cls-1" points="886.03 106.91 886.03 106.91 886.04 106.91 886.03 106.91"/><path class="cls-1" d="M845.19,562.62c-2.18,0-2.3,1-.18,1.36h0c2.76.52,3.37.41,2.64-.5A3.65,3.65,0,0,0,845.19,562.62Z" transform="translate(0 -459.7)"/><path class="cls-1" d="M892.29,566.75c-2.24-.67-6.26-.77-6.26-.14,0,.25,1.84.5,4.08.57C893.1,567.28,893.67,567.13,892.29,566.75Z" transform="translate(0 -459.7)"/><path class="cls-1" d="M877.25,553.19c-.93-.82-2.53-1.16-5.36-1.12h-4l4.08.54c2.24.32,4.07.82,4.07,1.13h0c0,.32.59.58,1.29.58S878.16,554,877.25,553.19Z" transform="translate(0 -459.7)"/><path class="cls-1" d="M851.79,569.62a5.93,5.93,0,0,1,3.18-.15c.89.24.63-.1-.57-.74s-2.2-1.52-2.2-1.93-.72-.63-1.61-.46a9.57,9.57,0,0,1-4-.52c-2.79-1-4.46-.58-4.46,1,0,1,.57,1.09,3.34.76s3.2-.24,2.46.68c-.51.64-.23,1.27.68,1.53h0A5.52,5.52,0,0,0,851.79,569.62Z" transform="translate(0 -459.7)"/><path class="cls-1" d="M886.76,562.58c1.46,0,1.76-.16.76-.35a4.92,4.92,0,0,0-2.41,0h0C884.7,562.47,885.44,562.61,886.76,562.58Z" transform="translate(0 -459.7)"/><path class="cls-1" d="M849.81,540.62c-1.63-.78-1.85.08-.46,1.76h0c.87,1,.92,1,1.37,0A1.43,1.43,0,0,0,849.81,540.62Z" transform="translate(0 -459.7)"/><path class="cls-1" d="M839.05,569.71a3.05,3.05,0,0,0,1.33.59c.27,0,.51-.22.55-.59s-.59-.59-1.32-.59S838.61,569.39,839.05,569.71Z" transform="translate(0 -459.7)"/><path class="cls-1" d="M923.76,541.26c-3.09-.22-3.57-.11-2.48.52,1.6.91,2.33,1,4.64.26C927.13,541.7,926.55,541.47,923.76,541.26Z" transform="translate(0 -459.7)"/><path class="cls-1" d="M921.44,552.83h0c-.42.21.32.34,1.64.32s1.76-.17.76-.36A5.13,5.13,0,0,0,921.44,552.83Z" transform="translate(0 -459.7)"/><path class="cls-1" d="M929.55,546h0a3.58,3.58,0,0,0,2.61.6c.61-.68,5.21-.57,5.21.13,0,.32.64.58,1.41.58,1,0,1-.2,0-.77s-1-1-.08-1.37-.34-.8-4-1.23C927.23,543,925.11,543.85,929.55,546Z" transform="translate(0 -459.7)"/><path class="cls-1" d="M915.38,559.61a3.25,3.25,0,0,0,1.73.64c1,0,6-1.73,5.17-1.79l-2.57-.24C916.94,558,914.33,558.81,915.38,559.61Z" transform="translate(0 -459.7)"/><path class="cls-1" d="M817.75,566.17c.44-.34-.06-.43-1.18-.23a4.56,4.56,0,0,0-1.94.59C814.63,567,817,566.73,817.75,566.17Z" transform="translate(0 -459.7)"/><path class="cls-1" d="M826.24,568.76h0c-.42.19.32.34,1.65.31s1.75-.17.75-.35A5.12,5.12,0,0,0,826.24,568.76Z" transform="translate(0 -459.7)"/><path class="cls-1" d="M822.4,530.37a2.46,2.46,0,0,1-2.79-.16,2.09,2.09,0,0,0-1.84-.48c-.41.19.12.76,1.19,1.27s1.93,1.19,1.93,1.53h0c0,.93.93.78,3.91-.62,2.09-1,2.3-1.36,1-1.73A5.89,5.89,0,0,0,822.4,530.37Z" transform="translate(0 -459.7)"/><path class="cls-1" d="M824,539.63a2.82,2.82,0,0,0,1.33.58c.27,0,.51-.22.55-.58s-.6-.6-1.33-.6S823.62,539.3,824,539.63Z" transform="translate(0 -459.7)"/><path class="cls-1" d="M819.62,546.71c0,.32.57.58,1.26.58s1.25-.26,1.25-.58-.56-.6-1.25-.6S819.62,546.38,819.62,546.71Z" transform="translate(0 -459.7)"/><path class="cls-1" d="M816.37,539.52h0a6.66,6.66,0,0,0,3.45.26c2.58-.33,2.59-.37.38-1.13C817.79,537.82,815,538.46,816.37,539.52Z" transform="translate(0 -459.7)"/><path class="cls-1" d="M837.44,543.63l2.69.61h0c3.76.86,4.54.82,5.4-.24.42-.51-.1-1.36-1.16-1.83-1.72-.81-2.17-.79-4.42.28Z" transform="translate(0 -459.7)"/><path class="cls-1" d="M810.63,542.08c-1.28.39-1.22.61.27,1.07h0c3.8,1.17,4.86.72,3.43-1.47a4.36,4.36,0,0,0-2.52-2c-.65,0-.82.43-.38,1S811.48,541.82,810.63,542.08Z" transform="translate(0 -459.7)"/><path class="cls-1" d="M802.33,540.21c.83,0,.74-.34-.25-.9-1.72-1-3.26-.76-1.91.28A4.24,4.24,0,0,0,802.33,540.21Z" transform="translate(0 -459.7)"/><path class="cls-1" d="M805.63,544.49a2,2,0,0,1,1.62-1.36c1.56,0,1.49-2.21-.09-2.66-.69-.2-1.26.15-1.26.8a1.54,1.54,0,0,1-1.42,1.37c-.78.09-1.05.7-.34,1.66h0C805.13,545.81,805.14,545.81,805.63,544.49Z" transform="translate(0 -459.7)"/><path class="cls-1" d="M834,542.62a3.62,3.62,0,0,0-2-.58c-.64,0-1.18.26-1.18.58s.88.6,2,.6S834.46,542.89,834,542.62Z" transform="translate(0 -459.7)"/><path class="cls-1" d="M830,558.1c2.79.53,4.12.4,2.2-.23-1.37-.44-.64-.5,2.65-.23,4.33.35,4.57.28,5.11-1.46.67-2.12-1.83-2.5-4.3-.64a8.63,8.63,0,0,1-4.39,1.19C828.21,556.73,827.39,557.6,830,558.1Z" transform="translate(0 -459.7)"/><path class="cls-1" d="M747,555.26c0-.49-.84-.89-1.87-.89-2,0-2.49.7-1,1.36S747,556.24,747,555.26Z" transform="translate(0 -459.7)"/><path class="cls-1" d="M697,537.64c1.59.9,4.87,1.09,4.87.29,0-.29-1.41-.66-3.14-.81C696.2,536.89,695.87,537,697,537.64Z" transform="translate(0 -459.7)"/><path class="cls-1" d="M705.64,509.84c-7.44.24-8.76.56-8.76,2.07h0a1.18,1.18,0,0,0,1.21,1.14c.66,0,.92-.35.56-.8s.33-.82,2.52-.82c2,0,2.88.26,2.39.67s0,.34.9-.07a14.12,14.12,0,0,1,4.57-.75c1.63,0,2.88-.35,2.88-.81S710.38,509.69,705.64,509.84Z" transform="translate(0 -459.7)"/><path class="cls-1" d="M932.38,542.62c0-.32-1-.57-2.19-.57-1.88,0-1.93.08-.32.57C932.24,543.29,932.38,543.29,932.38,542.62Z" transform="translate(0 -459.7)"/><path class="cls-1" d="M756.16,561.68a1.5,1.5,0,0,0-2-.32c-.67.31-.84.87-.37,1.22h0C755.05,563.52,757,562.76,756.16,561.68Z" transform="translate(0 -459.7)"/><path class="cls-1" d="M750.74,558.8a2.34,2.34,0,0,0,1.25-.63c0-.15-.56-.26-1.25-.26s-1.25.27-1.25.63S750.05,559,750.74,558.8Z" transform="translate(0 -459.7)"/><path class="cls-1" d="M852.2,561c1.38-.18,2.51-.57,2.51-.9s.82-.27,1.88.14c2.17.84,2.51,3.29.54,3.86-.84.25-.31.74,1.39,1.36s3,.7,3.54.29,1.57-.35,3.12.18c1.27.43,1.92,1.09,1.45,1.44s.11.54,2.07.31a13.2,13.2,0,0,1,5.43.55h0c3.28,1.17,3.54,1.14,2.77-.26-.42-.76,0-1.17,1.1-1.17s1.76.38,1.76.84c0,1.36,1.89,1.53,3.54.29,1.37-1,1.14-1.2-2.22-1.51a17.75,17.75,0,0,1-7.07-2.4c-3.06-1.89-3.16-2.12-1.29-3,1.34-.62,2-.71,2-.23s1.85.67,5.62.56c3.1-.08,5.64-.37,5.64-.64s-1.83-.41-4.08-.31a25.92,25.92,0,0,1-5.63-.29,5.83,5.83,0,0,0-2.72-.11,2.49,2.49,0,0,1-2-.27c-1.74-1.36-3.15-.46-3.17,1.92,0,1.85-.34,2.27-1.25,1.62a1.59,1.59,0,0,0-2.35-.08c-1.19.87-3.89.43-3.89-.63,0-.35,1-1,2.18-1.36,2.06-.71,2-.83-.61-2.17-3.17-1.57-3.59-2.31-1.26-2.17,3.77.23,5.2-.14,2.5-.66-2.05-.38-2.81-1-2.81-2.31,0-1-.54-1.77-1.25-1.8a1.2,1.2,0,0,0-1.26,1.1c0,.6-1.33,1.73-3,2.51C849.65,558.41,847.72,561.59,852.2,561Z" transform="translate(0 -459.7)"/><path class="cls-1" d="M870,556.51c-1.94.69-1.84.77,1,.87l5,.2a26.4,26.4,0,0,0,4.69-.36c1.55-.26,2.82-.25,2.82,0s1.75.5,3.89.53a21.51,21.51,0,0,1,4.59.38h0a15,15,0,0,0,3.94.31h3.24l-3-1.17a12.18,12.18,0,0,0-5-.87,96.58,96.58,0,0,1-10.54-.18C874.3,555.87,871.59,555.94,870,556.51Z" transform="translate(0 -459.7)"/><path class="cls-1" d="M910.45,558.5a6,6,0,0,0-2.89-.59c-1.82,0-1.85.1-.24.59h0C909.77,559.24,911.43,559.24,910.45,558.5Z" transform="translate(0 -459.7)"/><path class="cls-1" d="M883.52,547.26c0-.35-.56-.46-1.25-.27a2.4,2.4,0,0,0-1.26.63c0,.15.57.26,1.26.26S883.52,547.6,883.52,547.26Z" transform="translate(0 -459.7)"/><path class="cls-1" d="M910.35,553a4.69,4.69,0,0,0-3.1-1,6.52,6.52,0,0,1-3.31-.79c-1.22-1-7.68-1.62-8.67-.86s.16,1.19,3.75,1.37c1.67.08,4.23.34,5.68.55,2.45.37,2.49.45.54,1.37-1.53.72-2.24.79-2.62.24a1.7,1.7,0,0,0-1.73-.38c-.74.22-.64.68.26,1.18h0c1.78,1,3,1,6.56.17S911.24,554.07,910.35,553Z" transform="translate(0 -459.7)"/><path class="cls-1" d="M899.81,558.24h0a4.05,4.05,0,0,0,2,.26c1.08,0,1.6-.28,1.17-.6C902.21,557.35,899.81,557.6,899.81,558.24Z" transform="translate(0 -459.7)"/><path class="cls-1" d="M844.07,534.9c.42-.32-.11-.58-1.18-.58s-2,.26-2,.58.53.6,1.18.6A3.7,3.7,0,0,0,844.07,534.9Z" transform="translate(0 -459.7)"/><path class="cls-1" d="M858.19,550.29c-.88,0-.47.24.91.5h0c1.54.3,2.7.23,3-.18a7.63,7.63,0,0,1,2.18-1.36c2.15-1,2.15-1.89,0-1.89a5.08,5.08,0,0,0-3.09,1.47A5.24,5.24,0,0,1,858.19,550.29Z" transform="translate(0 -459.7)"/><path class="cls-1" d="M885.09,544.53c-2.36,0-1.89.38,1.25,1h0c4,.75,4,.75,6.69-.66l2.39-1.25-4.38.47C888.63,544.31,886,544.53,885.09,544.53Z" transform="translate(0 -459.7)"/><path class="cls-1" d="M866.72,543.75c.24,0,.11-.39-.28-.88a2.91,2.91,0,0,0-2-.89c-.73,0-.61.37.29.89h0A8,8,0,0,0,866.72,543.75Z" transform="translate(0 -459.7)"/><path class="cls-1" d="M856.3,534.55c-.41.2-.06.35.78.35s1.19.28.77.6.49.59,2.08.59h2.85l-2.86-.94A8.13,8.13,0,0,0,856.3,534.55Z" transform="translate(0 -459.7)"/><path class="cls-1" d="M737,522a6.34,6.34,0,0,0-2.65-1.53c-3.22-1.36-6.17-.42-3.44,1C732.68,522.49,737,522.84,737,522Z" transform="translate(0 -459.7)"/><path class="cls-1" d="M1141.13,547.56c-3,0-3.22.09-1.57.64,1.08.39,1.6.86,1.15,1.07h0c-.45.21.45.38,2,.38,2,0,2.69-.29,2.39-1S1143.47,547.58,1141.13,547.56Z" transform="translate(0 -459.7)"/><path class="cls-1" d="M1137.19,544.34c3.41.69,4.37.69,4.37,0,0-.32-1.55-.57-3.44-.55C1135.07,543.83,1135,543.89,1137.19,544.34Z" transform="translate(0 -459.7)"/><path class="cls-1" d="M1141.69,539.65c-2-.5-2.29-.42-1.76.54a2.2,2.2,0,0,0,2.38.8C1144.63,540.58,1144.53,540.38,1141.69,539.65Z" transform="translate(0 -459.7)"/><path class="cls-1" d="M1165.94,559.14a22.59,22.59,0,0,0-8.09-.63c-1,.08.09.34,2.51.57h0C1166.91,559.74,1167.26,559.74,1165.94,559.14Z" transform="translate(0 -459.7)"/><path class="cls-1" d="M1131.55,537.84a13.72,13.72,0,0,0-6.54-.8c-.71.22,1.45,1,4.81,1.74h0c7.28,1.62,9.74,1.83,5.45.44A33.73,33.73,0,0,1,1131.55,537.84Z" transform="translate(0 -459.7)"/><path class="cls-1" d="M1124,547.88c0-.32-1-.57-2.19-.57-1.87,0-1.92.09-.31.57C1123.88,548.6,1124,548.6,1124,547.88Z" transform="translate(0 -459.7)"/><path class="cls-1" d="M1144.55,572.07c1.11,0,2-.4,2-.89s-.21-.88-.47-.88a7.53,7.53,0,0,0-2,.88h0C1142.79,571.91,1142.88,572.07,1144.55,572.07Z" transform="translate(0 -459.7)"/><path class="cls-1" d="M1048.41,547.71c-1.5.71-.77,1.37,2,1.94h0c3.78.72,6,.72,6,0S1049.47,547.24,1048.41,547.71Z" transform="translate(0 -459.7)"/><path class="cls-1" d="M1075.77,551.42c-1,0-1.84.41-1.84.88a1,1,0,0,0,1.11.89,2.77,2.77,0,0,0,1.85-.89C1077.33,551.77,1076.89,551.42,1075.77,551.42Z" transform="translate(0 -459.7)"/><path class="cls-1" d="M1116.65,550.79a2.84,2.84,0,0,0-1.91,1c-.66.81-.48.84,1.12.23C1118,551.17,1118.26,550.79,1116.65,550.79Z" transform="translate(0 -459.7)"/><path class="cls-1" d="M1183.84,572.49c2.59,0,3.57-.11,2.19-.26a15.94,15.94,0,0,1-3.69-.81c-1.72-.77-3.19-.66-3.19.25h0C1179.15,572.19,1180.78,572.46,1183.84,572.49Z" transform="translate(0 -459.7)"/><path class="cls-1" d="M1157.85,539.9A11.33,11.33,0,0,0,1156,539c-.15,0-.27.41-.27.89h0c0,.49.82.88,1.83.88C1159.07,540.8,1159.12,540.63,1157.85,539.9Z" transform="translate(0 -459.7)"/><path class="cls-1" d="M938.67,551.2h0c1.52.72,9.83.65,9.58,0-.13-.37,3.68-.55,9.81-.48l10,.13-5-.93c-5.79-1.06-21.93-1.59-21.93-.71,0,.31-.5.44-1.12.26C938.54,549,937.3,550.56,938.67,551.2Z" transform="translate(0 -459.7)"/><path class="cls-1" d="M1071.84,556.47c.37-.47,0-1.11-.81-1.36-1.08-.43-1.54-.19-1.67.83C1069.16,557.45,1070.74,557.82,1071.84,556.47Z" transform="translate(0 -459.7)"/><path class="cls-1" d="M311.76,503.62c.27,0,.51-.23.55-.59s-.6-.6-1.32-.6-1,.28-.55.6A3.07,3.07,0,0,0,311.76,503.62Z" transform="translate(0 -459.7)"/><path class="cls-1" d="M219.12,495.52a2.13,2.13,0,0,0-1.93.37,3,3,0,0,1-2.31.43c-2.12-.61-4,3.55-2.07,4.48a9.39,9.39,0,0,0,5.65-.53C220,499.56,220.45,496.13,219.12,495.52Z" transform="translate(0 -459.7)"/><path class="cls-1" d="M214.61,505.39c0,.32.56.58,1.25.58s1.26-.26,1.26-.58-.57-.59-1.26-.59S214.61,505.06,214.61,505.39Z" transform="translate(0 -459.7)"/><path class="cls-1" d="M326.1,512.51c0,.34.56.45,1.24.26a2.33,2.33,0,0,0,1.26-.63c0-.15-.57-.26-1.26-.26S326.1,512.15,326.1,512.51Z" transform="translate(0 -459.7)"/><path class="cls-1" d="M395,507.73c0,.31.85.42,1.88.23a4.56,4.56,0,0,0,1.87-.57,3.88,3.88,0,0,0-1.82-.16C395.84,507.23,395,507.42,395,507.73Z" transform="translate(0 -459.7)"/><path class="cls-1" d="M329.85,515.71a8.27,8.27,0,0,0-2-.89c-.24,0-.11.41.28.89a2.88,2.88,0,0,0,2,.88C330.87,516.59,330.75,516.22,329.85,515.71Z" transform="translate(0 -459.7)"/><path class="cls-1" d="M713,514.82a1,1,0,0,0-1.1.89c0,.47,1.13.88,2.66.88,2.22,0,2.41-.13,1.1-.88A7.16,7.16,0,0,0,713,514.82Z" transform="translate(0 -459.7)"/><path class="cls-1" d="M385,501c0,.5.57.76,1.27.56s.95-.63.55-.93C385.72,499.81,385,500,385,501Z" transform="translate(0 -459.7)"/><path class="cls-1" d="M328.6,518.38c0,.73,1.33.73,3.76,0,1.52-.47,1.34-.59-.94-.59C329.87,517.78,328.6,518.12,328.6,518.38Z" transform="translate(0 -459.7)"/><path class="cls-1" d="M1050.13,532.15h0c0,.22.81.4,1.81.4,2.59,0,8.21-1.28,8.21-1.87,0-.27,2-.49,4.38-.49,3.33,0,4.38.25,4.4,1s.22.87,1.16.17,1.78-.72,4.21-.2c3.07.67,3.07.67,1.82-1.65-1-1.9-1.79-2.31-4.3-2.31-1.72,0-2.72.26-2.28.58s-.07.6-1.11.6a5.61,5.61,0,0,1-2.64-.58,4.22,4.22,0,0,0-3.16.13,4.74,4.74,0,0,1-4,0c-2.58-1.21-4.21-.81-6.43,1.56A11.8,11.8,0,0,0,1050.13,532.15Z" transform="translate(0 -459.7)"/><path class="cls-1" d="M1066.55,523.67c.69,0,.91-.26.48-.58a4,4,0,0,0-2-.59c-.69,0-.9.26-.48.59A3.82,3.82,0,0,0,1066.55,523.67Z" transform="translate(0 -459.7)"/><path class="cls-1" d="M1093.77,527.57c.52-1.26-.43-1.77-2.28-1.23-1,.29-.94.67.23,1.36h0C1093.18,528.5,1093.44,528.49,1093.77,527.57Z" transform="translate(0 -459.7)"/><path class="cls-1" d="M1054,521.68a16.39,16.39,0,0,0,4.22,1.37h0c3.87.73,4.58.65,4.18-.47s-2.83-1.82-7.11-1.88C1052.7,520.73,1052.53,520.84,1054,521.68Z" transform="translate(0 -459.7)"/><path class="cls-1" d="M1078.89,523.44c-1.15,1.43-.44,1.77,2,1,1.73-.58,1.57-1.71-.34-2.48-.85-.34-1.31-.45-1-.26s0,1-.61,1.77Z" transform="translate(0 -459.7)"/><path class="cls-1" d="M1070.45,515.87c2.32-.37,2.58-1.44.44-1.84-1.35-.24-1.93,0-1.93.86S1069.57,516,1070.45,515.87Z" transform="translate(0 -459.7)"/><path class="cls-1" d="M1055.76,514.24a4,4,0,0,0-2-.59c-.69,0-.9.26-.48.59a3.86,3.86,0,0,0,2,.58C1056,514.82,1056.19,514.56,1055.76,514.24Z" transform="translate(0 -459.7)"/><ellipse class="cls-1" cx="997.51" cy="90.55" rx="1.25" ry="0.59"/><path class="cls-1" d="M975.43,565.59c-1.25,0-4.2,2.72-3.38,3.14h0a10.87,10.87,0,0,0,3.27-.08c1.5-.17,2.09-.43,1.32-.54a.89.89,0,0,1-.77-1.36C976.22,566.13,976,565.59,975.43,565.59Z" transform="translate(0 -459.7)"/><path class="cls-1" d="M1036.94,555.54c2,0,4.7-2.72,3.11-3.25a3,3,0,0,0-4,1.77h0C1035.67,555,1036,555.54,1036.94,555.54Z" transform="translate(0 -459.7)"/><path class="cls-1" d="M1041,573.8c1.21.33,2.28.6,2.39.61s-.1-.52-.46-1.16a2.92,2.92,0,0,0-2.39-1.18C1038.15,572.07,1038.47,573.08,1041,573.8Z" transform="translate(0 -459.7)"/><path class="cls-1" d="M1082.69,537.27c0,.32.56.59,1.25.59s1.26-.27,1.26-.59-.57-.6-1.26-.6S1082.69,537,1082.69,537.27Z" transform="translate(0 -459.7)"/><path class="cls-1" d="M1087,529.8a14.32,14.32,0,0,0,5,1.56c1.07,0,1.94.26,1.94.59s.91.58,2,.58c1.66,0,1.75-.15.47-.88a8.25,8.25,0,0,0-3.28-.89c-1,0-1.73-.38-1.73-.84s-1.25-1.27-2.78-1.77C1083.23,526.35,1082.22,527.36,1087,529.8Z" transform="translate(0 -459.7)"/><path class="cls-1" d="M1053.72,563.81a10,10,0,0,0,3.48-.89,5.45,5.45,0,0,1,2.91-.6,1.59,1.59,0,0,0,1.66-.88c.54-1,0-1.17-3-1.17-2.68,0-3.65.28-3.65,1.06s-.67,1.36-1.5,1.77h0C1052.46,563.66,1052.46,563.81,1053.72,563.81Z" transform="translate(0 -459.7)"/><path class="cls-1" d="M1061.55,550.79a21.58,21.58,0,0,0,5.4,1.09c1.83-.26,2.36-1.57.64-1.57a6.44,6.44,0,0,1-3-.92c-1-.67-2.2-.78-4.37-.4C1057.33,549.43,1057.33,549.43,1061.55,550.79Z" transform="translate(0 -459.7)"/><path class="cls-1" d="M1062,532.55a2.84,2.84,0,0,0,1.32.58c.27,0,.51-.21.56-.58s-.6-.6-1.33-.6S1061.6,532.22,1062,532.55Z" transform="translate(0 -459.7)"/><path class="cls-1" d="M1066.32,575.51c-.64.77-.86,1.62-.47,1.92,1.28,1,1.81.56,1.73-1.36S1067.45,574.22,1066.32,575.51Z" transform="translate(0 -459.7)"/><path class="cls-1" d="M1062,540.8a3.88,3.88,0,0,0,2,.6c.69,0,.91-.28.48-.6a4,4,0,0,0-2-.59C1061.82,540.21,1061.6,540.47,1062,540.8Z" transform="translate(0 -459.7)"/><path class="cls-1" d="M1084,559.08c2.35,0,3.69.31,3.69.85s.71,1,1.57,1.11h0a26.25,26.25,0,0,0,4.34.22c3-.07,3.27-1.36.58-2.93-.83-.47-1.16-1.36-.73-1.84a1.11,1.11,0,0,0-.44-1.68,1.63,1.63,0,0,1-.88-1.77.72.72,0,0,0-.68-1c-.57,0-1.41,1.06-1.88,2.37-.66,1.84-1.4,2.36-3.39,2.36s-2.38-.29-1.88-1.19c1-1.7-3.37-1.55-5,.19C1077.45,557.6,1079.45,559.08,1084,559.08Z" transform="translate(0 -459.7)"/><path class="cls-1" d="M1068.91,546.11c0-.32-.56-.59-1.25-.59s-1.26.27-1.26.59.57.6,1.26.6S1068.91,546.43,1068.91,546.11Z" transform="translate(0 -459.7)"/><path class="cls-1" d="M1068.45,560.18l-4.87.39,4.59,1.83c3.77,1.53,4.22,1.92,2.52,2.24s-1.93.88-1.4,2.72c.37,1.36.47,2.34.24,2.34s-1.87-.26-3.64-.57-3.21-.36-3.21,0,1.14.71,2.53.91,2.19.63,1.8.93.16.54,1.23.54,2,.41,2,.89c0,1-1.44,1.15-3.28.28-1.55-.73-6.74-1.26-6.71-.69,0,.87,2.39,2.14,3.22,1.74a10.7,10.7,0,0,1,4.4.57c4,1.12,4.63,1,5.29-1,.55-1.68,4.49-2.27,6.11-.91a6.6,6.6,0,0,0,3.57.94,13,13,0,0,1,5.18,1.49h0c3.88,2.09,10.09,2,12.18-.13,1.33-1.36,1.24-1.71-.66-2.37a14.58,14.58,0,0,0-3.36-.76c-.64,0-.84-.38-.45-.86s.17-1-.49-1.21a1.69,1.69,0,0,1-1.19-1.5c0-1.17-1.61-1.42-7.65-1.21-3.83.14-8-2.33-7-4.08S1074.66,559.71,1068.45,560.18Zm26.2,12.45c.69-.52,5.61,0,5.61.56h0c0,.43-4.8.55-5.67.15-.31-.14-.28-.47,0-.77Z" transform="translate(0 -459.7)"/><path class="cls-1" d="M1082.1,531.39a2.73,2.73,0,0,0-2.14-.26c-.83.25-.7.55.37.86C1082.34,532.58,1083.25,532.26,1082.1,531.39Z" transform="translate(0 -459.7)"/><path class="cls-1" d="M568.27,520.49a31,31,0,0,1,3.24-.34c1.24,0,.87-2.22-.48-2.73-.59-.26-.66-.12-.17.27s.28.75-.49.75-1.08.25-.68.55-.27.86-1.49,1.22h0C566.1,520.84,566.11,520.84,568.27,520.49Z" transform="translate(0 -459.7)"/><path class="cls-1" d="M446.35,558.2a2.38,2.38,0,0,0-1.26.62c0,.15.57.26,1.26.26s1.25-.27,1.25-.62S447,558,446.35,558.2Z" transform="translate(0 -459.7)"/><path class="cls-1" d="M448.22,513.05c-.72-.54-3.13-.28-3.13.34h0a3.94,3.94,0,0,0,2,.26C448.12,513.65,448.65,513.38,448.22,513.05Z" transform="translate(0 -459.7)"/><path class="cls-1" d="M451.71,546.11c2.59-1.36,2.78-2.36.48-2.36-1.38,0-4.59,2.29-4.59,3.27C447.6,547.67,449.73,547.2,451.71,546.11Z" transform="translate(0 -459.7)"/><path class="cls-1" d="M449.16,503.93a11.53,11.53,0,0,0-4.76.79l-3,1.1,2.76.63c3.44.78,3.7.79,5.41.26C451.56,506.1,451.28,504.31,449.16,503.93Z" transform="translate(0 -459.7)"/><path class="cls-1" d="M439.34,509.57c-1.34.51-1.76.51-1.76,0s-1.25-.63-2.82-.52c-4.79.31-3.11,1.36,2.82,1.72h0c3.11.2,6.06.39,6.57.44a.82.82,0,0,0,.94-.8,2.48,2.48,0,0,1,.32-1.26c.17-.22-.39-.51-1.26-.64s-1.61.23-1.66.83-.35.79-.74.32S440.69,509,439.34,509.57Z" transform="translate(0 -459.7)"/><path class="cls-1" d="M405.85,532.15h0c.91.43,4.18.55,4.18.14a3.34,3.34,0,0,1,.7-1.1c.5-.62-.22-.86-2.51-.86C405.21,530.37,404,531.27,405.85,532.15Z" transform="translate(0 -459.7)"/><path class="cls-1" d="M403.83,563.22c-.73,0-1.33.26-1.33.59h0c0,1,2.34.66,3.65-.49.92-.81.79-1.08-.52-1.08-1,0-1.47.22-1.12.49S404.56,563.22,403.83,563.22Z" transform="translate(0 -459.7)"/><path class="cls-1" d="M405.44,523.94h0a3,3,0,0,0,2.66.55c2.47-.44,2.47-1.36,0-1.79S404.5,522.79,405.44,523.94Z" transform="translate(0 -459.7)"/><ellipse class="cls-1" cx="402.51" cy="75.2" rx="1.25" ry="0.59"/><path class="cls-1" d="M433,543.64c-.14.43.41.62,1.22.44s2.45-.49,3.66-.7c3-.49,2.79-2-.24-2C435.2,541.4,433.47,542.23,433,543.64Z" transform="translate(0 -459.7)"/><path class="cls-1" d="M457.26,550.25h0c.82,1.36.89,1.36,1.74-.55.95-2.14.33-3.59-1.51-3.59C456.17,546.11,456.06,548.16,457.26,550.25Z" transform="translate(0 -459.7)"/><path class="cls-1" d="M411.45,509.24c-.4.19.11.59,1.12.89,2.64.79,3,.69,1.18-.33A3.37,3.37,0,0,0,411.45,509.24Z" transform="translate(0 -459.7)"/><path class="cls-1" d="M412.43,497.78c-.57,1.36-.73,3.27-.29,3.62h0c1.14.94,5.4.43,5.4-.64S412.75,497,412.43,497.78Z" transform="translate(0 -459.7)"/><path class="cls-1" d="M416.28,515.39c0,.36.57.47,1.26.26a2.17,2.17,0,0,0,1.25-.61c0-.15-.56-.27-1.25-.27S416.28,515.11,416.28,515.39Z" transform="translate(0 -459.7)"/><path class="cls-1" d="M439.27,513.92c-.8-1-4.19-.45-4.19.67,0,.46.75.83,1.67.83C439.08,515.39,440,514.85,439.27,513.92Z" transform="translate(0 -459.7)"/><path class="cls-1" d="M455.62,539.78c-.41.19-.31.69.23,1.1h0c.78.6,1.08.6,1.5,0C458,540,456.74,539.25,455.62,539.78Z" transform="translate(0 -459.7)"/><path class="cls-1" d="M416.6,532.17c1.12.21.94.49-.63,1-2.78.83-2.79,1.73,0,2.73h0c2.48.85,4.09.6,4.09-.66,0-.46.67-.84,1.5-.84s.45-.36-.82-.79c-1.6-.56-1.87-.93-.87-1.23,2.65-.76,1.57-2.11-1.69-2.11S413.76,531.61,416.6,532.17Z" transform="translate(0 -459.7)"/><path class="cls-1" d="M380.3,568.18h0c-.42.19.33.32,1.65.31s1.75-.18.75-.37A5,5,0,0,0,380.3,568.18Z" transform="translate(0 -459.7)"/><path class="cls-1" d="M441.34,530.76c0-.32-.53-.58-1.18-.58a3.75,3.75,0,0,0-2,.58c-.43.33.1.6,1.18.6S441.34,531.09,441.34,530.76Z" transform="translate(0 -459.7)"/><path class="cls-1" d="M430.76,504.8a5.27,5.27,0,0,0-2.58.59c-.42.32.39.58,1.81.58s2.58-.26,2.58-.58S431.76,504.8,430.76,504.8Z" transform="translate(0 -459.7)"/><path class="cls-1" d="M421,540.17c.18,0,.32-.35.32-.84s-.85-.89-1.88-.89c-2.28,0-2.5,1-.32,1.36Z" transform="translate(0 -459.7)"/><path class="cls-1" d="M418.79,552.57c0-1.74,0-1.74-2.51-.57-2.91,1.36-3.23,2.37-.78,2.37a7.53,7.53,0,0,1,3.12.78c1.06.61.61,1.1-1.9,2.13s-2.87,1.46-1.67,1.82c.91.25,1.24.89.77,1.48s-.19,1.36.6,1.82h0c1.79,1,8.57,1,11.39,0a3.61,3.61,0,0,0,1.26-6c-.86-.77-3.22-1.37-5.86-1.67C419.34,554.36,418.79,554.1,418.79,552.57Z" transform="translate(0 -459.7)"/><path class="cls-1" d="M410,519.26c0-.49-.82-.88-1.81-.88-2.42,0-3.62,1-1.65,1.36C409.31,520.27,410,520.16,410,519.26Z" transform="translate(0 -459.7)"/><path class="cls-1" d="M319,526.29a2.84,2.84,0,0,0,1.92,1c1.42,0,2.79-2.26,1.58-2.62C320.78,524.12,318.22,525.35,319,526.29Z" transform="translate(0 -459.7)"/><ellipse class="cls-1" cx="268.47" cy="55.72" rx="1.25" ry="0.59"/><path class="cls-1" d="M323,520.72c-.71-.55-3.12-.29-3.12.34a3.94,3.94,0,0,0,2,.26C322.86,521.32,323.39,521,323,520.72Z" transform="translate(0 -459.7)"/><path class="cls-1" d="M322.65,534.06h0a26.51,26.51,0,0,0,4.61.41c1.06-.34-1.83-1.26-5.23-1.65C317.16,532.25,317.72,533.35,322.65,534.06Z" transform="translate(0 -459.7)"/><path class="cls-1" d="M267.85,529a3.62,3.62,0,0,0,2,.58c.65,0,1.18-.26,1.18-.58s-.88-.59-2-.59S267.43,528.67,267.85,529Z" transform="translate(0 -459.7)"/><path class="cls-1" d="M284.76,522.5a1,1,0,0,0-.72-1.18c-1.38,0-4.16,1.63-3.39,2C282.32,524.11,284.76,523.56,284.76,522.5Z" transform="translate(0 -459.7)"/><path class="cls-1" d="M279.83,540.8c.73,0,1-.26.55-.59a2.92,2.92,0,0,0-1.33-.58c-.27,0-.52.22-.55.58S279.09,540.8,279.83,540.8Z" transform="translate(0 -459.7)"/><path class="cls-1" d="M325.18,568.11c1.42-.38-.21-1.36-2.29-1.36s-2.39,1-.24,1.36h0A7.17,7.17,0,0,0,325.18,568.11Z" transform="translate(0 -459.7)"/><path class="cls-1" d="M273.22,523.77c.6-.86-.62-1.64-1.74-1.11-.42.19-.31.68.23,1.11h0C272.5,524.37,272.79,524.37,273.22,523.77Z" transform="translate(0 -459.7)"/><path class="cls-1" d="M269.93,518c-1.79-.53-2.23-.45-2.37.46-.19,1.19.63,1.37,3.05.64C271.72,518.74,271.54,518.46,269.93,518Z" transform="translate(0 -459.7)"/><path class="cls-1" d="M286,526.64c0-.33-.53-.6-1.18-.6a3.74,3.74,0,0,0-1.95.6c-.42.31.1.58,1.17.58S286,527,286,526.64Z" transform="translate(0 -459.7)"/><path class="cls-1" d="M382.76,564.88h0c3.5.65,9.89.71,9.07.08a19.92,19.92,0,0,0-6-.51C382.62,564.4,381.43,564.64,382.76,564.88Z" transform="translate(0 -459.7)"/><path class="cls-1" d="M373.79,564.4a10,10,0,0,0,5.64-.16c.43-.2-1-.35-3.18-.31s-3.32.23-2.46.47Z" transform="translate(0 -459.7)"/><path class="cls-1" d="M372.18,571.52c9.64.63,9.33.64,7.57-.24a33.82,33.82,0,0,0-8.48-.93C363.13,570.2,363.72,571,372.18,571.52Z" transform="translate(0 -459.7)"/><path class="cls-1" d="M354.68,541.4c1.51,0,3.28-1.13,2.41-1.54a3.43,3.43,0,0,0-2.15.64h0C354,541.06,353.85,541.4,354.68,541.4Z" transform="translate(0 -459.7)"/><path class="cls-1" d="M385.31,571.72h0c-.42.19.32.32,1.64.31s1.76-.18.76-.37A4.88,4.88,0,0,0,385.31,571.72Z" transform="translate(0 -459.7)"/><path class="cls-1" d="M390.21,559.87a5.12,5.12,0,0,0-2.4,0h0c-.41.19.33.34,1.65.31S391.21,560.05,390.21,559.87Z" transform="translate(0 -459.7)"/><path class="cls-1" d="M332.46,570.64c.06.69.36.83.76.35s.31-.92-.1-1.13S332.4,570,332.46,570.64Z" transform="translate(0 -459.7)"/><path class="cls-1" d="M334.19,533.17c.39-.3.24-.68-.35-.85s-1.06.08-1.06.55C332.78,533.87,333.17,534,334.19,533.17Z" transform="translate(0 -459.7)"/><path class="cls-1" d="M340.19,533.34a9.67,9.67,0,0,0-3.13,0c-.86.16-.16.3,1.57.3S341.05,533.5,340.19,533.34Z" transform="translate(0 -459.7)"/><path class="cls-1" d="M318.08,538.09h0a3.51,3.51,0,0,0,2.38.94c1.85,0,3.48-1.62,2.44-2.43a5.38,5.38,0,0,0-2.44-.53C318.16,536.09,317.14,537,318.08,538.09Z" transform="translate(0 -459.7)"/><path class="cls-1" d="M334.87,556.55a1.81,1.81,0,0,0,.83,1.55h0a6.4,6.4,0,0,0,4.73-.13,17.06,17.06,0,0,1,5.52-.24c5.09.33,7.19-.6,5.65-2.47-1-1.22-9.22-1.23-9.22,0,0,.64-.95.77-3.75.5C335.47,555.46,334.87,555.58,334.87,556.55Z" transform="translate(0 -459.7)"/><path class="cls-1" d="M577.25,517.19a6.13,6.13,0,0,0-2.9-.58c-1.82,0-1.84.09-.23.58C576.57,517.94,578.23,517.94,577.25,517.19Z" transform="translate(0 -459.7)"/><path class="cls-1" d="M613.65,520.15c.27,0,.52-.23.56-.6s-.6-.59-1.33-.59-1,.26-.55.59A2.88,2.88,0,0,0,613.65,520.15Z" transform="translate(0 -459.7)"/><path class="cls-1" d="M617.86,508.93c-1.71,0-2.4.41-2.4,1.36A1.9,1.9,0,0,0,617,512h0c3.06.59,5,.13,6.28-1.47C624.11,509.55,622.06,508.93,617.86,508.93Z" transform="translate(0 -459.7)"/><path class="cls-1" d="M619.21,546.45h0a4.05,4.05,0,0,0,2,.26c1.07,0,1.6-.28,1.16-.6C621.62,545.56,619.21,545.82,619.21,546.45Z" transform="translate(0 -459.7)"/><path class="cls-1" d="M632.36,547.88a3.75,3.75,0,0,0-2-.59c-.65,0-1.18.27-1.18.59s.88.6,1.94.6S632.75,548.2,632.36,547.88Z" transform="translate(0 -459.7)"/><path class="cls-1" d="M661.17,535.5a2.88,2.88,0,0,0-1.32-.6c-.27,0-.52.23-.55.6s.59.59,1.32.59S661.6,535.82,661.17,535.5Z" transform="translate(0 -459.7)"/><path class="cls-1" d="M591.34,505.24a2.35,2.35,0,0,0-3.24.15c-.23.32.53.58,1.67.58S591.63,505.65,591.34,505.24Z" transform="translate(0 -459.7)"/><path class="cls-1" d="M593.22,517.63h0c-.31.43.56.73,2.09.73s2.61-.38,2.61-.92C597.92,516.36,594,516.51,593.22,517.63Z" transform="translate(0 -459.7)"/><ellipse class="cls-1" cx="601.06" cy="104.99" rx="1.88" ry="0.88"/><path class="cls-1" d="M596.52,545.24c2.83-.21,2.1-3.54-1.23-5.53l-2.58-1.54.86,1.61c.66,1.24.34,1.7-1.38,2-2.09.37-2.08.42.18.85,2.1.38,2.13.45.24.49s-2,.12-.15,1.15h0A8.51,8.51,0,0,0,596.52,545.24Z" transform="translate(0 -459.7)"/><path class="cls-1" d="M581.54,535.73a9.56,9.56,0,0,0,4.15.6c1.55-.08,3.57-.16,4.47-.19s1.27-.34.82-.68a3.89,3.89,0,0,0-2.59-.31c-1,.18-1.74,0-1.74-.56,0-1-.61-1.06-3.92-.23C580.89,534.82,580.57,535.19,581.54,535.73Z" transform="translate(0 -459.7)"/><path class="cls-1" d="M670.38,520.73c-2.69,0,2.91,2.29,6.49,2.72a13.67,13.67,0,0,1,5.47,1.76,5.89,5.89,0,0,0,4.34,1.09,5.67,5.67,0,0,1,3.29.39h0c1.35,1,2.24.26,1.3-1.13a3.48,3.48,0,0,0-2.62-1.22,12.63,12.63,0,0,1-4.3-1.19,12.7,12.7,0,0,0-3.76-1.17c-.69,0-1.25-.39-1.25-.88,0-1.21-3.74-1.12-5.77.15-1,.62-1.68.73-1.7.28S671.18,520.73,670.38,520.73Z" transform="translate(0 -459.7)"/><path class="cls-1" d="M585.07,532.13h0c1.15,1,1.58,0,.81-1.87A2.92,2.92,0,0,0,584,528.4C582.94,528.4,583.71,531,585.07,532.13Z" transform="translate(0 -459.7)"/><path class="cls-1" d="M714.42,542.62c0,.34.56.47,1.25.26s1.26-.48,1.26-.63-.57-.25-1.26-.25S714.42,542.27,714.42,542.62Z" transform="translate(0 -459.7)"/><path class="cls-1" d="M720.74,535.49c-2,0-2.54,1.16-1.48,2.93h0a2.68,2.68,0,0,0,1.65-.44C723.29,536.86,723.19,535.49,720.74,535.49Z" transform="translate(0 -459.7)"/><path class="cls-1" d="M724.44,532.77c0-1-2.73-1.07-4.77-.11a2.92,2.92,0,0,1-3,0c-1.14-.53-.94-1,.81-1.88,2.22-1.16,2.22-1.2-.09-1.3-1.31,0-3.18-.06-4.15,0a9.35,9.35,0,0,1-3.53-.8c-2-.94-9.82-1.13-11-.26s3.9,3,6.85,3,3.15.38.8,1.48a3.25,3.25,0,0,1-3,.18,4.74,4.74,0,0,0-2.86-.16q-1.5.45,2.7,1.17h0c5.83,1,6.15,1,6.15,0s4.39-1.25,5.49-.41S724.44,533.66,724.44,532.77Z" transform="translate(0 -459.7)"/><path class="cls-1" d="M673.08,511.58c.69-.2,1.25-.47,1.25-.62s-.56-.26-1.25-.26-1.25.28-1.25.62S672.39,511.79,673.08,511.58Z" transform="translate(0 -459.7)"/><path class="cls-1" d="M703.5,514.5c1.24-.22,1.94-.55,1.55-.74a3.48,3.48,0,0,0-2.24.41h0C701.58,514.75,701.71,514.82,703.5,514.5Z" transform="translate(0 -459.7)"/><path class="cls-1" d="M716.3,522.9c1.49-.2,1-.28-1.24-.21-4.1.12-6,1.92-3,2.83,2.51.75,2.82.63,1-.39S712.39,523.39,716.3,522.9Z" transform="translate(0 -459.7)"/><path class="cls-1" d="M694.37,511.31c0-.31-1.27-.57-2.82-.57-2.28,0-2.46.11-.94.57C693,512,694.37,512,694.37,511.31Z" transform="translate(0 -459.7)"/><path class="cls-1" d="M721.3,545.35c1,0,1.88-.24,1.88-.5s-.84-.5-1.88-.5-1.88.23-1.88.5S720.27,545.35,721.3,545.35Z" transform="translate(0 -459.7)"/><path class="cls-1" d="M681.84,514.54a7.72,7.72,0,0,1,3.44.24h0l2.31.61a3.78,3.78,0,0,0-.08-1.14c-.19-1.27-1.9-2.42-1.9-1.29,0,.38-1.13.69-2.51.69s-2.51.27-2.51.63S681.15,514.74,681.84,514.54Z" transform="translate(0 -459.7)"/><path class="cls-1" d="M690.49,529.23c2,1.13,4.31,1.26,3.57.21a5,5,0,0,0-2.88-1C689.13,528.3,689,528.4,690.49,529.23Z" transform="translate(0 -459.7)"/><path class="cls-1" d="M538.09,570.79c2-1.51,2-1.59-.81-2.46-6.21-1.92-12.5,1.21-7.59,3.77h0C532.9,573.76,534.39,573.54,538.09,570.79Z" transform="translate(0 -459.7)"/><path class="cls-1" d="M585.71,515.93h0a9.37,9.37,0,0,0,4.06.42c1.38-.18,2.86-.33,3.28-.33,1.15,0-.27-2.93-1.62-3.32a15,15,0,0,0-4.23,0C583.87,513.11,583.13,514.7,585.71,515.93Z" transform="translate(0 -459.7)"/><path class="cls-1" d="M465.22,545.64c-1.6,1-2,1.72-1.28,2.29a2.8,2.8,0,0,0,2.1.55,1.44,1.44,0,0,1,1.46,1.18h0c.27.82.74,1.14,1.05.74a7.4,7.4,0,0,1,3.89-.78c5.08,0,7.62-.71,9.51-2.42,1.59-1.45,1.46-1.68-1.66-3.09a17.6,17.6,0,0,0-5.83-1.49c-3.87,0-8.09.67-7.44,1.17C467.35,544,466.54,544.85,465.22,545.64Z" transform="translate(0 -459.7)"/><path class="cls-1" d="M539,529.87c-3.56-1.79-8.73-2-8.73-.32a1.67,1.67,0,0,1-1.23,1.51c-.69.15-.46.93.76,1.81h0a9.4,9.4,0,0,0,10,0C541.82,531.39,541.82,531.25,539,529.87Z" transform="translate(0 -459.7)"/><path class="cls-1" d="M533.67,517.78c-1.6,0-5.89,1.77-5.89,2.42s8.31.35,9.54-.23C538.34,519.48,535.48,517.78,533.67,517.78Z" transform="translate(0 -459.7)"/><path class="cls-1" d="M501.47,515.72c-1.32.8-2.22,5-1.09,5a2.89,2.89,0,0,1,1.81,1.36,6.8,6.8,0,0,0,2.9,2.06h0c2.6.92,10.47,1,12.41,0,1.12-.53,1.5-.53,1.5,0s.79.54,1.76.37a1.56,1.56,0,0,0,1.38-1.9,2.16,2.16,0,0,1,.9-2.31,1.42,1.42,0,0,0,.63-1.89c-.37-.64,0-1.28.79-1.43s.45-.3-.76-.33c-3,0-2.76-1.85.37-2.25a9.27,9.27,0,0,0,4.39-2c1.68-1.54,1.63-1.72-.59-2.29a22.84,22.84,0,0,0-4.4-.61c-1.08,0-2-.28-2-.63,0-1.48-3.28-2.27-13.84-3.29-4.29-.41-5.92,1.36-5.54,6C502.3,513.53,502,515.39,501.47,515.72Z" transform="translate(0 -459.7)"/><path class="cls-1" d="M471.18,552.47a6,6,0,0,1-3.06.32c-1.77-.32-2.38.49-.89,1.19,1.67.79,3.89.36,4.58-.88C472.31,552.15,472.12,552,471.18,552.47Z" transform="translate(0 -459.7)"/><path class="cls-1" d="M475,541.68c.36-.17,0-.62-.84-1s-1.48-.47-1.48-.1a1.35,1.35,0,0,0,.84,1A2,2,0,0,0,475,541.68Z" transform="translate(0 -459.7)"/><path class="cls-1" d="M502.72,557.31c0,.33-.71.6-1.57.6-1.32,0-1.94,2.36-1.12,4.28h0c.29.69,10.21.51,10.21-.18,0-.36.56-.46,1.25-.27,2.73.8,1-1.46-2.38-3.18C505.48,556.74,502.72,556.24,502.72,557.31Z" transform="translate(0 -459.7)"/><path class="cls-1" d="M465.21,530.18a3.78,3.78,0,0,0-1.95.58c-.43.33.11.6,1.18.6s1.95-.27,1.95-.6S465.87,530.18,465.21,530.18Z" transform="translate(0 -459.7)"/><path class="cls-1" d="M493,525.55c1.11-.52,1.11-.86,0-1.36a3.28,3.28,0,0,0-2.29-.31c-.44.2-.43.83,0,1.36C491.33,526,491.85,526.08,493,525.55Z" transform="translate(0 -459.7)"/><path class="cls-1" d="M460.66,535.67h0c-.25.81.14.88,2.12.38,1.34-.34,2.08-.87,1.65-1.2C463.32,534,461,534.45,460.66,535.67Z" transform="translate(0 -459.7)"/><path class="cls-1" d="M520.25,505.39c-1.62.49-1.58.58.24.58a6.13,6.13,0,0,0,2.9-.58C524.37,504.64,522.71,504.64,520.25,505.39Z" transform="translate(0 -459.7)"/><path class="cls-1" d="M576.7,534.9c.73,0,1-.26.55-.58a2.86,2.86,0,0,0-1.33-.6c-.27,0-.51.23-.55.6h0C575.37,534.64,576,534.9,576.7,534.9Z" transform="translate(0 -459.7)"/><path class="cls-1" d="M276.54,520.15c-1.76,0-2.89.23-2.5.53a6.26,6.26,0,0,0,3.21.21C280.69,520.47,280.38,520.15,276.54,520.15Z" transform="translate(0 -459.7)"/><path class="cls-1" d="M576.43,529.87c.36-.17,0-.62-.83-1s-1.48-.46-1.48-.09a1.32,1.32,0,0,0,.83,1A2,2,0,0,0,576.43,529.87Z" transform="translate(0 -459.7)"/><path class="cls-1" d="M577.88,542.28c.69-.2,1.25-.64,1.25-.95s-.56-.44-1.25-.23-1.26.62-1.26.95S577.19,542.47,577.88,542.28Z" transform="translate(0 -459.7)"/><path class="cls-1" d="M716.48,517.79c-3.33,0-5.14.57-6.19,1.91h0c-.94,1.19,2,1.36,7.16.46C721.26,519.48,720.56,517.78,716.48,517.79Z" transform="translate(0 -459.7)"/><path class="cls-1" d="M499.72,513.35a7.78,7.78,0,0,0-3.75-.45c-.79.23-.05.57,1.75.81h0C502.23,514.31,502.33,514.29,499.72,513.35Z" transform="translate(0 -459.7)"/><path class="cls-1" d="M565.85,559.38c2.28-.82,2.23-.87-1.16-1.48-4.43-.79-6.85-.38-6.85,1.17S562.21,560.67,565.85,559.38Z" transform="translate(0 -459.7)"/><path class="cls-1" d="M565.4,507.48c-1.17-.66-2.15-.7-4.53-.2-3.26.71-4,2-1.47,2.44C564.51,510.68,568.46,509.21,565.4,507.48Z" transform="translate(0 -459.7)"/><path class="cls-1" d="M564.72,522.5a2.84,2.84,0,0,0,1.33.59c.27,0,.51-.22.55-.59s-.59-.6-1.32-.6S564.3,522.2,564.72,522.5Z" transform="translate(0 -459.7)"/><path class="cls-1" d="M559.64,519c-.27,0-.51.22-.56.59h0c0,.32.6.6,1.33.6s1-.28.55-.6A2.76,2.76,0,0,0,559.64,519Z" transform="translate(0 -459.7)"/></svg>