<svg id="Слой_1" data-name="Слой 1" xmlns="http://www.w3.org/2000/svg" viewBox="0 0 1900.91 301.03"><defs><style>.cls-1,.cls-2,.cls-3{fill:#2f6683;stroke:#2f6683;}.cls-1{stroke-miterlimit:10;stroke-width:0.5px;}.cls-2,.cls-3{stroke-linecap:round;stroke-linejoin:round;}.cls-3{stroke-width:5px;}</style></defs><title>logogog</title><path class="cls-1" d="M1253.06,2130.79l.07,4.43.2,19.72.13,11.08v2.6c0,.32-.27.48-.8.48s-.81-.16-.81-.48v-5.56l-.2-20.15-.14-9.64-.8,1.73q-1.08,2.22-4.17,9.69l-2.62,6.17q-1.55,3.94-3.23,7.38l-.4,1a20.28,20.28,0,0,1-1.88,3.34c-.09.15-.29.22-.6.22a.85.85,0,0,1-.81-.35l-1.88-3.86-12-24.15.14,2.65.4,8.81c.22,5.45.33,10.09.33,13.95q0,4.33-.2,8.55,0,.48-.81.48c-.53,0-.8-.16-.8-.48q.19-4.56.2-9.16,0-8.47-.74-23.2l-.2-5.16v-.05a.41.41,0,0,1,.23-.35,1.14,1.14,0,0,1,.51-.13c.45,0,.69.13.74.39.89,1.63,1.54,2.91,1.95,3.87l13,26.28a7.59,7.59,0,0,0,.88-1.74l.6-1.39.47-1.17q2.15-4.7,5-11.51l2.29-5.39q2-4.65,3-6.73l.34-.87a3.4,3.4,0,0,1,.74-1.28,1.44,1.44,0,0,1,1.07-.5,1,1,0,0,1,.57.15A.44.44,0,0,1,1253.06,2130.79Z" transform="translate(-1189.7 -2129.41)"/><path class="cls-1" d="M1281.28,2133.05l.2,4.56a7,7,0,0,0,.07,1.13l.2,5.78.13,2.82a6.09,6.09,0,0,0,.07,1c.09,2.55.14,5.12.14,7.73a23.61,23.61,0,0,1-.51,5.3,9.47,9.47,0,0,1-1.91,3.91,8.34,8.34,0,0,1-3.4,2.28,12.64,12.64,0,0,1-4.6.84,11.22,11.22,0,0,1-3.29-.43,6,6,0,0,1-4.84-5.73v0a.38.38,0,0,1,.2-.3,1,1,0,0,1,.54-.13q.67,0,.81.48a6,6,0,0,0,1.54,3.6,5.81,5.81,0,0,0,2.25,1.17,10.15,10.15,0,0,0,2.93.44,10.67,10.67,0,0,0,1.41-.09,7.49,7.49,0,0,0,4.7-2.24,10.56,10.56,0,0,0,2.22-4.75,21.32,21.32,0,0,0,.4-4.52l-.13-4.52-.14-3.9a6.59,6.59,0,0,1-1.75,1.47,12.58,12.58,0,0,1-6.38,1.44,10,10,0,0,1-5-1.18,7,7,0,0,1-3.06-3.21,12.91,12.91,0,0,1-.88-4.17c0-.43-.06-.9-.06-1.39v-9.77a.67.67,0,0,1,.74-.48c.45,0,.67.13.67.39v10.12c.13,1.48.27,2.58.4,3.3a7.83,7.83,0,0,0,.74,2.13,6.15,6.15,0,0,0,4.57,3.13,11.87,11.87,0,0,0,1.75.13l1.34-.05a10.32,10.32,0,0,0,3.73-.93,5.17,5.17,0,0,0,2.32-2.06,6.81,6.81,0,0,0,.74-2.87l-.47-12.68v-.05a.33.33,0,0,1,.2-.34c.09-.2.34-.31.74-.31a1,1,0,0,1,.47.11.39.39,0,0,1,.2.37Z" transform="translate(-1189.7 -2129.41)"/><path class="cls-1" d="M1308.09,2130.36v-.05c0-.32.25-.47.74-.47s.83.17.87.52q.4,6.42.81,19.59.2,9.81.67,17.63,0,.48-.81.48c-.53,0-.8-.16-.8-.48-.09-1.1-.18-2.82-.27-5.15s-.16-4.3-.2-5.93l-.07-2.21-.13-4.48q-4.44.32-10.29.31c-2.28,0-3.76,0-4.43,0h-.07q0,9.63-.33,18,0,.48-.81.48t-.81-.48q.4-7.86.41-19.33c0-2.83,0-4.66-.07-5.47q-.27-7.65-.27-12.9c0-.35.27-.52.81-.52s.8.17.8.52c0,3.79,0,6.23.07,7.3.14,3.76.2,7.54.2,11.33h.07c.67,0,2.15,0,4.43,0q5.85,0,10.29-.31Q1308.5,2136.4,1308.09,2130.36Z" transform="translate(-1189.7 -2129.41)"/><path class="cls-1" d="M1322.4,2132.75v-1.91c0-.35.27-.53.81-.53s.81.18.81.53q0,4.47-.14,8.64a7,7,0,0,0-.07,1l-.13,3.3-.13,5.78-.21,5.91-.07,1.25c-.26,4-.4,7-.4,8.95l5.51-10,11.29-20.37,2.56-4.69a.84.84,0,0,1,.8-.35c.49,0,.74.14.74.43v.05l-.13,2.86q-1,16.08-1,25.85,0,4.42.2,8.86,0,.48-.81.48c-.54,0-.8-.16-.8-.48q-.21-4.35-.21-8.73,0-9.12.88-22.72l.13-2.82-5.3,9.6L1325.49,2164l-2.62,4.69a.84.84,0,0,1-.8.35,1.26,1.26,0,0,1-.51-.11.38.38,0,0,1-.23-.37c0-.41-.07-1.32-.07-2.74q0-3.43.34-8.86l.06-1.35q.27-4,.27-7.51c0-1.91.07-3.82.2-5.73l.14-4.3Z" transform="translate(-1189.7 -2129.41)"/><path class="cls-1" d="M1369.37,2168.36l-2.28,0-6.25-.13c-2.33,0-4.42-.05-6.25-.13-.5-.06-.74-.25-.74-.57a.51.51,0,0,1,.07-.26v-.13q0-6.6.26-13.59c0-.55.07-1.78.07-3.7q0-10.11-.33-19.06a.39.39,0,0,1,.2-.35.81.81,0,0,1,.47-.13c.49,0,.74.16.74.48q.33,7.61.33,16.37l-.13,11.56-.14,8.38c1.79.06,3.61.08,5.45.08l4.16.09,1.48.09c.9.06,1.46.08,1.68.08a20.64,20.64,0,0,0,2.15-.12c0-.38.07-1,.07-1.83a7.13,7.13,0,0,0-.07-1.13,4.44,4.44,0,0,1-.06-.82q.12-5.61.47-12.86c.08-2.72.13-5.79.13-9.21,0-.69.07-2.24.07-4.65,0-2.92,0-4.89.06-5.9q0-.48.81-.48t.81.48q-.13,5.82-.14,14c0,2.29-.09,5.12-.27,8.51q-.27,5.77-.27,9.82v2a8.49,8.49,0,0,1-.13,1.6c0,.15-.09.29-.13.44.8,0,1.36,0,1.68,0a.51.51,0,0,1,.26,0h.14c.54,0,.8.16.8.48s0,1.56,0,3.38q-.13.48-.87.48a1.18,1.18,0,0,1-.5-.11.34.34,0,0,1-.24-.32v-2.91h-2.08a3.7,3.7,0,0,1-.6,0Z" transform="translate(-1189.7 -2129.41)"/><path class="cls-1" d="M1383.82,2132.75v-1.91c0-.35.27-.53.8-.53s.81.18.81.53c0,3,0,5.86-.13,8.64a5.84,5.84,0,0,0-.07,1l-.14,3.3-.13,5.78-.2,5.91-.07,1.25q-.4,6-.4,8.95l5.51-10,11.29-20.37,2.55-4.69a.85.85,0,0,1,.81-.35c.49,0,.74.14.74.43v.05l-.14,2.86q-1,16.08-1,25.85,0,4.42.21,8.86,0,.48-.81.48t-.81-.48q-.2-4.35-.2-8.73,0-9.12.87-22.72l.14-2.82-5.31,9.6L1386.91,2164l-2.62,4.69a.87.87,0,0,1-.81.35,1.18,1.18,0,0,1-.5-.11.39.39,0,0,1-.24-.37c0-.41-.06-1.32-.06-2.74q0-3.43.33-8.86l.07-1.35q.27-4,.27-7.51c0-1.91.06-3.82.2-5.73l.13-4.3Z" transform="translate(-1189.7 -2129.41)"/><path class="cls-1" d="M1415.33,2131.4a.62.62,0,0,1-.06-.26c0-.32.24-.51.73-.57,1.84-.08,3.93-.13,6.26-.13l6.25-.13,3.15,0c.72,0,1.13.11,1.24.41a7.29,7.29,0,0,1,.31,1.07,8.49,8.49,0,0,1,.13,1.6v2.05q0,4,.27,9.81.27,5.09.27,8.51,0,8.22.13,14c0,.32-.27.48-.8.48s-.81-.16-.81-.48c0-1-.07-3-.07-5.9q0-3.61-.06-4.65,0-5.13-.14-9.21-.33-7.24-.47-12.85a4.34,4.34,0,0,1,.07-.83,7.13,7.13,0,0,0,.07-1.13c0-.84,0-1.45-.07-1.82a18.32,18.32,0,0,0-2.15-.13c-.22,0-.78,0-1.68.08l-1.48.09-4.16.09c-1.84,0-3.66,0-5.45.08l.14,8.38.13,11.56q0,8.77-.33,16.37,0,.48-.75.48a.85.85,0,0,1-.47-.13.41.41,0,0,1-.2-.35q.35-8.94.34-19.06c0-1.91,0-3.15-.07-3.7q-.27-7-.27-13.59Z" transform="translate(-1189.7 -2129.41)"/><path class="cls-1" d="M1458.67,2130.36a147.36,147.36,0,0,0,3.16,16.94q2.14,8.77,5.78,20.37s-.08.15-.37.28a2,2,0,0,1-.84.19.51.51,0,0,1-.47-.21q-2.55-8.34-4.91-17.85h-8.33q-2,6.28-6.65,17.24l-.4.95a.63.63,0,0,1-.34.24,1.13,1.13,0,0,1-.47.11,1.35,1.35,0,0,1-.54-.09.27.27,0,0,1-.2-.26.31.31,0,0,1,.07-.21l4.9-12q1.35-3.53,2.83-9a73.21,73.21,0,0,1,2.08-7l2-5.87.41-1.17a8,8,0,0,0,.67-2.69c0-.32.24-.48.74-.48S1458.58,2130,1458.67,2130.36Zm-5.78,18.67h7.8l-.47-2.26q-1.82-8.11-2.62-12.76a1,1,0,0,1-.07.39,1.65,1.65,0,0,0-.13.43l-1.35,4.13-.4,1.3c-1.17,3.48-1.86,5.65-2.09,6.51A10.15,10.15,0,0,1,1452.89,2149Z" transform="translate(-1189.7 -2129.41)"/><path class="cls-1" d="M1480.71,2156.33c0-2.43.07-4.94.07-7.51,0-1.91,0-3.15-.07-3.7q-.27-7-.27-13.59v-.13a.62.62,0,0,1-.06-.26c0-.32.24-.51.73-.57,1.84-.08,3.7-.13,5.58-.13l4.24-.13,3.16,0c.71,0,1.12.11,1.24.41a8.87,8.87,0,0,1,.3,1.07,8.49,8.49,0,0,1,.13,1.6v2.05q0,4,.27,9.81.27,5.09.27,8.51,0,8.22.14,14,0,.48-.81.48t-.81-.48c0-1-.06-3-.06-5.9,0-2.41,0-4-.07-4.65,0-3.42,0-6.49-.13-9.21q-.35-7.24-.47-12.85a4.48,4.48,0,0,1,.06-.83,7.13,7.13,0,0,0,.07-1.13c0-.84,0-1.45-.07-1.82a18.32,18.32,0,0,0-2.15-.13c-.22,0-.78,0-1.68.08l-1.48.09-2.15.09c-1.39,0-3,0-4.77.08l.13,8.38.14,11.56q0,3.69-.07,7.12l-.07.09c-.13.78-.33,1.82-.6,3.13q-1.82,5.46-5.71,6.21l-.27.08a.75.75,0,0,1-.47-.15.45.45,0,0,1-.2-.37c0-.23.11-.39.47-.48a7.44,7.44,0,0,0,4.57-5.68A27,27,0,0,0,1480.71,2156.33Z" transform="translate(-1189.7 -2129.41)"/><path class="cls-1" d="M1506.38,2130.49c-.09-.26.15-.46.71-.59s.88,0,1,.41v1.61l.2,4.82.07,1.83.27,8.38q.06.65.06,1.74l.14-.05,2.82-.08a19.67,19.67,0,0,1,5.44,1.19,16.82,16.82,0,0,1,4.57,2.5,8,8,0,0,1,3,3.38,4.67,4.67,0,0,1,.27,1.74,12.68,12.68,0,0,1-.4,2.89,8.18,8.18,0,0,1-1.62,3.15,12.58,12.58,0,0,1-7.52,4.43,21.33,21.33,0,0,1-4.77.52,16.13,16.13,0,0,1-2.15-.13c-.41,0-.61-.16-.61-.39v-.09l-.67-19.32-.27-8.3Zm15.19,32.38a8,8,0,0,0,1.54-3.46,8.47,8.47,0,0,0,.2-1.91,4.39,4.39,0,0,0-.26-1.6,8,8,0,0,0-2.76-3.09,18.17,18.17,0,0,0-4.7-2.43,16.62,16.62,0,0,0-5.38-.87l-1,0a.88.88,0,0,1-.47,0l.61,17.81a10.87,10.87,0,0,0,1.27,0,20.23,20.23,0,0,0,4.3-.45,11.28,11.28,0,0,0,3.43-1.29A10.88,10.88,0,0,0,1521.57,2162.87Z" transform="translate(-1189.7 -2129.41)"/><path class="cls-1" d="M1550,2130.36v-.05c0-.32.24-.47.74-.47s.83.17.87.52q.4,6.42.81,19.59.19,9.81.67,17.63,0,.48-.81.48c-.53,0-.8-.16-.8-.48-.09-1.1-.18-2.82-.27-5.15s-.16-4.3-.2-5.93l-.07-2.21-.13-4.48q-4.44.32-10.29.31c-2.28,0-3.76,0-4.43,0H1536q0,9.63-.33,18,0,.48-.81.48t-.81-.48q.4-7.86.41-19.33c0-2.83,0-4.66-.07-5.47q-.27-7.65-.27-12.9c0-.35.27-.52.81-.52s.8.17.8.52c0,3.79,0,6.23.07,7.3.14,3.76.2,7.54.2,11.33h.07c.67,0,2.15,0,4.43,0q5.85,0,10.29-.31Q1550.4,2136.4,1550,2130.36Z" transform="translate(-1189.7 -2129.41)"/><path class="cls-1" d="M1584.06,2138.87l-.07,3.26.07,6.69c0,1.73,0,2.85-.07,3.34l-.13,4.78v1.82a26.85,26.85,0,0,1-.34,4.65,5.64,5.64,0,0,1-1.54,3,8.17,8.17,0,0,1-3.77,2.08,18,18,0,0,1-4.7.61,14.2,14.2,0,0,1-4.37-.69,6.69,6.69,0,0,1-3.36-2.3,7.75,7.75,0,0,1-1.74-4,68.59,68.59,0,0,1-.88-11.94c0-2.46.09-5.45.27-8.95l.07-1.17a21.27,21.27,0,0,1,.33-3.57,7.55,7.55,0,0,1,1.08-2.56,6.83,6.83,0,0,1,2.55-2.28,10.45,10.45,0,0,1,3.56-1.24,23.06,23.06,0,0,1,3.23-.21c2.82,0,4.93.5,6.32,1.52a7,7,0,0,1,2.72,3A10.2,10.2,0,0,1,1584.06,2138.87Zm-5.17,28.27a4.88,4.88,0,0,0,2.55-2.14,8.43,8.43,0,0,0,.74-3.5v-.57q0-3.6.27-8.77.06-.78.06-3.6l-.06-7.26V2139a9.46,9.46,0,0,0-.94-4.43,6.16,6.16,0,0,0-3.3-2.74,10,10,0,0,0-3.15-.52l-1.89,0a10.84,10.84,0,0,0-2.21.21,7.71,7.71,0,0,0-3.23,1.52,6.77,6.77,0,0,0-2,2.48,10.55,10.55,0,0,0-.61,3.91v1a4.47,4.47,0,0,1-.07.91l-.2,4.57q0,6.85.17,10.77a38.34,38.34,0,0,0,.64,6.08,6.9,6.9,0,0,0,2.55,3.93,8.15,8.15,0,0,0,5.11,1.5A14.44,14.44,0,0,0,1578.89,2167.14Z" transform="translate(-1189.7 -2129.41)"/><path class="cls-1" d="M1611,2130.1c.54,0,.81.17.81.52s-.27.48-.81.48l-8.06-.18c-.31,0-1,0-2,0s-1.77,0-2.08,0h-.94c-1.07,0-1.73.15-2,.44a1.08,1.08,0,0,0-.13.52v.3c.09,1.33.13,2.81.13,4.43l-.13,7.6c0,2.55,0,4.19.06,4.91h.14q2.76-.13,6.18-.13c2.37,0,3.9,0,4.57,0h.07a.91.91,0,0,1,.54.15.43.43,0,0,1,.2.32c0,.35-.27.53-.81.53-1.79.08-3.83.13-6.11.13s-4,0-4.64,0h-.14c0,.9.07,2.92.07,6.08l-.07,11.51q4.5-.43,9.95-.43c1.7,0,2.8,0,3.29,0s.74.23.74.52-.2.48-.6.48h-.14c-.49,0-1.63-.05-3.42-.05-3.63,0-7.11.16-10.42.48h-.13a1.33,1.33,0,0,1-.61-.13c-.18-.09-.27-.2-.27-.35l.07-5.86c0-.87.07-2.81.07-5.82,0-2.63,0-4.33-.07-5.08l-.07-5.13v-1.3l.07-3.91c0-.58.07-1.88.07-3.91V2136c0-1.39,0-2.27-.07-2.65l-.2-1.56a1.38,1.38,0,0,1,.74-1.37,6.69,6.69,0,0,1,2.48-.46l3.5-.08c1.21,0,3.09,0,5.64.13C1608.52,2130.05,1610,2130.1,1611,2130.1Z" transform="translate(-1189.7 -2129.41)"/><path class="cls-1" d="M1646.61,2131.83a1.36,1.36,0,0,1,.78-1.36,6.32,6.32,0,0,1,2.45-.42l3.83-.08c1.88,0,3.76,0,5.65.13l4.16.08c.49,0,.74.18.74.52s-.25.53-.74.53l-4-.13-4-.09h-1.35c-.44,0-.83,0-1.14-.05-.67,0-1.21,0-1.61.05h-.74c-1.17,0-1.88.16-2.15.48a1.1,1.1,0,0,0-.14.52v.3l.21,4.43.06,1.83.27,8.38a16,16,0,0,1,.07,1.74l.13-.05,2.83-.08a19.75,19.75,0,0,1,5.44,1.19,17,17,0,0,1,4.57,2.5,8,8,0,0,1,3,3.38,4.67,4.67,0,0,1,.27,1.74,12.15,12.15,0,0,1-.4,2.89,8.29,8.29,0,0,1-1.61,3.15,12.64,12.64,0,0,1-7.53,4.43,21.2,21.2,0,0,1-4.77.52,16.24,16.24,0,0,1-2.15-.13q-.6,0-.6-.39v-.09l-.68-19.32-.26-8.3Zm15.19,31a8,8,0,0,0,1.55-3.46,9.09,9.09,0,0,0,.2-1.91,4.18,4.18,0,0,0-.27-1.6,8,8,0,0,0-2.76-3.09,18,18,0,0,0-4.7-2.43,16.52,16.52,0,0,0-5.37-.87l-1,0a.86.86,0,0,1-.47,0l.6,17.81a11,11,0,0,0,1.28,0,20.3,20.3,0,0,0,4.3-.45,11.11,11.11,0,0,0,3.42-1.29A10.88,10.88,0,0,0,1661.8,2162.87Z" transform="translate(-1189.7 -2129.41)"/><path class="cls-1" d="M1679.88,2149.08c0-2.23.06-4.84.2-7.82l.06-1.17a25.53,25.53,0,0,1,.31-3.57,8.43,8.43,0,0,1,.9-2.56,6.87,6.87,0,0,1,2.22-2.28,8,8,0,0,1,3-1.24,17,17,0,0,1,2.76-.21,8.27,8.27,0,0,1,5.44,1.52,6.9,6.9,0,0,1,2.29,3,11.41,11.41,0,0,1,.67,4.1l-.07,3.26.07,6.69c0,1.73,0,2.85-.07,3.34l-.13,4.78v1.82a32.86,32.86,0,0,1-.27,4.65,5.71,5.71,0,0,1-1.35,3,6.39,6.39,0,0,1-3.15,2.08,13.35,13.35,0,0,1-4,.61,10.5,10.5,0,0,1-3.77-.69,6,6,0,0,1-2.89-2.3,9.29,9.29,0,0,1-1.48-4,82.33,82.33,0,0,1-.73-11.94v-.09c-1.66,0-2.76,0-3.3,0h-.06q0,9.63-.34,18,0,.48-.81.48c-.54,0-.8-.16-.8-.48q.39-7.86.4-19.33c0-2.83,0-4.66-.07-5.47q-.27-7.65-.27-12.9c0-.35.27-.52.81-.52s.81.17.81.52c0,3.79,0,6.23.06,7.3q.21,5.64.21,11.33h.06C1677.12,2149.06,1678.22,2149.08,1679.88,2149.08Zm13.3,18.06a4.26,4.26,0,0,0,2.08-2.14,10.44,10.44,0,0,0,.61-3.5v-.57q0-3.6.27-8.77V2139a10.66,10.66,0,0,0-.81-4.43,5.63,5.63,0,0,0-2.69-2.74,7.31,7.31,0,0,0-2.62-.52l-1.54,0a8.17,8.17,0,0,0-1.89.21A5.88,5.88,0,0,0,1684,2133a7.37,7.37,0,0,0-1.68,2.48,13.64,13.64,0,0,0-.47,3.91v1a5.5,5.5,0,0,1-.06.91l-.2,4.57q0,6.85.16,10.77a56.45,56.45,0,0,0,.51,6.08,7.37,7.37,0,0,0,2.15,3.93,5.85,5.85,0,0,0,4.16,1.5A10.3,10.3,0,0,0,1693.18,2167.14Z" transform="translate(-1189.7 -2129.41)"/><path class="cls-1" d="M1708.57,2167.49a10.17,10.17,0,0,0,1.14-2.86,27,27,0,0,0,.87-5.13c.05-4.54.07-8.11.07-10.68,0-1.91,0-3.15-.07-3.7q-.27-7-.26-13.59v-.13a.51.51,0,0,1-.07-.26c0-.32.24-.51.74-.57,1.83-.08,3.69-.13,5.57-.13l4.24-.13,3.16,0c.71,0,1.13.11,1.24.41a8.87,8.87,0,0,1,.3,1.07,8.43,8.43,0,0,1,.14,1.6v2.05q0,4,.26,9.81.27,5.09.27,8.51,0,8,.14,13.73c.44,0,.91,0,1.41,0a.56.56,0,0,1,.27,0h.13q.81,0,.81.48c0,.43,0,1.56,0,3.38q-.14.48-.87.48a1.12,1.12,0,0,1-.51-.11.34.34,0,0,1-.24-.32v-2.91l-10.07.17c-1.35,0-2.22,0-2.62,0h-1l-7.39-.13.33,2.86v.05a.35.35,0,0,1-.23.32,1.12,1.12,0,0,1-.51.11q-.74,0-.87-.48c-.18-1.82-.29-2.95-.34-3.38s.27-.48.81-.48h.14a.49.49,0,0,1,.26,0Zm16.13,0c0-1.1-.07-3-.07-5.64,0-2.41,0-4-.07-4.65,0-3.42,0-6.49-.13-9.21q-.35-7.24-.47-12.85a4.48,4.48,0,0,1,.06-.83,6.09,6.09,0,0,0,.07-1.13,15.67,15.67,0,0,0-.07-1.82,18.32,18.32,0,0,0-2.15-.13c-.22,0-.78,0-1.68.08l-1.47.09-2.16.09c-1.39,0-3,0-4.77.08l.14,8.38.13,11.56c0,4.57,0,8-.06,10.29l-.07.09c-.14.78-.34,1.82-.61,3.13a21.08,21.08,0,0,1-1,2.47c2.32.06,4.57.09,6.71.09Z" transform="translate(-1189.7 -2129.41)"/><path class="cls-1" d="M1748.55,2150.29l-2.15-.08a11.13,11.13,0,0,0-6.35,2,6.76,6.76,0,0,0-2.45,4.64q-.94,4.4-1.75,11.51-.13.48-.87.48a1.26,1.26,0,0,1-.51-.11.33.33,0,0,1-.23-.32v0q.73-6.6,1.94-12.55.81-4.72,8.2-6.47a15.94,15.94,0,0,1-5.91-4.43,15.42,15.42,0,0,1-2.52-4.84,31,31,0,0,1-1-6.54c0-.4-.14-1.26-.27-2.56v-.09c0-.29.24-.43.74-.43s.78.17.87.52l.2,2.6a35.24,35.24,0,0,0,.81,5.83,11.55,11.55,0,0,0,2.15,4.21,16.62,16.62,0,0,0,3.83,3.6,9.77,9.77,0,0,0,5.24,1.61v-1.39c0-2.06,0-3.37-.07-3.95q-.33-6.87-.33-11.08v-1.69c0-.32.26-.48.8-.48a1.26,1.26,0,0,1,.51.11.38.38,0,0,1,.23.37l.14,7.21.13,3.21q.27,3.78.27,6.39v1.34a10.51,10.51,0,0,0,5.38-1.65,17.58,17.58,0,0,0,3.76-3.6,11.71,11.71,0,0,0,2.15-4.21,35.41,35.41,0,0,0,.8-5.83l.21-2.6c.09-.35.38-.52.87-.52s.74.14.74.43v.09c-.14,1.3-.23,2.16-.27,2.56a30.92,30.92,0,0,1-1,6.54,15.38,15.38,0,0,1-2.51,4.84,16,16,0,0,1-5.92,4.43q7.39,1.74,8.2,6.47c.81,4,1.45,8.15,1.95,12.55v0a.34.34,0,0,1-.24.32,1.18,1.18,0,0,1-.5.11q-.73,0-.87-.48-.81-7.11-1.75-11.51a6.8,6.8,0,0,0-2.45-4.64,11.13,11.13,0,0,0-6.35-2l-2.29.08q-.14,8.82-.47,17.72,0,.48-.81.48c-.53,0-.8-.16-.8-.48q.2-3.6.33-10C1748.46,2155.06,1748.5,2152.49,1748.55,2150.29Z" transform="translate(-1189.7 -2129.41)"/><path class="cls-1" d="M1789.41,2130.1c.53,0,.8.17.8.52s-.27.48-.8.48l-8.07-.18c-.31,0-1,0-2,0s-1.76,0-2.08,0h-.94c-1.07,0-1.72.15-2,.44a1.08,1.08,0,0,0-.13.52v.3c.09,1.33.13,2.81.13,4.43l-.13,7.6c0,2.55,0,4.19.07,4.91h.13q2.76-.13,6.18-.13c2.37,0,3.9,0,4.57,0h.07a.91.91,0,0,1,.54.15.43.43,0,0,1,.2.32c0,.35-.27.53-.81.53-1.79.08-3.83.13-6.11.13s-4,0-4.64,0h-.13c0,.9.06,2.92.06,6.08l-.06,11.51c3-.29,6.31-.43,9.94-.43,1.7,0,2.8,0,3.29,0s.74.23.74.52-.2.48-.6.48h-.14c-.49,0-1.63-.05-3.42-.05q-5.44,0-10.42.48h-.13a1.33,1.33,0,0,1-.61-.13c-.18-.09-.27-.2-.27-.35l.07-5.86c0-.87.07-2.81.07-5.82,0-2.63,0-4.33-.07-5.08l-.07-5.13v-1.3l.07-3.91c0-.58.07-1.88.07-3.91V2136c0-1.39,0-2.27-.07-2.65l-.2-1.56a1.38,1.38,0,0,1,.74-1.37,6.69,6.69,0,0,1,2.48-.46l3.5-.08c1.21,0,3.09,0,5.64.13C1786.92,2130.05,1788.42,2130.1,1789.41,2130.1Z" transform="translate(-1189.7 -2129.41)"/><path class="cls-1" d="M1822.53,2130.4c.54,0,.81.17.81.52s-.27.52-.81.52l-5.91-.08-4.17,0v.26a2.38,2.38,0,0,0-.07.74l-.06,2.65.13,14,.07,13.94v5.6c0,.35-.27.52-.81.52s-.87-.17-.87-.52q.06-2,.06-9l-.2-19.16v-6.82l-.06-1.21a3.37,3.37,0,0,1,.13-1q-5.37,0-9.68-.09c-.53,0-.8-.17-.8-.52s.22-.52.67-.52h.13l7.13.09,8.19-.05Z" transform="translate(-1189.7 -2129.41)"/><path class="cls-1" d="M1849.34,2130.36v-.05c0-.32.25-.47.74-.47s.83.17.87.52q.4,6.42.81,19.59.2,9.81.67,17.63,0,.48-.81.48c-.53,0-.8-.16-.8-.48-.09-1.1-.18-2.82-.27-5.15s-.16-4.3-.2-5.93l-.07-2.21-.13-4.48q-4.44.32-10.28.31c-2.29,0-3.77,0-4.44,0h-.07q0,9.63-.33,18,0,.48-.81.48c-.54,0-.8-.16-.8-.48q.39-7.86.4-19.33c0-2.83,0-4.66-.07-5.47q-.27-7.65-.27-12.9c0-.35.27-.52.81-.52s.8.17.8.52c0,3.79,0,6.23.07,7.3.14,3.76.2,7.54.2,11.33h.07c.67,0,2.15,0,4.44,0q5.84,0,10.28-.31Q1849.75,2136.4,1849.34,2130.36Z" transform="translate(-1189.7 -2129.41)"/><path class="cls-1" d="M1883.41,2138.87l-.07,3.26.07,6.69c0,1.73,0,2.85-.07,3.34l-.14,4.78v1.82a27,27,0,0,1-.33,4.65,5.65,5.65,0,0,1-1.55,3,8.14,8.14,0,0,1-3.76,2.08,18,18,0,0,1-4.7.61,14.2,14.2,0,0,1-4.37-.69,6.69,6.69,0,0,1-3.36-2.3,7.77,7.77,0,0,1-1.75-4,69.69,69.69,0,0,1-.87-11.94c0-2.46.09-5.45.27-8.95l.07-1.17a21.27,21.27,0,0,1,.33-3.57,7.55,7.55,0,0,1,1.08-2.56,6.83,6.83,0,0,1,2.55-2.28,10.45,10.45,0,0,1,3.56-1.24,23.06,23.06,0,0,1,3.23-.21c2.82,0,4.92.5,6.31,1.52a7,7,0,0,1,2.73,3A10.2,10.2,0,0,1,1883.41,2138.87Zm-5.18,28.27a4.87,4.87,0,0,0,2.56-2.14,8.59,8.59,0,0,0,.74-3.5v-.57q0-3.6.26-8.77c0-.52.07-1.72.07-3.6l-.07-7.26V2139a9.34,9.34,0,0,0-.94-4.43,6.1,6.1,0,0,0-3.29-2.74,10,10,0,0,0-3.16-.52l-1.88,0a11,11,0,0,0-2.22.21,7.67,7.67,0,0,0-3.22,1.52,6.9,6.9,0,0,0-2,2.48,10.78,10.78,0,0,0-.6,3.91v1a5.34,5.34,0,0,1-.07.91l-.2,4.57q0,6.85.17,10.77a37.19,37.19,0,0,0,.64,6.08,6.9,6.9,0,0,0,2.55,3.93,8.15,8.15,0,0,0,5.11,1.5A14.35,14.35,0,0,0,1878.23,2167.14Z" transform="translate(-1189.7 -2129.41)"/><path class="cls-1" d="M1910.35,2130.1c.54,0,.81.17.81.52s-.27.48-.81.48l-8.06-.18c-.31,0-1,0-2,0s-1.77,0-2.08,0h-.94c-1.08,0-1.73.15-2,.44a1.1,1.1,0,0,0-.14.52v.3c.09,1.33.14,2.81.14,4.43l-.14,7.6c0,2.55,0,4.19.07,4.91h.14c1.83-.09,3.9-.13,6.18-.13s3.9,0,4.57,0h.07a.86.86,0,0,1,.53.15.4.4,0,0,1,.2.32c0,.35-.26.53-.8.53-1.79.08-3.83.13-6.12.13s-4,0-4.63,0h-.14c0,.9.07,2.92.07,6.08l-.07,11.51q4.5-.43,10-.43c1.7,0,2.8,0,3.29,0s.74.23.74.52-.2.48-.6.48h-.14c-.49,0-1.64-.05-3.43-.05q-5.44,0-10.41.48h-.14a1.32,1.32,0,0,1-.6-.13c-.18-.09-.27-.2-.27-.35l.07-5.86q.06-1.3.06-5.82c0-2.63,0-4.33-.06-5.08l-.07-5.13v-1.3l.07-3.91c0-.58.06-1.88.06-3.91V2136c0-1.39,0-2.27-.06-2.65l-.2-1.56a1.39,1.39,0,0,1,.73-1.37,6.75,6.75,0,0,1,2.49-.46l3.5-.08c1.2,0,3.09,0,5.64.13C1907.86,2130.05,1909.37,2130.1,1910.35,2130.1Z" transform="translate(-1189.7 -2129.41)"/><path class="cls-1" d="M1963.84,2133.05l.2,4.56a7,7,0,0,0,.07,1.13l.2,5.78.13,2.82a6.09,6.09,0,0,0,.07,1c.09,2.55.14,5.12.14,7.73a23.61,23.61,0,0,1-.51,5.3,9.47,9.47,0,0,1-1.91,3.91,8.34,8.34,0,0,1-3.4,2.28,12.68,12.68,0,0,1-4.6.84,11.22,11.22,0,0,1-3.29-.43,6,6,0,0,1-4.84-5.73v0a.38.38,0,0,1,.2-.3,1,1,0,0,1,.54-.13c.45,0,.71.16.8.48a6.08,6.08,0,0,0,1.55,3.6,5.81,5.81,0,0,0,2.25,1.17,10.09,10.09,0,0,0,2.92.44,10.71,10.71,0,0,0,1.42-.09,7.49,7.49,0,0,0,4.7-2.24,10.56,10.56,0,0,0,2.22-4.75,21.32,21.32,0,0,0,.4-4.52l-.13-4.52-.14-3.9a6.59,6.59,0,0,1-1.75,1.47,12.58,12.58,0,0,1-6.38,1.44,10.11,10.11,0,0,1-5-1.18,6.9,6.9,0,0,1-3-3.21,12.91,12.91,0,0,1-.88-4.17c0-.43-.06-.9-.06-1.39v-9.77c.08-.32.33-.48.74-.48s.67.13.67.39v10.12c.13,1.48.27,2.58.4,3.3a7.5,7.5,0,0,0,.74,2.13,6.15,6.15,0,0,0,4.57,3.13,11.87,11.87,0,0,0,1.75.13l1.34-.05a10.32,10.32,0,0,0,3.73-.93,5.17,5.17,0,0,0,2.32-2.06,6.81,6.81,0,0,0,.74-2.87l-.47-12.68v-.05a.32.32,0,0,1,.2-.34c.09-.2.33-.31.74-.31a1,1,0,0,1,.47.11.39.39,0,0,1,.2.37Z" transform="translate(-1189.7 -2129.41)"/><path class="cls-1" d="M1990.65,2130.36v-.05c0-.32.24-.47.74-.47s.83.17.87.52q.4,6.42.81,19.59.2,9.81.67,17.63,0,.48-.81.48c-.53,0-.8-.16-.8-.48-.09-1.1-.18-2.82-.27-5.15s-.16-4.3-.2-5.93l-.07-2.21-.14-4.48q-4.42.32-10.28.31c-2.28,0-3.76,0-4.43,0-1.08,0-1.61-.67-1.61-2,0-2.38,0-4-.07-4.78q-.27-7.65-.27-12.9c0-.35.27-.52.81-.52s.8.17.8.52c0,3.79,0,6.23.07,7.3q.19,5.64.2,10.46c0,.5.24.77.57.83s1.65.09,3.93.09q5.85,0,10.28-.31Q1991.06,2136.4,1990.65,2130.36Z" transform="translate(-1189.7 -2129.41)"/><path class="cls-1" d="M2012.82,2130.88a11.29,11.29,0,0,1,6.45,3.3,8.52,8.52,0,0,1,2.15,5.86,12.13,12.13,0,0,1-.2,2.22,7.69,7.69,0,0,1-2.69,4.23,16.62,16.62,0,0,1-5.64,3.11,24.2,24.2,0,0,1-7,1.17q-.14,9.46-.54,17.46c0,.32-.26.48-.8.48s-.74-.16-.74-.48q.2-3.55.33-9.53t.14-9.71l-.14-5-.13-3.17a6.53,6.53,0,0,0-.07-1.13q-.14-4.08-.13-8.29a.35.35,0,0,1,.2-.3l.13-.14a6.28,6.28,0,0,1,3.36-.73A27.41,27.41,0,0,1,2012.82,2130.88Zm3.76,15.55a7.85,7.85,0,0,0,3.36-6.6l-.06-1.09a6.54,6.54,0,0,0-1.75-4,8.64,8.64,0,0,0-4.23-2.56,21.27,21.27,0,0,0-4.84-.78q-1.21-.09-2-.09a4.14,4.14,0,0,0-1.68.26q0,6.12.27,11c.13,1.76.2,3.56.2,5.38v1.74a20.78,20.78,0,0,0,5.85-.91A15.58,15.58,0,0,0,2016.58,2146.43Z" transform="translate(-1189.7 -2129.41)"/><path class="cls-1" d="M2048.37,2130.1c.54,0,.81.17.81.52s-.27.48-.81.48l-8.07-.18c-.31,0-1,0-2,0s-1.77,0-2.09,0h-.94c-1.07,0-1.72.15-1.94.44a1.1,1.1,0,0,0-.14.52v.3c.09,1.33.14,2.81.14,4.43l-.14,7.6c0,2.55,0,4.19.07,4.91h.13q2.76-.13,6.19-.13c2.37,0,3.89,0,4.56,0h.07a.89.89,0,0,1,.54.15.43.43,0,0,1,.2.32c0,.35-.27.53-.81.53-1.79.08-3.83.13-6.11.13s-4,0-4.64,0h-.13c0,.9.07,2.92.07,6.08l-.07,11.51c3-.29,6.32-.43,9.94-.43,1.71,0,2.8,0,3.3,0s.74.23.74.52-.21.48-.61.48h-.13c-.5,0-1.64-.05-3.43-.05q-5.44,0-10.42.48h-.13a1.36,1.36,0,0,1-.61-.13.4.4,0,0,1-.26-.35l.06-5.86c0-.87.07-2.81.07-5.82,0-2.63,0-4.33-.07-5.08l-.06-5.13v-1.3l.06-3.91c0-.58.07-1.88.07-3.91V2136c0-1.39,0-2.27-.07-2.65l-.2-1.56a1.39,1.39,0,0,1,.74-1.37,6.71,6.71,0,0,1,2.49-.46l3.49-.08c1.21,0,3.09,0,5.65.13C2045.88,2130.05,2047.38,2130.1,2048.37,2130.1Z" transform="translate(-1189.7 -2129.41)"/><path class="cls-1" d="M2071.42,2150.29l-2.15-.08c-2.83.2-4.94.88-6.35,2a6.77,6.77,0,0,0-2.46,4.64c-.62,2.93-1.21,6.77-1.74,11.51-.09.32-.38.48-.88.48a1.22,1.22,0,0,1-.5-.11.34.34,0,0,1-.24-.32v0q.75-6.6,2-12.55.81-4.72,8.2-6.47a15.94,15.94,0,0,1-5.91-4.43,15.42,15.42,0,0,1-2.52-4.84,31.59,31.59,0,0,1-1-6.54c0-.4-.13-1.26-.26-2.56v-.09c0-.29.24-.43.73-.43s.79.17.88.52l.2,2.6a36.53,36.53,0,0,0,.8,5.83,11.58,11.58,0,0,0,2.16,4.21,16.77,16.77,0,0,0,3.82,3.6,9.83,9.83,0,0,0,5.25,1.61v-1.39c0-2.06,0-3.37-.07-3.95-.22-4.58-.34-8.27-.34-11.08v-1.69q0-.48.81-.48a1.22,1.22,0,0,1,.5.11.37.37,0,0,1,.24.37l.13,7.21.14,3.21q.27,3.78.27,6.39v1.34a10.47,10.47,0,0,0,5.37-1.65,17.13,17.13,0,0,0,3.76-3.6,11.4,11.4,0,0,0,2.15-4.21,35.24,35.24,0,0,0,.81-5.83l.2-2.6c.09-.35.38-.52.88-.52s.74.14.74.43v.09c-.14,1.3-.23,2.16-.27,2.56a31.59,31.59,0,0,1-1,6.54,15.42,15.42,0,0,1-2.52,4.84,15.94,15.94,0,0,1-5.91,4.43q7.4,1.74,8.2,6.47,1.2,6,1.95,12.55v0a.34.34,0,0,1-.24.32,1.22,1.22,0,0,1-.5.11c-.5,0-.79-.16-.88-.48-.53-4.74-1.12-8.58-1.74-11.51a6.81,6.81,0,0,0-2.46-4.64c-1.41-1.16-3.52-1.84-6.35-2l-2.28.08q-.14,8.82-.47,17.72,0,.48-.81.48c-.53,0-.8-.16-.8-.48q.2-3.6.33-10C2071.33,2155.06,2071.37,2152.49,2071.42,2150.29Z" transform="translate(-1189.7 -2129.41)"/><path class="cls-1" d="M2096.41,2167.49a10.17,10.17,0,0,0,1.14-2.86,26.14,26.14,0,0,0,.88-5.13c0-4.54.07-8.11.07-10.68,0-1.91,0-3.15-.07-3.7q-.27-7-.27-13.59v-.13a.51.51,0,0,1-.07-.26c0-.32.25-.51.74-.57,1.84-.08,3.7-.13,5.58-.13l4.23-.13,3.16,0c.71,0,1.13.11,1.24.41a8.87,8.87,0,0,1,.3,1.07,8.43,8.43,0,0,1,.14,1.6v2.05q0,4,.27,9.81.27,5.09.27,8.51,0,8,.13,13.73c.45,0,.92,0,1.41,0a.5.5,0,0,1,.27,0h.13q.81,0,.81.48c0,.43,0,1.56,0,3.38q-.14.48-.87.48a1.12,1.12,0,0,1-.51-.11.35.35,0,0,1-.23-.32v-2.91l-10.08.17c-1.35,0-2.22,0-2.62,0h-1l-7.39-.13.33,2.86v.05a.33.33,0,0,1-.23.32,1.1,1.1,0,0,1-.5.11c-.5,0-.79-.16-.88-.48-.18-1.82-.29-2.95-.33-3.38s.27-.48.8-.48h.14a.5.5,0,0,1,.27,0Zm16.13,0c-.05-1.1-.07-3-.07-5.64,0-2.41,0-4-.07-4.65q0-5.13-.13-9.21-.34-7.24-.47-12.85a3.65,3.65,0,0,1,.07-.83,7.45,7.45,0,0,0,.06-1.13c0-.84,0-1.45-.06-1.82a18.45,18.45,0,0,0-2.15-.13c-.23,0-.79,0-1.69.08l-1.47.09-2.15.09c-1.39,0-3,0-4.77.08l.13,8.38.14,11.56c0,4.57,0,8-.07,10.29l-.07.09c-.13.78-.33,1.82-.6,3.13a21,21,0,0,1-1,2.47q3.49.09,6.72.09Z" transform="translate(-1189.7 -2129.41)"/><path class="cls-1" d="M2141.1,2130.1c.53,0,.8.17.8.52s-.27.48-.8.48l-8.07-.18c-.31,0-1,0-2,0s-1.77,0-2.09,0H2128c-1.07,0-1.72.15-1.95.44a1.08,1.08,0,0,0-.13.52v.3c.09,1.33.13,2.81.13,4.43l-.13,7.6c0,2.55,0,4.19.07,4.91h.13q2.76-.13,6.18-.13c2.38,0,3.9,0,4.57,0h.07a.91.91,0,0,1,.54.15.43.43,0,0,1,.2.32c0,.35-.27.53-.81.53-1.79.08-3.83.13-6.11.13s-4,0-4.64,0H2126c0,.9.06,2.92.06,6.08l-.06,11.51q4.5-.43,9.94-.43c1.7,0,2.8,0,3.29,0s.74.23.74.52-.2.48-.6.48h-.14c-.49,0-1.63-.05-3.42-.05q-5.45,0-10.42.48h-.13a1.33,1.33,0,0,1-.61-.13c-.18-.09-.27-.2-.27-.35l.07-5.86c.05-.87.07-2.81.07-5.82,0-2.63,0-4.33-.07-5.08l-.07-5.13v-1.3l.07-3.91c.05-.58.07-1.88.07-3.91V2136c0-1.39,0-2.27-.07-2.65l-.2-1.56a1.39,1.39,0,0,1,.74-1.37,6.71,6.71,0,0,1,2.49-.46l3.49-.08c1.21,0,3.09,0,5.64.13C2138.61,2130.05,2140.11,2130.1,2141.1,2130.1Z" transform="translate(-1189.7 -2129.41)"/><path class="cls-1" d="M2167.91,2130.36v-.05c0-.32.24-.47.74-.47s.82.17.87.52q.41,6.42.81,19.59.2,9.81.67,17.63,0,.48-.81.48c-.53,0-.81-.16-.81-.48-.09-1.1-.17-2.82-.26-5.15s-.16-4.3-.21-5.93l-.06-2.21-.14-4.48q-4.42.32-10.28.31c-2.28,0-3.76,0-4.43,0h-.07q0,9.63-.34,18c0,.32-.26.48-.8.48s-.81-.16-.81-.48q.41-7.86.4-19.33c0-2.83,0-4.66-.06-5.47q-.27-7.65-.27-12.9c0-.35.27-.52.81-.52s.8.17.8.52c0,3.79,0,6.23.07,7.3q.2,5.64.2,11.33h.07c.67,0,2.15,0,4.43,0q5.85,0,10.28-.31Q2168.31,2136.4,2167.91,2130.36Z" transform="translate(-1189.7 -2129.41)"/><path class="cls-1" d="M2182.22,2132.75v-1.91c0-.35.27-.53.81-.53s.8.18.8.53q0,4.47-.13,8.64a5.84,5.84,0,0,0-.07,1l-.13,3.3-.14,5.78-.2,5.91-.07,1.25q-.4,6-.4,8.95l5.51-10,11.29-20.37,2.55-4.69a.86.86,0,0,1,.81-.35c.49,0,.74.14.74.43v.05l-.14,2.86q-1,16.08-1,25.85,0,4.42.21,8.86,0,.48-.81.48t-.81-.48q-.2-4.35-.2-8.73,0-9.12.88-22.72l.13-2.82-5.31,9.6L2185.31,2164l-2.62,4.69a.86.86,0,0,1-.81.35,1.22,1.22,0,0,1-.5-.11.39.39,0,0,1-.24-.37c0-.41-.06-1.32-.06-2.74q0-3.43.33-8.86l.07-1.35q.27-4,.27-7.51c0-1.91.06-3.82.2-5.73l.13-4.3Z" transform="translate(-1189.7 -2129.41)"/><path class="cls-1" d="M2230.53,2130.1c.54,0,.81.17.81.52s-.27.48-.81.48l-8.06-.18c-.32,0-1,0-2,0s-1.77,0-2.08,0h-.94c-1.08,0-1.73.15-1.95.44a1.1,1.1,0,0,0-.14.52v.3c.09,1.33.14,2.81.14,4.43l-.14,7.6c0,2.55,0,4.19.07,4.91h.14c1.83-.09,3.9-.13,6.18-.13s3.9,0,4.57,0h.07a.86.86,0,0,1,.53.15.4.4,0,0,1,.2.32c0,.35-.26.53-.8.53-1.79.08-3.83.13-6.12.13s-4,0-4.63,0h-.14c.05.9.07,2.92.07,6.08l-.07,11.51q4.5-.43,10-.43c1.7,0,2.8,0,3.29,0s.74.23.74.52-.2.48-.6.48h-.14c-.49,0-1.64-.05-3.43-.05q-5.44,0-10.41.48h-.14a1.32,1.32,0,0,1-.6-.13c-.18-.09-.27-.2-.27-.35l.07-5.86q.06-1.3.06-5.82c0-2.63,0-4.33-.06-5.08l-.07-5.13v-1.3l.07-3.91c0-.58.06-1.88.06-3.91V2136c0-1.39,0-2.27-.06-2.65l-.21-1.56a1.39,1.39,0,0,1,.74-1.37,6.75,6.75,0,0,1,2.49-.46l3.5-.08c1.2,0,3.09,0,5.64.13C2228,2130.05,2229.55,2130.1,2230.53,2130.1Z" transform="translate(-1189.7 -2129.41)"/><path class="cls-1" d="M2267.29,2167.49a10.17,10.17,0,0,0,1.14-2.86,27,27,0,0,0,.87-5.13c0-4.54.07-8.11.07-10.68,0-1.91,0-3.15-.07-3.7q-.27-7-.26-13.59v-.13a.51.51,0,0,1-.07-.26c0-.32.24-.51.73-.57,1.84-.08,3.7-.13,5.58-.13l4.24-.13,3.16,0c.71,0,1.13.11,1.24.41a8.87,8.87,0,0,1,.3,1.07,8.49,8.49,0,0,1,.13,1.6v2.05q0,4,.27,9.81.27,5.09.27,8.51,0,8,.14,13.73c.44,0,.91,0,1.41,0a.56.56,0,0,1,.27,0h.13q.81,0,.81.48c-.05.43-.05,1.56,0,3.38-.09.32-.38.48-.88.48a1.08,1.08,0,0,1-.5-.11.34.34,0,0,1-.24-.32v-2.91l-10.07.17c-1.35,0-2.22,0-2.62,0h-1l-7.39-.13.33,2.86v.05a.34.34,0,0,1-.24.32,1,1,0,0,1-.5.11q-.74,0-.87-.48c-.18-1.82-.29-2.95-.34-3.38s.27-.48.81-.48h.13a.56.56,0,0,1,.27,0Zm16.12,0q-.06-1.65-.06-5.64c0-2.41,0-4-.07-4.65,0-3.42-.05-6.49-.13-9.21q-.34-7.24-.47-12.85a4.48,4.48,0,0,1,.06-.83,6.09,6.09,0,0,0,.07-1.13,15.67,15.67,0,0,0-.07-1.82,18.32,18.32,0,0,0-2.15-.13c-.22,0-.78,0-1.68.08l-1.48.09-2.15.09c-1.39,0-3,0-4.77.08l.14,8.38.13,11.56c0,4.57,0,8-.07,10.29l-.06.09c-.14.78-.34,1.82-.61,3.13a21.08,21.08,0,0,1-1,2.47q3.48.09,6.71.09Z" transform="translate(-1189.7 -2129.41)"/><path class="cls-1" d="M2316,2138.87l-.06,3.26.06,6.69c0,1.73,0,2.85-.06,3.34l-.14,4.78v1.82a27,27,0,0,1-.33,4.65,5.65,5.65,0,0,1-1.55,3,8.14,8.14,0,0,1-3.76,2.08,18.06,18.06,0,0,1-4.71.61,14.19,14.19,0,0,1-4.36-.69,6.6,6.6,0,0,1-3.36-2.3,7.77,7.77,0,0,1-1.75-4,69.69,69.69,0,0,1-.87-11.94c0-2.46.09-5.45.26-8.95l.07-1.17a22.2,22.2,0,0,1,.34-3.57,7.52,7.52,0,0,1,1.07-2.56,6.79,6.79,0,0,1,2.56-2.28,10.37,10.37,0,0,1,3.56-1.24,22.91,22.91,0,0,1,3.22-.21c2.82,0,4.93.5,6.32,1.52a6.9,6.9,0,0,1,2.72,3A10,10,0,0,1,2316,2138.87Zm-5.17,28.27a4.84,4.84,0,0,0,2.55-2.14,8.27,8.27,0,0,0,.74-3.5v-.57q0-3.6.27-8.77c0-.52.07-1.72.07-3.6l-.07-7.26V2139a9.34,9.34,0,0,0-.94-4.43,6.17,6.17,0,0,0-3.29-2.74,10,10,0,0,0-3.16-.52l-1.88,0a10.87,10.87,0,0,0-2.22.21,7.77,7.77,0,0,0-3.23,1.52,6.77,6.77,0,0,0-2,2.48,10.57,10.57,0,0,0-.6,3.91v1a5.34,5.34,0,0,1-.07.91l-.21,4.57q0,6.85.17,10.77a39.57,39.57,0,0,0,.64,6.08,7,7,0,0,0,2.55,3.93,8.17,8.17,0,0,0,5.11,1.5A14.41,14.41,0,0,0,2310.83,2167.14Z" transform="translate(-1189.7 -2129.41)"/><path class="cls-1" d="M2326.15,2131.4a.51.51,0,0,1-.07-.26c0-.32.25-.51.74-.57,1.84-.08,3.92-.13,6.25-.13l6.25-.13,3.16,0c.71,0,1.13.11,1.24.41a8.87,8.87,0,0,1,.3,1.07,8.43,8.43,0,0,1,.14,1.6v2.05q0,4,.27,9.81.27,5.09.27,8.51,0,8.22.13,14,0,.48-.81.48c-.54,0-.8-.16-.8-.48,0-1-.07-3-.07-5.9,0-2.41,0-4-.07-4.65q0-5.13-.13-9.21-.35-7.24-.47-12.85a4.48,4.48,0,0,1,.06-.83,6.09,6.09,0,0,0,.07-1.13,15.67,15.67,0,0,0-.07-1.82,18.32,18.32,0,0,0-2.15-.13c-.22,0-.78,0-1.68.08l-1.47.09-4.17.09c-1.84,0-3.65,0-5.44.08l.13,8.38.14,11.56q0,8.77-.34,16.37c0,.32-.25.48-.74.48a.81.81,0,0,1-.47-.13.41.41,0,0,1-.2-.35q.33-8.94.33-19.06c0-1.91,0-3.15-.06-3.7q-.27-7-.27-13.59Z" transform="translate(-1189.7 -2129.41)"/><path class="cls-1" d="M2375.81,2138.87l-.07,3.26.07,6.69c0,1.73,0,2.85-.07,3.34l-.14,4.78v1.82a27,27,0,0,1-.33,4.65,5.65,5.65,0,0,1-1.55,3,8.14,8.14,0,0,1-3.76,2.08,18,18,0,0,1-4.7.61,14.2,14.2,0,0,1-4.37-.69,6.6,6.6,0,0,1-3.36-2.3,7.77,7.77,0,0,1-1.75-4,69.69,69.69,0,0,1-.87-11.94c0-2.46.09-5.45.27-8.95l.06-1.17a22.2,22.2,0,0,1,.34-3.57,7.55,7.55,0,0,1,1.08-2.56,6.68,6.68,0,0,1,2.55-2.28,10.37,10.37,0,0,1,3.56-1.24,23.06,23.06,0,0,1,3.23-.21c2.82,0,4.92.5,6.31,1.52a6.9,6.9,0,0,1,2.72,3A10,10,0,0,1,2375.81,2138.87Zm-5.18,28.27a4.9,4.9,0,0,0,2.56-2.14,8.44,8.44,0,0,0,.73-3.5v-.57q0-3.6.27-8.77c0-.52.07-1.72.07-3.6l-.07-7.26V2139a9.34,9.34,0,0,0-.94-4.43,6.1,6.1,0,0,0-3.29-2.74,10,10,0,0,0-3.16-.52l-1.88,0a10.94,10.94,0,0,0-2.22.21,7.67,7.67,0,0,0-3.22,1.52,6.8,6.8,0,0,0-2,2.48,10.78,10.78,0,0,0-.6,3.91v1a5.34,5.34,0,0,1-.07.91l-.2,4.57c0,4.57,0,8.16.17,10.77a38.55,38.55,0,0,0,.63,6.08,7,7,0,0,0,2.56,3.93,8.14,8.14,0,0,0,5.1,1.5A14.37,14.37,0,0,0,2370.63,2167.14Z" transform="translate(-1189.7 -2129.41)"/><path class="cls-1" d="M2388.91,2156.33c0-2.43.07-4.94.07-7.51,0-1.91,0-3.15-.07-3.7q-.27-7-.27-13.59v-.13a.51.51,0,0,1-.07-.26c0-.32.25-.51.74-.57,1.84-.08,3.7-.13,5.58-.13l4.23-.13,3.16,0c.71,0,1.13.11,1.24.41a8.77,8.77,0,0,1,.31,1.07,9.41,9.41,0,0,1,.13,1.6v2.05q0,4,.27,9.81.27,5.09.27,8.51,0,8.22.13,14c0,.32-.27.48-.8.48s-.81-.16-.81-.48c-.05-1-.07-3-.07-5.9,0-2.41,0-4-.07-4.65q0-5.13-.13-9.21-.35-7.24-.47-12.85a3.65,3.65,0,0,1,.07-.83,7.45,7.45,0,0,0,.06-1.13c0-.84,0-1.45-.06-1.82a18.45,18.45,0,0,0-2.15-.13c-.23,0-.79,0-1.68.08l-1.48.09-2.15.09c-1.39,0-3,0-4.77.08l.13,8.38.14,11.56c0,2.46,0,4.83-.07,7.12l-.07.09c-.13.78-.33,1.82-.6,3.13q-1.82,5.46-5.72,6.21l-.26.08a.75.75,0,0,1-.47-.15.44.44,0,0,1-.21-.37c0-.23.12-.39.47-.48a7.42,7.42,0,0,0,4.57-5.68A26.14,26.14,0,0,0,2388.91,2156.33Z" transform="translate(-1189.7 -2129.41)"/><path class="cls-1" d="M2430.64,2130.36v-.05c0-.32.24-.47.74-.47s.82.17.87.52q.4,6.42.8,19.59.21,9.81.68,17.63,0,.48-.81.48t-.81-.48c-.09-1.1-.17-2.82-.26-5.15s-.16-4.3-.21-5.93l-.06-2.21-.14-4.48q-4.43.32-10.28.31c-2.28,0-3.76,0-4.43,0h-.07q0,9.63-.34,18c0,.32-.26.48-.8.48s-.81-.16-.81-.48q.4-7.86.4-19.33c0-2.83,0-4.66-.06-5.47q-.27-7.65-.27-12.9c0-.35.27-.52.81-.52s.8.17.8.52c0,3.79,0,6.23.07,7.3q.2,5.64.2,11.33h.07c.67,0,2.15,0,4.43,0q5.85,0,10.28-.31Q2431,2136.4,2430.64,2130.36Z" transform="translate(-1189.7 -2129.41)"/><path class="cls-1" d="M2445,2132.75v-1.91c0-.35.27-.53.8-.53s.81.18.81.53c0,3,0,5.86-.13,8.64a5.84,5.84,0,0,0-.07,1l-.14,3.3-.13,5.78-.2,5.91-.07,1.25q-.41,6-.4,8.95l5.51-10,11.29-20.37,2.55-4.69a.85.85,0,0,1,.81-.35c.49,0,.74.14.74.43v.05l-.14,2.86q-1,16.08-1,25.85,0,4.42.2,8.86c0,.32-.26.48-.8.48s-.81-.16-.81-.48q-.2-4.35-.2-8.73,0-9.12.87-22.72l.14-2.82-5.31,9.6L2448,2164l-2.62,4.69a.87.87,0,0,1-.81.35,1.18,1.18,0,0,1-.5-.11.39.39,0,0,1-.24-.37c0-.41-.07-1.32-.07-2.74,0-2.29.12-5.24.34-8.86l.07-1.35q.27-4,.27-7.51c0-1.91.06-3.82.2-5.73l.13-4.3Z" transform="translate(-1189.7 -2129.41)"/><path class="cls-1" d="M2498.64,2130.4c.53,0,.81.17.81.52s-.28.52-.81.52l-5.92-.08-4.16,0v.26a2.09,2.09,0,0,0-.07.74l-.07,2.65.14,14,.07,13.94v5.6c0,.35-.27.52-.81.52s-.88-.17-.88-.52q.07-2,.07-9l-.2-19.16v-6.82l-.06-1.21a3.37,3.37,0,0,1,.13-1c-3.59,0-6.81,0-9.68-.09-.54,0-.8-.17-.8-.52s.22-.52.67-.52h.13l7.13.09,8.19-.05Z" transform="translate(-1189.7 -2129.41)"/><path class="cls-1" d="M2526.39,2130.1c.53,0,.8.17.8.52s-.27.48-.8.48l-8.07-.18c-.31,0-1,0-2,0s-1.77,0-2.09,0h-.94c-1.07,0-1.72.15-1.94.44a1.1,1.1,0,0,0-.14.52v.3c.09,1.33.14,2.81.14,4.43l-.14,7.6c0,2.55,0,4.19.07,4.91h.13q2.76-.13,6.18-.13c2.38,0,3.9,0,4.57,0h.07a.89.89,0,0,1,.54.15.43.43,0,0,1,.2.32c0,.35-.27.53-.81.53-1.79.08-3.83.13-6.11.13s-4,0-4.64,0h-.13c0,.9.07,2.92.07,6.08l-.07,11.51q4.5-.43,9.94-.43c1.71,0,2.8,0,3.29,0s.75.23.75.52-.21.48-.61.48h-.14c-.49,0-1.63-.05-3.42-.05q-5.45,0-10.42.48h-.13a1.36,1.36,0,0,1-.61-.13.4.4,0,0,1-.26-.35l.06-5.86c.05-.87.07-2.81.07-5.82,0-2.63,0-4.33-.07-5.08l-.06-5.13v-1.3l.06-3.91c.05-.58.07-1.88.07-3.91V2136c0-1.39,0-2.27-.07-2.65l-.2-1.56a1.39,1.39,0,0,1,.74-1.37,6.71,6.71,0,0,1,2.49-.46l3.49-.08c1.21,0,3.09,0,5.65.13C2523.9,2130.05,2525.4,2130.1,2526.39,2130.1Z" transform="translate(-1189.7 -2129.41)"/><path class="cls-1" d="M2540.3,2156.33c0-2.43.07-4.94.07-7.51,0-1.91,0-3.15-.07-3.7q-.27-7-.27-13.59v-.13a.51.51,0,0,1-.07-.26c0-.32.25-.51.74-.57,1.84-.08,3.7-.13,5.58-.13l4.23-.13,3.16,0c.71,0,1.13.11,1.24.41a8.87,8.87,0,0,1,.3,1.07,8.43,8.43,0,0,1,.14,1.6v2.05q0,4,.27,9.81.27,5.09.27,8.51,0,8.22.13,14,0,.48-.81.48c-.53,0-.8-.16-.8-.48,0-1-.07-3-.07-5.9,0-2.41,0-4-.07-4.65q0-5.13-.13-9.21-.34-7.24-.47-12.85a3.65,3.65,0,0,1,.07-.83,7.45,7.45,0,0,0,.06-1.13c0-.84,0-1.45-.06-1.82a18.45,18.45,0,0,0-2.15-.13c-.23,0-.79,0-1.68.08l-1.48.09-2.15.09c-1.39,0-3,0-4.77.08l.13,8.38.14,11.56c0,2.46,0,4.83-.07,7.12l-.07.09c-.13.78-.33,1.82-.6,3.13q-1.82,5.46-5.72,6.21l-.26.08a.75.75,0,0,1-.47-.15.44.44,0,0,1-.21-.37c0-.23.12-.39.47-.48a7.42,7.42,0,0,0,4.57-5.68A26.14,26.14,0,0,0,2540.3,2156.33Z" transform="translate(-1189.7 -2129.41)"/><path class="cls-1" d="M2566,2130.49c-.09-.26.14-.46.7-.59s.88,0,1,.41v1.61l.21,4.82.07,1.83.26,8.38a16,16,0,0,1,.07,1.74l.14-.05,2.82-.08a19.75,19.75,0,0,1,5.44,1.19,16.82,16.82,0,0,1,4.57,2.5,8.09,8.09,0,0,1,3,3.38,4.91,4.91,0,0,1,.26,1.74,12.15,12.15,0,0,1-.4,2.89,8.29,8.29,0,0,1-1.61,3.15,12.64,12.64,0,0,1-7.53,4.43,21.2,21.2,0,0,1-4.77.52,16.24,16.24,0,0,1-2.15-.13q-.6,0-.6-.39v-.09l-.68-19.32-.26-8.3Zm15.18,32.38a8,8,0,0,0,1.55-3.46,9.09,9.09,0,0,0,.2-1.91,4.18,4.18,0,0,0-.27-1.6,8,8,0,0,0-2.76-3.09,17.86,17.86,0,0,0-4.7-2.43,16.52,16.52,0,0,0-5.37-.87l-1,0a.86.86,0,0,1-.47,0l.6,17.81a11.09,11.09,0,0,0,1.28,0,20.3,20.3,0,0,0,4.3-.45,11.28,11.28,0,0,0,3.43-1.29A11,11,0,0,0,2581.15,2162.87Z" transform="translate(-1189.7 -2129.41)"/><path class="cls-1" d="M2609.58,2130.36v-.05c0-.32.24-.47.73-.47s.83.17.88.52q.41,6.42.8,19.59.21,9.81.68,17.63,0,.48-.81.48t-.81-.48c-.09-1.1-.18-2.82-.27-5.15s-.15-4.3-.2-5.93l-.06-2.21-.14-4.48c-3,.21-6.38.31-10.28.31-2.28,0-3.76,0-4.44,0h-.06q0,9.63-.34,18c0,.32-.27.48-.8.48s-.81-.16-.81-.48q.41-7.86.4-19.33c0-2.83,0-4.66-.06-5.47q-.27-7.65-.27-12.9c0-.35.27-.52.8-.52s.81.17.81.52c0,3.79,0,6.23.07,7.3q.2,5.64.2,11.33h.06c.68,0,2.16,0,4.44,0,3.9,0,7.32-.1,10.28-.31Q2610,2136.4,2609.58,2130.36Z" transform="translate(-1189.7 -2129.41)"/><path class="cls-1" d="M2643.64,2138.87l-.06,3.26.06,6.69c0,1.73,0,2.85-.06,3.34l-.14,4.78v1.82a27,27,0,0,1-.33,4.65,5.72,5.72,0,0,1-1.55,3,8.19,8.19,0,0,1-3.76,2.08,18.06,18.06,0,0,1-4.71.61,14.25,14.25,0,0,1-4.37-.69,6.62,6.62,0,0,1-3.35-2.3,7.77,7.77,0,0,1-1.75-4,68.59,68.59,0,0,1-.88-11.94c0-2.46.09-5.45.27-8.95l.07-1.17a21.1,21.1,0,0,1,.34-3.57,7.33,7.33,0,0,1,1.07-2.56,6.83,6.83,0,0,1,2.55-2.28,10.52,10.52,0,0,1,3.56-1.24,23.17,23.17,0,0,1,3.23-.21c2.82,0,4.93.5,6.32,1.52a7,7,0,0,1,2.72,3A10.2,10.2,0,0,1,2643.64,2138.87Zm-5.17,28.27A4.88,4.88,0,0,0,2641,2165a8.27,8.27,0,0,0,.74-3.5v-.57q0-3.6.27-8.77c0-.52.07-1.72.07-3.6l-.07-7.26V2139a9.34,9.34,0,0,0-.94-4.43,6.17,6.17,0,0,0-3.29-2.74,10,10,0,0,0-3.16-.52l-1.88,0a10.87,10.87,0,0,0-2.22.21,7.71,7.71,0,0,0-3.23,1.52,6.77,6.77,0,0,0-2,2.48,10.55,10.55,0,0,0-.61,3.91v1a5.5,5.5,0,0,1-.06.91l-.21,4.57q0,6.85.17,10.77a38.34,38.34,0,0,0,.64,6.08,6.9,6.9,0,0,0,2.55,3.93,8.17,8.17,0,0,0,5.11,1.5A14.41,14.41,0,0,0,2638.47,2167.14Z" transform="translate(-1189.7 -2129.41)"/><path class="cls-1" d="M2670.59,2130.18c.49,0,.74.18.74.52s-.25.53-.74.53l-4-.13-4-.09h-1.34c-.45,0-.83,0-1.14-.05-.68,0-1.21,0-1.62.05h-.74c-1.16,0-1.88.16-2.14.48a1.1,1.1,0,0,0-.14.52v.3c.14,1.59.2,3.22.2,4.87l-.13,7.07.13,12-.13,12q0,.48-.81.48t-.81-.48l.14-11.68c0-3,0-4.85-.07-5.69l-.07-5.69.14-4.6.07-4.56-.14-2.65-.2-1.57a1.37,1.37,0,0,1,.77-1.36,6.41,6.41,0,0,1,2.46-.42l3.83-.08c1.88,0,3.76,0,5.64.13Z" transform="translate(-1189.7 -2129.41)"/><path class="cls-1" d="M2702.3,2138.87l-.06,3.26.06,6.69c0,1.73,0,2.85-.06,3.34l-.14,4.78v1.82a27,27,0,0,1-.33,4.65,5.65,5.65,0,0,1-1.55,3,8.14,8.14,0,0,1-3.76,2.08,18,18,0,0,1-4.7.61,14.2,14.2,0,0,1-4.37-.69,6.6,6.6,0,0,1-3.36-2.3,7.77,7.77,0,0,1-1.75-4,69.69,69.69,0,0,1-.87-11.94c0-2.46.09-5.45.26-8.95l.07-1.17a22.2,22.2,0,0,1,.34-3.57,7.52,7.52,0,0,1,1.07-2.56,6.79,6.79,0,0,1,2.56-2.28,10.37,10.37,0,0,1,3.56-1.24,22.91,22.91,0,0,1,3.22-.21c2.83,0,4.93.5,6.32,1.52a6.9,6.9,0,0,1,2.72,3A10,10,0,0,1,2702.3,2138.87Zm-5.17,28.27a4.84,4.84,0,0,0,2.55-2.14,8.27,8.27,0,0,0,.74-3.5v-.57q0-3.6.27-8.77c0-.52.07-1.72.07-3.6l-.07-7.26V2139a9.34,9.34,0,0,0-.94-4.43,6.17,6.17,0,0,0-3.29-2.74,10,10,0,0,0-3.16-.52l-1.88,0a10.87,10.87,0,0,0-2.22.21A7.67,7.67,0,0,0,2686,2133a6.7,6.7,0,0,0-2,2.48,10.78,10.78,0,0,0-.6,3.91v1a5.34,5.34,0,0,1-.07.91l-.2,4.57q0,6.85.16,10.77a39.57,39.57,0,0,0,.64,6.08,7,7,0,0,0,2.56,3.93,8.12,8.12,0,0,0,5.1,1.5A14.37,14.37,0,0,0,2697.13,2167.14Z" transform="translate(-1189.7 -2129.41)"/><path class="cls-1" d="M2758.14,2138.87l-.06,3.26.06,6.69c0,1.73,0,2.85-.06,3.34l-.14,4.78v1.82a27,27,0,0,1-.33,4.65,5.72,5.72,0,0,1-1.55,3,8.19,8.19,0,0,1-3.76,2.08,18.06,18.06,0,0,1-4.71.61,14.25,14.25,0,0,1-4.37-.69,6.62,6.62,0,0,1-3.35-2.3,7.77,7.77,0,0,1-1.75-4,68.59,68.59,0,0,1-.88-11.94c0-2.46.09-5.45.27-8.95l.07-1.17a21.1,21.1,0,0,1,.34-3.57A7.33,7.33,0,0,1,2739,2134a6.83,6.83,0,0,1,2.55-2.28,10.52,10.52,0,0,1,3.56-1.24,23.17,23.17,0,0,1,3.23-.21c2.82,0,4.93.5,6.32,1.52a7,7,0,0,1,2.72,3A10.2,10.2,0,0,1,2758.14,2138.87Zm-5.17,28.27a4.88,4.88,0,0,0,2.55-2.14,8.27,8.27,0,0,0,.74-3.5v-.57q0-3.6.27-8.77c0-.52.07-1.72.07-3.6l-.07-7.26V2139a9.34,9.34,0,0,0-.94-4.43,6.17,6.17,0,0,0-3.29-2.74,10,10,0,0,0-3.16-.52l-1.88,0a10.87,10.87,0,0,0-2.22.21,7.71,7.71,0,0,0-3.23,1.52,6.77,6.77,0,0,0-2,2.48,10.55,10.55,0,0,0-.61,3.91v1a5.5,5.5,0,0,1-.06.91l-.21,4.57q0,6.85.17,10.77a38.34,38.34,0,0,0,.64,6.08,6.9,6.9,0,0,0,2.55,3.93,8.17,8.17,0,0,0,5.11,1.5A14.41,14.41,0,0,0,2753,2167.14Z" transform="translate(-1189.7 -2129.41)"/><path class="cls-1" d="M2768.09,2131.83a1.36,1.36,0,0,1,.77-1.36,6.32,6.32,0,0,1,2.45-.42l3.83-.08c1.88,0,3.76,0,5.65.13l4.16.08c.5,0,.74.18.74.52s-.24.53-.74.53l-4-.13-4-.09h-1.35c-.44,0-.83,0-1.14-.05-.67,0-1.21,0-1.61.05h-.74c-1.16,0-1.88.16-2.15.48a1.1,1.1,0,0,0-.14.52v.3l.21,4.43.07,1.83.26,8.38a16,16,0,0,1,.07,1.74l.14-.05,2.82-.08a19.75,19.75,0,0,1,5.44,1.19,16.82,16.82,0,0,1,4.57,2.5,8.09,8.09,0,0,1,3,3.38,4.91,4.91,0,0,1,.26,1.74,12.15,12.15,0,0,1-.4,2.89,8.29,8.29,0,0,1-1.61,3.15,12.64,12.64,0,0,1-7.53,4.43,21.2,21.2,0,0,1-4.77.52,16.24,16.24,0,0,1-2.15-.13q-.6,0-.6-.39v-.09l-.68-19.32-.26-8.3Zm15.18,31a8,8,0,0,0,1.55-3.46,9.09,9.09,0,0,0,.2-1.91,4.18,4.18,0,0,0-.27-1.6,8,8,0,0,0-2.76-3.09,17.86,17.86,0,0,0-4.7-2.43,16.52,16.52,0,0,0-5.37-.87l-1,0a.86.86,0,0,1-.47,0l.6,17.81a11.09,11.09,0,0,0,1.28,0,20.3,20.3,0,0,0,4.3-.45,11.11,11.11,0,0,0,3.42-1.29A10.88,10.88,0,0,0,2783.27,2162.87Z" transform="translate(-1189.7 -2129.41)"/><path class="cls-1" d="M2804.91,2130.88a11.32,11.32,0,0,1,6.45,3.3,8.57,8.57,0,0,1,2.15,5.86,13.08,13.08,0,0,1-.2,2.22,7.74,7.74,0,0,1-2.69,4.23,16.71,16.71,0,0,1-5.64,3.11,24.25,24.25,0,0,1-7,1.17q-.13,9.46-.54,17.46,0,.48-.81.48c-.49,0-.74-.16-.74-.48q.21-3.55.34-9.53t.13-9.71l-.13-5-.13-3.17a7.72,7.72,0,0,0-.07-1.13q-.14-4.08-.14-8.29a.35.35,0,0,1,.21-.3l.13-.14a6.25,6.25,0,0,1,3.36-.73A27.41,27.41,0,0,1,2804.91,2130.88Zm3.76,15.55a7.87,7.87,0,0,0,3.36-6.6l-.07-1.09a6.58,6.58,0,0,0-1.74-4,8.67,8.67,0,0,0-4.24-2.56,21.17,21.17,0,0,0-4.84-.78c-.8-.06-1.45-.09-1.94-.09a4.07,4.07,0,0,0-1.68.26q0,6.12.26,11c.14,1.76.21,3.56.21,5.38v1.74a20.77,20.77,0,0,0,5.84-.91A15.64,15.64,0,0,0,2808.67,2146.43Z" transform="translate(-1189.7 -2129.41)"/><path class="cls-1" d="M2838.17,2130.36a145.23,145.23,0,0,0,3.16,16.94q2.15,8.77,5.78,20.37s-.08.15-.38.28a2,2,0,0,1-.83.19.51.51,0,0,1-.47-.21q-2.57-8.34-4.91-17.85h-8.33q-2,6.28-6.65,17.24l-.41.95a.56.56,0,0,1-.33.24,1.17,1.17,0,0,1-.47.11,1.32,1.32,0,0,1-.54-.09.27.27,0,0,1-.2-.26.31.31,0,0,1,.07-.21l4.9-12c.89-2.35,1.84-5.33,2.82-9a72.89,72.89,0,0,1,2.09-7l2-5.87.4-1.17a7.87,7.87,0,0,0,.68-2.69c0-.32.24-.48.74-.48S2838.08,2130,2838.17,2130.36Zm-5.78,18.67h7.79l-.47-2.26q-1.82-8.11-2.62-12.76a1,1,0,0,1-.06.39,1.87,1.87,0,0,0-.14.43l-1.34,4.13-.41,1.3q-1.74,5.22-2.08,6.51A10.72,10.72,0,0,1,2832.39,2149Z" transform="translate(-1189.7 -2129.41)"/><path class="cls-1" d="M2864.85,2148.38l.87-.22c.62-.23,1.39-.56,2.28-1a10.78,10.78,0,0,0,4.1-3.83,9,9,0,0,0,.74-7.36,6.89,6.89,0,0,0-1.21-2.24,5,5,0,0,0-2.28-1.52,11.69,11.69,0,0,0-4-.6,8.64,8.64,0,0,0-4.77,1.17,4.74,4.74,0,0,0-2.22,3.13.57.57,0,0,1-.61.34,1.36,1.36,0,0,1-.67-.15.46.46,0,0,1-.27-.41v-.09a6.06,6.06,0,0,1,1.08-2.17,7.43,7.43,0,0,1,2.82-2,11.52,11.52,0,0,1,4.7-.85,16.14,16.14,0,0,1,3.09.35q3.77.82,5.08,3a9.61,9.61,0,0,1,1.31,5,9.72,9.72,0,0,1-.41,2.73c-.67,2.17-2.44,4.25-5.3,6.21a13,13,0,0,1-2.49,1.18h-.07q7.2,2.3,8.7,5.38a12.08,12.08,0,0,1,1.38,5.91,10.12,10.12,0,0,1-2,5.6,7.27,7.27,0,0,1-2.48,2.11,9.75,9.75,0,0,1-3.63.89l-2.09.09a18.34,18.34,0,0,1-4.06-.42,7.17,7.17,0,0,1-2.92-1.24,6.6,6.6,0,0,1-2.36-3.64v-.09a.43.43,0,0,1,.24-.39,1.3,1.3,0,0,1,.64-.13c.36,0,.58.11.67.35a5.41,5.41,0,0,0,4.37,4.17,15.77,15.77,0,0,0,3.69.43c2.56,0,4.3-.41,5.24-1.22a6.69,6.69,0,0,0,1.35-1.52,8.77,8.77,0,0,0,1.68-5,9.49,9.49,0,0,0-1.88-6.3q-1.89-2.21-7.66-4.3l-.88-.3c-.35,0-.52-.19-.5-.5S2864.4,2148.5,2864.85,2148.38Z" transform="translate(-1189.7 -2129.41)"/><path class="cls-1" d="M2907.65,2138.87l-.07,3.26.07,6.69c0,1.73,0,2.85-.07,3.34l-.13,4.78v1.82a25.89,25.89,0,0,1-.34,4.65,5.64,5.64,0,0,1-1.54,3,8.17,8.17,0,0,1-3.77,2.08,18,18,0,0,1-4.7.61,14.2,14.2,0,0,1-4.37-.69,6.69,6.69,0,0,1-3.36-2.3,7.84,7.84,0,0,1-1.74-4,68.59,68.59,0,0,1-.88-11.94c0-2.46.09-5.45.27-8.95l.07-1.17a21.27,21.27,0,0,1,.33-3.57,7.55,7.55,0,0,1,1.08-2.56,6.83,6.83,0,0,1,2.55-2.28,10.45,10.45,0,0,1,3.56-1.24,23.06,23.06,0,0,1,3.23-.21c2.82,0,4.93.5,6.32,1.52a7,7,0,0,1,2.72,3A10.2,10.2,0,0,1,2907.65,2138.87Zm-5.17,28.27A4.88,4.88,0,0,0,2905,2165a8.43,8.43,0,0,0,.74-3.5v-.57q0-3.6.27-8.77c0-.52.07-1.72.07-3.6l-.07-7.26V2139a9.46,9.46,0,0,0-.94-4.43,6.16,6.16,0,0,0-3.3-2.74,9.9,9.9,0,0,0-3.15-.52l-1.88,0a10.87,10.87,0,0,0-2.22.21,7.71,7.71,0,0,0-3.23,1.52,6.77,6.77,0,0,0-2,2.48,10.55,10.55,0,0,0-.61,3.91v1a4.47,4.47,0,0,1-.07.91l-.2,4.57q0,6.85.17,10.77a38.34,38.34,0,0,0,.64,6.08,6.9,6.9,0,0,0,2.55,3.93,8.15,8.15,0,0,0,5.11,1.5A14.44,14.44,0,0,0,2902.48,2167.14Z" transform="translate(-1189.7 -2129.41)"/><path class="cls-1" d="M2932.85,2152.25a8,8,0,0,1,3,3.38,4.67,4.67,0,0,1,.27,1.74,12.15,12.15,0,0,1-.4,2.89,8.29,8.29,0,0,1-1.61,3.15,12.64,12.64,0,0,1-7.53,4.43,21.2,21.2,0,0,1-4.77.52,16.24,16.24,0,0,1-2.15-.13c-.4,0-.61-.16-.61-.39v-.09l-.67-19.32-.27-8.3-.13-4.3-.07-1-.13-2.21.07-1a1.68,1.68,0,0,1,1.14-1.48,7.37,7.37,0,0,1,2.95-.48q4.58,0,6.93,2.48a6.78,6.78,0,0,1,1.94,4.82,11.47,11.47,0,0,1-1.21,4.91,14.3,14.3,0,0,1-3.49,4.6,11.19,11.19,0,0,1-3.22,2.09,19.75,19.75,0,0,1,5.44,1.19A17,17,0,0,1,2932.85,2152.25Zm-13.44-21a1.11,1.11,0,0,0-.2.73,2.94,2.94,0,0,0,.06.7,2,2,0,0,1,.07.61,14.16,14.16,0,0,1,.07,1.73l.13,3.57.27,8.38a16,16,0,0,1,.07,1.74l.13-.05a29.32,29.32,0,0,0,3.13-1.56,10.88,10.88,0,0,0,2.18-1.7,12.55,12.55,0,0,0,3-4.42,12.08,12.08,0,0,0,.94-4.26,5.67,5.67,0,0,0-2.82-5,7.9,7.9,0,0,0-3-.95c-.71-.06-1.28-.09-1.68-.09Q2919.88,2130.66,2919.41,2131.23Zm14.91,28.18a8.47,8.47,0,0,0,.21-1.91,4.18,4.18,0,0,0-.27-1.6,8,8,0,0,0-2.76-3.09,18,18,0,0,0-4.7-2.43,16.53,16.53,0,0,0-5.38-.87l-1,0a.86.86,0,0,1-.47,0l.6,17.81a11,11,0,0,0,1.28,0,20.3,20.3,0,0,0,4.3-.45,11.11,11.11,0,0,0,3.42-1.29,10.88,10.88,0,0,0,3.23-2.75A7.87,7.87,0,0,0,2934.32,2159.41Z" transform="translate(-1189.7 -2129.41)"/><path class="cls-1" d="M2960.73,2130.36a147.36,147.36,0,0,0,3.16,16.94q2.15,8.77,5.78,20.37s-.08.15-.37.28a2,2,0,0,1-.84.19.51.51,0,0,1-.47-.21q-2.56-8.34-4.91-17.85h-8.33q-2,6.28-6.65,17.24l-.41.95a.56.56,0,0,1-.33.24,1.17,1.17,0,0,1-.47.11,1.35,1.35,0,0,1-.54-.09.27.27,0,0,1-.2-.26.31.31,0,0,1,.07-.21l4.9-12q1.35-3.53,2.83-9a73.21,73.21,0,0,1,2.08-7l2-5.87.41-1.17a8,8,0,0,0,.67-2.69c0-.32.24-.48.74-.48S2960.64,2130,2960.73,2130.36ZM2955,2149h7.8l-.47-2.26q-1.82-8.11-2.62-12.76a1,1,0,0,1-.07.39,1.87,1.87,0,0,0-.14.43l-1.34,4.13-.4,1.3c-1.17,3.48-1.86,5.65-2.09,6.51A10.15,10.15,0,0,1,2955,2149Z" transform="translate(-1189.7 -2129.41)"/><path class="cls-1" d="M2995.67,2130.36v-.05c0-.32.25-.47.74-.47s.83.17.87.52q.42,6.42.81,19.59.21,9.81.67,17.63c0,.32-.26.48-.8.48s-.81-.16-.81-.48c-.09-1.1-.18-2.82-.27-5.15s-.16-4.3-.2-5.93l-.06-2.21-.14-4.48c-3,.21-6.38.31-10.28.31-2.29,0-3.76,0-4.44,0h-.06q0,9.63-.34,18,0,.48-.81.48c-.53,0-.8-.16-.8-.48q.4-7.86.4-19.33c0-2.83,0-4.66-.07-5.47q-.27-7.65-.26-12.9c0-.35.26-.52.8-.52s.81.17.81.52c0,3.79,0,6.23.06,7.3q.21,5.64.21,11.33h.06c.68,0,2.15,0,4.44,0,3.9,0,7.32-.1,10.28-.31Q2996.08,2136.4,2995.67,2130.36Z" transform="translate(-1189.7 -2129.41)"/><path class="cls-1" d="M3010,2132.75v-1.91c0-.35.26-.53.8-.53s.81.18.81.53q0,4.47-.14,8.64a7.18,7.18,0,0,0-.06,1l-.14,3.3-.13,5.78-.2,5.91-.07,1.25q-.41,6-.4,8.95l5.5-10,11.29-20.37,2.56-4.69a.84.84,0,0,1,.8-.35c.5,0,.74.14.74.43v.05l-.13,2.86q-1,16.08-1,25.85,0,4.42.2,8.86c0,.32-.27.48-.8.48s-.81-.16-.81-.48q-.2-4.35-.2-8.73,0-9.12.87-22.72l.14-2.82-5.31,9.6L3013.07,2164l-2.61,4.69a.87.87,0,0,1-.81.35,1.18,1.18,0,0,1-.5-.11.39.39,0,0,1-.24-.37c0-.41-.07-1.32-.07-2.74q0-3.43.34-8.86l.06-1.35q.27-4,.27-7.51,0-2.86.21-5.73l.13-4.3Z" transform="translate(-1189.7 -2129.41)"/><path class="cls-1" d="M3041.43,2140.3a8.48,8.48,0,0,1,2.09-5.69,9.7,9.7,0,0,1,5.21-3,26.07,26.07,0,0,1,6.48-.87,6,6,0,0,1,3.29.7c.09.06.13.1.13.13a.37.37,0,0,1,.21.3v1.7c0,2.75-.12,6.34-.34,10.77,0,.58-.06,1.87-.06,3.86q0,4.05.13,10.3c.09,4.17.2,7.42.34,9.77,0,.32-.28.48-.81.48a1.06,1.06,0,0,1-.5-.13.4.4,0,0,1-.24-.35q-.41-8-.54-17.24l-2.15-.13a17.07,17.07,0,0,0-4,.39,7.07,7.07,0,0,0-3.9,2.43,9.43,9.43,0,0,0-2.15,4.65,89.92,89.92,0,0,0-1.48,9.86.55.55,0,0,1-.3.34,1,1,0,0,1-.51.13c-.49,0-.73-.14-.73-.43v0a78.41,78.41,0,0,1,1.68-11,8.74,8.74,0,0,1,1.27-3,9.7,9.7,0,0,1,6.39-4,17.49,17.49,0,0,1-6.22-3.06,8,8,0,0,1-3.06-4.5A11.87,11.87,0,0,1,3041.43,2140.3Zm13.71-8.51c-3.94.17-6.9,1-8.87,2.35a8.2,8.2,0,0,0-3.29,6.38v1a5.72,5.72,0,0,0,1.61,3.71,10.32,10.32,0,0,0,3.87,2.67,19.42,19.42,0,0,0,4.94,1.31,17,17,0,0,0,1.81.13,5.18,5.18,0,0,0,1.75-.22c.17-4.31.22-7.95.13-10.9a45.41,45.41,0,0,1,0-4.95l.07-1.57C3056.53,2131.76,3055.86,2131.79,3055.14,2131.79Z" transform="translate(-1189.7 -2129.41)"/><path class="cls-2" d="M1213.46,2276.81l-3.42-.07-9.37-.23q-5.24,0-9.36-.23c-.74-.1-1.11-.43-1.11-1a1,1,0,0,1,.1-.45v-.23q0-11.49.4-23.64.1-1.44.1-6.42,0-17.61-.5-33.16a.73.73,0,0,1,.3-.61,1.15,1.15,0,0,1,.71-.22c.73,0,1.11.27,1.11.83q.49,13.21.5,28.48l-.2,20.09-.2,14.57c2.68.11,5.4.15,8.15.15l6.25.16,2.21.15q2,.15,2.52.15a25,25,0,0,0,3.22-.23c.06-.65.1-1.71.1-3.17a14.4,14.4,0,0,0-.1-2,7.93,7.93,0,0,1-.1-1.44q.2-9.75.7-22.36.21-7.09.2-16,.11-1.82.1-8.08c0-5.09,0-8.51.11-10.28,0-.55.4-.83,1.2-.83s1.21.28,1.21.83q-.19,10.13-.2,24.4,0,6-.4,14.81-.4,10-.41,17.07v3.55a16.6,16.6,0,0,1-.2,2.79c-.07.25-.13.5-.2.76,1.21-.05,2-.08,2.52-.08a.72.72,0,0,1,.4.08h.21c.8,0,1.2.27,1.2.83-.07.75-.07,2.72,0,5.89-.14.55-.57.83-1.31.83a1.49,1.49,0,0,1-.75-.19.6.6,0,0,1-.35-.57v-5.05h-3.13a6.09,6.09,0,0,1-.9.07Z" transform="translate(-1189.7 -2129.41)"/><path class="cls-2" d="M1258.67,2210.27c.8,0,1.21.3,1.21.9s-.41.83-1.21.83l-12.09-.3c-.47,0-1.47-.08-3-.08s-2.65,0-3.12.08H1239c-1.61,0-2.58.25-2.92.75a2.34,2.34,0,0,0-.2.91v.53q.19,3.48.2,7.7l-.2,13.22c0,4.44,0,7.28.1,8.54h.2c2.76-.15,5.84-.23,9.27-.23s5.84,0,6.84-.07h.1a1.16,1.16,0,0,1,.81.26.77.77,0,0,1,.3.57c0,.6-.4.9-1.21.9-2.68.15-5.74.23-9.16.23-3.62,0-5.94,0-7,.07h-.2c.07,1.57.1,5.09.1,10.58l-.1,20a133.11,133.11,0,0,1,14.9-.76c2.55,0,4.2,0,4.93.08s1.12.4,1.12.9-.31.84-.91.84h-.21c-.73-.06-2.44-.08-5.13-.08a141.59,141.59,0,0,0-15.6.83h-.2a1.84,1.84,0,0,1-.91-.23.68.68,0,0,1-.41-.6l.11-10.2c.06-1.51.1-4.88.1-10.12,0-4.58,0-7.53-.1-8.84l-.11-8.91v-2.27l.11-6.79c.06-1,.1-3.28.1-6.8v-2.27c0-2.42,0-3.95-.1-4.61l-.31-2.71a2.53,2.53,0,0,1,1.11-2.39,9.08,9.08,0,0,1,3.73-.79l5.23-.15q2.71,0,8.46.23Q1256.45,2210.27,1258.67,2210.27Z" transform="translate(-1189.7 -2129.41)"/><path class="cls-2" d="M1298.84,2210.72v-.08c0-.55.37-.83,1.11-.83s1.24.3,1.31.91q.6,11.18,1.2,34.06.3,17.07,1,30.67c0,.55-.4.83-1.21.83s-1.21-.28-1.21-.83c-.13-1.91-.26-4.9-.4-8.95s-.23-7.49-.3-10.31l-.1-3.85-.2-7.78q-6.65.53-15.41.52c-3.42,0-5.64,0-6.64-.07h-.1q0,16.77-.51,31.35c0,.55-.4.83-1.2.83s-1.21-.28-1.21-.83q.6-13.68.6-33.62,0-7.39-.1-9.51-.4-13.3-.4-22.44c0-.6.4-.9,1.21-.9s1.2.3,1.2.9q0,9.9.11,12.69.3,9.83.3,19.72h.1c1,.05,3.22.07,6.64.07q8.76,0,15.41-.53Q1299.44,2221.22,1298.84,2210.72Z" transform="translate(-1189.7 -2129.41)"/><path class="cls-2" d="M1351.9,2210.79c.8,0,1.21.31,1.21.91s-.41.91-1.21.91l-8.86-.16-6.24.08v.45a4.5,4.5,0,0,0-.1,1.29l-.11,4.6.21,24.4.1,24.25v9.74c0,.61-.4.91-1.21.91s-1.31-.3-1.31-.91q.11-3.47.1-15.71l-.3-33.31v-11.86l-.1-2.11a6.55,6.55,0,0,1,.2-1.74q-8.05,0-14.5-.15c-.81,0-1.21-.3-1.21-.91s.34-.9,1-.9h.2l10.67.15,12.29-.08Z" transform="translate(-1189.7 -2129.41)"/><path class="cls-2" d="M1381.7,2211.62q6.45,1.52,9.67,5.75a16.38,16.38,0,0,1,3.22,10.19,25.49,25.49,0,0,1-.31,3.85,13.86,13.86,0,0,1-4,7.37,24.42,24.42,0,0,1-8.46,5.4,31.44,31.44,0,0,1-10.47,2q-.21,16.47-.81,30.36c0,.56-.4.83-1.21.83s-1.1-.27-1.1-.83q.3-6.2.5-16.58t.2-16.88l-.2-8.68-.2-5.52a15.64,15.64,0,0,0-.1-2q-.21-7.11-.2-14.43a.66.66,0,0,1,.3-.53l.2-.23a8.36,8.36,0,0,1,5-1.28A36.62,36.62,0,0,1,1381.7,2211.62Zm5.64,27a14.49,14.49,0,0,0,5-11.48l-.1-1.89a12.3,12.3,0,0,0-2.62-6.94,12.73,12.73,0,0,0-6.34-4.46,27.3,27.3,0,0,0-7.25-1.36c-1.21-.1-2.18-.15-2.92-.15a5.39,5.39,0,0,0-2.52.45q0,10.65.41,19.19.3,4.61.3,9.36v3a27.14,27.14,0,0,0,8.76-1.59A22.21,22.21,0,0,0,1387.34,2238.66Z" transform="translate(-1189.7 -2129.41)"/><path class="cls-2" d="M1460.43,2211.62q6.45,1.52,9.67,5.75a16.32,16.32,0,0,1,3.22,10.19,25.46,25.46,0,0,1-.3,3.85,13.81,13.81,0,0,1-4,7.37,24.24,24.24,0,0,1-8.46,5.4,31.44,31.44,0,0,1-10.47,2q-.19,16.47-.8,30.36c0,.56-.41.83-1.21.83s-1.11-.27-1.11-.83q.3-6.2.5-16.58t.21-16.88l-.21-8.68-.2-5.52a13.91,13.91,0,0,0-.1-2q-.2-7.11-.2-14.43a.66.66,0,0,1,.3-.53l.2-.23a8.36,8.36,0,0,1,5-1.28A36.54,36.54,0,0,1,1460.43,2211.62Zm5.64,27a14.46,14.46,0,0,0,5-11.48l-.09-1.89a12.38,12.38,0,0,0-2.62-6.94,12.76,12.76,0,0,0-6.35-4.46,27.14,27.14,0,0,0-7.25-1.36c-1.2-.1-2.18-.15-2.92-.15a5.32,5.32,0,0,0-2.51.45q0,10.65.4,19.19.3,4.61.3,9.36v3a27.14,27.14,0,0,0,8.76-1.59A22.1,22.1,0,0,0,1466.07,2238.66Z" transform="translate(-1189.7 -2129.41)"/><path class="cls-2" d="M1510.27,2210.72a293.1,293.1,0,0,0,4.74,29.46q3.21,15.26,8.66,35.42c.06.1-.12.27-.56.49a2.65,2.65,0,0,1-1.26.34.71.71,0,0,1-.7-.38q-3.83-14.49-7.35-31h-12.49q-3,10.95-10,30l-.61,1.66a.9.9,0,0,1-.5.41,1.64,1.64,0,0,1-.71.19,1.81,1.81,0,0,1-.8-.15.48.48,0,0,1-.3-.45.65.65,0,0,1,.1-.38l7.35-20.85q2-6.12,4.23-15.55,1.61-7.41,3.12-12.24l3-10.2.6-2a15.48,15.48,0,0,0,1-4.68c0-.56.37-.83,1.11-.83S1510.14,2210.16,1510.27,2210.72Zm-8.66,32.48h11.68l-.7-3.93q-2.71-14.13-3.93-22.21a1.68,1.68,0,0,1-.1.68,4,4,0,0,0-.2.76l-2,7.17-.61,2.27q-2.61,9.06-3.12,11.33A20.6,20.6,0,0,1,1501.61,2243.2Z" transform="translate(-1189.7 -2129.41)"/><path class="cls-2" d="M1550.24,2242.06l1.31-.37c.94-.41,2.08-1,3.43-1.74a17.59,17.59,0,0,0,6.14-6.65,17.24,17.24,0,0,0,1.81-7.7,17.91,17.91,0,0,0-.71-5.1,12.56,12.56,0,0,0-1.81-3.89A7.34,7.34,0,0,0,1557,2214a15,15,0,0,0-6-1.06,11.62,11.62,0,0,0-7.15,2,8.35,8.35,0,0,0-3.32,5.44.86.86,0,0,1-.91.6,1.79,1.79,0,0,1-1-.27.8.8,0,0,1-.4-.71v-.15a10.2,10.2,0,0,1,5.84-7.29,15.15,15.15,0,0,1,7-1.47,21,21,0,0,1,4.63.6q5.64,1.44,7.6,5.21a18.73,18.73,0,0,1,2,8.76,19.73,19.73,0,0,1-.61,4.76q-1.52,5.67-8,10.8a18.87,18.87,0,0,1-3.73,2h-.1q10.77,4,13,9.37a23.71,23.71,0,0,1,2.06,10.27,19.46,19.46,0,0,1-2.92,9.74,11.49,11.49,0,0,1-3.72,3.67,13,13,0,0,1-5.44,1.55l-3.12.15a24.16,24.16,0,0,1-6.09-.72,10.33,10.33,0,0,1-4.38-2.15,11.88,11.88,0,0,1-3.53-6.35v-.15a.75.75,0,0,1,.36-.68,1.75,1.75,0,0,1,1-.22.93.93,0,0,1,1,.6q1.31,5.9,6.55,7.25a20.27,20.27,0,0,0,5.53.76q5.74,0,7.86-2.12a12,12,0,0,0,2-2.64,16.92,16.92,0,0,0,2.52-8.61q0-7.11-2.82-11t-11.48-7.47l-1.31-.53a.73.73,0,0,1-.75-.87C1549.22,2242.63,1549.57,2242.27,1550.24,2242.06Z" transform="translate(-1189.7 -2129.41)"/><path class="cls-2" d="M1605.72,2248.79a13.53,13.53,0,0,1,4.43,5.89,9.19,9.19,0,0,1,.4,3,24.56,24.56,0,0,1-.6,5,15.36,15.36,0,0,1-2.41,5.48,18.61,18.61,0,0,1-11.28,7.7,27.64,27.64,0,0,1-7.15.91,20.59,20.59,0,0,1-3.22-.23c-.6,0-.91-.27-.91-.68v-.15l-1-33.61-.4-14.43-.2-7.47-.1-1.74-.2-3.85.1-1.74a2.94,2.94,0,0,1,1.71-2.57,9.82,9.82,0,0,1,4.43-.83q6.86,0,10.37,4.31a12.75,12.75,0,0,1,2.92,8.38,22.57,22.57,0,0,1-1.81,8.53,25.07,25.07,0,0,1-5.24,8,16.67,16.67,0,0,1-4.83,3.63,26.22,26.22,0,0,1,8.15,2.07A24.79,24.79,0,0,1,1605.72,2248.79Zm-20.14-36.56a2.31,2.31,0,0,0-.29,1.28,5.73,5.73,0,0,0,.09,1.21,4.08,4.08,0,0,1,.11,1.06c.06.45.09,1.46.09,3l.21,6.19.4,14.58c.07.76.1,1.77.1,3l.2-.07a41.29,41.29,0,0,0,4.68-2.72,17.15,17.15,0,0,0,3.28-3,22.29,22.29,0,0,0,4.42-7.7,23.66,23.66,0,0,0,1.42-7.41,10.28,10.28,0,0,0-4.23-8.68,10.68,10.68,0,0,0-4.54-1.66c-1.07-.1-1.91-.15-2.51-.15C1587.2,2211.25,1586.06,2211.57,1585.58,2212.23Zm22.36,49a17.9,17.9,0,0,0,.3-3.32,8.69,8.69,0,0,0-.4-2.8,13.41,13.41,0,0,0-4.13-5.36,25.82,25.82,0,0,0-7-4.23,21.64,21.64,0,0,0-8.05-1.51l-1.51.07a1.21,1.21,0,0,1-.71-.07l.91,31a14.49,14.49,0,0,0,1.91.07,25.94,25.94,0,0,0,6.44-.79,15.25,15.25,0,0,0,5.14-2.23,17.25,17.25,0,0,0,4.83-4.8A14.94,14.94,0,0,0,1607.94,2261.25Z" transform="translate(-1189.7 -2129.41)"/><path class="cls-2" d="M1627.37,2214.87v-3.32c0-.61.4-.91,1.21-.91s1.21.3,1.21.91c0,5.19-.07,10.19-.21,15a14.13,14.13,0,0,0-.1,1.81l-.2,5.74-.2,10-.3,10.27-.1,2.19q-.62,10.43-.61,15.56l8.26-17.45,16.91-35.42,3.83-8.16a1.22,1.22,0,0,1,1.21-.6q1.11,0,1.11.75v.08l-.21,5q-1.5,28-1.51,44.95,0,7.7.31,15.41c0,.55-.41.83-1.21.83s-1.21-.28-1.21-.83q-.3-7.56-.3-15.19,0-15.86,1.31-39.5l.2-4.91-8,16.69L1632,2269.26l-3.93,8.15a1.21,1.21,0,0,1-1.21.61,1.49,1.49,0,0,1-.75-.19.66.66,0,0,1-.35-.64c-.07-.71-.1-2.3-.1-4.76q0-6,.5-15.41l.1-2.34q.4-6.94.4-13.07c0-3.32.1-6.65.31-10l.2-7.48Z" transform="translate(-1189.7 -2129.41)"/><path class="cls-2" d="M1707.82,2210.79c.8,0,1.21.31,1.21.91s-.41.91-1.21.91l-8.86-.16-6.25.08v.45a5.14,5.14,0,0,0-.09,1.29l-.11,4.6.2,24.4.11,24.25v9.74c0,.61-.41.91-1.21.91s-1.31-.3-1.31-.91q.1-3.47.1-15.71l-.3-33.31v-11.86l-.1-2.11a6.55,6.55,0,0,1,.2-1.74q-8.06,0-14.5-.15c-.81,0-1.21-.3-1.21-.91s.34-.9,1-.9h.2l10.67.15,12.28-.08Z" transform="translate(-1189.7 -2129.41)"/><path class="cls-2" d="M1725.84,2214.87v-3.32c0-.61.4-.91,1.21-.91s1.2.3,1.2.91c0,5.19-.06,10.19-.2,15a12.5,12.5,0,0,0-.1,1.81l-.2,5.74-.2,10-.3,10.27-.11,2.19q-.6,10.43-.6,15.56l8.26-17.45,16.91-35.42,3.83-8.16a1.22,1.22,0,0,1,1.21-.6c.74,0,1.1.25,1.1.75v.08l-.2,5q-1.5,28-1.51,44.95,0,7.7.31,15.41c0,.55-.41.83-1.21.83s-1.21-.28-1.21-.83q-.3-7.56-.3-15.19,0-15.86,1.31-39.5l.2-4.91-8,16.69-16.81,35.43-3.93,8.15a1.21,1.21,0,0,1-1.21.61,1.49,1.49,0,0,1-.75-.19.66.66,0,0,1-.35-.64c-.07-.71-.11-2.3-.11-4.76q0-6,.51-15.41l.1-2.34q.4-6.94.4-13.07c0-3.32.1-6.65.31-10l.2-7.48Z" transform="translate(-1189.7 -2129.41)"/><path class="cls-2" d="M1773,2228a16.22,16.22,0,0,1,3.12-9.89,14.24,14.24,0,0,1,7.8-5.29,34.37,34.37,0,0,1,9.72-1.51c2.28,0,3.93.41,4.93,1.21.13.1.2.18.2.23a.64.64,0,0,1,.3.53v2.94q0,7.18-.5,18.73-.1,1.51-.1,6.73,0,7,.2,17.9c.14,7.25.3,12.91.51,17,0,.56-.41.83-1.21.83a1.4,1.4,0,0,1-.76-.22.71.71,0,0,1-.35-.61q-.61-13.82-.81-30l-3.22-.23a22.37,22.37,0,0,0-5.94.68,10.5,10.5,0,0,0-5.84,4.23,17.78,17.78,0,0,0-3.22,8.08q-1.82,10.88-2.22,17.15a1,1,0,0,1-.45.6,1.38,1.38,0,0,1-.75.23c-.74,0-1.11-.25-1.11-.76v-.07a158.92,158.92,0,0,1,2.51-19.19,17,17,0,0,1,1.92-5.21,14.5,14.5,0,0,1,9.56-7,24.68,24.68,0,0,1-9.31-5.32,14.14,14.14,0,0,1-4.58-7.82A23.67,23.67,0,0,1,1773,2228Zm20.54-14.8q-8.87.45-13.29,4.08a15.11,15.11,0,0,0-4.94,11.1v1.74a10.84,10.84,0,0,0,2.42,6.46,15.74,15.74,0,0,0,5.79,4.64,26.09,26.09,0,0,0,7.4,2.27,20.26,20.26,0,0,0,2.72.23,6.6,6.6,0,0,0,2.61-.38q.4-11.25.2-19-.2-4.3,0-8.61l.11-2.72A28.79,28.79,0,0,1,1793.5,2213.21Z" transform="translate(-1189.7 -2129.41)"/><path class="cls-2" d="M1884.82,2210.79c.8,0,1.21.31,1.21.91s-.41.91-1.21.91l-8.86-.16-6.25.08v.45a4.94,4.94,0,0,0-.1,1.29l-.1,4.6.2,24.4.1,24.25v9.74c0,.61-.4.91-1.2.91s-1.31-.3-1.31-.91q.09-3.47.1-15.71l-.31-33.31v-11.86l-.09-2.11a6.55,6.55,0,0,1,.2-1.74q-8.06,0-14.5-.15c-.81,0-1.21-.3-1.21-.91s.34-.9,1-.9h.2l10.67.15,12.28-.08Z" transform="translate(-1189.7 -2129.41)"/><path class="cls-2" d="M1923.78,2248.79a13.53,13.53,0,0,1,4.43,5.89,9.19,9.19,0,0,1,.4,3,24.56,24.56,0,0,1-.6,5,15.21,15.21,0,0,1-2.42,5.48,18.59,18.59,0,0,1-11.27,7.7,27.64,27.64,0,0,1-7.15.91,20.5,20.5,0,0,1-3.22-.23c-.61,0-.91-.27-.91-.68v-.15l-1-33.61-.4-14.43-.2-7.47-.1-1.74-.2-3.85.1-1.74a2.93,2.93,0,0,1,1.71-2.57,9.82,9.82,0,0,1,4.43-.83q6.86,0,10.37,4.31a12.75,12.75,0,0,1,2.92,8.38,22.57,22.57,0,0,1-1.81,8.53,25.07,25.07,0,0,1-5.24,8,16.67,16.67,0,0,1-4.83,3.63,26.22,26.22,0,0,1,8.15,2.07A24.79,24.79,0,0,1,1923.78,2248.79Zm-20.14-36.56a2.31,2.31,0,0,0-.3,1.28,5.57,5.57,0,0,0,.1,1.21,4.16,4.16,0,0,1,.1,1.06,26.39,26.39,0,0,1,.1,3l.21,6.19.4,14.58c.06.76.1,1.77.1,3l.2-.07a41.29,41.29,0,0,0,4.68-2.72,16.79,16.79,0,0,0,3.27-3,22.16,22.16,0,0,0,4.43-7.7,23.66,23.66,0,0,0,1.42-7.41,10.27,10.27,0,0,0-4.24-8.68,10.59,10.59,0,0,0-4.53-1.66c-1.07-.1-1.91-.15-2.51-.15C1905.26,2211.25,1904.11,2211.57,1903.64,2212.23Zm22.36,49a17.9,17.9,0,0,0,.3-3.32,8.69,8.69,0,0,0-.4-2.8,13.41,13.41,0,0,0-4.13-5.36,25.82,25.82,0,0,0-7-4.23,21.64,21.64,0,0,0-8-1.51l-1.52.07a1.18,1.18,0,0,1-.7-.07l.91,31a14.49,14.49,0,0,0,1.91.07,25.94,25.94,0,0,0,6.44-.79,15.34,15.34,0,0,0,5.14-2.23,17.25,17.25,0,0,0,4.83-4.8A14.94,14.94,0,0,0,1926,2261.25Z" transform="translate(-1189.7 -2129.41)"/><path class="cls-2" d="M1975,2225.52l-.1,5.67.1,11.63c0,3,0,5-.1,5.81l-.2,8.32v3.17a54,54,0,0,1-.5,8.08,10.51,10.51,0,0,1-2.32,5.29,11.92,11.92,0,0,1-5.64,3.62,23.55,23.55,0,0,1-7,1.06,18.43,18.43,0,0,1-6.55-1.21,10,10,0,0,1-5-4A14.68,14.68,0,0,1,1945,2266a138.8,138.8,0,0,1-1.31-20.77q0-6.42.4-15.56l.1-2a43.72,43.72,0,0,1,.51-6.2,14.07,14.07,0,0,1,1.61-4.45,10.9,10.9,0,0,1,3.82-4,14.07,14.07,0,0,1,5.34-2.15,29,29,0,0,1,4.83-.38q6.35,0,9.47,2.65a11.76,11.76,0,0,1,4.08,5.25A20.08,20.08,0,0,1,1975,2225.52Zm-7.75,49.17a7.81,7.81,0,0,0,3.83-3.73,16.66,16.66,0,0,0,1.1-6.09v-1q0-6.27.4-15.26.11-1.35.11-6.26l-.11-12.62v-4.08a18.56,18.56,0,0,0-1.4-7.7,9.73,9.73,0,0,0-4.94-4.76,13.1,13.1,0,0,0-4.73-.91l-2.82-.07a13.76,13.76,0,0,0-3.32.38,10.83,10.83,0,0,0-4.84,2.64,11.66,11.66,0,0,0-3,4.31,21.14,21.14,0,0,0-.91,6.79V2228a11,11,0,0,1-.1,1.59l-.31,7.93q0,11.94.26,18.73a78.63,78.63,0,0,0,1,10.58,12.32,12.32,0,0,0,3.83,6.83,11.06,11.06,0,0,0,7.65,2.61A18.93,18.93,0,0,0,1967.28,2274.69Z" transform="translate(-1189.7 -2129.41)"/><path class="cls-2" d="M2003.62,2211.62q6.45,1.52,9.67,5.75a16.32,16.32,0,0,1,3.22,10.19,25.46,25.46,0,0,1-.3,3.85,13.81,13.81,0,0,1-4,7.37,24.28,24.28,0,0,1-8.45,5.4,31.45,31.45,0,0,1-10.48,2q-.2,16.47-.8,30.36c0,.56-.4.83-1.21.83s-1.11-.27-1.11-.83q.3-6.2.51-16.58t.2-16.88l-.2-8.68-.2-5.52a13.62,13.62,0,0,0-.11-2q-.19-7.11-.2-14.43a.67.67,0,0,1,.31-.53l.2-.23a8.35,8.35,0,0,1,5-1.28A36.54,36.54,0,0,1,2003.62,2211.62Zm5.64,27a14.47,14.47,0,0,0,5-11.48l-.1-1.89a12.38,12.38,0,0,0-2.62-6.94,12.76,12.76,0,0,0-6.35-4.46,27.14,27.14,0,0,0-7.24-1.36c-1.21-.1-2.19-.15-2.92-.15a5.37,5.37,0,0,0-2.52.45q0,10.65.4,19.19.3,4.61.3,9.36v3a27.09,27.09,0,0,0,8.76-1.59A22.1,22.1,0,0,0,2009.26,2238.66Z" transform="translate(-1189.7 -2129.41)"/><path class="cls-2" d="M2055.48,2210.72v-.08c0-.55.36-.83,1.1-.83s1.25.3,1.31.91q.62,11.18,1.21,34.06.3,17.07,1,30.67c0,.55-.4.83-1.21.83s-1.21-.28-1.21-.83c-.13-1.91-.27-4.9-.4-8.95s-.24-7.49-.3-10.31l-.1-3.85-.21-7.78q-6.64.53-15.4.52-5.13,0-6.65-.07c-1.61,0-2.41-1.16-2.41-3.47,0-4.13,0-6.9-.1-8.31q-.4-13.3-.4-22.44,0-.9,1.2-.9c.81,0,1.21.3,1.21.9q0,9.9.1,12.69.3,9.83.3,18.21c.07.85.36,1.33.86,1.43a57.43,57.43,0,0,0,5.89.15q8.76,0,15.4-.53Q2056.08,2221.22,2055.48,2210.72Z" transform="translate(-1189.7 -2129.41)"/><path class="cls-2" d="M2100.48,2210.27c.81,0,1.21.3,1.21.9s-.4.83-1.21.83l-12.08-.3c-.47,0-1.48-.08-3-.08s-2.65,0-3.12.08h-1.41c-1.61,0-2.59.25-2.92.75a2.19,2.19,0,0,0-.21.91v.53q.21,3.48.21,7.7l-.21,13.22c0,4.44,0,7.28.11,8.54h.2q4.13-.22,9.26-.23,5.34,0,6.85-.07h.1a1.18,1.18,0,0,1,.81.26.77.77,0,0,1,.3.57c0,.6-.41.9-1.21.9q-4,.22-9.16.23c-3.63,0-5.94,0-6.95.07h-.2c.06,1.57.1,5.09.1,10.58l-.1,20a132.85,132.85,0,0,1,14.9-.76c2.55,0,4.19,0,4.93.08s1.11.4,1.11.9-.3.84-.91.84h-.2c-.74-.06-2.45-.08-5.13-.08a141.91,141.91,0,0,0-15.61.83h-.2a1.84,1.84,0,0,1-.91-.23.67.67,0,0,1-.4-.6l.1-10.2q.1-2.27.1-10.12,0-6.87-.1-8.84l-.1-8.91v-2.27l.1-6.79q.1-1.52.1-6.8v-2.27c0-2.42,0-3.95-.1-4.61l-.3-2.71a2.53,2.53,0,0,1,1.11-2.39,9,9,0,0,1,3.72-.79l5.24-.15q2.71,0,8.46.23Q2098.26,2210.27,2100.48,2210.27Z" transform="translate(-1189.7 -2129.41)"/><path class="cls-2" d="M2128.87,2213.21a10.64,10.64,0,0,0-3.82,1.93,13.4,13.4,0,0,0-2.82,3.36,19.38,19.38,0,0,0-2.42,6,35.57,35.57,0,0,0-.7,7.48l.1,4.23c.2,5.13.3,10.25.3,15.33.07.76.1,2.47.1,5.14l-.1,4.45a21.85,21.85,0,0,0,1.16,7.71,9.24,9.24,0,0,0,4.18,4.76,12.94,12.94,0,0,0,6.34,1.36,19.18,19.18,0,0,0,5.39-.76,9,9,0,0,0,3.87-2,1.11,1.11,0,0,1,.81-.3,1.29,1.29,0,0,1,.86.3.9.9,0,0,1,.35.68.71.71,0,0,1-.31.61,10.11,10.11,0,0,1-4.47,2.34,23.92,23.92,0,0,1-6.4.83,16.24,16.24,0,0,1-8.36-2,10,10,0,0,1-4.53-5.66,25.57,25.57,0,0,1-1.21-8.31l.11-4.68-.2-10.5L2117,2242q-.19-4.53-.2-6.57a54.74,54.74,0,0,1,1.51-14.28,14.2,14.2,0,0,1,5.34-7.63,13,13,0,0,1,4.23-2,18.22,18.22,0,0,1,4.93-.68,19.05,19.05,0,0,1,5.14.68,13.58,13.58,0,0,1,4.22,2,.68.68,0,0,1,.41.6c0,.2-.15.41-.45.61a1.75,1.75,0,0,1-1,.3,1.18,1.18,0,0,1-.71-.23,12.59,12.59,0,0,0-7.25-2.11A15.82,15.82,0,0,0,2128.87,2213.21Z" transform="translate(-1189.7 -2129.41)"/><path class="cls-2" d="M2191,2210.79c.8,0,1.21.31,1.21.91s-.41.91-1.21.91l-8.86-.16-6.25.08v.45a5.14,5.14,0,0,0-.09,1.29l-.11,4.6.2,24.4.11,24.25v9.74c0,.61-.4.91-1.21.91s-1.31-.3-1.31-.91q.11-3.47.1-15.71l-.3-33.31v-11.86l-.1-2.11a6.55,6.55,0,0,1,.2-1.74q-8.05,0-14.5-.15c-.81,0-1.21-.3-1.21-.91s.34-.9,1-.9h.2l10.67.15,12.28-.08Z" transform="translate(-1189.7 -2129.41)"/><path class="cls-2" d="M2230,2248.79a13.53,13.53,0,0,1,4.43,5.89,9.19,9.19,0,0,1,.4,3,24.56,24.56,0,0,1-.6,5,15.21,15.21,0,0,1-2.42,5.48,18.58,18.58,0,0,1-11.28,7.7,27.51,27.51,0,0,1-7.14.91,20.72,20.72,0,0,1-3.23-.23c-.6,0-.9-.27-.9-.68v-.15l-1-33.61-.4-14.43-.2-7.47-.1-1.74-.2-3.85.1-1.74a2.91,2.91,0,0,1,1.71-2.57,9.82,9.82,0,0,1,4.43-.83q6.84,0,10.37,4.31a12.81,12.81,0,0,1,2.92,8.38,22.59,22.59,0,0,1-1.82,8.53,24.88,24.88,0,0,1-5.23,8,16.67,16.67,0,0,1-4.83,3.63,26.29,26.29,0,0,1,8.15,2.07A24.79,24.79,0,0,1,2230,2248.79Zm-20.14-36.56a2.31,2.31,0,0,0-.3,1.28,5,5,0,0,0,.1,1.21,4.16,4.16,0,0,1,.1,1.06,26.39,26.39,0,0,1,.1,3l.21,6.19.4,14.58c.06.76.1,1.77.1,3l.2-.07a41.29,41.29,0,0,0,4.68-2.72,16.79,16.79,0,0,0,3.27-3,22.32,22.32,0,0,0,4.43-7.7,23.9,23.9,0,0,0,1.41-7.41,10.26,10.26,0,0,0-4.23-8.68,10.64,10.64,0,0,0-4.53-1.66c-1.07-.1-1.91-.15-2.51-.15C2211.44,2211.25,2210.29,2211.57,2209.82,2212.23Zm22.35,49a17.9,17.9,0,0,0,.31-3.32,8.69,8.69,0,0,0-.4-2.8,13.5,13.5,0,0,0-4.13-5.36,26,26,0,0,0-7-4.23,21.7,21.7,0,0,0-8.06-1.51l-1.51.07a1.17,1.17,0,0,1-.7-.07l.9,31a14.69,14.69,0,0,0,1.92.07,26,26,0,0,0,6.44-.79,15.19,15.19,0,0,0,5.13-2.23,17.16,17.16,0,0,0,4.84-4.8A14.78,14.78,0,0,0,2232.17,2261.25Z" transform="translate(-1189.7 -2129.41)"/><path class="cls-2" d="M2271.75,2210.72a290.16,290.16,0,0,0,4.73,29.46q3.21,15.26,8.66,35.42c.06.1-.12.27-.56.49a2.65,2.65,0,0,1-1.26.34.71.71,0,0,1-.7-.38q-3.82-14.49-7.35-31h-12.48q-3,10.95-10,30l-.61,1.66a.9.9,0,0,1-.5.41,1.64,1.64,0,0,1-.71.19,1.81,1.81,0,0,1-.8-.15.48.48,0,0,1-.3-.45.65.65,0,0,1,.1-.38l7.35-20.85q2-6.12,4.23-15.55,1.61-7.41,3.12-12.24l3-10.2.6-2a15.48,15.48,0,0,0,1-4.68c0-.56.37-.83,1.11-.83S2271.61,2210.16,2271.75,2210.72Zm-8.67,32.48h11.68l-.7-3.93q-2.71-14.13-3.92-22.21a1.65,1.65,0,0,1-.11.68,4,4,0,0,0-.2.76l-2,7.17-.61,2.27q-2.61,9.06-3.12,11.33A20.6,20.6,0,0,1,2263.08,2243.2Z" transform="translate(-1189.7 -2129.41)"/><path class="cls-2" d="M2339,2275.3a19.08,19.08,0,0,0,1.71-5,52.22,52.22,0,0,0,1.31-8.91q.11-11.85.11-18.58,0-5-.11-6.42-.41-12.17-.4-23.64v-.23a1,1,0,0,1-.1-.45c0-.56.37-.88,1.11-1,2.75-.16,5.54-.23,8.35-.23l6.35-.23,4.73-.07c1.07-.05,1.69.18,1.86.71a16.86,16.86,0,0,1,.46,1.86,17.54,17.54,0,0,1,.2,2.79v3.55q0,7,.4,17.07.41,8.84.4,14.8,0,13.91.21,23.87c.66,0,1.37-.07,2.11-.07a.72.72,0,0,1,.4.07h.2c.81,0,1.21.28,1.21.83q-.11,1.14,0,5.89c-.14.56-.57.84-1.31.84a1.61,1.61,0,0,1-.75-.19.62.62,0,0,1-.36-.57V2277l-15.1.3c-2,0-3.32,0-3.92-.07h-1.51l-11.08-.23.5,5v.08a.61.61,0,0,1-.35.57,1.65,1.65,0,0,1-.76.19c-.73,0-1.17-.28-1.3-.84q-.41-4.76-.51-5.89c0-.55.41-.83,1.21-.83h.2a.74.74,0,0,1,.4-.07Zm24.17,0c-.07-1.91-.1-5.19-.1-9.82,0-4.18,0-6.87-.1-8.08q0-8.91-.2-16-.51-12.6-.71-22.35a7.79,7.79,0,0,1,.1-1.44,12.91,12.91,0,0,0,.1-2c0-1.46,0-2.52-.1-3.18a24.78,24.78,0,0,0-3.22-.22q-.51,0-2.52.15l-2.21.15-3.23.15q-3.12,0-7.15.15l.21,14.58.2,20.09q0,11.94-.1,17.9l-.1.15c-.21,1.37-.5,3.18-.91,5.44a38.18,38.18,0,0,1-1.51,4.31q5.24.15,10.07.15Z" transform="translate(-1189.7 -2129.41)"/><path class="cls-2" d="M2406,2210.27c.8,0,1.21.3,1.21.9s-.41.83-1.21.83l-12.09-.3c-.46,0-1.47-.08-3-.08s-2.65,0-3.12.08h-1.41q-2.42,0-2.91.75a2.19,2.19,0,0,0-.21.91v.53q.21,3.48.21,7.7l-.21,13.22c0,4.44,0,7.28.1,8.54h.2q4.14-.22,9.27-.23c3.55,0,5.84,0,6.84-.07h.11a1.15,1.15,0,0,1,.8.26.77.77,0,0,1,.3.57c0,.6-.4.9-1.21.9-2.68.15-5.74.23-9.16.23-3.62,0-5.94,0-6.95.07h-.2c.07,1.57.11,5.09.11,10.58l-.11,20a133.11,133.11,0,0,1,14.9-.76c2.56,0,4.2,0,4.94.08s1.11.4,1.11.9-.31.84-.91.84h-.2c-.74-.06-2.45-.08-5.14-.08a141.72,141.72,0,0,0-15.6.83h-.2a1.84,1.84,0,0,1-.91-.23.67.67,0,0,1-.4-.6l.1-10.2q.11-2.27.1-10.12,0-6.87-.1-8.84l-.1-8.91v-2.27l.1-6.79q.11-1.52.1-6.8v-2.27c0-2.42,0-3.95-.1-4.61l-.3-2.71a2.54,2.54,0,0,1,1.1-2.39,9.08,9.08,0,0,1,3.73-.79l5.24-.15q2.72,0,8.45.23Q2403.74,2210.27,2406,2210.27Z" transform="translate(-1189.7 -2129.41)"/><path class="cls-2" d="M2455.59,2210.79c.81,0,1.21.31,1.21.91s-.4.91-1.21.91l-8.86-.16-6.24.08v.45a4.5,4.5,0,0,0-.1,1.29l-.1,4.6.2,24.4.1,24.25v9.74c0,.61-.4.91-1.21.91s-1.31-.3-1.31-.91q.1-3.47.1-15.71l-.3-33.31v-11.86l-.1-2.11a7,7,0,0,1,.2-1.74q-8.05,0-14.5-.15c-.8,0-1.2-.3-1.2-.91s.33-.9,1-.9h.2l10.68.15,12.28-.08Z" transform="translate(-1189.7 -2129.41)"/><path class="cls-2" d="M2497.18,2210.27c.8,0,1.21.3,1.21.9s-.41.83-1.21.83l-12.09-.3c-.47,0-1.47-.08-3-.08s-2.65,0-3.12.08h-1.41c-1.61,0-2.58.25-2.92.75a2.34,2.34,0,0,0-.2.91v.53q.2,3.48.2,7.7l-.2,13.22c0,4.44,0,7.28.1,8.54h.2c2.76-.15,5.84-.23,9.27-.23s5.84,0,6.84-.07h.1a1.16,1.16,0,0,1,.81.26.77.77,0,0,1,.3.57c0,.6-.4.9-1.21.9-2.68.15-5.74.23-9.16.23-3.62,0-5.94,0-7,.07h-.2c.07,1.57.1,5.09.1,10.58l-.1,20a133.11,133.11,0,0,1,14.9-.76c2.55,0,4.2,0,4.93.08s1.12.4,1.12.9-.31.84-.91.84h-.21c-.73-.06-2.45-.08-5.13-.08a141.59,141.59,0,0,0-15.6.83h-.2a1.84,1.84,0,0,1-.91-.23.68.68,0,0,1-.41-.6l.11-10.2c.06-1.51.1-4.88.1-10.12,0-4.58,0-7.53-.1-8.84l-.11-8.91v-2.27l.11-6.79c.06-1,.1-3.28.1-6.8v-2.27c0-2.42,0-3.95-.1-4.61l-.31-2.71a2.53,2.53,0,0,1,1.11-2.39,9.08,9.08,0,0,1,3.73-.79l5.23-.15q2.72,0,8.46.23Q2495,2210.27,2497.18,2210.27Z" transform="translate(-1189.7 -2129.41)"/><path class="cls-2" d="M2515.2,2214.87v-3.32c0-.61.4-.91,1.2-.91s1.21.3,1.21.91c0,5.19-.07,10.19-.2,15a12.5,12.5,0,0,0-.1,1.81l-.2,5.74-.2,10-.3,10.27-.11,2.19q-.6,10.43-.6,15.56l8.26-17.45,16.91-35.42,3.83-8.16a1.22,1.22,0,0,1,1.21-.6c.73,0,1.1.25,1.1.75v.08l-.2,5q-1.52,28-1.51,44.95,0,7.7.3,15.41c0,.55-.4.83-1.2.83s-1.21-.28-1.21-.83q-.3-7.56-.31-15.19,0-15.86,1.31-39.5l.21-4.91-8,16.69-16.81,35.43-3.93,8.15a1.21,1.21,0,0,1-1.21.61,1.49,1.49,0,0,1-.75-.19.66.66,0,0,1-.35-.64c-.07-.71-.11-2.3-.11-4.76q0-6,.51-15.41l.1-2.34q.4-6.94.4-13.07c0-3.32.1-6.65.3-10l.21-7.48Zm15.2-10.27a10.47,10.47,0,0,0,6.34-.75,1.47,1.47,0,0,1,.51-.08,1.15,1.15,0,0,1,.7.23.64.64,0,0,1,.3.52c0,.26-.16.46-.5.61-3.43,1.71-7.18,1.71-11.28,0-.27-.15-.4-.33-.4-.53a.76.76,0,0,1,.25-.6,1,1,0,0,1,.65-.23,1,1,0,0,1,.51.08C2527.61,2203.89,2528.58,2204.15,2530.4,2204.6Z" transform="translate(-1189.7 -2129.41)"/><path class="cls-2" d="M2601.28,2214.87v-3.32c0-.61.4-.91,1.21-.91s1.21.3,1.21.91c0,5.19-.07,10.19-.2,15a12.28,12.28,0,0,0-.11,1.81l-.2,5.74-.2,10-.3,10.27-.1,2.19q-.6,10.43-.61,15.56l8.26-17.45,16.92-35.42,3.82-8.16a1.22,1.22,0,0,1,1.21-.6q1.11,0,1.11.75v.08l-.2,5q-1.51,28-1.52,44.95,0,7.7.31,15.41c0,.55-.4.83-1.21.83s-1.21-.28-1.21-.83q-.3-7.56-.3-15.19,0-15.86,1.31-39.5l.2-4.91-7.95,16.69-16.82,35.43-3.93,8.15a1.2,1.2,0,0,1-1.2.61,1.56,1.56,0,0,1-.76-.19.66.66,0,0,1-.35-.64c-.07-.71-.1-2.3-.1-4.76q0-6,.5-15.41l.1-2.34q.4-6.94.41-13.07c0-3.32.09-6.65.3-10l.2-7.48Z" transform="translate(-1189.7 -2129.41)"/><path class="cls-2" d="M2693.81,2243.27c0-3.87.1-8.41.3-13.59l.1-2a52.79,52.79,0,0,1,.45-6.2A17,17,0,0,1,2696,2217a11.25,11.25,0,0,1,3.32-4,10.93,10.93,0,0,1,4.53-2.15,21.56,21.56,0,0,1,4.13-.38q5.45,0,8.16,2.65a12,12,0,0,1,3.42,5.25,22.8,22.8,0,0,1,1,7.13l-.1,5.67.1,11.63c0,3,0,5-.1,5.81l-.2,8.32v3.17a68.21,68.21,0,0,1-.4,8.08,11,11,0,0,1-2,5.29,9.73,9.73,0,0,1-4.73,3.62,17.5,17.5,0,0,1-6,1.06,13.66,13.66,0,0,1-5.64-1.21,9.33,9.33,0,0,1-4.33-4,17.63,17.63,0,0,1-2.22-6.95,166.63,166.63,0,0,1-1.1-20.77v-.16c-2.49,0-4.13,0-4.94-.07h-.1q0,16.77-.5,31.35c0,.55-.4.83-1.21.83s-1.21-.28-1.21-.83q.6-13.68.61-33.62c0-4.93,0-8.1-.1-9.51q-.41-13.3-.41-22.44c0-.6.41-.9,1.21-.9s1.21.3,1.21.9q0,9.9.1,12.69.3,9.83.3,19.72h.1C2689.68,2243.25,2691.32,2243.27,2693.81,2243.27Zm19.93,31.42a7.19,7.19,0,0,0,3.13-3.73,21,21,0,0,0,.9-6.09v-1q0-6.27.4-15.26v-23a21.19,21.19,0,0,0-1.21-7.7,9.27,9.27,0,0,0-4-4.76,9.72,9.72,0,0,0-3.93-.91l-2.32-.07a10.28,10.28,0,0,0-2.82.38,8.45,8.45,0,0,0-3.92,2.64,13,13,0,0,0-2.52,4.31,27.06,27.06,0,0,0-.7,6.79V2228a11,11,0,0,1-.1,1.59l-.31,7.93q0,11.94.26,18.73c.16,4.54.42,8.06.75,10.58a13.5,13.5,0,0,0,3.22,6.83,8.14,8.14,0,0,0,6.25,2.61A13.6,13.6,0,0,0,2713.74,2274.69Z" transform="translate(-1189.7 -2129.41)"/><path class="cls-2" d="M2759.15,2210.72v-.08c0-.55.37-.83,1.11-.83s1.24.3,1.31.91q.6,11.18,1.21,34.06.3,17.07,1,30.67c0,.55-.4.83-1.21.83s-1.2-.28-1.2-.83c-.14-1.91-.27-4.9-.41-8.95s-.23-7.49-.3-10.31l-.1-3.85-.2-7.78q-6.65.53-15.41.52-5.13,0-6.64-.07h-.1q0,16.77-.5,31.35c0,.55-.4.83-1.21.83s-1.21-.28-1.21-.83q.6-13.68.6-33.62,0-7.39-.1-9.51-.4-13.3-.4-22.44c0-.6.4-.9,1.21-.9s1.21.3,1.21.9q0,9.9.1,12.69.3,9.83.3,19.72h.1q1.52.08,6.64.07,8.78,0,15.41-.53Q2759.76,2221.22,2759.15,2210.72Z" transform="translate(-1189.7 -2129.41)"/><path class="cls-2" d="M2810.2,2225.52l-.1,5.67.1,11.63c0,3,0,5-.1,5.81l-.21,8.32v3.17a52.73,52.73,0,0,1-.5,8.08,10.58,10.58,0,0,1-2.31,5.29,11.92,11.92,0,0,1-5.64,3.62,23.57,23.57,0,0,1-7.05,1.06,18.47,18.47,0,0,1-6.55-1.21,10.09,10.09,0,0,1-5-4,14.56,14.56,0,0,1-2.61-6.95,138.66,138.66,0,0,1-1.32-20.77q0-6.42.41-15.56l.1-2a42.51,42.51,0,0,1,.5-6.2,14.57,14.57,0,0,1,1.61-4.45,10.94,10.94,0,0,1,3.83-4,14,14,0,0,1,5.33-2.15,29.07,29.07,0,0,1,4.84-.38q6.35,0,9.46,2.65a11.62,11.62,0,0,1,4.08,5.25A20.07,20.07,0,0,1,2810.2,2225.52Zm-7.75,49.17a7.79,7.79,0,0,0,3.82-3.73,16.64,16.64,0,0,0,1.11-6.09v-1q0-6.27.4-15.26.1-1.35.1-6.26l-.1-12.62v-4.08a18.55,18.55,0,0,0-1.41-7.7,9.71,9.71,0,0,0-4.93-4.76,13.14,13.14,0,0,0-4.73-.91l-2.82-.07a13.84,13.84,0,0,0-3.33.38,10.85,10.85,0,0,0-4.83,2.64,11.58,11.58,0,0,0-3,4.31,21.17,21.17,0,0,0-.9,6.79V2228a9.52,9.52,0,0,1-.11,1.59l-.3,7.93q0,11.94.25,18.73a76.72,76.72,0,0,0,1,10.58,12.32,12.32,0,0,0,3.83,6.83,11,11,0,0,0,7.65,2.61A19,19,0,0,0,2802.45,2274.69Z" transform="translate(-1189.7 -2129.41)"/><path class="cls-2" d="M2846.65,2274.77l7.45.08,2.21.15q2,.15,2.52.15a24.75,24.75,0,0,0,3.22-.23c.07-.65.1-1.71.1-3.17a12.91,12.91,0,0,0-.1-2,9,9,0,0,1-.1-1.44q.2-9.75.71-22.36.2-7.09.2-16c.06-1.21.1-3.9.1-8.08,0-5.09,0-8.51.1-10.28,0-.55.4-.83,1.21-.83s1.21.28,1.21.83q-.21,10.13-.2,24.4,0,6-.41,14.81-.4,10-.4,17.07v3.55a17.72,17.72,0,0,1-.2,2.79,6.82,6.82,0,0,0-.15,1.32c0,.63-.46,1-1.26,1.18a6.13,6.13,0,0,1-.91.07h-1.31l-3.42-.07-21.45-.23q-5.23,0-9.36-.23c-.74-.1-1.11-.43-1.11-1a1.06,1.06,0,0,1,.11-.45v-.23q0-11.49.4-23.64.09-1.44.09-6.42,0-17.61-.49-33.16a.72.72,0,0,1,.29-.61,1.15,1.15,0,0,1,.71-.22c.74,0,1.11.27,1.11.83q.49,13.21.5,28.48l-.2,20.09-.2,14.57c2.68.11,5.4.15,8.15.15l8.26.08v-.38l.1-2.11v-11.86l.3-33.31q0-12.24-.1-15.71c0-.61.44-.91,1.31-.91s1.21.3,1.21.91v9.74l-.1,24.25-.2,24.4.1,4.6Z" transform="translate(-1189.7 -2129.41)"/><path class="cls-2" d="M2905.45,2210.27q1.2,0,1.2.9c0,.56-.4.83-1.2.83l-12.09-.3c-.47,0-1.47-.08-3-.08s-2.65,0-3.12.08h-1.41c-1.61,0-2.59.25-2.92.75a2.34,2.34,0,0,0-.2.91v.53q.2,3.48.2,7.7l-.2,13.22c0,4.44,0,7.28.1,8.54h.2q4.13-.22,9.26-.23c3.56,0,5.85,0,6.85-.07h.1a1.18,1.18,0,0,1,.81.26.77.77,0,0,1,.3.57c0,.6-.4.9-1.21.9-2.68.15-5.74.23-9.16.23-3.63,0-5.94,0-7,.07h-.2c.07,1.57.1,5.09.1,10.58l-.1,20a132.85,132.85,0,0,1,14.9-.76c2.55,0,4.2,0,4.93.08s1.11.4,1.11.9-.3.84-.9.84h-.21c-.73-.06-2.45-.08-5.13-.08a141.91,141.91,0,0,0-15.61.83h-.2a1.89,1.89,0,0,1-.91-.23.69.69,0,0,1-.4-.6l.11-10.2q.09-2.27.09-10.12,0-6.87-.09-8.84l-.11-8.91v-2.27l.11-6.79q.09-1.52.09-6.8v-2.27c0-2.42,0-3.95-.09-4.61l-.31-2.71a2.53,2.53,0,0,1,1.11-2.39,9.08,9.08,0,0,1,3.73-.79l5.23-.15q2.72,0,8.46.23Q2903.23,2210.27,2905.45,2210.27Z" transform="translate(-1189.7 -2129.41)"/><path class="cls-2" d="M2933.84,2213.21a10.61,10.61,0,0,0-3.83,1.93,13.83,13.83,0,0,0-2.82,3.36,19.36,19.36,0,0,0-2.41,6,35.52,35.52,0,0,0-.71,7.48l.1,4.23c.2,5.13.31,10.25.31,15.33.06.76.09,2.47.09,5.14l-.09,4.45a21.87,21.87,0,0,0,1.15,7.71,9.24,9.24,0,0,0,4.18,4.76,12.94,12.94,0,0,0,6.34,1.36,19.13,19.13,0,0,0,5.39-.76,9.14,9.14,0,0,0,3.88-2,1.09,1.09,0,0,1,.8-.3,1.29,1.29,0,0,1,.86.3.9.9,0,0,1,.35.68.73.73,0,0,1-.3.61,10.21,10.21,0,0,1-4.48,2.34,23.81,23.81,0,0,1-6.4.83,16.18,16.18,0,0,1-8.35-2,9.87,9.87,0,0,1-4.53-5.66,25.3,25.3,0,0,1-1.21-8.31l.1-4.68-.2-10.5-.1-3.55c-.14-3-.2-5.21-.2-6.57a54.31,54.31,0,0,1,1.51-14.28,14.19,14.19,0,0,1,5.33-7.63,13,13,0,0,1,4.23-2,18.29,18.29,0,0,1,4.94-.68,19,19,0,0,1,5.13.68,13.74,13.74,0,0,1,4.23,2,.69.69,0,0,1,.4.6c0,.2-.15.41-.45.61a1.7,1.7,0,0,1-1,.3,1.13,1.13,0,0,1-.7-.23,12.64,12.64,0,0,0-7.25-2.11A15.77,15.77,0,0,0,2933.84,2213.21Z" transform="translate(-1189.7 -2129.41)"/><path class="cls-2" d="M2996,2210.79c.81,0,1.21.31,1.21.91s-.4.91-1.21.91l-8.86-.16-6.24.08v.45a4.5,4.5,0,0,0-.1,1.29l-.1,4.6.2,24.4.1,24.25v9.74c0,.61-.4.91-1.21.91s-1.31-.3-1.31-.91q.11-3.47.1-15.71l-.3-33.31v-11.86l-.1-2.11a7,7,0,0,1,.2-1.74q-8.06,0-14.5-.15c-.8,0-1.21-.3-1.21-.91s.34-.9,1-.9h.2l10.68.15,12.28-.08Z" transform="translate(-1189.7 -2129.41)"/><path class="cls-2" d="M3034.92,2248.79a13.53,13.53,0,0,1,4.43,5.89,9.19,9.19,0,0,1,.4,3,24.56,24.56,0,0,1-.6,5,15.36,15.36,0,0,1-2.41,5.48,18.61,18.61,0,0,1-11.28,7.7,27.64,27.64,0,0,1-7.15.91,20.59,20.59,0,0,1-3.22-.23c-.6,0-.91-.27-.91-.68v-.15l-1-33.61-.4-14.43-.2-7.47-.1-1.74-.2-3.85.1-1.74a2.94,2.94,0,0,1,1.71-2.57,9.82,9.82,0,0,1,4.43-.83q6.85,0,10.37,4.31a12.75,12.75,0,0,1,2.92,8.38,22.57,22.57,0,0,1-1.81,8.53,25.07,25.07,0,0,1-5.24,8,16.67,16.67,0,0,1-4.83,3.63,26.22,26.22,0,0,1,8.15,2.07A24.79,24.79,0,0,1,3034.92,2248.79Zm-20.14-36.56a2.31,2.31,0,0,0-.29,1.28,5.73,5.73,0,0,0,.09,1.21,4.08,4.08,0,0,1,.11,1.06c.06.45.09,1.46.09,3l.21,6.19.4,14.58c.07.76.1,1.77.1,3l.2-.07a41.29,41.29,0,0,0,4.68-2.72,17.15,17.15,0,0,0,3.28-3,22.29,22.29,0,0,0,4.42-7.7,23.66,23.66,0,0,0,1.42-7.41,10.28,10.28,0,0,0-4.23-8.68,10.68,10.68,0,0,0-4.54-1.66c-1.07-.1-1.91-.15-2.51-.15C3016.4,2211.25,3015.26,2211.57,3014.78,2212.23Zm22.36,49a17.9,17.9,0,0,0,.3-3.32,8.69,8.69,0,0,0-.4-2.8,13.41,13.41,0,0,0-4.13-5.36,25.82,25.82,0,0,0-7-4.23,21.64,21.64,0,0,0-8.05-1.51l-1.51.07a1.21,1.21,0,0,1-.71-.07l.91,31a14.49,14.49,0,0,0,1.91.07,25.94,25.94,0,0,0,6.44-.79,15.25,15.25,0,0,0,5.14-2.23,17.25,17.25,0,0,0,4.83-4.8A14.94,14.94,0,0,0,3037.14,2261.25Z" transform="translate(-1189.7 -2129.41)"/><path class="cls-2" d="M3076.71,2210.72a293,293,0,0,0,4.73,29.46q3.22,15.26,8.66,35.42c.07.1-.12.27-.56.49a2.65,2.65,0,0,1-1.25.34.73.73,0,0,1-.71-.38q-3.82-14.49-7.35-31h-12.48q-3,10.95-10,30l-.61,1.66a.9.9,0,0,1-.5.41,1.64,1.64,0,0,1-.7.19,1.83,1.83,0,0,1-.81-.15.48.48,0,0,1-.3-.45.65.65,0,0,1,.1-.38l7.35-20.85q2-6.12,4.23-15.55,1.61-7.41,3.12-12.24l3-10.2.6-2a15.18,15.18,0,0,0,1-4.68c0-.56.37-.83,1.11-.83S3076.57,2210.16,3076.71,2210.72Zm-8.66,32.48h11.68l-.71-3.93q-2.71-14.13-3.92-22.21a1.87,1.87,0,0,1-.1.68,3.28,3.28,0,0,0-.2.76l-2,7.17-.6,2.27q-2.62,9.06-3.12,11.33A22.25,22.25,0,0,1,3068.05,2243.2Z" transform="translate(-1189.7 -2129.41)"/><path class="cls-3" d="M1703.76,2316.09V2316c0-.93.6-1.39,1.83-1.39s2,.51,2.15,1.51q1,18.54,2,56.49.49,28.3,1.66,50.85c0,.92-.66,1.38-2,1.38s-2-.46-2-1.38q-.33-4.75-.66-14.84t-.5-17.1l-.16-6.38-.34-12.91q-11,.89-25.43.88-8.47,0-11-.12h-.17q0,27.79-.83,52c0,.91-.66,1.37-2,1.37s-2-.46-2-1.37q1-22.68,1-55.75,0-12.27-.17-15.77-.66-22.05-.66-37.21c0-1,.66-1.5,2-1.5s2,.5,2,1.5c0,10.94.07,18,.17,21.05q.51,16.27.5,32.69h.17q2.49.12,11,.12,14.46,0,25.43-.88Q1704.75,2333.51,1703.76,2316.09Z" transform="translate(-1189.7 -2129.41)"/><path class="cls-3" d="M1772.4,2316.09a491,491,0,0,0,7.81,48.85q5.32,25.3,14.3,58.74c.11.17-.19.44-.92.82a4.48,4.48,0,0,1-2.07.56,1.21,1.21,0,0,1-1.17-.63q-6.31-24-12.13-51.47h-20.61q-5,18.15-16.46,49.72l-1,2.76a1.48,1.48,0,0,1-.83.68,2.75,2.75,0,0,1-1.16.32,3.06,3.06,0,0,1-1.33-.25.81.81,0,0,1-.5-.75,1.14,1.14,0,0,1,.17-.63l12.14-34.57q3.31-10.14,7-25.8,2.67-12.29,5.16-20.3l5-16.91,1-3.38a25.62,25.62,0,0,0,1.66-7.76q0-1.38,1.83-1.38T1772.4,2316.09ZM1758.1,2370h19.29l-1.17-6.51q-4.48-23.43-6.48-36.83a2.94,2.94,0,0,1-.17,1.13,5.93,5.93,0,0,0-.33,1.25l-3.32,11.9-1,3.75q-4.32,15-5.15,18.8A35.41,35.41,0,0,1,1758.1,2370Z" transform="translate(-1189.7 -2129.41)"/><path class="cls-3" d="M1881.11,2319.09a1.85,1.85,0,0,1-.17-.74c0-.93.61-1.47,1.83-1.64q6.81-.37,15.46-.37l15.46-.37,7.81-.13c1.77-.08,2.8.31,3.07,1.19a26.11,26.11,0,0,1,.75,3.07,28.64,28.64,0,0,1,.34,4.63v5.89q0,11.65.66,28.3.67,14.67.67,24.56,0,23.67.33,40.45c0,.92-.67,1.38-2,1.38s-2-.46-2-1.38q-.18-4.38-.17-17,0-10.4-.16-13.4,0-14.79-.33-26.56-.84-20.91-1.17-37.07a13.31,13.31,0,0,1,.17-2.38,24.28,24.28,0,0,0,.16-3.26c0-2.42-.06-4.17-.16-5.26a40.69,40.69,0,0,0-5.32-.38c-.55,0-1.94.09-4.16.25l-3.65.25-10.31.25c-4.54,0-9,.09-13.47.25l.34,24.18.33,33.32q0,25.29-.83,47.22,0,1.38-1.83,1.38a1.88,1.88,0,0,1-1.16-.38,1.17,1.17,0,0,1-.5-1q.83-25.82.83-55,0-8.27-.17-10.64-.66-20.17-.66-39.21Z" transform="translate(-1189.7 -2129.41)"/><path class="cls-3" d="M1996.13,2323.85l.5,13.15a28.08,28.08,0,0,0,.16,3.26l.51,16.66.33,8.14a17.79,17.79,0,0,0,.17,2.89q.33,11,.33,22.29a79.83,79.83,0,0,1-1.25,15.28,29.48,29.48,0,0,1-4.74,11.27,20.45,20.45,0,0,1-8.39,6.58,27.26,27.26,0,0,1-11.38,2.44,24,24,0,0,1-8.15-1.25q-11-3.51-12-16.53v-.13a1.1,1.1,0,0,1,.5-.88,2.14,2.14,0,0,1,1.33-.37,1.77,1.77,0,0,1,2,1.38q.84,7,3.83,10.39a13.56,13.56,0,0,0,5.57,3.38,21.54,21.54,0,0,0,7.23,1.26,24.5,24.5,0,0,0,3.49-.25c5.2-.93,9.08-3.07,11.63-6.46s4.38-7.95,5.48-13.71a71,71,0,0,0,1-13l-.34-13-.33-11.26a17.53,17.53,0,0,1-4.33,4.25q-6.13,4.14-15.78,4.14a22.37,22.37,0,0,1-12.39-3.38,19.16,19.16,0,0,1-7.56-9.27,43,43,0,0,1-2.16-12c-.11-1.25-.16-2.59-.16-4v-28.18a1.66,1.66,0,0,1,1.82-1.38c1.11,0,1.67.38,1.67,1.13v29.19c.33,4.25.66,7.43,1,9.51a24.56,24.56,0,0,0,1.83,6.14q3.83,7.64,11.31,9a23.23,23.23,0,0,0,4.32.38l3.32-.13a23,23,0,0,0,9.22-2.69,13.65,13.65,0,0,0,5.74-6,22.16,22.16,0,0,0,1.82-8.27l-1.16-36.58v-.12a1,1,0,0,1,.5-1c.23-.58.83-.88,1.83-.88a2.12,2.12,0,0,1,1.16.32,1.14,1.14,0,0,1,.5,1.06Z" transform="translate(-1189.7 -2129.41)"/><path class="cls-3" d="M2058.3,2422.31l12.3.12,3.65.25c2.22.17,3.61.25,4.16.25a40.6,40.6,0,0,0,5.32-.37c.1-1.09.17-2.84.17-5.26a23.86,23.86,0,0,0-.17-3.26,13.47,13.47,0,0,1-.17-2.38q.33-16.15,1.17-37.08.32-11.77.33-26.55.17-3,.16-13.41,0-12.64.17-17c0-.92.66-1.38,2-1.38s2,.46,2,1.38q-.33,16.78-.33,40.46,0,9.9-.67,24.55-.66,16.65-.66,28.31v5.88a28.86,28.86,0,0,1-.33,4.64,11.6,11.6,0,0,0-.26,2.19c-.05,1-.75,1.69-2.07,1.94a7.69,7.69,0,0,1-1.5.13h-2.16l-5.65-.13-35.4-.37q-8.65,0-15.47-.38c-1.21-.17-1.82-.71-1.82-1.63a1.71,1.71,0,0,1,.17-.75v-.38q0-19,.66-39.2c.11-1.59.16-5.13.16-10.65q0-29.17-.82-55a1.2,1.2,0,0,1,.49-1,1.93,1.93,0,0,1,1.16-.37c1.22,0,1.84.46,1.84,1.37q.83,21.93.83,47.23l-.34,33.32-.33,24.17q6.64.26,13.47.25l13.62.13v-.63l.17-3.51v-19.66l.5-55.24q0-20.3-.17-26.06,0-1.5,2.16-1.5c1.33,0,2,.5,2,1.5v16.17l-.17,40.2-.33,40.46.17,7.64Z" transform="translate(-1189.7 -2129.41)"/><path class="cls-3" d="M2148.72,2375.59a20.22,20.22,0,0,1,10.14,14q3,17.16,4.82,36.2v.13a1,1,0,0,1-.58.94,2.72,2.72,0,0,1-1.25.31q-1.83,0-2.16-1.38-2-20.54-4.32-33.19a39.19,39.19,0,0,0-2.32-8.21,13.81,13.81,0,0,0-4.66-5.32q-8.16-5.76-23.11-5.76l-6.48.25q-.16,21.42-1.16,51.11c0,.91-.66,1.37-2,1.37s-2-.46-2-1.37q.49-10.41.83-28.88t.33-30.37c0-5.93,0-9.73-.17-11.4q-.82-19.78-.82-31.94v-4.89c0-.91.66-1.37,2-1.37a2.63,2.63,0,0,1,1.25.31,1.12,1.12,0,0,1,.58,1.06l.33,20.8.33,9.27q.66,10.89.66,18.41l-.16,3.88a43.44,43.44,0,0,0,19-4.44,32.74,32.74,0,0,0,18.2-22.86,118.3,118.3,0,0,0,2-16.79l.5-7.51a1.91,1.91,0,0,1,2.16-1.51c1.22,0,1.82.42,1.82,1.26v.25c-.33,3.75-.55,6.22-.66,7.39a104,104,0,0,1-2.41,18.85,35.14,35.14,0,0,1-6.23,12.84,32.76,32.76,0,0,1-9.06,8.27,45.83,45.83,0,0,1-12.55,5.38A41.19,41.19,0,0,1,2148.72,2375.59Z" transform="translate(-1189.7 -2129.41)"/><path class="cls-3" d="M2191.44,2323v-5.51c0-1,.66-1.5,2-1.5s2,.49,2,1.5q0,12.9-.34,24.92a21.65,21.65,0,0,0-.17,3l-.33,9.52-.33,16.65-.5,17-.17,3.63q-1,17.3-1,25.81l13.63-28.94,27.92-58.74,6.32-13.53a2,2,0,0,1,2-1c1.21,0,1.82.42,1.82,1.25v.12l-.33,8.27q-2.49,46.35-2.5,74.53,0,12.78.51,25.55c0,.92-.67,1.38-2,1.38s-2-.46-2-1.38q-.49-12.53-.5-25.17,0-26.31,2.17-65.51l.33-8.15-13.13,27.68-27.76,58.75-6.48,13.53a2,2,0,0,1-2,1,2.54,2.54,0,0,1-1.24-.31,1.12,1.12,0,0,1-.58-1.07c-.12-1.17-.17-3.8-.17-7.89q0-9.9.83-25.55l.16-3.89q.68-11.52.67-21.66,0-8.28.5-16.53l.33-12.4Z" transform="translate(-1189.7 -2129.41)"/><path class="cls-3" d="M2308.62,2316.09V2316c0-.93.6-1.39,1.83-1.39s2.05.51,2.15,1.51q1,18.54,2,56.49.49,28.3,1.66,50.85c0,.92-.66,1.38-2,1.38s-2-.46-2-1.38q-.33-4.75-.66-14.84t-.5-17.1l-.16-6.38-.34-12.91q-11,.89-25.43.88-8.47,0-11-.12H2274q0,27.79-.83,52c0,.91-.66,1.37-2,1.37s-2-.46-2-1.37q1-22.68,1-55.75,0-12.27-.17-15.77-.66-22.05-.66-37.21c0-1,.66-1.5,2-1.5s2,.5,2,1.5c0,10.94.07,18,.17,21.05q.51,16.27.5,32.69h.17q2.49.12,11,.12,14.46,0,25.43-.88Q2309.62,2333.51,2308.62,2316.09Z" transform="translate(-1189.7 -2129.41)"/><path class="cls-3" d="M2361.14,2320.22a17.67,17.67,0,0,0-6.31,3.2,22.5,22.5,0,0,0-4.66,5.57,32.35,32.35,0,0,0-4,10,59.49,59.49,0,0,0-1.16,12.4l.17,7q.49,12.77.5,25.42.17,1.89.16,8.52l-.16,7.39a36.43,36.43,0,0,0,1.91,12.78,15.31,15.31,0,0,0,6.9,7.89q4,2.25,10.47,2.25a31.41,31.41,0,0,0,8.89-1.25,15.21,15.21,0,0,0,6.4-3.38,1.79,1.79,0,0,1,1.33-.5,2,2,0,0,1,1.41.5,1.45,1.45,0,0,1,.59,1.12,1.21,1.21,0,0,1-.5,1,16.75,16.75,0,0,1-7.4,3.88,38.83,38.83,0,0,1-10.55,1.38q-8.31,0-13.8-3.26a16.55,16.55,0,0,1-7.48-9.39,42.34,42.34,0,0,1-2-13.79l.17-7.76-.33-17.41-.17-5.88c-.22-5-.33-8.65-.33-10.9q0-14.79,2.5-23.67a23.45,23.45,0,0,1,8.8-12.66,21,21,0,0,1,7-3.38,30,30,0,0,1,8.15-1.13,31.13,31.13,0,0,1,8.48,1.13,22.57,22.57,0,0,1,7,3.26,1.12,1.12,0,0,1,.66,1c0,.33-.24.67-.75,1a2.74,2.74,0,0,1-1.58.5,1.89,1.89,0,0,1-1.16-.37,20.75,20.75,0,0,0-12-3.51A25.72,25.72,0,0,0,2361.14,2320.22Z" transform="translate(-1189.7 -2129.41)"/><path class="cls-3" d="M2443.75,2375.59a20.22,20.22,0,0,1,10.14,14q3,17.16,4.82,36.2v.13a1,1,0,0,1-.58.94,2.72,2.72,0,0,1-1.25.31q-1.83,0-2.16-1.38-2-20.54-4.32-33.19a38.59,38.59,0,0,0-2.32-8.21,13.81,13.81,0,0,0-4.66-5.32q-8.15-5.76-23.11-5.76l-6.48.25q-.16,21.42-1.16,51.11c0,.91-.66,1.37-2,1.37s-2-.46-2-1.37q.5-10.41.83-28.88t.33-30.37c0-5.93-.05-9.73-.17-11.4q-.83-19.78-.82-31.94v-4.89c0-.91.66-1.37,2-1.37a2.6,2.6,0,0,1,1.25.31,1.12,1.12,0,0,1,.58,1.06l.33,20.8.33,9.27q.66,10.89.66,18.41l-.16,3.88a43.51,43.51,0,0,0,19-4.44,32.82,32.82,0,0,0,18.2-22.86,120,120,0,0,0,2-16.79l.5-7.51a1.91,1.91,0,0,1,2.16-1.51q1.83,0,1.83,1.26v.25c-.34,3.75-.56,6.22-.67,7.39a104,104,0,0,1-2.41,18.85,35.14,35.14,0,0,1-6.23,12.84,32.76,32.76,0,0,1-9.06,8.27,45.83,45.83,0,0,1-12.55,5.38A41.19,41.19,0,0,1,2443.75,2375.59Z" transform="translate(-1189.7 -2129.41)"/><path class="cls-3" d="M2535.34,2340.64l-.16,9.39.16,19.29c0,5-.06,8.23-.16,9.64l-.34,13.79V2398a89.22,89.22,0,0,1-.83,13.4,17.46,17.46,0,0,1-3.82,8.77,19.66,19.66,0,0,1-9.31,6,39,39,0,0,1-11.63,1.75,30.55,30.55,0,0,1-10.81-2,16.55,16.55,0,0,1-8.31-6.64,24.37,24.37,0,0,1-4.32-11.52,231.77,231.77,0,0,1-2.16-34.45q0-10.65.66-25.8l.17-3.39a71.62,71.62,0,0,1,.83-10.27,24,24,0,0,1,2.66-7.39,18.12,18.12,0,0,1,6.31-6.57,23.1,23.1,0,0,1,8.81-3.57,47.13,47.13,0,0,1,8-.63q10.47,0,15.63,4.39a19.46,19.46,0,0,1,6.73,8.7A33.6,33.6,0,0,1,2535.34,2340.64Zm-12.8,81.54a12.91,12.91,0,0,0,6.32-6.2,27.63,27.63,0,0,0,1.83-10.08v-1.63q0-10.39.66-25.31.17-2.25.17-10.39l-.17-20.92v-6.76a30.86,30.86,0,0,0-2.33-12.78,16.08,16.08,0,0,0-8.14-7.89,21.68,21.68,0,0,0-7.81-1.5l-4.66-.13a22.35,22.35,0,0,0-5.48.63,17.86,17.86,0,0,0-8,4.38,19.34,19.34,0,0,0-5,7.15,35.44,35.44,0,0,0-1.49,11.26v2.76a16.71,16.71,0,0,1-.17,2.63l-.5,13.16q0,19.79.42,31.05a127.36,127.36,0,0,0,1.57,17.54,20.53,20.53,0,0,0,6.32,11.34c3.21,2.88,7.43,4.32,12.63,4.32C2514.4,2424.81,2519,2423.93,2522.54,2422.18Z" transform="translate(-1189.7 -2129.41)"/><path class="cls-3" d="M2563.1,2323v-5.51c0-1,.66-1.5,2-1.5s2,.49,2,1.5q0,12.9-.33,24.92a20.19,20.19,0,0,0-.17,3l-.33,9.52-.34,16.65-.5,17-.17,3.63q-1,17.3-1,25.81l13.63-28.94,27.92-58.74,6.32-13.53a2,2,0,0,1,2-1c1.21,0,1.82.42,1.82,1.25v.12l-.33,8.27q-2.49,46.35-2.49,74.53,0,12.78.5,25.55c0,.92-.67,1.38-2,1.38s-2-.46-2-1.38q-.51-12.53-.5-25.17,0-26.31,2.16-65.51l.33-8.15-13.13,27.68-27.76,58.75-6.48,13.53a2,2,0,0,1-2,1,2.56,2.56,0,0,1-1.24-.31,1.12,1.12,0,0,1-.58-1.07c-.12-1.17-.17-3.8-.17-7.89q0-9.9.83-25.55l.16-3.89q.67-11.52.67-21.66,0-8.28.5-16.53l.34-12.4Zm25.1-17c3,.74,6.48.33,10.47-1.26a2.45,2.45,0,0,1,.83-.13,1.88,1.88,0,0,1,1.16.38,1.1,1.1,0,0,1,.5.88c0,.42-.28.75-.83,1q-8.48,4.26-18.62,0-.66-.37-.66-.87a1.28,1.28,0,0,1,.41-1,1.56,1.56,0,0,1,1.08-.38,1.64,1.64,0,0,1,.83.13C2583.6,2304.77,2585.2,2305.19,2588.2,2306Z" transform="translate(-1189.7 -2129.41)"/></svg>