<svg xmlns="http://www.w3.org/2000/svg" xmlns:xlink="http://www.w3.org/1999/xlink" viewBox="0 0 500 500"><defs><style>.cls-1{fill:none;}.cls-2{fill:#acdbcf;}.cls-3{font-size:122.99px;font-family:Foo-Regular, Foo;}.cls-3,.cls-5{fill:#fffaef;}.cls-4{fill:#631a21;}.cls-6{clip-path:url(#clip-path);}.cls-7{fill:#f4efd7;}.cls-8{fill:#e9a295;}.cls-9{fill:#963720;}.cls-10{fill:#832c34;}.cls-11{fill:#dbeccc;}.cls-12{fill:#3c2a34;}.cls-13{fill:#df9fa1;}.cls-14{fill:#707173;}</style><clipPath id="clip-path"><polygon class="cls-1" points="113.89 175.51 411.33 239.94 407.29 262.18 185.06 218.83 90.94 253.02 88 242.46 168.64 213.4 107.73 199.7 113.89 175.51"/></clipPath></defs><title>logo-404</title><g id="BACKGROUND"><rect class="cls-2" width="500" height="500" rx="250"/></g><g id="OBJECT"><text class="cls-3" transform="translate(176.61 169.83)">404</text><path class="cls-4" d="M200.59,249.64s16.16-43.28,32-43.64-4.23,52.25,7.76,72.5C240.33,278.5,205.45,274.78,200.59,249.64Z"/><path class="cls-4" d="M284.39,298.38s8.89-75.15,25.71-79.67,9.45,74.23,29.25,96.48C339.35,315.19,298.24,328.6,284.39,298.38Z"/><polygon class="cls-5" points="113.89 175.51 411.33 239.94 407.29 262.18 185.06 218.83 90.94 253.02 88 242.46 168.64 213.4 107.73 199.7 113.89 175.51"/><g class="cls-6"><path class="cls-7" d="M133.56,188.14a52.72,52.72,0,0,1-25.24-6.52,1,1,0,0,1-.32-1.37,1,1,0,0,1,1.38-.33c.23.15,23.88,14.43,48.51-.79a1,1,0,0,1,1.37.32,1,1,0,0,1-.32,1.38A47.69,47.69,0,0,1,133.56,188.14Z"/><path class="cls-7" d="M206,229.6a1,1,0,0,1-.81-.41c-25.75-35.63-95.91-38.38-96.61-38.4a1,1,0,0,1-1-1,1,1,0,0,1,1-1c.72,0,71.85,2.82,98.17,39.22a1,1,0,0,1-.81,1.59Z"/><path class="cls-7" d="M258,226.62c-21.4,0-40.43-6.11-55-12.9a174.08,174.08,0,0,1-45.11-30.59,1,1,0,0,1,0-1.42,1,1,0,0,1,1.41,0A172,172,0,0,0,204,211.94C228.67,223.47,266.58,233,306.83,213a1,1,0,1,1,.89,1.79A110.5,110.5,0,0,1,258,226.62Z"/><path class="cls-7" d="M263.8,218.38c-20.29,0-38.38-5.06-52.07-10.57a165.41,165.41,0,0,1-40.59-23.31,1,1,0,1,1,1.28-1.53,164.06,164.06,0,0,0,40.12,23c22.22,8.93,56.26,16.68,92.22,2.86a1,1,0,0,1,.72,1.87A115.41,115.41,0,0,1,263.8,218.38Z"/><path class="cls-7" d="M268.81,212.49c-42,0-65.59-20.57-65.86-20.82a1,1,0,1,1,1.33-1.49c.3.27,31.35,27.25,85.61,18.61a1,1,0,0,1,.32,2A136.92,136.92,0,0,1,268.81,212.49Z"/><path class="cls-7" d="M255.28,241.05a1,1,0,0,1-.46-1.89c.57-.29,57.12-28.79,104.76-19.63a1,1,0,0,1,.79,1.17,1,1,0,0,1-1.17.79c-46.95-9-102.91,19.16-103.47,19.45A1.06,1.06,0,0,1,255.28,241.05Z"/><path class="cls-7" d="M400.52,268.19a1,1,0,0,1-.83-.45c-19.12-28.77-46.81-41.85-82.3-38.89a142,142,0,0,0-48,13.22,1,1,0,0,1-.93-1.78,144.51,144.51,0,0,1,48.68-13.43c24.94-2.09,59.82,3.1,84.19,39.77a1,1,0,0,1-.28,1.39A1,1,0,0,1,400.52,268.19Z"/><path class="cls-7" d="M387.28,269.46a1,1,0,0,1-.87-.5c-13-21.89-34.23-33-63.22-33h-.27a130.81,130.81,0,0,0-40.26,6.79,1,1,0,0,1-.69-1.87A133.07,133.07,0,0,1,322.86,234h.31c29.35,0,51.81,11.75,65,34a1,1,0,0,1-.86,1.51Z"/><path class="cls-7" d="M370.07,267.08a1,1,0,0,1-.88-.51c-.1-.18-10-17.74-27.54-22.2-10.3-2.61-21.25-.27-32.54,7a1,1,0,1,1-1.08-1.68c11.78-7.54,23.26-10,34.12-7.21,18.42,4.68,28.38,22.41,28.79,23.16a1,1,0,0,1-.39,1.36A1.07,1.07,0,0,1,370.07,267.08Z"/><path class="cls-7" d="M413.57,264.3a1,1,0,0,1-.37-.08c-21.9-8.7-36-34.3-36.61-35.39a1,1,0,0,1,.4-1.35,1,1,0,0,1,1.36.4c.14.26,14.37,26.05,35.59,34.49a1,1,0,0,1-.37,1.93Z"/><path class="cls-7" d="M421,261.78a1.21,1.21,0,0,1-.37-.07c-21.9-8.71-36-34.31-36.61-35.4a1,1,0,0,1,1.76-.95c.14.26,14.37,26,35.59,34.49a1,1,0,0,1-.37,1.93Z"/><path class="cls-7" d="M426.51,258.79a1,1,0,0,1-.37-.07c-21.9-8.7-36-34.31-36.61-35.39a1,1,0,1,1,1.76-1c.14.26,14.37,26.06,35.59,34.49a1,1,0,0,1-.37,1.93Z"/><path class="cls-7" d="M190.8,223.54a1,1,0,0,1-.65-.24c-.36-.31-36.34-30.88-73.09-17.34a1,1,0,0,1-.69-1.88c37.88-14,74.72,17.39,75.09,17.7a1,1,0,0,1-.66,1.76Z"/><path class="cls-7" d="M86.5,248.84a1,1,0,0,1-.38-1.92c45-18.68,93-21.31,93.48-21.33a1,1,0,1,1,.1,2c-.48,0-48.09,2.63-92.82,21.18A1,1,0,0,1,86.5,248.84Z"/><path class="cls-7" d="M119.82,227.72c-3,0-3.14-.14-3.4-.39a1,1,0,0,1-.23-1.1,1,1,0,0,1,1.23-.57c1.4.13,13.33.06,25.45-.88,22.43-1.76,24.34-4.85,24.5-5.45.08-.33.07-2.13-8.62-5.36a1,1,0,0,1,.69-1.87c6.82,2.53,9.88,4.69,9.95,7s-2.59,3.34-3.45,3.72c-5.78,2.52-18.66,3.73-28.45,4.31-6.28.37-11.56.49-14.16.53C121.86,227.7,120.71,227.72,119.82,227.72Z"/></g><path class="cls-8" d="M102.8,294.27s27.34-23.3,16-50.93C118.78,243.34,86.91,260.57,102.8,294.27Z"/><path class="cls-5" d="M106.6,277.27s.17-15.59,10.13-28.21C116.73,249.06,116,260.57,106.6,277.27Z"/><path class="cls-8" d="M127.79,135.43s-3.46,35.76,23.92,47.72C151.71,183.15,162.64,148.61,127.79,135.43Z"/><path class="cls-5" d="M136.88,150.3s10.71,11.32,12.33,27.32C149.21,177.62,141.73,168.84,136.88,150.3Z"/><path class="cls-9" d="M162.67,382s-77.85-104-6.31-137.21c60.32-28,67.6,44.29,80.83,17.92,15.7-31.34-1.47-48.44,11.73-56.85,15.08-9.61,35,14.53,29.32,80.78,0,0,26.58,29.67,40.88,10.28s5.21-64.52,13.22-71.65c31.32-27.84,63.3,108.18,20.29,162.24C307.17,444.69,211,445.73,162.67,382Z"/><path class="cls-10" d="M369.12,346.75s-52.43,83.12-127.35,55.87-45.21-52.12-36.31-62.25S240,310.49,227.4,267.08c0,0-6.55-6.57-14.94-15.86s-37.19-25-67.93.7-25.3,79.06,26.8,140.32,127.56,41,158.47,16.7S367,367.14,369.12,346.75Z"/><path class="cls-11" d="M218.85,267.18c8.19,19.07-6.57,47.95-31.32,57.11s-44.75-2-52.95-21,1.74-45.8,25.12-54.58S210.65,248.11,218.85,267.18Z"/><path class="cls-5" d="M217,266.44c7.88,18.34-5.55,45.79-28.54,54.25s-41.81-2.42-49.69-20.77,1.07-43.79,22.79-51.91S209.1,248.09,217,266.44Z"/><path class="cls-12" d="M185.61,281.61a9.54,9.54,0,0,1-5.67,12.24c-4.95,1.81-10.72-.64-12.24-5.68-1.22-4,1.6-8.06,6.54-9.87S183.8,276.66,185.61,281.61Z"/><path class="cls-8" d="M132.12,294.33s23.45-22.26,31.23-16.32-19.73,38.65-19.73,38.65S134.1,309.29,132.12,294.33Z"/><path class="cls-8" d="M200.59,249.64s-27.4,11.29-26.43,21.45c.85,8.81,43.5-6.35,43.5-6.35A33.74,33.74,0,0,0,200.59,249.64Z"/><path class="cls-13" d="M206.26,276.9a4.83,4.83,0,1,1-5.27-4.35A4.82,4.82,0,0,1,206.26,276.9Z"/><path class="cls-13" d="M167.54,301.84a4.83,4.83,0,1,1-5.27-4.35A4.84,4.84,0,0,1,167.54,301.84Z"/><path class="cls-14" d="M181.2,282.14s-5.45,4.14.61,9A14.25,14.25,0,0,1,181.2,282.14Z"/><path class="cls-14" d="M172.51,288.15s6.27-2.72,7.55,5A14.23,14.23,0,0,0,172.51,288.15Z"/><path class="cls-12" d="M178,297.58s7,11,12.51,7.7-4.47-14-4.47-14,3.67,7.88,2.32,9.75C186.18,304,178,297.58,178,297.58Z"/><path class="cls-8" d="M407.85,300s-3.45-35.76-32.61-42.25C375.24,257.79,371.12,293.78,407.85,300Z"/><path class="cls-5" d="M396.09,287.19s-12.69-9.07-17.34-24.46C378.75,262.73,387.77,269.92,396.09,287.19Z"/><path class="cls-7" d="M171.17,340.2l-.27,0a10.48,10.48,0,0,1-7.44-7.56,1,1,0,1,1,2-.4,8.48,8.48,0,0,0,6,6,1,1,0,0,1,.68,1.24A1,1,0,0,1,171.17,340.2Z"/><path class="cls-7" d="M182.71,357.27a.84.84,0,0,1-.27,0,10.47,10.47,0,0,1-7.44-7.56,1,1,0,0,1,2-.4,8.47,8.47,0,0,0,6,6,1,1,0,0,1,.69,1.23A1,1,0,0,1,182.71,357.27Z"/><path class="cls-7" d="M183.26,342.72a1,1,0,0,1-.53-.15,10.51,10.51,0,0,1-5.08-9.35,1,1,0,0,1,1.08-.92,1,1,0,0,1,.91,1.07h0a8.54,8.54,0,0,0,4.14,7.5,1,1,0,0,1-.52,1.85Z"/><path class="cls-7" d="M142.35,323.79a1.16,1.16,0,0,1-.37-.07,10.49,10.49,0,0,1-6.66-8.26,1,1,0,0,1,.9-1.1,1,1,0,0,1,1.09.9h0a8.48,8.48,0,0,0,5.4,6.6,1,1,0,0,1,.57,1.29A1,1,0,0,1,142.35,323.79Z"/><path class="cls-7" d="M147.76,339.7a1,1,0,0,1-.34-.06,10.49,10.49,0,0,1-6.88-8.09,1,1,0,0,1,.87-1.11,1,1,0,0,1,1.12.86,8.5,8.5,0,0,0,5.57,6.46,1,1,0,0,1,.6,1.28A1,1,0,0,1,147.76,339.7Z"/><path class="cls-7" d="M155.79,333.76h-.06a10.47,10.47,0,0,1-8.92-5.74,1,1,0,1,1,1.82-.81,8.51,8.51,0,0,0,7.21,4.56,1,1,0,0,1-.05,2Z"/><path class="cls-7" d="M164.53,346h-.06a10.48,10.48,0,0,1-8.92-5.74,1,1,0,0,1,1.83-.82h0a8.46,8.46,0,0,0,7.2,4.56,1,1,0,0,1-.05,2Z"/><path class="cls-7" d="M156.73,359.22a1,1,0,0,1-.45-.11,10.45,10.45,0,0,1-5.88-8.83,1,1,0,0,1,1-1h0a1,1,0,0,1,1,1,8.46,8.46,0,0,0,4.78,7.06,1,1,0,0,1,.44,1.35A1,1,0,0,1,156.73,359.22Z"/><path class="cls-7" d="M200.88,377.18h-.06a10.47,10.47,0,0,1-8.92-5.74,1,1,0,1,1,1.82-.81,8.51,8.51,0,0,0,7.21,4.55,1,1,0,0,1-.05,2Z"/><path class="cls-7" d="M171.39,361.59a.94.94,0,0,1-.37-.07,10.49,10.49,0,0,1-6.66-8.26,1,1,0,0,1,2-.2h0a8.48,8.48,0,0,0,5.4,6.6,1,1,0,0,1,.57,1.3A1,1,0,0,1,171.39,361.59Z"/><path class="cls-7" d="M170.79,376.4l-.2,0a10.46,10.46,0,0,1-8-7,1,1,0,0,1,1.92-.54,8.48,8.48,0,0,0,6.45,5.58,1,1,0,0,1-.2,2Z"/><path class="cls-7" d="M184.83,371.57h-.06a10.46,10.46,0,0,1-8.92-5.73,1,1,0,1,1,1.82-.82,8.49,8.49,0,0,0,7.21,4.56,1,1,0,0,1,0,2Z"/><path class="cls-7" d="M193.61,384.23h-.06a10.48,10.48,0,0,1-8.92-5.74,1,1,0,0,1,1.83-.82,8.47,8.47,0,0,0,7.21,4.56,1,1,0,0,1-.06,2Z"/><path class="cls-7" d="M184.33,390.6a10.45,10.45,0,0,1-9.22-5.23,1,1,0,0,1,1.77-.92,8.48,8.48,0,0,0,7.45,4.15h0a1,1,0,1,1,0,2Z"/><path class="cls-7" d="M244.47,402.42a10.46,10.46,0,0,1-7.86-3.59,1,1,0,0,1,.17-1.41,1,1,0,0,1,1.4.17h0a8.48,8.48,0,0,0,8.11,2.65,1,1,0,1,1,.38,2A11.55,11.55,0,0,1,244.47,402.42Z"/><path class="cls-7" d="M209.44,391.92h-.13a10.49,10.49,0,0,1-8.48-6.38,1,1,0,0,1,1.88-.68,8.48,8.48,0,0,0,6.86,5.07,1,1,0,0,1-.13,2Z"/><path class="cls-7" d="M199.4,402.38h-.13a10.49,10.49,0,0,1-8.48-6.37,1,1,0,0,1,1.88-.68,8.48,8.48,0,0,0,6.86,5.07,1,1,0,0,1-.13,2Z"/><path class="cls-7" d="M212.76,415.8h-.13a10.49,10.49,0,0,1-8.48-6.38,1,1,0,0,1,1.88-.68,8.5,8.5,0,0,0,6.86,5.08,1,1,0,0,1-.13,2Z"/><path class="cls-7" d="M217.22,405a10.45,10.45,0,0,1-7.87-3.6,1,1,0,0,1,1.57-1.24,8.48,8.48,0,0,0,8.11,2.66,1,1,0,1,1,.38,2A11.45,11.45,0,0,1,217.22,405Z"/><path class="cls-7" d="M222.91,398.49a10.46,10.46,0,0,1-7.86-3.59,1,1,0,1,1,1.57-1.24,8.5,8.5,0,0,0,8.1,2.65,1,1,0,1,1,.38,2A11.45,11.45,0,0,1,222.91,398.49Z"/><path class="cls-7" d="M233.06,411.15a10.4,10.4,0,0,1-7.86-3.6,1,1,0,0,1,.16-1.4,1,1,0,0,1,1.41.16,8.44,8.44,0,0,0,8.1,2.66,1,1,0,1,1,.38,2A11.45,11.45,0,0,1,233.06,411.15Z"/><path class="cls-7" d="M229.19,422.27a10.41,10.41,0,0,1-7.45-3.17,1,1,0,1,1,1.49-1.32h0a8.49,8.49,0,0,0,8.24,2.19,1,1,0,0,1,.5,1.94A11.35,11.35,0,0,1,229.19,422.27Z"/><path class="cls-7" d="M280.84,403.46a10.14,10.14,0,0,1-3.86-.73,1,1,0,0,1,.82-1.83,8.47,8.47,0,0,0,8.42-1.38,1,1,0,0,1,1.24,1.57A10.5,10.5,0,0,1,280.84,403.46Z"/><path class="cls-7" d="M250.24,411.73a10.45,10.45,0,0,1-6.68-2.44,1,1,0,0,1,1.36-1.47,8.44,8.44,0,0,0,8.42,1.34A1,1,0,0,1,254,411,10.89,10.89,0,0,1,250.24,411.73Z"/><path class="cls-7" d="M248,424.57a10.38,10.38,0,0,1-6.68-2.44,1,1,0,1,1,1.35-1.47h0A8.49,8.49,0,0,0,251.1,422a1,1,0,0,1,.69,1.88A10.89,10.89,0,0,1,248,424.57Z"/><path class="cls-7" d="M267,427a10.36,10.36,0,0,1-6.68-2.45,1,1,0,0,1-.06-1.41,1,1,0,0,1,1.41-.06,8.47,8.47,0,0,0,8.42,1.35,1,1,0,0,1,1.28.59,1,1,0,0,1-.59,1.29A11.12,11.12,0,0,1,267,427Z"/><path class="cls-7" d="M263.05,415.88a10,10,0,0,1-3.86-.73,1,1,0,0,1,.82-1.82,8.49,8.49,0,0,0,8.42-1.38,1,1,0,0,1,1.41.16,1,1,0,0,1-.17,1.4A10.4,10.4,0,0,1,263.05,415.88Z"/><path class="cls-7" d="M265.13,407.52a10.2,10.2,0,0,1-3.86-.73,1,1,0,0,1,.82-1.83,8.45,8.45,0,0,0,8.42-1.37,1,1,0,1,1,1.24,1.56A10.48,10.48,0,0,1,265.13,407.52Z"/><path class="cls-7" d="M284.79,413a9.88,9.88,0,0,1-3.86-.74,1,1,0,0,1-.5-1.32,1,1,0,0,1,1.32-.5,8.47,8.47,0,0,0,8.42-1.38,1,1,0,0,1,1.24,1.57A10.48,10.48,0,0,1,284.79,413Z"/><path class="cls-7" d="M282.35,423.73a9.94,9.94,0,0,1-3.3-.53,1,1,0,1,1,.71-1.87h0a8.46,8.46,0,0,0,8.33-1.84,1,1,0,0,1,1.33,1.49A10.41,10.41,0,0,1,282.35,423.73Z"/><path class="cls-7" d="M299,416.56a9.86,9.86,0,0,1-3.3-.54,1,1,0,1,1,.72-1.86,8.51,8.51,0,0,0,8.33-1.85,1,1,0,1,1,1.32,1.49A10.42,10.42,0,0,1,299,416.56Z"/><path class="cls-7" d="M317.26,411.79a9.58,9.58,0,0,1-3.3-.54,1,1,0,1,1,.72-1.86,8.51,8.51,0,0,0,8.33-1.85,1,1,0,0,1,1.33,1.49A10.44,10.44,0,0,1,317.26,411.79Z"/><path class="cls-7" d="M323.2,380.93h-.35a1,1,0,0,1-.92-1.07,1,1,0,0,1,1.07-.92,8.49,8.49,0,0,0,7.43-4.19,1,1,0,0,1,1.7,1A10.48,10.48,0,0,1,323.2,380.93Z"/><path class="cls-7" d="M338.24,371.86h-.35a1,1,0,0,1,.14-2,8.47,8.47,0,0,0,7.43-4.19,1,1,0,1,1,1.71,1A10.52,10.52,0,0,1,338.24,371.86Z"/><path class="cls-7" d="M354.05,360a1,1,0,0,1-.12-2,8.46,8.46,0,0,0,6.5-5.52,1,1,0,0,1,1.87.7,10.46,10.46,0,0,1-8.13,6.81Z"/><path class="cls-7" d="M341.48,384.26h-.35a1,1,0,0,1,.15-2,8.47,8.47,0,0,0,7.43-4.19,1,1,0,0,1,1.7,1A10.48,10.48,0,0,1,341.48,384.26Z"/><path class="cls-7" d="M350,373.94h-.35a1,1,0,0,1,.14-2h0a8.46,8.46,0,0,0,7.43-4.19,1,1,0,0,1,1.38-.33,1,1,0,0,1,.33,1.37A10.49,10.49,0,0,1,350,373.94Z"/><path class="cls-7" d="M297.89,402.71a10,10,0,0,1-3.57-.62,1,1,0,0,1-.53-1.31,1,1,0,0,1,1.3-.54,8.44,8.44,0,0,0,8.37-1.63,1,1,0,1,1,1.29,1.53A10.46,10.46,0,0,1,297.89,402.71Z"/><path class="cls-7" d="M311.57,401h-.35a1,1,0,0,1,.15-2,8.49,8.49,0,0,0,7.43-4.19,1,1,0,0,1,1.71,1A10.52,10.52,0,0,1,311.57,401Z"/><path class="cls-7" d="M310.65,392.4h-.35a1,1,0,0,1,.14-2h0a8.51,8.51,0,0,0,7.44-4.19,1,1,0,0,1,1.37-.33,1,1,0,0,1,.33,1.38A10.5,10.5,0,0,1,310.65,392.4Z"/><path class="cls-7" d="M325.57,390.51a1.81,1.81,0,0,1-.35,0,1,1,0,0,1-.92-1.07,1,1,0,0,1,1.06-.92h0a8.48,8.48,0,0,0,7.44-4.19,1,1,0,0,1,1.37-.33,1,1,0,0,1,.33,1.38A10.52,10.52,0,0,1,325.57,390.51Z"/><path class="cls-7" d="M331.82,400h0a1,1,0,0,1,0-2h0A8.49,8.49,0,0,0,339,393.4a1,1,0,0,1,1.76.94A10.49,10.49,0,0,1,331.82,400Z"/><path class="cls-7" d="M251.47,216.41a1.49,1.49,0,0,1-1.46-1.15c-2.82-11.64-7.53-11.47-7.59-11.47a1.54,1.54,0,0,1-1.62-1.35,1.48,1.48,0,0,1,1.27-1.63c.75-.1,7.4-.55,10.85,13.75a1.5,1.5,0,0,1-1.1,1.81A1.45,1.45,0,0,1,251.47,216.41Z"/><path class="cls-7" d="M257.73,215.81a1.5,1.5,0,0,1-1.46-1.15c-2.81-11.64-7.54-11.47-7.59-11.47a1.52,1.52,0,0,1-1.61-1.34,1.48,1.48,0,0,1,1.27-1.64c.74-.1,7.39-.55,10.85,13.75a1.51,1.51,0,0,1-1.11,1.81A1.45,1.45,0,0,1,257.73,215.81Z"/><path class="cls-7" d="M264.8,215.13a1.51,1.51,0,0,1-1.46-1.14c-2.82-11.66-7.56-11.48-7.58-11.47a1.54,1.54,0,0,1-1.62-1.35,1.47,1.47,0,0,1,1.27-1.63c.74-.1,7.39-.56,10.85,13.74a1.49,1.49,0,0,1-1.11,1.81A1.34,1.34,0,0,1,264.8,215.13Z"/><path class="cls-7" d="M335.16,233.9a1.49,1.49,0,0,1-1.45-1.14c-2.82-11.66-7.57-11.48-7.59-11.48a1.52,1.52,0,0,1-1.62-1.34,1.49,1.49,0,0,1,1.27-1.64c.75-.09,7.4-.55,10.85,13.75a1.49,1.49,0,0,1-1.1,1.81A1.47,1.47,0,0,1,335.16,233.9Z"/><path class="cls-7" d="M341.43,233.3a1.51,1.51,0,0,1-1.46-1.14c-2.82-11.66-7.57-11.47-7.59-11.48a1.53,1.53,0,0,1-1.62-1.34A1.49,1.49,0,0,1,332,217.7c.75-.09,7.4-.55,10.86,13.75a1.5,1.5,0,0,1-1.11,1.81A1.45,1.45,0,0,1,341.43,233.3Z"/><path class="cls-7" d="M348.5,232.63a1.5,1.5,0,0,1-1.46-1.15c-2.79-11.56-7.48-11.47-7.54-11.48a1.5,1.5,0,1,1-.39-3c.74-.1,7.39-.56,10.85,13.74a1.5,1.5,0,0,1-1.11,1.81A1.41,1.41,0,0,1,348.5,232.63Z"/><path class="cls-12" d="M190.48,265.54a4.34,4.34,0,1,1-4.73-3.91A4.34,4.34,0,0,1,190.48,265.54Z"/><path class="cls-12" d="M157.45,286.09a4.34,4.34,0,1,1-4.74-3.91A4.35,4.35,0,0,1,157.45,286.09Z"/></g></svg>