<svg id="Layer_1" data-name="Layer 1" xmlns="http://www.w3.org/2000/svg" viewBox="0 0 665.28 98.91"><defs><style>.cls-1,.cls-2{fill:#456680;stroke:#456680;stroke-linecap:round;stroke-linejoin:round;stroke-width:0.5px;}.cls-2{fill-rule:evenodd;}</style></defs><title>Мир который познается в радость 1</title><path class="cls-1" d="M545.25,379.61h0a.31.31,0,0,1,.32-.07.37.37,0,0,1,.21.23.26.26,0,0,1-.08.29c-2.57,2.29-5.56,4.36-9,4.85a8.24,8.24,0,0,1-1.32,0,2.33,2.33,0,0,1-1.24-.42c-2.22-1.28-2.88-6.2-3.16-6.25-.64.39-3.77,6.19-4.33,6.91s-1.92,3-2.43,3-.46-8.33-.37-10.35c-1.44,1.89-6.14,8.75-6.74,9.6-.45.69-1.9,2.4-2.26,2.22-.61-.32-.34-2-.28-2.35.17-.9.36-1.8.59-2.69.07-.23.14-.46.19-.71s.09-.38.15-.59c.26-1,.51-1.91.75-2.75.17-.48,3.79-3.65,4.09-3.39-.51,0-5.46,9.45-4.72,10.34-.19.6,6.53-10,6.66-10.25.51-.86,5.19-3.35,5.14-2.9-.34.86-2.13,4.17-2.21,5.65a33.88,33.88,0,0,0-.09,5.66c.39-.41,3.29-8.78,4.1-9.51a13,13,0,0,1,3.87-1.89c-.73-.07-1.81,9.51,2.37,10.08a11.37,11.37,0,0,0,3.75-.56C540.47,383.42,544.5,380.36,545.25,379.61Z" transform="translate(-93.75 -326.74)"/><path class="cls-1" d="M183.09,330.23c-6.47,14.17-13.41,28.69-17.38,41-8,31.28-6.42,48-4.32,52.72.27.32-.61.87-1.43,1.38-4.89,2.47-.84-52.4,6.82-64.84-4.89,12-31.57,49.86-31.47,45.14a2.5,2.5,0,0,1-1.41-1.93,14,14,0,0,1-.29-3.34c0-1.23,3.17-15.42,3.84-19.54.4-2.62,11.39-40.66,12.21-46.62-2.11,5.27-54.09,72.24-55.47,69.87a6.65,6.65,0,0,1-.08-2.86c1.94,2.47,53.38-65,54.44-70.28,0,0,4.25-3.65,5.89-3.93-2,8-20,74.15-18.64,76.5,0,0,12-14.94,14.39-18.72s4.89-6.75,7.27-11.36c3.2-4.35,19.3-36.92,19-37.67C176.7,335.53,182.89,330,183.09,330.23Z" transform="translate(-93.75 -326.74)"/><path class="cls-1" d="M196.74,379.92h0c.58-.17.83-.11.73.18a4,4,0,0,1-.9,1.26,21.87,21.87,0,0,1-1.74,1.72c-.65.59-1.24,1.1-1.75,1.54s-.83.7-.94.77c-.44.32-.88.66-1.32,1a37.48,37.48,0,0,1-3.67,2.65c-1.21.74-4.65,3.48-6.34,2-.85-.74.56-7.73.78-8.61a29.88,29.88,0,0,1-3.68,3.78c-1.12.67-1.89,1.1-2.54.69a2.86,2.86,0,0,1-1.24-2.05,6.39,6.39,0,0,1,.14-3.1,13.39,13.39,0,0,1,1.13-3c.28-.42,4.23-3.57,4.54-3.37s-6.27,7.67-4.15,10.91c1.77,1.09,10-10.94,11.06-10-3.15,3.22-4.91,7.72-5.74,13.35-.38,3.12,5.5-1.09,7.36-2.36a46,46,0,0,0,5.18-4.1A24.4,24.4,0,0,0,196.74,379.92Z" transform="translate(-93.75 -326.74)"/><path class="cls-1" d="M201.28,386.85l-4.45.73,0,0h0v0a47,47,0,0,1-3.16,9.23,116.47,116.47,0,0,1-7.22,12.39.51.51,0,0,1-.35.25.56.56,0,0,1-.44-.06c-.08,0,6.34-9.87,8-15.22s3.26-12.89,2.83-15.41c.15-.47,2.64-5.12,2.95-4.88s-1.82,9.07-1.95,9.52c1.07-1.34,4-5.8,7.94-5.38,1.46.16,3.07,2.41,2.22,4.69C206.71,385.45,202.61,386.46,201.28,386.85Zm-.47-5.68a14.85,14.85,0,0,0-3.52,4.6c-.1,1.41,10.18-.85,9.54-4.28C206.47,379.51,204.55,377.33,200.81,381.17Z" transform="translate(-93.75 -326.74)"/><path class="cls-1" d="M222,390.37h0a.8.8,0,0,0-.21-.76.84.84,0,0,0-.74-.26c-.34.08-.55.21-.63.41a1.59,1.59,0,0,0-.13.66,2.71,2.71,0,0,1-.17.91,1.9,1.9,0,0,1-.81.89.53.53,0,0,0-.33.45.57.57,0,0,0,.2.47.55.55,0,0,0,.55.12,3.3,3.3,0,0,0,.84-.42A3.55,3.55,0,0,0,222,390.37Z" transform="translate(-93.75 -326.74)"/><path class="cls-1" d="M256.34,379.63h0c.21.16.16.47-.13.92A9.45,9.45,0,0,1,255,382c-.52.53-1,1-1.51,1.45s-.82.73-1,.88a18.05,18.05,0,0,1-4.88,2.81,18.7,18.7,0,0,1-5.4,1.15c-1.81.12-6,.5-6.15.93-.18.67-.38,1.35-.59,2a.56.56,0,0,1-.29.42.81.81,0,0,1-.49.12.7.7,0,0,1-.45-.79,4.27,4.27,0,0,1,.3-1.18,4.49,4.49,0,0,0,.23-.84c.06-.23.12-.45.2-.68l2.52-8.79a9.53,9.53,0,0,1,1.28-2.05c.35-.13,1.79-1.69,2-1.42l-1.29,3.22-1,2.62a15.82,15.82,0,0,1,2-2.11c.78-.73,1.56-1.43,2.33-2.08.3-.26,3.33-1.81,3.5-1.53-.28-.31-10.34,9.6-10.07,12a16.59,16.59,0,0,0,3.3-.34,33.27,33.27,0,0,0,8.1-1.76,17.89,17.89,0,0,0,8-6.34.53.53,0,0,1,.32-.2A.46.46,0,0,1,256.34,379.63Z" transform="translate(-93.75 -326.74)"/><path class="cls-1" d="M275.21,380h0c.06.22-.07.4-.38.53-1.73,1.38-12.7-.56-12.87-1.15a7.68,7.68,0,0,1-.57,5.74,9.9,9.9,0,0,1-2.55,3.22,3.36,3.36,0,0,1-3.09.68,3.45,3.45,0,0,1-1.8-2.56,8.93,8.93,0,0,1,1.83-6.77,8.06,8.06,0,0,1,2-1.88c.26-.16.52-.31.8-.45s1.25-.59,1.93-.1c1.72,1.25,11.17,3.92,14.14,2.46.08,0,.55-.33.63-.29S275.17,380,275.21,380ZM256,387.55c1.41.61,3.14-1,4-2.3,1.12-1.68,1.76-4.26.75-6-.28-.49-1.58-.67-1.58-.67C255.12,379.5,254.36,387.07,256,387.55Z" transform="translate(-93.75 -326.74)"/><path class="cls-1" d="M303.28,379.23h0a.29.29,0,0,1,.32-.07.37.37,0,0,1,.21.23.26.26,0,0,1-.08.29c-2.57,2.28-5.56,4.36-9,4.84a7.22,7.22,0,0,1-1.32.06,2.33,2.33,0,0,1-1.24-.42c-2.22-1.29-2.88-6.2-3.16-6.26-.64.39-3.77,6.2-4.33,6.91s-1.93,3-2.43,3-.46-8.33-.37-10.36c-1.44,1.89-6.14,8.76-6.74,9.6s-1.9,2.41-2.26,2.22c-.61-.31-.34-2-.28-2.34.16-.9.36-1.8.59-2.7a7.15,7.15,0,0,0,.19-.7c0-.19.09-.38.14-.59.27-1,.52-1.91.76-2.75.17-.49,3.79-3.65,4.09-3.39-.51,0-5.46,9.44-4.72,10.33-.19.6,6.53-10,6.66-10.24.51-.86,5.19-3.36,5.13-2.91-.33.86-2.12,4.17-2.2,5.66a33.88,33.88,0,0,0-.09,5.66c.39-.42,3.29-8.78,4.1-9.51a13.26,13.26,0,0,1,3.88-1.9c-.74-.06-1.82,9.51,2.36,10.09a11.68,11.68,0,0,0,3.75-.56C298.5,383,302.53,380,303.28,379.23Z" transform="translate(-93.75 -326.74)"/><path class="cls-1" d="M344.45,378.5h0c.11-.11.31-.9.42-.86s.11.86.16,1a.32.32,0,0,1-.1.34,33.68,33.68,0,0,1-5.52,4.32c-2.6,1.45-8,3-9.38,2.5a3.92,3.92,0,0,0,1.65-1.24c2.09.31,7.58-1.84,9.8-3.77A28,28,0,0,0,344.45,378.5Z" transform="translate(-93.75 -326.74)"/><path class="cls-1" d="M368.78,374.29c0-.09,1.87-2.4,1.91-2,0,.27-.55,1.42.24,1.76s2.78-.15,3-.17C373.79,374.59,368.65,375.86,368.78,374.29Z" transform="translate(-93.75 -326.74)"/><path class="cls-1" d="M452.78,383.64c1.48-.85,6.86-4.48,6.54-4.21s-1.43,2.31-1.53,2.42c-.71.64-1.38.64-3,1.68s-12.8,5.78-13.34,6a4.83,4.83,0,0,1,.25,1,7.91,7.91,0,0,1-.39,3.56l-.14.37c-.3.8-.65,1.61-1,2.41-.28.62-.56,1.17-.84,1.66-1.48,2.79-5.75,9.43-6.11,9.47s-3.64,2-3.9,1.78c1.4-.12,13-19.2,9.37-20.1-.38-.09-.56-.66-.91-.92a.93.93,0,0,1-.33-1.32,8.18,8.18,0,0,1,1.37-1.66,14.72,14.72,0,0,0,2-1.77,7.47,7.47,0,0,0,1.37-2.94,2.51,2.51,0,0,0-1.22-2.28c-.53-.4-1.08-.07-2.18.81-.26.2-1.37.38-1.57.61-.08.07-.21-.1-.31-.12a.25.25,0,0,1-.14-.42,5.63,5.63,0,0,1,3.59-2c.91-.09,1.84-.2,2.33.64a5.36,5.36,0,0,1,.67,3.45,12.58,12.58,0,0,1-1.54,3.23,21.69,21.69,0,0,1-1.75,2.48,3.53,3.53,0,0,1,.9,1C441.57,388.13,451.3,384.48,452.78,383.64Z" transform="translate(-93.75 -326.74)"/><path class="cls-1" d="M517.33,379.83h0a.54.54,0,0,1-.07.76,6.29,6.29,0,0,1-.82.81,3.74,3.74,0,0,0-.48.45,28.78,28.78,0,0,1-3.54,2.53A45.3,45.3,0,0,1,507,387.3a18.29,18.29,0,0,1-5.39,1.63c-1.63.19-2.84-.25-3.43-1.32-1.5-2.71,1-8.34,1.75-9.13,1.18-1.73,7.09-4.63,7.29-3.54.38.62-1.13,4-3.09,5.67s-4.75,4.72-4.66,5.54a1.84,1.84,0,0,0,2.15,1.74,12.8,12.8,0,0,0,4.49-1.11,41,41,0,0,0,4.79-2.31,29.82,29.82,0,0,0,3.06-1.91,14,14,0,0,0,2.84-2.64.35.35,0,0,1,.27-.16A.38.38,0,0,1,517.33,379.83Zm-17.09,2.58c2.08-1.6,4.22-3.12,4.82-5.57C502.54,377.47,500.26,380.76,500.24,382.41Z" transform="translate(-93.75 -326.74)"/><path class="cls-1" d="M563.5,381.42c-1,.11-1.42-.28-1.1-1.16.32-2.21,5.78-4.72,5.62-3.36C568.69,378.72,564.79,381.7,563.5,381.42Zm1.12,1a29.94,29.94,0,0,1-2.75,4.29c-.92,1.17-1.64,1.68-2.17,1.55a2.88,2.88,0,0,1-1.9-2.95c-.2.21-.83,1.17-.72,1.39s1.72,2.75,3.48,2.36a5.22,5.22,0,0,0,1.31-1.05,12,12,0,0,0,1.18-1.52l1.26-2.08,1.35-2.27c-.53.47-1.53,7.76,3.45,6.6a31.13,31.13,0,0,0,4.44-1.87q2.22-1.14,4.32-2.46c.12-.06.42-.25.93-.58s1.07-.72,1.7-1.17,1.2-.91,1.73-1.34a4.4,4.4,0,0,0,1-1c.14-.26,0-.35-.49-.3a27.15,27.15,0,0,1-5.09,4,42.16,42.16,0,0,1-5.8,3c-.27.09-.54.19-.82.31a9.35,9.35,0,0,1-1.23.33,2,2,0,0,1-1.55-.33c-2.85-1.93,1.79-11.42,2.77-12.56-1-.34-6.09.95-8,2.81a11.91,11.91,0,0,0-1.43,1.52,2.71,2.71,0,0,0-.59,1.71,1.63,1.63,0,0,0,1.23,1.63,3.69,3.69,0,0,0,2.59-.31A3.59,3.59,0,0,0,564.62,382.43Z" transform="translate(-93.75 -326.74)"/><path class="cls-1" d="M593.72,382.47c9.93-2.46,4.12,6,2.76,9.18a27.5,27.5,0,0,1-3.12,4.5l-.08.08c-.32.32-.76.72-1.31,1.18a7.34,7.34,0,0,1-1.66,1.1c-.55.26-2.24.57-2.56.23-.64-1.31-.21-4,.45-7s6.06-17.51,7.46-20.67,5.45-11.42,6.79-11.87c.18-.62,8.34-6.43,8.51-5.6C613.7,356.36,593.66,382.49,593.72,382.47Zm9-20.78-2.86,4.75L594.8,378c2.9-3.8,11.8-15.93,13.13-20.41C608,357.47,603.09,360.94,602.74,361.69Zm-5.51,23.84c.09-3.14-5.13.8-6.2,5.15-.35,1.05-2.23,5.82-1.07,6.68C592.08,397.16,597.92,387.66,597.23,385.53Z" transform="translate(-93.75 -326.74)"/><path class="cls-1" d="M672.69,377.44h0a.28.28,0,0,1,.3-.08.35.35,0,0,1,.21.2.29.29,0,0,1-.06.3c-1.53,1.48-4.87,3.64-7.18,5.4a42.74,42.74,0,0,1-7.23,4.49c-2.52,1.24-2.93.65-1.08-.18a40.5,40.5,0,0,0,5.28-2.85l.48-.31a71.24,71.24,0,0,0,7.42-5.74C671.47,378.11,672.13,378.08,672.69,377.44Z" transform="translate(-93.75 -326.74)"/><path class="cls-1" d="M751,390.53h0a1,1,0,0,1,.53-.89,1.1,1.1,0,0,1,1,0,1,1,0,0,1,0,1.79,1.1,1.1,0,0,1-1,0A1,1,0,0,1,751,390.53Z" transform="translate(-93.75 -326.74)"/><path class="cls-1" d="M321.84,380.35h0c.05.22-.07.4-.38.53-1.73,1.38-12.7-.56-12.87-1.15a7.69,7.69,0,0,1-.57,5.74,9.8,9.8,0,0,1-2.56,3.22,3.32,3.32,0,0,1-3.09.67,3.42,3.42,0,0,1-1.79-2.55A8.92,8.92,0,0,1,302.4,380a8.28,8.28,0,0,1,2-1.88,8.74,8.74,0,0,1,.8-.45c.31-.12,1.25-.6,1.93-.1,1.71,1.24,11.17,3.92,14.14,2.46.07,0,.55-.33.62-.29S321.8,380.27,321.84,380.35Zm-19.25,7.52c1.4.61,3.14-1,4-2.3,1.12-1.68,1.76-4.26.75-6-.29-.5-1.58-.67-1.58-.67C301.74,379.82,301,387.38,302.59,387.87Z" transform="translate(-93.75 -326.74)"/><path class="cls-1" d="M326.55,387.29l-4.46.73,0,0h0v0a46.89,46.89,0,0,1-3.15,9.23,117.49,117.49,0,0,1-7.22,12.39.54.54,0,0,1-.35.25.56.56,0,0,1-.44-.06c-.08,0,6.34-9.87,8-15.23s3.26-12.88,2.83-15.4c.15-.47,2.64-5.12,3-4.88s-1.82,9.07-2,9.52c1.06-1.35,4-5.81,7.94-5.38,1.45.15,3.07,2.41,2.22,4.69C332,385.89,327.88,386.89,326.55,387.29Zm-.47-5.68a14.93,14.93,0,0,0-3.53,4.6c-.09,1.41,10.19-.85,9.55-4.28C331.73,380,329.82,377.77,326.08,381.61Z" transform="translate(-93.75 -326.74)"/><path class="cls-1" d="M384.59,382.27h0c.58-.16.82-.1.73.19a4.41,4.41,0,0,1-.9,1.26q-.76.82-1.74,1.71c-.66.59-1.24,1.11-1.76,1.55s-.83.7-.94.77l-1.32,1a36.19,36.19,0,0,1-3.66,2.65c-1.22.74-4.65,3.48-6.35,2-.84-.74.56-7.73.79-8.61a29.21,29.21,0,0,1-3.69,3.77c-1.12.68-1.88,1.11-2.54.7a2.88,2.88,0,0,1-1.23-2,6.39,6.39,0,0,1,.14-3.1,12.57,12.57,0,0,1,1.13-3c.28-.41,4.23-3.56,4.53-3.36s-6.27,7.66-4.14,10.91c1.76,1.09,10-10.94,11.05-10.06-3.15,3.22-4.9,7.73-5.73,13.35-.39,3.13,5.49-1.08,7.35-2.35a47.3,47.3,0,0,0,5.19-4.1A23.67,23.67,0,0,0,384.59,382.27Z" transform="translate(-93.75 -326.74)"/><path class="cls-1" d="M733.62,380.35h0a.31.31,0,0,1,.32-.07.34.34,0,0,1,.21.23.26.26,0,0,1-.08.29c-2.56,2.29-5.56,4.36-9,4.85a8.24,8.24,0,0,1-1.32.05,2.33,2.33,0,0,1-1.24-.42c-2.22-1.28-2.88-6.2-3.16-6.26-.64.4-3.77,6.2-4.33,6.92s-1.92,3-2.43,3-.46-8.33-.37-10.35c-1.44,1.89-6.14,8.75-6.74,9.6-.45.69-1.9,2.4-2.26,2.22-.61-.32-.34-2-.28-2.35.17-.9.36-1.8.59-2.69.07-.23.14-.46.2-.71a5,5,0,0,1,.14-.59c.26-1,.51-1.91.75-2.75.17-.49,3.79-3.65,4.09-3.39-.51,0-5.46,9.45-4.72,10.34-.19.6,6.53-10,6.66-10.25.51-.86,5.19-3.35,5.14-2.9-.34.86-2.13,4.17-2.21,5.65a33.88,33.88,0,0,0-.09,5.66c.39-.41,3.29-8.78,4.1-9.51A13.09,13.09,0,0,1,721.5,375c-.74-.07-1.82,9.51,2.36,10.08a11.64,11.64,0,0,0,3.75-.56C728.84,384.16,732.87,381.1,733.62,380.35Z" transform="translate(-93.75 -326.74)"/><path class="cls-1" d="M605.2,410.14c-.08-.05,6.34-9.87,8-15.23S616.47,382,616,379.5c.15-.46,2.64-5.11,3-4.87s-1.82,9.07-2,9.52c1.07-1.35,4-5.81,7.94-5.38,1.46.15,3.07,2.41,2.22,4.69a4.09,4.09,0,0,1-.89,1.45c2.3.07,7-2,9.12-3.82.75-.58-.06,1.59-1.74,2.54-2.43,1.35-7.33,2.78-9.07,2.57a17.15,17.15,0,0,1-3.8,1.45l-4.45.73,0,0h0v0a46.81,46.81,0,0,1-3.16,9.24A116.2,116.2,0,0,1,606,409.94a.5.5,0,0,1-.35.26A.56.56,0,0,1,605.2,410.14Zm21.17-27.85c-.36-2-2.28-4.16-6-.33a14.89,14.89,0,0,0-3.52,4.61C616.73,388,627,385.71,626.37,382.29Z" transform="translate(-93.75 -326.74)"/><path class="cls-1" d="M438.07,379.5h0c.06.23-.07.41-.38.54-1.73,1.37-12.7-.56-12.87-1.15a7.74,7.74,0,0,1-.56,5.74,9.8,9.8,0,0,1-2.56,3.21,3.36,3.36,0,0,1-3.09.68,3.43,3.43,0,0,1-1.8-2.56,8.93,8.93,0,0,1,1.83-6.77,8,8,0,0,1,2-1.87,7.9,7.9,0,0,1,.8-.46c.31-.12,1.25-.59,1.93-.1,1.72,1.25,11.18,3.93,14.14,2.47.08,0,.55-.34.63-.3S438,379.43,438.07,379.5ZM418.82,387c1.41.62,3.14-1,4-2.29,1.11-1.68,1.75-4.27.74-6-.28-.5-1.58-.67-1.58-.67C418,379,417.22,386.54,418.82,387Z" transform="translate(-93.75 -326.74)"/><path class="cls-1" d="M392.77,387.7c.17-.9,2.57-6.67,2.81-7.51.17-.49,3.66-2.71,4-2.45l-2.89,5.48c1.8-2,3.91-4.23,4.33-4.61a13.38,13.38,0,0,1,3.88-1.9c-.73-.06-1.82,9.52,2.37,10.09a12.28,12.28,0,0,0,3.83-.82A30,30,0,0,0,417,382c.11-.09.86-.89,1-.84s-.47.89-.43,1a.25.25,0,0,1-.09.29c-2.56,2.29-5.56,4.36-9,4.85a8.24,8.24,0,0,1-1.32.05,2.27,2.27,0,0,1-1.23-.42c-2.22-1.28-2.9-7.38-3.18-7.43a47.57,47.57,0,0,0-7.44,6.6,19.24,19.24,0,0,0-2.23,3.91C392.45,389.73,392.71,388.06,392.77,387.7Z" transform="translate(-93.75 -326.74)"/><path class="cls-1" d="M758.78,361.91l-6.48,26.57c-.61-.68-.34-4.29-.29-5.06.17-1.94,2.57-14.41,2.81-16.23C755,366.14,758.48,361.34,758.78,361.91Z" transform="translate(-93.75 -326.74)"/><path class="cls-2" d="M340.07,389.12c-.86-.67-.28-2.59-.13-3,.36-1.29,2.54-6.55,2.77-7.35.17-.49,3.66-2.71,4-2.45l-2.65,5a4.43,4.43,0,0,1,2.67-.54c1.42.16,3,2.41,2.17,4.7.2-.19.39-.4.58-.62s.49-.62.74-.95c.3-1.07.86-2.36,1.6-4.24a12.43,12.43,0,0,1,1.15-2.52,11.7,11.7,0,0,1,3.77-2.35c.73-.1-2.74,4.27-3.72,7.1a17.85,17.85,0,0,0-1.19,3,5.37,5.37,0,0,0-.42,2.16,3,3,0,0,0,1.7,1.13,5,5,0,0,0,3.4-.78,23.84,23.84,0,0,0,5-3.82,28.6,28.6,0,0,0,2.11-2.3c.15-.15,1.38-.57,1.44-.44s-.68.82-.83,1l-1.23,1.18a40,40,0,0,1-4.3,3.73,9.05,9.05,0,0,1-5,2.25c-1.4-.07-3-.54-3.41-1.74a5.37,5.37,0,0,1-.31-1.83,15.27,15.27,0,0,1-2.54,2.32,9.67,9.67,0,0,1-4.09,1.73A5.4,5.4,0,0,1,340.07,389.12Zm8-4.73c-.32-1.77-1.92-3.79-5-1.17l-2.13,4-.09.25C340.73,388.93,348.51,387,348,384.39Z" transform="translate(-93.75 -326.74)"/><path class="cls-1" d="M689.6,379.81h0c0,.23-.07.41-.38.54-1.73,1.37-12.7-.56-12.87-1.15a7.69,7.69,0,0,1-.57,5.74,9.67,9.67,0,0,1-2.56,3.21,3.35,3.35,0,0,1-3.09.68,3.44,3.44,0,0,1-1.79-2.56,9,9,0,0,1,1.82-6.77,8.24,8.24,0,0,1,2-1.87,7.9,7.9,0,0,1,.8-.46c.31-.12,1.25-.59,1.93-.1,1.71,1.25,11.17,3.93,14.14,2.47.07,0,.55-.33.62-.3S689.56,379.74,689.6,379.81Zm-19.25,7.52c1.4.62,3.14-1,4-2.29,1.12-1.68,1.76-4.27.75-6-.29-.5-1.58-.67-1.58-.67C669.51,379.28,668.75,386.85,670.35,387.33Z" transform="translate(-93.75 -326.74)"/><path class="cls-2" d="M731.46,387.94c-.85-.67-.27-2.59-.13-3,.36-1.28,2.54-6.54,2.78-7.34.16-.49,3.65-2.71,3.95-2.45l-2.65,5a4.42,4.42,0,0,1,2.67-.54c1.42.16,3,2.41,2.17,4.7l-.07.16a7.52,7.52,0,0,1-1.39,2.07,9.79,9.79,0,0,1-4.09,1.73A5.43,5.43,0,0,1,731.46,387.94Zm8-4.74c-.32-1.76-1.92-3.78-5-1.16l-2.13,4-.09.25C732.13,387.75,739.9,385.78,739.44,383.2Z" transform="translate(-93.75 -326.74)"/><path class="cls-1" d="M455.15,387.9c.16-.9,2.56-6.68,2.81-7.52.17-.49,3.65-2.71,4-2.45l-3.77,7.18c2.06-1.43,3.85-2.61,4.33-2.87a4.81,4.81,0,0,0,2.51-3.85l0-.21a1.36,1.36,0,0,0,0-.17l0,0,0-.2a12.71,12.71,0,0,1,2.35-1c-.74-.06-1.82,9.52,2.37,10.09a12.28,12.28,0,0,0,3.83-.82,12.71,12.71,0,0,0,2.29-1.27c1.51-1,1.56-.11.16.73a13.66,13.66,0,0,1-5.05,1.9,8.24,8.24,0,0,1-1.32.05,2.27,2.27,0,0,1-1.23-.42c-1.64-.95-2.42-3.08-2.84-5.21-1.14.6-5.59,3.3-8.14,4.69l-1.91,3.63C454.82,389.93,455.09,388.25,455.15,387.9Z" transform="translate(-93.75 -326.74)"/><path class="cls-1" d="M477.5,388.75a3.41,3.41,0,0,1-1.8-2.55,8.93,8.93,0,0,1,1.83-6.77,8.06,8.06,0,0,1,2-1.88c.26-.16.52-.31.8-.45a2.64,2.64,0,0,1,2.14.14l1.17.95a3.45,3.45,0,0,1,.31-1.25,9.43,9.43,0,0,1,2.67.1c.25.23-1.46,3.48-1.48,3.85a9.3,9.3,0,0,0-.59,3.86,2.73,2.73,0,0,0,1.8,2.53,11.92,11.92,0,0,0,5.61-1.57,38.41,38.41,0,0,0,5.06-3.26,8.28,8.28,0,0,0,1.93-2,.3.3,0,0,1,.31-.17.45.45,0,0,1,.31.18.28.28,0,0,1,0,.35,10.43,10.43,0,0,1-1.88,2c-.71.59-1.45,1.14-2.22,1.67l-.36.25a27.76,27.76,0,0,1-5.37,2.94,6.53,6.53,0,0,1-4.48.39c-1.23,0-1.76-1.71-1.92-3.75-.07.17-.15.34-.23.5a7.38,7.38,0,0,1-2.55,3.22A3.84,3.84,0,0,1,477.5,388.75Zm4.19-3.79c1.12-1.68,1.76-4.26.75-6-.28-.49-1.58-.67-1.58-.67-4,.93-4.75,8.49-3.15,9C478.89,388.24,480.85,386.24,481.69,385Z" transform="translate(-93.75 -326.74)"/><path class="cls-1" d="M635.85,388.23a3.41,3.41,0,0,1-1.8-2.55,8.93,8.93,0,0,1,1.83-6.77,8.06,8.06,0,0,1,2-1.88c.26-.16.52-.32.8-.46a2.69,2.69,0,0,1,2.14.15l1.17.94a3.27,3.27,0,0,1,.31-1.24,9.43,9.43,0,0,1,2.67.1c.26.22-1.46,3.48-1.48,3.85a9.27,9.27,0,0,0-.59,3.86,2.75,2.75,0,0,0,1.8,2.53,11.92,11.92,0,0,0,5.61-1.57,39.46,39.46,0,0,0,5.06-3.26c.76-.56.78.2.07.79a17,17,0,0,1-1.62,1.29l-.36.25a27.4,27.4,0,0,1-5.37,2.93,6.48,6.48,0,0,1-4.48.4,4.52,4.52,0,0,1-1.92-3.75c-.07.17-.15.33-.23.5a7.44,7.44,0,0,1-2.55,3.22A3.88,3.88,0,0,1,635.85,388.23Zm4.2-3.79c1.11-1.68,1.75-4.26.74-6-.28-.5-1.58-.67-1.58-.67-4,.92-4.75,8.49-3.15,9C637.24,387.72,639.2,385.72,640.05,384.44Z" transform="translate(-93.75 -326.74)"/><path class="cls-1" d="M547.68,388.73c3.93-.44,6.47-1.56,10.14-3.41a3,3,0,0,0,0,1.56c-.47-.08-7.69,2.63-10.85,3a2.71,2.71,0,0,1-3.07-1.32c-1.34-2.71.9-8.34,1.58-9.13,1-1.73,6.8-4.93,7-3.84.33.62-2.39,2.32-4.23,3.87-2.76,2.33-3.26,6.82-3.17,7.64C545.19,388.32,546.53,388.77,547.68,388.73Z" transform="translate(-93.75 -326.74)"/><path class="cls-1" d="M705,382h0c.19.22.17.48-.07.76a5.82,5.82,0,0,1-.83.81,5.93,5.93,0,0,0-.48.45,29.3,29.3,0,0,1-3.53,2.53,45.3,45.3,0,0,1-5.42,2.92,18.26,18.26,0,0,1-5.4,1.63c-1.63.18-2.83-.25-3.42-1.32-1.51-2.71,1-8.34,1.75-9.13,1.18-1.73,7.6-4.93,7.81-3.85.37.63-2.67,2.33-4.72,3.88-3.09,2.33-3.64,6.81-3.55,7.64a1.83,1.83,0,0,0,2.15,1.74,13.25,13.25,0,0,0,4.49-1.11,41.76,41.76,0,0,0,4.79-2.32,29.82,29.82,0,0,0,3.06-1.91,14.23,14.23,0,0,0,2.84-2.64.37.37,0,0,1,.26-.15A.36.36,0,0,1,705,382Z" transform="translate(-93.75 -326.74)"/><path class="cls-1" d="M646.28,415.94c4.06-6.46,9.11-14.64,11-21.43.51-1.73,1.68-5,2.44-6.84l-.26.17a3.89,3.89,0,0,1-3.09.68,3.5,3.5,0,0,1-1.8-2.56,10.66,10.66,0,0,1,1.52-6.94c1.42-2.57,5.42-3.73,7.27-2.53.92-.28,3.11-1.06,3-.71-.37,6.2-15,38-18.32,40a1.13,1.13,0,0,1-.85.49A1.14,1.14,0,0,1,646.28,415.94Zm14.25-31.21c1.12-1.68,1.76-4.27.75-6-.28-.5-1.58-.67-1.58-.67-4,.92-4.75,8.49-3.15,9C657.73,388,659.69,386,660.53,384.73Z" transform="translate(-93.75 -326.74)"/></svg>